<svg xmlns="http://www.w3.org/2000/svg" viewBox="0 0 500 300" width="500" height="300" style="background:#ffffff">
  <defs>
    <style>
      text { font-family: 'Segoe UI', Arial, Helvetica, sans-serif; }
    </style>
    <marker id="arrowG" markerWidth="8" markerHeight="6" refX="8" refY="3" orient="auto">
      <path d="M0,0 L8,3 L0,6" fill="#2ecc71" />
    </marker>
    <marker id="arrowGrev" markerWidth="8" markerHeight="6" refX="0" refY="3" orient="auto">
      <path d="M8,0 L0,3 L8,6" fill="#2ecc71" />
    </marker>
  </defs>
  <text x="250" y="22" text-anchor="middle" font-size="16" font-weight="bold" fill="#333333">ST_Distance</text>
  <path d="M 119.89 220.97 L 214.52 220.97 L 214.52 126.34 L 119.89 126.34 L 119.89 220.97 Z" fill="rgba(74,144,217,0.15)" stroke="#4a90d9" stroke-width="2.5" fill-rule="evenodd" />
  <text x="157.74" y="183.12" text-anchor="middle" font-size="15" font-weight="bold" fill="#4a90d9">A</text>
  <path d="M 285.48 173.66 L 380.11 173.66 L 380.11 79.03 L 285.48 79.03 L 285.48 173.66 Z" fill="rgba(217,74,74,0.15)" stroke="#d94a4a" stroke-width="2.5" fill-rule="evenodd" />
  <text x="323.33" y="135.81" text-anchor="middle" font-size="15" font-weight="bold" fill="#d94a4a">B</text>
  <line x1="214.52" y1="150.0" x2="285.48" y2="150.0" stroke="#2ecc71" stroke-width="2" stroke-dasharray="6,3" marker-start="url(#arrowGrev)" marker-end="url(#arrowG)" />
  <text x="258" y="144" font-size="15" font-weight="bold" fill="#2ecc71" font-style="italic">d</text>
  <text x="250" y="292" text-anchor="middle" font-size="13" fill="#333333" font-style="italic">Returns the Euclidean distance between two geometries</text>
  <rect x="93" y="255" width="12" height="12" rx="2" fill="#4a90d9" stroke="#4a90d9" stroke-width="1" />
  <text x="109" y="266" font-size="13" fill="#333333">Geometry A</text>
  <rect x="203" y="255" width="12" height="12" rx="2" fill="#d94a4a" stroke="#d94a4a" stroke-width="1" />
  <text x="219" y="266" font-size="13" fill="#333333">Geometry B</text>
  <rect x="313" y="255" width="12" height="12" rx="2" fill="#2ecc71" stroke="#2ecc71" stroke-width="1" />
  <text x="329" y="266" font-size="13" fill="#333333">Distance</text>
</svg>