<svg width="148" height="69" viewBox="0 0 148 69" fill="none" xmlns="http://www.w3.org/2000/svg">
<g clip-path="url(#clip0_2006_29620)">
<path d="M27.0097 20.7227C16.8969 20.7227 8.61523 26.8069 8.61523 34.2823C8.61523 41.7577 16.8969 48.2766 27.0097 48.2766C37.2097 48.2766 45.4928 41.7577 45.4928 34.2823C45.4928 26.807 37.2097 20.7227 27.0097 20.7227ZM27.0097 21.6785C35.8149 21.6785 42.9643 27.3285 42.9643 34.2823C42.9643 41.2362 35.8149 47.3208 27.0097 47.3208C18.2046 47.3208 11.0569 41.2362 11.0569 34.2823C11.0569 27.3285 18.2046 21.6785 27.0097 21.6785ZM59.6152 26.1995L48.1951 43.6707H52.1182L54.9941 39.1497H61.5325V43.6707H65.1951V26.1995H59.6152ZM61.5325 29.1535V36.1074H56.9998C57.3486 35.6728 61.5325 29.1535 61.5325 29.1535ZM137.903 40.8015C137.031 40.8015 136.42 41.411 136.42 42.2802C136.42 43.0625 137.031 43.6707 137.903 43.6707C138.775 43.6707 139.384 43.0625 139.384 42.2802C139.384 41.411 138.775 40.8015 137.903 40.8015ZM137.903 40.9764C138.601 40.9764 139.211 41.411 139.211 42.2802C139.211 43.0625 138.601 43.4958 137.903 43.4958C137.206 43.4958 136.682 43.0625 136.682 42.2802C136.682 41.411 137.206 40.9764 137.903 40.9764Z" fill="#0033A0"/>
<path d="M137.379 41.4115V42.9751H137.641V42.3673H137.815L138.339 42.9751H138.6L138.164 42.2807C138.338 42.2807 138.513 42.1069 138.513 41.8461C138.513 41.5852 138.252 41.4115 137.903 41.4115L137.379 41.4115ZM137.641 41.6712H137.903C138.078 41.6712 138.164 41.7593 138.164 41.8461C138.164 42.0199 138.078 42.1058 137.903 42.1058H137.641V41.6712ZM74 43.6708H77.6616V26.1992H74V43.6708ZM67.5487 43.6708H71.2974V26.1992H67.5487V43.6708ZM127.964 30.1114C126.308 30.1114 124.912 30.6323 123.866 31.5885C122.558 32.8054 121.949 34.6304 121.949 36.8904C121.949 41.0628 124.39 43.6711 128.487 43.6711C130.405 43.6711 132.236 43.1485 133.718 42.1924L133.805 42.1058L133.369 39.4116L133.195 39.4981C131.626 40.5412 130.318 40.9768 128.836 40.9768C126.918 40.9768 125.697 39.7593 125.523 37.6731H133.805L133.892 36.8038C133.892 32.3708 131.887 30.1115 128.051 30.1115L127.964 30.1114ZM127.964 32.5443C129.795 32.5443 130.318 34.1092 130.318 35.5H125.523C125.697 33.5877 126.57 32.5443 127.964 32.5443ZM114.713 26.1992V30.3715H112.882V33.1531H114.713V39.7592C114.713 42.3669 116.108 43.6708 119.159 43.6708C120.118 43.6708 120.728 43.497 121.251 43.4099H121.425L120.902 40.5415H120.728C120.466 40.6285 120.205 40.6285 119.769 40.6285C118.723 40.6285 118.2 40.1939 118.2 39.2377V33.1531H120.815L120.903 30.3716H118.2V26.1993L114.713 26.1992ZM106.519 30.1114C104.339 30.1114 102.596 30.6327 101.288 31.0673L101.199 31.1539L101.635 33.9364L101.811 33.8481C103.38 33.1527 104.773 32.8057 106.081 32.8057C107.476 32.8057 108.174 33.4142 108.174 34.5442V34.8922C102.856 35.4138 100.328 37.0653 100.328 40.1076C100.328 42.2807 101.81 43.6711 104.164 43.6711C105.82 43.6711 107.128 43.1492 108.436 42.0192L108.698 43.4097H111.749V34.4576C111.749 31.5022 110.093 30.1114 106.519 30.1114ZM108.174 36.977V39.8461C107.302 40.6285 106.344 41.0634 105.298 41.0634C104.426 41.0634 103.903 40.5419 103.903 39.7596C103.903 38.2819 105.384 37.3247 108.174 36.977ZM92.6563 26.1993V30.3716H90.8255V33.1531H92.6563V39.7593C92.6563 42.367 94.1383 43.6708 97.1025 43.6708C98.0614 43.6708 98.6717 43.5838 99.1948 43.41H99.3691L98.9332 40.5415H98.7588C98.4972 40.6286 98.1486 40.6286 97.7127 40.6286C96.6665 40.6286 96.1435 40.194 96.1435 39.2378V33.1532H98.846V30.3717H96.1435V26.1994L92.6563 26.1993ZM80.7999 31.4147C80.1024 32.1101 79.7537 32.9794 79.7537 34.0224C79.8411 36.6301 81.1486 37.4124 84.3743 38.1947C86.4666 38.6294 86.9025 38.9771 86.9025 39.9332C86.9025 40.7155 86.3794 41.0632 84.8973 41.0632C83.4152 41.0632 81.6717 40.5417 80.2768 39.6725L80.0152 39.4987L79.4921 42.3671L79.6664 42.4542C80.7998 43.0626 82.7177 43.6711 84.81 43.6711C86.8151 43.6711 88.2972 43.2365 89.169 42.3672C89.8664 41.6719 90.2151 40.7157 90.2151 39.5857C90.2151 36.8042 88.6459 36.1088 85.4203 35.3265C83.4151 34.8049 83.0664 34.5442 83.0664 33.7619C83.1538 33.1534 83.7639 32.7188 84.7228 32.7188C85.9433 32.7188 87.5126 33.1534 88.8203 33.8488L88.9946 33.9359L89.5177 31.0674L89.3434 30.9803C88.0357 30.4588 86.4664 30.1111 84.7228 30.1111C83.0664 30.1111 81.6717 30.6324 80.7999 31.4147ZM14.8934 26.2865L14.1084 27.0692C14.1957 27.0692 14.3689 27.2423 14.3689 27.2423C14.4562 27.2423 15.5891 28.1109 15.7635 28.2847C15.6761 28.3718 15.2407 29.5885 15.2407 29.5885C14.8048 30.6316 14.3689 31.6754 14.3689 32.4577V32.6308L14.718 34.4576V34.5442C14.9796 35.5873 15.1532 36.6293 15.3275 37.4116C15.3275 37.6725 15.3286 37.7593 15.5029 37.8463C16.026 38.3678 16.8982 39.4981 18.0315 41.6712C18.0315 41.7583 18.1183 41.7593 18.1183 41.8461C18.2056 42.1069 18.3803 42.2804 18.4674 42.3673C18.729 42.5411 19.0776 42.5411 19.3392 42.3673C19.8622 42.0196 20.2968 41.5853 20.5583 40.9768C20.6456 41.0639 20.9074 41.3245 20.9074 41.4115C19.9484 42.9761 21.6048 43.5838 22.2151 43.3231C21.8664 44.2792 23.1744 45.0619 24.3077 44.5404C24.482 45.1488 25.0055 45.3226 25.5286 45.4096C25.9645 45.4966 26.6619 45.5829 27.7081 45.4962C29.3645 45.3224 30.8455 44.8881 31.4558 44.5404C32.6763 43.9319 33.3751 43.1503 33.7238 42.6287L33.8974 42.4538C33.9848 42.7147 34.1591 42.8895 34.3334 43.0633C34.6821 43.411 35.1173 43.5845 35.3789 43.5845C35.6405 43.4975 35.8161 43.4107 35.9033 43.1499C36.4263 41.8461 37.6465 40.2814 38.6055 39.2384L38.6923 39.0635C38.9539 38.2812 39.651 36.4562 40.0869 35.5L40.3491 34.7174V34.5442C40.4364 34.2833 40.4359 33.9358 40.4359 33.675C40.4359 32.3711 40.2623 31.1545 39.8264 30.1114C39.652 29.5899 39.478 29.2416 39.3036 28.9808L39.1282 28.6328C39.3899 28.1981 40.1747 27.6766 40.785 27.3289L40.8718 27.2423L40.0886 26.4597L39.5641 26.8077C38.9539 27.1554 38.4318 27.3293 37.9959 27.2423C37.9959 27.1553 37.56 26.8943 37.56 26.8943H36.9488L37.1241 27.0692C37.4729 27.5038 37.6475 27.7635 37.9091 28.1981L37.9959 28.4596L38.1696 28.8076L38.345 29.3288L38.4318 29.4154L38.5186 29.6769L38.8677 30.8941C39.2164 32.198 39.3033 33.2404 39.3905 34.1096L39.3036 34.1962L38.8677 35.4134C38.4318 36.6303 37.9081 38.1953 37.7337 38.8038V38.8904C36.5132 40.1073 35.6424 41.4981 35.2937 42.3673C35.2064 42.4543 35.2052 42.4554 35.2052 42.5421C35.1178 42.5421 34.9449 42.3678 34.8578 42.2807C34.5962 42.0198 34.4219 41.4987 34.4219 40.8903C34.4219 40.1949 34.7706 39.5861 35.2937 39.2384C35.381 39.1513 35.3805 38.9769 35.3805 38.9769C35.2062 38.1077 35.4672 36.8918 35.9901 36.5441L36.0769 36.4558L35.9901 36.3692C34.4209 35.2392 33.7242 33.2397 33.6369 31.6751V31.5019L33.4616 31.5885C33.3746 31.5885 33.2879 31.7633 33.2879 31.7633C33.2879 32.0242 33.2011 32.3718 33.2011 32.6326C33.2011 33.4149 33.3742 34.1102 33.4616 34.371C33.6359 35.1533 34.0718 35.9353 34.7693 36.6307V36.7173C34.5076 37.065 34.335 37.8473 34.335 38.4558C34.335 38.6295 34.3346 38.8031 34.4219 38.9769C33.7245 39.4985 33.5505 40.2804 33.4633 40.802V41.3249L33.1142 41.7595V41.8461C32.4168 42.7153 31.9812 43.3228 30.8479 43.8443C29.6274 44.4527 27.36 44.8874 25.7908 44.7135C25.2677 44.6265 25.268 44.1923 25.268 44.1923C25.268 44.1053 25.3549 44.0196 25.3549 43.9326L25.5286 43.8443C26.9234 43.931 28.3187 43.7586 28.9289 43.498L29.1043 43.2365L29.1911 43.1499H29.0157C27.7952 43.4108 25.3546 43.0618 24.134 42.5404C22.652 41.932 22.2161 41.4104 21.0828 39.9327L20.7337 39.4981C20.7337 39.1505 20.6475 38.7168 20.4732 38.3692C20.2116 38.0215 19.9491 37.8466 19.8619 37.7597C19.9492 37.4988 20.0373 37.1516 20.0373 36.8038C20.0373 36.2823 19.9494 35.8477 19.7751 35.5C20.6468 34.8915 21.0828 34.1958 21.0828 33.4135C21.0828 33.0658 20.8222 32.5443 20.8222 32.5443L20.4732 32.3711L20.56 32.6326C20.6473 33.8495 19.426 34.7187 18.5542 35.2402L18.3806 35.5H18.4674C19.1648 35.9346 19.1645 37.2388 18.9901 38.0211L19.0787 38.1077L19.4277 38.3692C20.038 39.2384 19.9497 40.5429 19.2523 41.2383C19.078 41.4121 19.0791 41.4115 18.9918 41.4115C18.9045 41.4115 18.8164 41.1503 18.8164 41.0634L18.5559 40.7154C18.0328 39.5854 17.5094 38.6306 16.4633 37.3268L16.3747 37.2385C16.2004 35.5869 15.9399 34.3707 15.6783 33.1538L15.5029 32.5443V32.3711C15.5902 31.0673 15.9402 30.1108 16.4633 28.9808L16.7238 28.2864L16.986 27.6769V27.5903C17.3347 27.2426 17.6841 26.8956 18.12 26.5479L18.3805 26.373L18.0315 26.2865C18.0315 26.2865 17.5959 26.3739 17.0729 26.6345H16.986C16.5501 26.8083 16.1139 26.9815 15.7651 26.8077C15.7651 26.8077 14.9805 26.3734 14.8934 26.2865ZM21.3433 41.8461C21.5176 42.0199 22.1289 42.5415 22.3904 42.7153C21.4314 42.8891 21.0817 42.2807 21.3433 41.8461ZM22.9132 43.0616C23.3491 43.3225 24.0465 43.4972 24.6568 43.6711C23.3491 44.2796 22.5645 43.7571 22.9132 43.0616Z" fill="#0033A0"/>
<path d="M20.7334 22.8095L20.995 23.0703L21.6925 23.6788L22.1284 24.1134C22.4771 24.3743 22.5643 24.5481 22.5643 24.6349C22.5643 24.6349 22.477 24.722 22.39 24.722L22.3027 24.8091L22.2153 25.0699H22.3896C23.4358 24.9829 24.3076 25.6784 24.9178 26.1999C26.0512 27.1561 26.8358 28.7207 27.0102 30.1984L27.7948 34.3707L28.1435 34.9792L28.2305 35.1529L28.3178 35.4138C28.4921 35.6746 28.6665 35.8484 28.6665 35.9353L29.1024 36.1962L29.7127 36.8047L29.887 36.9784L30.1486 37.2393C30.1486 37.3264 31.0204 37.4131 31.0204 37.4131C32.5024 37.5869 32.4153 38.3692 32.4153 38.3692C32.4153 38.3692 33.2871 37.1523 31.1948 36.6308C31.1948 36.6308 30.5845 36.544 30.4973 36.544L30.323 36.1963C30.236 36.1963 30.236 36.1093 30.236 36.1093L29.5386 35.5008L29.2769 35.327C29.2769 35.24 29.0153 34.6316 29.0153 34.6316L28.6666 33.7624C28.5793 33.5016 28.4923 33.067 28.405 32.4586L28.3177 32.1109L28.056 30.3724L28.1434 30.0247C28.2304 29.3293 28.4921 28.634 28.928 27.8516C29.3639 26.9824 30.3228 26.3739 30.3228 26.3739C31.0203 25.9393 32.0664 25.6786 32.5895 25.5917C32.8511 25.5917 32.8511 25.4179 32.9382 25.3308V25.2437H32.8509C32.5893 25.1567 32.2406 25.07 32.1534 25.07V24.9829C32.1534 24.9829 32.2408 24.8958 32.3277 24.722L32.7636 24.3744L33.0253 24.1135C33.0253 24.1135 34.1586 23.0704 34.2458 22.8966L33.1996 22.6358L32.0663 23.7658C31.3688 24.4612 30.4971 25.3304 30.1484 25.5042C29.1894 25.8519 28.2304 26.8081 27.7945 27.5904L27.5329 28.2858C27.2713 27.5035 26.9226 26.8081 26.3995 26.2865C25.8765 25.6781 25.179 25.1565 24.3944 24.8958C23.9585 24.4612 22.4764 23.1573 21.6918 22.5488L20.7334 22.8095Z" fill="#0033A0"/>
<path d="M27.0099 35.0655C27.0972 34.7178 26.9226 34.2832 26.9226 34.2832L26.8353 34.5441C26.7479 34.8049 26.4866 35.0656 26.0507 35.2395L25.9634 35.3265L27.4454 37.4127L27.5327 37.4997L27.8814 37.9343L28.4917 38.282L28.666 38.3691L29.3634 38.8037L29.9737 39.1514H30.061L31.02 39.2385C31.5431 39.2385 31.8918 39.4993 32.0661 39.5862C32.5892 40.0208 32.3278 40.6293 32.3278 40.6293C32.3278 40.6293 33.1124 39.9339 32.5894 39.1516C32.4151 38.8907 32.1534 38.63 31.3688 38.5431L30.4099 38.3693L29.8868 38.0216L29.1894 37.6739L29.0151 37.5872L28.492 37.3263L27.0099 35.0655Z" fill="#0033A0"/>
<path d="M26.1381 39.4977L26.3124 39.5847L26.9226 39.8456C27.3586 40.0194 27.8816 40.2802 28.1432 40.3671L28.8406 40.8017C28.9279 40.8017 29.6252 40.715 30.0611 40.8017C30.6714 40.8017 31.1073 41.0626 31.3688 41.3233C31.6304 41.8448 31.2818 42.2794 31.2818 42.2794C31.3688 42.1924 31.9792 41.8448 31.9792 41.1494C31.8919 40.541 31.369 40.0194 29.2767 40.0194L28.7536 39.6717L28.5793 39.5847L27.7074 39.1501L26.9229 38.8892L26.7486 38.6284C26.4869 38.1937 26.1383 37.7591 25.8768 37.4114L25.7895 37.3244C25.7895 37.3244 25.2664 36.629 25.2664 36.5421C25.3537 36.1944 25.2664 35.7598 25.2664 35.7598C25.2664 35.7598 25.1791 35.9336 25.0048 36.1074C24.9174 36.2812 24.4817 36.5421 24.2201 36.629L24.1328 36.716L25.9636 39.1499L26.1381 39.4977Z" fill="#0033A0"/>
<path d="M23.7845 40.4535L24.1332 40.8012L24.8307 41.1489L25.4409 41.4966H25.5282L25.9642 41.7574L26.6616 42.1051C26.7489 42.1922 26.8359 42.1922 26.8359 42.1922L27.7948 42.1051C28.4051 42.1051 29.0154 42.1051 29.4512 42.2789C29.9743 42.5398 29.8 42.9743 29.8 42.9743C29.8 42.9743 30.323 42.6266 30.2359 42.192C30.1486 41.8443 29.7128 41.4097 28.3179 41.3227H27.0976L26.4874 40.975L26.2257 40.8013C26.1384 40.8013 25.354 40.3666 25.354 40.3666L24.7437 40.1929C24.7437 40.1058 24.3078 39.4975 24.3078 39.4975L24.1335 39.2366L23.6104 38.5412L23.3488 38.2804C23.3488 38.1933 23.0872 37.8458 23.0872 37.8458C23.0872 37.8458 23.3488 37.4112 23.3488 36.9766L23.0872 37.2374C22.9129 37.4112 22.3026 37.672 21.8667 37.759H21.6924L23.0872 39.5844L23.7845 40.4535Z" fill="#0033A0"/>
</g>
<defs>
<clipPath id="clip0_2006_29620">
<rect width="148" height="69" fill="white"/>
</clipPath>
</defs>
</svg>
