<svg width="148" height="69" viewBox="0 0 148 69" fill="none" xmlns="http://www.w3.org/2000/svg">
<g clip-path="url(#clip0_2006_29620)">
<path d="M24.5992 32.4214C26.1397 33.9674 27.3997 36.4989 26.6786 38.0031C24.7505 42.0253 10.3628 49.0805 9.14096 47.8589C7.91912 46.6386 14.9869 32.2641 19.0154 30.3372C20.5214 29.617 23.0562 30.8754 24.6053 32.414C24.6041 32.4152 24.6029 32.4177 24.5992 32.4214Z" fill="#FF8200"/>
<path d="M32.2216 30.7229C31.9718 29.7976 31.3332 28.8624 30.3796 28.7518C28.6311 28.549 25.8761 31.636 26.073 32.3685C26.2699 33.1009 30.163 34.3925 31.6162 33.3491C32.3655 32.8109 32.4714 31.6483 32.2253 30.7229H32.2216ZM26.8113 22.171C28.1094 22.5224 29.4223 23.4159 29.5773 24.7505C29.8628 27.1984 25.5291 31.0572 24.5005 30.7819C23.4718 30.5067 21.6594 25.0552 23.1248 23.0189C23.8803 21.9694 25.5119 21.822 26.8125 22.1661C26.8113 22.1661 26.8113 22.1685 26.8113 22.171Z" fill="#43B02A"/>
<path d="M65.6389 36.6608L64.3519 36.4654C63.1251 36.2847 62.4151 35.8878 62.4151 35.1664C62.4151 34.3382 63.3392 33.8245 64.705 33.8245C65.6709 33.8245 66.4572 34.1858 67.2102 34.5692L67.3603 34.6454C67.5338 34.7339 67.7209 34.7781 67.914 34.7781C68.3607 34.7781 68.7729 34.536 68.9882 34.1452L69.0928 33.956C69.2589 33.6537 69.2946 33.3059 69.1925 32.9765C69.0904 32.6484 68.8652 32.383 68.5576 32.2293C67.4612 31.6813 66.2714 31.1885 64.7038 31.1885C61.4283 31.1885 59.3193 32.7676 59.3193 35.3102C59.3193 37.3969 60.8205 38.7057 63.6628 39.0928L64.9609 39.2612C66.3329 39.4529 66.9998 39.8584 66.9998 40.5011C66.9998 41.0947 66.6787 41.8824 64.5537 41.8824C63.3823 41.8824 62.1924 41.585 61.2265 40.9743C61.0333 40.8526 60.8119 40.7875 60.5842 40.7875C60.1597 40.7875 59.7574 41.0123 59.5334 41.3736L59.4608 41.4904C59.2812 41.7804 59.227 42.1368 59.3119 42.4674C59.3968 42.798 59.606 43.0708 59.9013 43.2354C61.5846 44.1805 63.5287 44.516 64.5524 44.516C67.9669 44.516 70.0796 43.0216 70.0796 40.3918C70.0833 38.2903 68.5871 37.0835 65.6389 36.6608ZM105.337 41.2544C105.091 40.9792 104.737 40.8219 104.367 40.8219C104.118 40.8219 103.874 40.8931 103.661 41.0271C102.966 41.467 102.206 41.7005 101.459 41.7005C99.4075 41.7005 97.9187 40.0821 97.9187 37.8528C97.9187 35.6236 99.4075 34.0051 101.459 34.0051C102.246 34.0051 102.951 34.2189 103.613 34.6589C104.126 34.9993 104.862 34.9121 105.284 34.4623L105.394 34.3455C105.683 34.0383 105.819 33.6205 105.77 33.2014C105.722 32.7897 105.497 32.4223 105.154 32.1949C104.145 31.5264 102.895 31.1737 101.537 31.1737C97.6 31.1737 94.8499 33.9203 94.8499 37.8516C94.8499 41.7841 97.6 44.5307 101.537 44.5307C102.901 44.5307 104.158 44.1706 105.175 43.4886C105.514 43.2613 105.738 42.8975 105.789 42.4895C105.84 42.079 105.711 41.6674 105.436 41.3601L105.337 41.2544ZM41.6192 26.6562C40.5942 26.6562 39.792 27.4686 39.792 28.5045C39.792 29.5454 40.577 30.3295 41.6192 30.3295C42.6565 30.3295 43.4698 29.5282 43.4698 28.5045C43.4698 27.4686 42.6565 26.6562 41.6192 26.6562ZM42.1717 31.2831H41.0938C40.5659 31.2831 40.1378 31.7107 40.1378 32.2379V43.2514C40.1378 43.7786 40.5659 44.2063 41.0938 44.2063H42.1717C42.6996 44.2063 43.1278 43.7786 43.1278 43.2514V32.2379C43.1278 31.7107 42.6996 31.2831 42.1717 31.2831ZM77.5633 41.6428C76.3537 41.6379 74.9473 40.6916 74.9473 39.0338V34.0653H77.5719C78.0997 34.0653 78.5279 33.6377 78.5279 33.1105V32.2379C78.5279 31.7107 78.0997 31.2831 77.5719 31.2831H74.9473V28.416C74.9473 27.8888 74.5191 27.4612 73.9913 27.4612H72.8543C72.3264 27.4612 71.8982 27.8888 71.8982 28.416V38.8556C71.8982 41.8615 74.182 44.5184 77.3442 44.5184H77.3455C77.6605 44.5184 77.9582 44.3955 78.1834 44.1706C78.4074 43.947 78.5316 43.6496 78.5316 43.3338V42.5976C78.5292 42.068 78.0948 41.6452 77.5633 41.6428ZM51.4407 31.1749C47.614 31.1749 45.4792 34.2325 45.4792 36.8476V43.2514C45.4792 43.7786 45.9074 44.2063 46.4352 44.2063H47.5254C48.0533 44.2063 48.4815 43.7786 48.4815 43.2514V37.3281C48.4815 35.3446 49.6848 34.0309 51.4395 34.0309C53.1941 34.0309 54.3975 35.3446 54.3975 37.3281V43.2514C54.3975 43.7786 54.8257 44.2063 55.3536 44.2063H56.4437C56.9716 44.2063 57.3998 43.7786 57.3998 43.2514V36.8476C57.4023 34.2312 55.2687 31.1749 51.4407 31.1749ZM130.162 31.3077C129.747 31.2167 128.707 31.1749 128.168 31.1749C128.12 31.1749 128.072 31.1762 128.025 31.1762C125.063 31.1762 122.326 33.5885 122.326 36.9139C122.326 36.9164 122.325 36.9201 122.325 36.9225V43.2514C122.325 43.7786 122.753 44.2063 123.281 44.2063H124.371C124.899 44.2063 125.327 43.7786 125.327 43.2514V37.0233C125.327 35.2131 126.621 34.0322 128.208 34.0322C128.498 34.0371 128.809 34.069 129.114 34.1292C129.198 34.1452 129.282 34.1538 129.367 34.1538C129.972 34.1538 130.496 33.736 130.638 33.1486C130.715 32.8254 130.773 32.5857 130.827 32.3658C130.881 32.1458 130.844 31.8975 130.719 31.696C130.592 31.4969 130.394 31.3581 130.162 31.3077ZM138.158 34.0653C138.686 34.0653 139.114 33.6377 139.114 33.1105V32.2379C139.114 31.7107 138.686 31.2831 138.158 31.2831H135.534V28.416C135.534 27.8888 135.105 27.4612 134.576 27.4612H133.439C132.912 27.4612 132.483 27.8888 132.483 28.416V38.8556C132.483 41.8615 134.767 44.5184 137.929 44.5184H137.931C138.247 44.5184 138.543 44.3955 138.769 44.1706C138.992 43.947 139.117 43.6496 139.117 43.3338V42.5976C139.117 42.0668 138.682 41.644 138.151 41.6428C136.941 41.6379 135.535 40.6916 135.535 39.0338V34.0653H138.158ZM117.349 32.1999C117.348 32.1986 117.345 32.1974 117.344 32.1962C116.335 31.5276 115.085 31.1749 113.728 31.1749C113.704 31.1749 113.681 31.1762 113.657 31.1762C113.634 31.1762 113.611 31.1749 113.587 31.1749C112.23 31.1749 110.979 31.5276 109.971 32.1962C109.97 32.1974 109.967 32.1986 109.966 32.1999C108.15 33.3415 107.041 35.3581 107.041 37.8541C107.041 40.4679 108.258 42.5571 110.229 43.6643C111.149 44.2063 112.24 44.5295 113.416 44.5307C115.565 44.5319 116.863 43.3166 117.27 42.7857V43.2428C117.27 43.77 117.698 44.1977 118.226 44.1977H119.316C119.844 44.1977 120.272 43.77 120.272 43.2428V37.8528C120.274 35.3569 119.165 33.3403 117.349 32.1999ZM114.858 41.5002C114.509 41.6157 114.153 41.6821 113.8 41.6969C113.774 41.6981 113.748 41.6981 113.723 41.6993C113.7 41.6993 113.68 41.7005 113.657 41.7005C113.635 41.7005 113.614 41.6993 113.592 41.6993C113.566 41.6993 113.541 41.6981 113.515 41.6969C113.162 41.6821 112.805 41.6157 112.456 41.5002C111.046 41.0025 110.11 39.6212 110.11 37.8528C110.11 35.7661 111.416 34.214 113.265 34.0248C113.275 34.0236 113.285 34.0236 113.294 34.0223C113.336 34.0186 113.378 34.0149 113.421 34.0125C113.445 34.0113 113.469 34.01 113.493 34.0088C113.533 34.0076 113.575 34.0063 113.616 34.0063C113.63 34.0063 113.644 34.0051 113.659 34.0051C113.673 34.0051 113.687 34.0051 113.702 34.0063C113.744 34.0063 113.784 34.0076 113.825 34.0088C113.849 34.01 113.873 34.0113 113.896 34.0125C113.938 34.0149 113.981 34.0174 114.023 34.0223C114.033 34.0236 114.043 34.0236 114.052 34.0248C115.902 34.214 117.207 35.7649 117.207 37.8528C117.205 39.62 116.268 41.0025 114.858 41.5002ZM90.1324 32.1999C90.1311 32.1986 90.1287 32.1974 90.1274 32.1962C89.1185 31.5276 87.8683 31.1749 86.5111 31.1749C86.4878 31.1749 86.4644 31.1762 86.441 31.1762C86.4176 31.1762 86.3942 31.1749 86.3709 31.1749C85.0137 31.1749 83.7623 31.5276 82.7545 32.1962C82.7533 32.1974 82.7509 32.1986 82.7496 32.1999C80.9335 33.3415 79.8248 35.3581 79.8248 37.8541C79.8248 40.4679 81.0418 42.5571 83.0129 43.6643C83.9321 44.2063 85.0235 44.5295 86.1998 44.5307C88.3482 44.5319 89.6463 43.3166 90.0536 42.7857V43.2428C90.0536 43.77 90.4818 44.1977 91.0097 44.1977H92.0998C92.6277 44.1977 93.0559 43.77 93.0559 43.2428V37.8528C93.0571 35.3569 91.9485 33.3403 90.1324 32.1999ZM87.6419 41.5002C87.2925 41.6157 86.9369 41.6821 86.5837 41.6969C86.5579 41.6981 86.532 41.6981 86.5062 41.6993C86.4841 41.6993 86.4631 41.7005 86.441 41.7005C86.4188 41.7005 86.3979 41.6993 86.3758 41.6993C86.3499 41.6993 86.3241 41.6981 86.2983 41.6969C85.9451 41.6821 85.5883 41.6157 85.2401 41.5002C83.83 41.0025 82.8936 39.6212 82.8936 37.8528C82.8936 35.7661 84.1991 34.214 86.0485 34.0248C86.0583 34.0236 86.0682 34.0236 86.078 34.0223C86.1198 34.0186 86.1617 34.0149 86.2047 34.0125C86.2281 34.0113 86.2527 34.01 86.2761 34.0088C86.3167 34.0076 86.3586 34.0063 86.3992 34.0063C86.4139 34.0063 86.4275 34.0051 86.4422 34.0051C86.457 34.0051 86.4705 34.0051 86.4853 34.0063C86.5271 34.0063 86.5677 34.0076 86.6083 34.0088C86.6329 34.01 86.6563 34.0113 86.6797 34.0125C86.7215 34.0149 86.7646 34.0174 86.8064 34.0223C86.8163 34.0236 86.8261 34.0236 86.836 34.0248C88.6853 34.214 89.9909 35.7649 89.9909 37.8528C89.9884 39.62 89.052 41.0025 87.6419 41.5002Z" fill="#43B02A"/>
</g>
<defs>
<clipPath id="clip0_2006_29620">
<rect width="130" height="26" fill="white" transform="translate(9 22)"/>
</clipPath>
</defs>
</svg>
