<svg width="148" height="69" viewBox="0 0 148 69" fill="none" xmlns="http://www.w3.org/2000/svg">
<g clip-path="url(#clip0_2006_29620)">
<mask id="mask0_2006_29620" style="mask-type:luminance" maskUnits="userSpaceOnUse" x="4" y="13" width="139" height="44">
<path d="M4.39893 13.6917H142.117V56.3066H4.39893V13.6917Z" fill="white"/>
</mask>
<g mask="url(#mask0_2006_29620)">
<path d="M132.465 43.8915C131.973 43.8915 131.583 44.282 131.583 44.7712C131.583 45.2606 131.973 45.6504 132.465 45.6504C132.956 45.6504 133.346 45.2606 133.346 44.7712C133.347 44.6554 133.324 44.5406 133.28 44.4335C133.236 44.3264 133.171 44.2292 133.089 44.1473C133.007 44.0655 132.91 44.0007 132.803 43.9568C132.696 43.9129 132.581 43.8907 132.465 43.8915ZM132.465 45.5158C132.062 45.5158 131.717 45.1864 131.717 44.7712C131.717 44.3555 132.062 44.0278 132.465 44.0278C132.867 44.0278 133.21 44.3555 133.21 44.7712C133.21 45.1862 132.867 45.5158 132.465 45.5158Z" fill="#0033A0"/>
<path d="M132.896 44.5378C132.896 44.3307 132.728 44.2835 132.553 44.2835H132.135V45.2457H132.27V44.8014H132.434L132.72 45.2457H132.883L132.593 44.8014C132.764 44.7964 132.896 44.7279 132.896 44.5378ZM132.434 44.6676H132.27V44.4196H132.527C132.631 44.4196 132.761 44.437 132.761 44.5354C132.761 44.6888 132.55 44.6677 132.434 44.6677M126.82 45.6621C126.997 45.1804 127.149 44.6897 127.274 44.192C127.524 43.1525 127.65 42.0869 127.65 41.0177C127.65 40.3923 127.607 39.7735 127.523 39.1645C127.462 40.0518 127.307 40.8294 127.307 40.8294C127.343 40.9466 127.408 41.1391 127.438 41.2578L127.438 41.2584C127.344 42.1585 127.173 43.0489 126.927 43.9198C126.81 43.49 126.654 43.0762 126.644 43.0495L126.643 43.0481C126.329 43.8847 125.86 44.8698 125.434 45.6621H126.82Z" fill="#0033A0"/>
<path d="M123.913 45.6621H124.715C126.996 42.2926 127.111 39.3063 127.111 38.7341C127.111 37.6533 126.929 36.6602 126.625 35.8738C126.625 35.8738 126.152 34.6517 125.415 33.5642C125.495 33.8072 125.65 34.2999 125.735 34.74C125.741 34.7693 125.746 34.7952 125.75 34.8192C125.895 35.0613 126.55 36.2159 126.637 37.4857L126.638 37.4895C126.638 37.4895 126.175 36.8414 125.832 36.4318C125.82 37.1297 125.729 37.8282 125.583 38.5028C125.583 38.5028 126.268 39.2968 126.575 39.8088C126.575 39.8088 126.367 40.9257 125.919 41.9959C125.464 41.3342 124.883 40.6914 124.883 40.6914C124.543 41.532 124.112 42.3778 123.634 43.16C123.634 43.16 124.503 44.1766 124.694 44.4664C124.438 44.8959 124.19 45.2698 123.913 45.6621Z" fill="#0033A0"/>
<path d="M121.058 45.6621C122.572 43.969 123.862 41.9774 124.637 39.8448C125.309 37.9948 125.675 35.7353 125.08 33.7255C125.04 33.5902 124.994 33.4565 124.943 33.3247C124.753 32.8332 124.506 32.4045 124.237 32.0678C123.513 31.2573 122.693 30.5374 121.795 29.9238C121.925 30.0904 122.045 30.2652 122.153 30.4471C122.153 30.4471 123.246 31.2585 123.881 32.0828C123.067 31.5025 122.606 31.2677 122.546 31.2379C122.543 31.2369 122.541 31.2358 122.539 31.2347C122.848 31.9973 122.941 32.629 122.941 32.63C122.941 32.63 123.908 33.1343 124.778 33.8879C124.899 34.445 124.948 35.0158 124.94 35.5873C124.063 34.8158 123.048 34.2132 123.048 34.2132C123.03 34.8666 122.939 35.5283 122.796 36.1716C122.796 36.1716 123.754 36.7784 124.688 37.6292C124.688 37.6292 124.42 38.8348 123.987 39.7829C123.091 38.9487 122.217 38.2995 122.149 38.2488C122.149 38.2488 121.704 39.4088 120.983 40.5731C121.88 41.3534 122.723 42.1626 122.723 42.1626C122.208 42.9662 121.625 43.7314 120.997 44.4468L120.997 44.4475L119.392 42.8494C118.739 43.6558 118.029 44.4134 117.266 45.1161C117.302 45.1567 117.625 45.5153 117.758 45.6621H121.058Z" fill="#0033A0"/>
<path d="M121.47 30.1022C121.366 29.9603 121.249 29.8155 121.114 29.6868C120.996 29.5741 120.881 29.4723 120.759 29.3809C119.424 28.3741 116.967 27.8708 116.967 27.8708C117.114 27.9495 117.257 28.0342 117.397 28.1248C117.409 28.1278 118.4 28.3762 119.279 28.806C119.279 28.806 118.479 28.6244 117.967 28.5537C118.182 28.7437 118.379 28.9527 118.556 29.1781C118.556 29.1781 120.187 29.4756 120.903 29.8681C120.903 29.8681 121.246 30.2207 121.526 30.8392C120.408 30.3856 119.143 30.149 119.143 30.149C119.311 30.5254 119.431 30.9285 119.505 31.348C119.505 31.348 120.896 31.6885 121.942 32.1906C122.032 32.6871 122.065 33.2003 122.046 33.7196C120.811 33.1003 119.585 32.7114 119.585 32.7114C119.56 33.2468 119.475 33.8016 119.33 34.3682C119.33 34.3682 121.016 35.1211 121.774 35.5783C121.606 36.2476 121.371 36.9032 121.089 37.5344C119.935 36.7847 118.714 36.118 118.714 36.118C118.407 36.8548 117.652 38.0614 117.652 38.0614L117.653 38.0619C117.672 38.075 118.928 38.9372 119.892 39.7024C119.413 40.4277 118.873 41.1243 118.286 41.7867C118.083 41.5929 116.232 39.9492 116.232 39.9492C115.673 40.5972 115.051 41.2284 114.369 41.8326C114.369 41.8326 114.369 41.8329 114.37 41.833L116.155 43.8532C116.155 43.8532 116.155 43.8532 116.155 43.8534L116.155 43.8537C114.997 44.8069 113.843 45.5293 113.843 45.5293L112.353 43.4148C112.353 43.4148 111.306 44.2123 109.537 45.0494V45.6621H115.345C121.829 40.7565 124.13 33.7419 121.47 30.1022Z" fill="#0033A0"/>
<path d="M118.181 29.3665C116.571 27.1991 114.05 27.5088 113.299 27.6139C112.473 27.7296 111.849 27.9103 111.849 27.9103C112.033 27.9276 112.284 27.9606 112.466 27.9966C112.599 27.9652 113.758 27.701 114.6 27.8113L114.603 27.8115C113.984 27.8786 113.139 28.134 113.051 28.1609C113.05 28.1612 113.05 28.1617 113.049 28.1621L113.052 28.1632C113.082 28.1721 113.326 28.2459 113.638 28.4291C113.729 28.4046 114.876 28.1004 115.969 28.079V28.0792C115.969 28.0792 116.373 28.2585 116.763 28.5257C115.35 28.5203 114.18 28.7916 114.148 28.7991C114.328 28.9581 114.489 29.1379 114.626 29.3347C116.175 29.1027 117.512 29.2033 117.512 29.2033C117.512 29.2033 117.693 29.4249 117.775 29.5441C117.878 29.6941 117.984 29.8806 118.066 30.0444C116.485 29.8595 114.973 29.9917 114.972 29.9917C115.076 30.2609 115.147 30.5489 115.185 30.8516C115.36 30.8503 116.699 30.8527 118.404 31.1598C118.459 31.5507 118.464 31.9696 118.421 32.4116C118.131 32.3362 116.731 31.9865 115.203 31.8349C115.173 32.2167 115.1 32.6142 114.988 33.0218C115.159 33.0621 117.047 33.512 118.104 33.9402C118.083 34.0072 118.062 34.0739 118.04 34.1403C117.889 34.5942 117.699 35.05 117.476 35.5043C116.624 35.0852 114.537 34.2691 114.537 34.2691C114.328 34.736 114.073 35.2087 113.774 35.6804C113.774 35.6804 115.564 36.7018 116.426 37.2673C116.016 37.8518 115.567 38.4085 115.083 38.9338C114.458 38.373 112.894 37.1614 112.776 37.07C112.272 37.6705 111.637 38.3019 111.447 38.4887L113.323 40.6404C113.306 40.656 113.288 40.6718 113.269 40.6878C112.863 41.0244 112.426 41.3413 112.056 41.5953C111.735 41.8133 111.47 41.9822 111.379 42.0411C111.357 42.008 110.128 40.0462 109.944 39.7341C109.81 39.8329 109.674 39.9295 109.537 40.0238V44.0566C109.757 43.9502 109.979 43.8399 110.199 43.7228C111.257 43.2018 112.284 42.5407 113.239 41.777C113.906 41.2477 114.537 40.6747 115.128 40.0617C115.882 39.2889 116.536 38.4794 117.082 37.6591C119.152 34.6042 119.706 31.419 118.181 29.3665Z" fill="#0033A0"/>
<path d="M114.004 29.202C113.237 28.3219 111.961 28.0204 110.477 28.2324C110.437 28.2384 110.395 28.2442 110.357 28.2505C110.242 28.2702 110.128 28.2928 110.014 28.3182C109.785 28.3713 109.628 28.4237 109.537 28.4592V28.9031C109.682 28.7881 109.832 28.6789 109.985 28.5755C110.281 28.5122 110.568 28.472 110.845 28.4538C110.417 28.6983 109.922 29.0299 109.537 29.336V29.6778L109.55 29.6856C109.55 29.6856 110.637 28.8251 111.501 28.4544C111.702 28.4683 111.902 28.4976 112.098 28.5421C110.808 29.0895 109.855 29.7685 109.789 29.8162C109.883 29.8732 109.973 29.9367 110.058 30.006C110.075 29.9955 111.326 29.213 112.703 28.744C112.89 28.8293 113.07 28.9357 113.226 29.056C111.727 29.4773 110.286 30.2296 110.286 30.2296C110.367 30.3244 110.439 30.4269 110.5 30.5356L110.526 30.5254C112.06 29.8687 113.691 29.5319 113.691 29.5319C113.822 29.7116 113.927 29.9083 114.004 30.1167C114.004 30.1167 112.541 30.284 110.658 30.8878C110.741 31.1479 110.764 31.3435 110.764 31.3452C110.764 31.3452 112.539 30.9482 114.175 30.9042C114.198 31.1671 114.19 31.4622 114.152 31.7649C113.183 31.7139 110.874 31.8368 110.784 31.8439C110.784 31.8439 110.775 32.1765 110.689 32.4894C110.689 32.4894 112.376 32.5436 113.91 32.8298C113.789 33.2023 113.639 33.5646 113.46 33.9134C112.438 33.6062 110.886 33.2332 110.477 33.1395C110.366 33.4113 110.232 33.6728 110.075 33.921C110.075 33.921 111.971 34.7485 112.699 35.1533H112.7L112.7 35.1541C112.384 35.627 111.758 36.289 111.758 36.289C111.587 36.161 111.415 36.0338 111.243 35.9075C110.74 35.5557 109.994 35.0333 109.54 34.7176L109.537 34.715V36.2831L110.52 37.4319C110.205 37.6862 109.877 37.924 109.537 38.1444V39.0801L109.573 39.0565C110.034 38.742 110.477 38.4004 110.898 38.0337C114.291 35.0812 115.682 31.1269 114.004 29.202Z" fill="#0033A0"/>
<path d="M109.537 33.6968C110.404 32.4627 110.529 31.0463 109.768 30.3548C109.696 30.2899 109.619 30.2342 109.537 30.1862V33.6968ZM114.269 27.0619C121.959 27.0619 128.216 33.3417 128.216 41.0607C128.216 42.6262 127.951 44.1839 127.439 45.6621H130.862V24.3366H109.536V27.8934L109.553 27.8874C111.065 27.3399 112.661 27.0605 114.269 27.0618M100.613 31.1359C100.093 30.6724 99.4282 30.3128 98.6193 30.0573C97.8102 29.802 96.8383 29.6742 95.7027 29.6742H89.9543V40.3189H95.7027C97.7463 40.3189 99.3291 39.8767 100.45 38.9918C101.572 38.1074 102.132 36.7757 102.132 34.9967C102.132 34.202 102.009 33.4756 101.763 32.818C101.517 32.1602 101.134 31.5997 100.613 31.1359ZM98.6903 36.3308C98.5718 36.6904 98.3804 36.9789 98.1154 37.1964C97.8504 37.4145 97.5072 37.5704 97.0862 37.6648C96.6653 37.7596 96.1566 37.8068 95.5608 37.8068H93.0486V32.1863H95.5606C96.1755 32.1863 96.6934 32.2386 97.1148 32.3423C97.5355 32.4468 97.8763 32.6121 98.1364 32.8392C98.3966 33.0663 98.5837 33.3572 98.6974 33.712C98.8109 34.0671 98.8674 34.4951 98.8674 34.9967C98.8674 35.5265 98.8081 35.9711 98.6902 36.3309M77.7341 35.9475H83.5532V33.8611H77.7341V32.1014H84.6459L84.5894 29.674H74.6396V40.3189H84.8731L84.9299 37.9203H77.734L77.7341 35.9475ZM58.9283 29.6741L58.8435 32.1863H62.9167V40.3188H66.025V32.1861H70.0983L70.0276 29.6741H58.9283ZM50.9804 40.3189H54.1312V29.6741H50.9804V40.3189ZM42.2373 34.968L42.2659 36.1036L42.2373 36.1319L41.4282 35.3087L35.6661 29.6741H33.1113V40.3189H35.9214V34.7271L35.8933 33.5773L35.9356 33.5631L36.7447 34.372L43.0179 40.3189H45.0477V29.6742H42.2373V34.968ZM24.5528 35.6779C24.5528 36.4821 24.3256 37.0807 23.8716 37.4734C23.4175 37.8662 22.6886 38.0623 21.6858 38.0623C20.6733 38.0623 19.9305 37.8662 19.4575 37.4734C18.9842 37.0806 18.7477 36.4821 18.7477 35.6779V29.6742H15.6538V35.6497C15.6538 37.2959 16.1718 38.5236 17.208 39.3328C18.244 40.1417 19.7365 40.5461 21.6858 40.5461C23.6443 40.5461 25.1252 40.144 26.1283 39.3398C27.1311 38.5355 27.6328 37.3052 27.6328 35.6497V29.6742H24.5528V35.6779Z" fill="#0033A0"/>
</g>
</g>
<defs>
<clipPath id="clip0_2006_29620">
<rect width="148" height="69" fill="white"/>
</clipPath>
</defs>
</svg>
