<svg xmlns="http://www.w3.org/2000/svg" width="1180" height="430" viewBox="0 0 1180 430" role="img" aria-label="Three mini-maps: vector areas of interest join to raster footprints via ST_Intersects, producing the overlap as the result">
<defs>
<linearGradient id="jbg" x1="0" y1="0" x2="1" y2="1"><stop offset="0" stop-color="#1c1022"/><stop offset="0.55" stop-color="#2a1420"/><stop offset="1" stop-color="#3a1e1b"/></linearGradient>
<radialGradient id="jglow" cx="0.5" cy="0.1" r="0.7"><stop offset="0" stop-color="#e8672a" stop-opacity="0.16"/><stop offset="1" stop-color="#e8672a" stop-opacity="0"/></radialGradient>
</defs>
<rect width="1180" height="430" rx="18" fill="url(#jbg)"/>
<rect width="1180" height="430" rx="18" fill="url(#jglow)"/>

<text x="590" y="42" text-anchor="middle" font-family="ui-monospace, 'SF Mono', Menlo, monospace" font-size="18" fill="#f0d3b8">aoi <tspan fill="#ff6a3d" font-size="20">&#8904;</tspan> scenes  <tspan fill="#a8897a">ON</tspan>  <tspan fill="#f5b74e">ST_Intersects</tspan>(aoi.geom, scene.geometry)</text>

<!-- ===== CARD A: vectors (gold) ===== -->
<g font-family="Inter, 'Helvetica Neue', Arial, sans-serif">
<rect x="30" y="72" width="300" height="300" rx="14" fill="#2a181c" stroke="#6e3a24" stroke-width="1.5"/>
<rect x="30" y="72" width="300" height="40" rx="14" fill="#3a2119"/><rect x="30" y="92" width="300" height="20" fill="#3a2119"/>
<text x="50" y="98" font-family="ui-monospace, Menlo, monospace" font-size="13" font-weight="600" fill="#f5c542">VECTOR — areas of interest</text>
<g stroke="#8a5a3a" stroke-opacity="0.35" stroke-width="1"><line x1="30" y1="182" x2="330" y2="182"/><line x1="30" y1="252" x2="330" y2="252"/><line x1="30" y1="322" x2="330" y2="322"/><line x1="110" y1="112" x2="110" y2="372"/><line x1="190" y1="112" x2="190" y2="372"/><line x1="270" y1="112" x2="270" y2="372"/></g>
<polygon points="90,150 170,140 200,215 120,245 70,195" fill="#f5c542" fill-opacity="0.16" stroke="#f5c542" stroke-width="2.2"/>
<polygon points="205,265 285,275 275,340 195,330" fill="#f5c542" fill-opacity="0.16" stroke="#f5c542" stroke-width="2.2"/>
<text x="118" y="200" font-family="ui-monospace, Menlo, monospace" font-size="11" fill="#f0d08a">AOI-1</text>
<text x="228" y="308" font-family="ui-monospace, Menlo, monospace" font-size="11" fill="#f0d08a">AOI-2</text>
</g>

<text x="365" y="232" text-anchor="middle" font-size="34" fill="#ff6a3d" font-weight="700" font-family="Inter, Arial, sans-serif">&#8904;</text>

<!-- ===== CARD B: footprints (orange) ===== -->
<g font-family="Inter, 'Helvetica Neue', Arial, sans-serif">
<rect x="400" y="72" width="300" height="300" rx="14" fill="#2a181c" stroke="#6e3a24" stroke-width="1.5"/>
<rect x="400" y="72" width="300" height="40" rx="14" fill="#3a2119"/><rect x="400" y="92" width="300" height="20" fill="#3a2119"/>
<text x="420" y="98" font-family="ui-monospace, Menlo, monospace" font-size="13" font-weight="600" fill="#5fd8e0">RASTER — STAC footprints</text>
<g stroke="#8a5a3a" stroke-opacity="0.35" stroke-width="1"><line x1="400" y1="182" x2="700" y2="182"/><line x1="400" y1="252" x2="700" y2="252"/><line x1="400" y1="322" x2="700" y2="322"/><line x1="480" y1="112" x2="480" y2="372"/><line x1="560" y1="112" x2="560" y2="372"/><line x1="640" y1="112" x2="640" y2="372"/></g>
<polygon points="435,145 540,157 528,255 420,243" fill="#4d8ff5" fill-opacity="0.42" stroke="#4d8ff5" stroke-width="1.8"/>
<polygon points="540,157 645,169 633,268 528,255" fill="#35c9d8" fill-opacity="0.42" stroke="#35c9d8" stroke-width="1.8"/>
<polygon points="470,250 575,262 565,352 460,340" fill="#7ed957" fill-opacity="0.42" stroke="#7ed957" stroke-width="1.8"/>
<text x="452" y="168" font-family="ui-monospace, Menlo, monospace" font-size="11" fill="#a9c8ff">scene A</text>
<text x="560" y="190" font-family="ui-monospace, Menlo, monospace" font-size="11" fill="#8fe6ef">scene B</text>
<text x="492" y="300" font-family="ui-monospace, Menlo, monospace" font-size="11" fill="#b6ec96">scene C</text>
</g>

<text x="735" y="228" text-anchor="middle" font-size="30" fill="#c6ab9c" font-weight="700" font-family="Inter, Arial, sans-serif">=</text>

<!-- ===== CARD C: result overlap (red) ===== -->
<g font-family="Inter, 'Helvetica Neue', Arial, sans-serif">
<rect x="770" y="72" width="380" height="300" rx="14" fill="#2a181c" stroke="#ff5a2e" stroke-width="1.8"/>
<rect x="770" y="72" width="380" height="40" rx="14" fill="#4a1e15"/><rect x="770" y="92" width="380" height="20" fill="#4a1e15"/>
<text x="790" y="98" font-family="ui-monospace, Menlo, monospace" font-size="13" font-weight="600" fill="#ff8f5c">MATCHES — where they overlap</text>
<g stroke="#8a5a3a" stroke-opacity="0.3" stroke-width="1"><line x1="770" y1="182" x2="1150" y2="182"/><line x1="770" y1="252" x2="1150" y2="252"/><line x1="770" y1="322" x2="1150" y2="322"/><line x1="880" y1="112" x2="880" y2="372"/><line x1="990" y1="112" x2="990" y2="372"/><line x1="1100" y1="112" x2="1100" y2="372"/></g>
<g fill="none" stroke-width="1.3" opacity="0.65">
<polygon points="815,150 930,163 918,262 803,250" stroke="#35c9d8"/>
<polygon points="865,255 980,268 968,360 853,348" stroke="#7ed957"/>
</g>
<g stroke="#f5c542" fill="none" stroke-width="1.6" stroke-dasharray="4 3" opacity="0.85">
<polygon points="832,160 915,150 945,225 862,258 812,208"/>
<polygon points="890,264 975,276 963,352 878,340"/>
</g>
<polygon points="832,162 915,158 918,225 862,248 815,208" fill="#ff5a2e" fill-opacity="0.9"/>
<polygon points="890,266 975,272 968,352 888,344" fill="#ff5a2e" fill-opacity="0.9"/>
<text x="960" y="358" text-anchor="middle" font-family="ui-monospace, Menlo, monospace" font-size="12" font-weight="600" fill="#ff9a6e">&#8745; = the answer</text>
</g>
</svg>
