<svg xmlns="http://www.w3.org/2000/svg" width="1180" height="300" viewBox="0 0 1180 300" role="img" aria-label="Predicate pushdown funnel: the full Sentinel-2 archive filtered by spatial, temporal and cloud predicates down to a few hundred matching scenes">
<defs>
<linearGradient id="pbg" x1="0" y1="0" x2="1" y2="1"><stop offset="0" stop-color="#1c1022"/><stop offset="0.55" stop-color="#2a1420"/><stop offset="1" stop-color="#3a1e1b"/></linearGradient>
<linearGradient id="fun" x1="0" y1="0" x2="1" y2="0"><stop offset="0" stop-color="#f5c542" stop-opacity="0.22"/><stop offset="0.5" stop-color="#f2913a" stop-opacity="0.28"/><stop offset="1" stop-color="#ff5a2e" stop-opacity="0.34"/></linearGradient>
</defs>
<rect width="1180" height="300" rx="18" fill="url(#pbg)"/>

<rect x="40" y="60" width="330" height="180" rx="12" fill="#2a181c" stroke="#6e3a24" stroke-width="1.5"/>
<text x="205" y="46" text-anchor="middle" font-family="ui-monospace, Menlo, monospace" font-size="13" font-weight="600" fill="#f2913a">sentinel-2-l2a — whole archive</text>
<g fill="#f2913a" opacity="0.6">
<circle cx="80" cy="92" r="3.2"/><circle cx="122" cy="92" r="3.2"/><circle cx="164" cy="92" r="3.2"/><circle cx="206" cy="92" r="3.2"/><circle cx="248" cy="92" r="3.2"/><circle cx="290" cy="92" r="3.2"/><circle cx="332" cy="92" r="3.2" opacity="0.4"/>
<circle cx="80" cy="128" r="3.2"/><circle cx="122" cy="128" r="3.2"/><circle cx="164" cy="128" r="3.2"/><circle cx="206" cy="128" r="3.2"/><circle cx="248" cy="128" r="3.2"/><circle cx="290" cy="128" r="3.2"/><circle cx="332" cy="128" r="3.2" opacity="0.4"/>
<circle cx="80" cy="164" r="3.2"/><circle cx="122" cy="164" r="3.2"/><circle cx="164" cy="164" r="3.2"/><circle cx="206" cy="164" r="3.2"/><circle cx="248" cy="164" r="3.2"/><circle cx="290" cy="164" r="3.2"/><circle cx="332" cy="164" r="3.2" opacity="0.4"/>
<circle cx="80" cy="200" r="3.2"/><circle cx="122" cy="200" r="3.2"/><circle cx="164" cy="200" r="3.2"/><circle cx="206" cy="200" r="3.2"/><circle cx="248" cy="200" r="3.2"/><circle cx="290" cy="200" r="3.2"/><circle cx="332" cy="200" r="3.2" opacity="0.4"/>
</g>
<text x="205" y="262" text-anchor="middle" font-family="Inter, 'Helvetica Neue', Arial, sans-serif" font-size="12" fill="#a8897a">tens of millions of scenes</text>

<polygon points="420,72 630,72 535,158 535,222 420,222" fill="url(#fun)" stroke="#8a4a2c" stroke-width="1.3"/>
<text x="525" y="60" text-anchor="middle" font-family="Inter, 'Helvetica Neue', Arial, sans-serif" font-size="13" font-weight="700" fill="#f7efe7">predicate pushdown</text>
<g font-family="ui-monospace, Menlo, monospace" font-size="12" fill="#f0d3b8">
<text x="446" y="112">ST_Intersects(aoi)</text>
<text x="446" y="140">datetime BETWEEN …</text>
<text x="446" y="168">eo:cloud_cover &lt; 20</text>
</g>
<path d="M630,147 L712,147" stroke="#ff5a2e" stroke-width="2.2" marker-end="url(#pa)"/>

<rect x="720" y="86" width="230" height="120" rx="12" fill="#2a181c" stroke="#ff5a2e" stroke-width="1.8"/>
<g fill="#ff5a2e"><rect x="748" y="110" width="24" height="24" rx="3" opacity="0.92"/><rect x="780" y="110" width="24" height="24" rx="3" opacity="0.74"/><rect x="812" y="110" width="24" height="24" rx="3" opacity="0.56"/></g>
<text x="835" y="176" text-anchor="middle" font-family="Inter, 'Helvetica Neue', Arial, sans-serif" font-size="30" font-weight="800" fill="#f7efe7">304</text>
<text x="835" y="196" text-anchor="middle" font-family="Inter, 'Helvetica Neue', Arial, sans-serif" font-size="12" fill="#c6ab9c">clear scenes over SF</text>

<text x="1050" y="140" text-anchor="middle" font-family="Inter, 'Helvetica Neue', Arial, sans-serif" font-size="13" fill="#f0a94e">only these</text>
<text x="1050" y="160" text-anchor="middle" font-family="Inter, 'Helvetica Neue', Arial, sans-serif" font-size="13" fill="#f0a94e">bytes move</text>
<path d="M962,147 L1000,147" stroke="#f5b74e" stroke-width="1.6" stroke-dasharray="4 3"/>

<defs><marker id="pa" markerWidth="9" markerHeight="9" refX="6" refY="3" orient="auto"><path d="M0,0 L6,3 L0,6 Z" fill="#ff5a2e"/></marker></defs>
</svg>
