<svg xmlns="http://www.w3.org/2000/svg" width="1180" height="240" viewBox="0 0 1180 240" role="img" aria-label="AOI coverage bars: Kanton Reef 80.2 percent, Offshore Buoy 29.4 percent, Null Island Park no coverage">
<defs>
<linearGradient id="cbg" x1="0" y1="0" x2="1" y2="1"><stop offset="0" stop-color="#1c1022"/><stop offset="0.55" stop-color="#2a1420"/><stop offset="1" stop-color="#3a1e1b"/></linearGradient>
<linearGradient id="barfill" x1="0" y1="0" x2="1" y2="0"><stop offset="0" stop-color="#f5c542"/><stop offset="1" stop-color="#f2913a"/></linearGradient>
</defs>
<rect width="1180" height="240" rx="18" fill="url(#cbg)"/>

<text x="40" y="46" font-family="Inter, 'Helvetica Neue', Arial, sans-serif" font-size="15" font-weight="700" fill="#f7efe7">AOI coverage — share of each area inside a scene footprint</text>

<text x="40" y="94" font-family="ui-monospace, Menlo, monospace" font-size="13" fill="#f0d3b8">Kanton Reef</text>
<rect x="250" y="82" width="820" height="18" rx="9" fill="#3a231d"/>
<rect x="250" y="82" width="658" height="18" rx="9" fill="url(#barfill)"/>
<circle cx="908" cy="91" r="7" fill="#ff5a2e"/>
<text x="1140" y="95" text-anchor="end" font-family="Inter, Arial, sans-serif" font-size="15" font-weight="700" fill="#f7efe7">80.2%</text>

<text x="40" y="142" font-family="ui-monospace, Menlo, monospace" font-size="13" fill="#f0d3b8">Offshore Buoy</text>
<rect x="250" y="130" width="820" height="18" rx="9" fill="#3a231d"/>
<rect x="250" y="130" width="241" height="18" rx="9" fill="url(#barfill)"/>
<circle cx="491" cy="139" r="7" fill="#ff5a2e"/>
<text x="1140" y="143" text-anchor="end" font-family="Inter, Arial, sans-serif" font-size="15" font-weight="700" fill="#f7efe7">29.4%</text>

<text x="40" y="190" font-family="ui-monospace, Menlo, monospace" font-size="13" fill="#f0d3b8">Null Island Park</text>
<rect x="250" y="178" width="820" height="18" rx="9" fill="#3a231d"/>
<rect x="250" y="178" width="820" height="18" rx="9" fill="none" stroke="#ff5a2e" stroke-width="1.4" stroke-dasharray="5 4"/>
<text x="262" y="191" font-family="ui-monospace, Menlo, monospace" font-size="11" fill="#ff9a6e">no coverage — surfaced by the LEFT ANTI JOIN</text>
<text x="1140" y="191" text-anchor="end" font-family="Inter, Arial, sans-serif" font-size="15" font-weight="700" fill="#ff8f5c">0%</text>

<text x="40" y="224" font-family="ui-monospace, Menlo, monospace" font-size="11" fill="#a8897a">bar = ST_Area(ST_Intersection(aoi, footprint)) / ST_Area(aoi)</text>
</svg>
