<svg xmlns="http://www.w3.org/2000/svg" viewBox="0 0 500 300" width="500" height="300" style="background:#ffffff">
  <defs>
    <style>
      text { font-family: 'Segoe UI', Arial, Helvetica, sans-serif; }
    </style>
  </defs>
  <text x="250" y="22" text-anchor="middle" font-size="16" font-weight="bold" fill="#333333">ST_GeomFromGeoHash</text>
  <rect x="34" y="38" width="72" height="24" rx="4" fill="#8e44ad" opacity="0.12" stroke="#8e44ad" stroke-width="1.2" />
  <text x="70" y="55" text-anchor="middle" font-size="13" font-weight="bold" fill="#8e44ad">GeoHash</text>
  <line x1="70" y1="62" x2="177.7" y2="151.8" stroke="#2ecc71" stroke-width="2" />
  <polygon points="180,153.8 174.9,144.3 169.8,150.4" fill="#2ecc71" />
  <path d="M 146.88 218.75 L 353.12 218.75 L 353.12 81.25 L 146.88 81.25 L 146.88 218.75 Z" fill="rgba(46,204,113,0.18)" stroke="#2ecc71" stroke-width="2.5" fill-rule="evenodd" />
  <circle cx="146.88" cy="218.75" r="3" fill="#2ecc71" stroke="white" stroke-width="1" />
  <circle cx="353.12" cy="218.75" r="3" fill="#2ecc71" stroke="white" stroke-width="1" />
  <circle cx="353.12" cy="81.25" r="3" fill="#2ecc71" stroke="white" stroke-width="1" />
  <circle cx="146.88" cy="81.25" r="3" fill="#2ecc71" stroke="white" stroke-width="1" />
  <circle cx="146.88" cy="218.75" r="3" fill="#2ecc71" stroke="white" stroke-width="1" />
  <text x="250" y="292" text-anchor="middle" font-size="13" fill="#333333" font-style="italic">Creates a Geometry from a GeoHash string</text>
  <rect x="112" y="255" width="12" height="12" rx="2" fill="#8e44ad" stroke="#8e44ad" stroke-width="1" />
  <text x="128" y="266" font-size="13" fill="#333333">Input Format</text>
  <rect x="238" y="255" width="12" height="12" rx="2" fill="#2ecc71" stroke="#2ecc71" stroke-width="1" />
  <text x="254" y="266" font-size="13" fill="#333333">Result Geometry</text>
</svg>