<?xml version="1.0" encoding="UTF-8" standalone="no"?><!DOCTYPE svg PUBLIC "-//W3C//DTD SVG 1.1//EN" "http://www.w3.org/Graphics/SVG/1.1/DTD/svg11.dtd"><svg width="100%" height="100%" viewBox="0 0 495 202" version="1.1" xmlns="http://www.w3.org/2000/svg" xmlns:xlink="http://www.w3.org/1999/xlink" xml:space="preserve" xmlns:serif="http://www.serif.com/" style="fill-rule:evenodd;clip-rule:evenodd;stroke-linejoin:round;stroke-miterlimit:2;"><g><clipPath id="_clip1"><path d="M298.101,85.754c0,-44.617 36.169,-80.786 80.786,-80.786c44.616,0 80.785,36.169 80.785,80.786c0,44.616 -36.169,80.785 -80.785,80.785c-44.617,0 -80.786,-36.169 -80.786,-80.785Z" clip-rule="nonzero"/></clipPath><g clip-path="url(#_clip1)"><rect x="-34.719" y="-61.478" width="576" height="324" style="fill:url(#_Linear2);"/><rect x="-34.719" y="-61.478" width="576" height="324" style="fill:url(#_Linear3);"/></g></g><path d="M410.529,42.44c-1.957,-0.08 -3.575,1.494 -3.575,3.434l0,39.264c0,0.336 -0.275,0.613 -0.612,0.613l-1.328,0c-0.916,0 -1.655,-0.741 -1.655,-1.655l0,-15.45c0,-1.943 -1.603,-3.499 -3.56,-3.436c-1.878,0.065 -3.325,1.654 -3.325,3.516l0,16.447c0,4.124 3.338,7.462 7.462,7.462l2.406,0c0.337,0 0.612,0.268 0.612,0.607l0,12.806c0,0.321 0.255,0.577 0.577,0.577l5.726,0c0.322,0 0.582,-0.256 0.582,-0.577l0,-21.809c0,-0.336 0.27,-0.61 0.607,-0.61l2.231,0c4.124,0 7.461,-3.338 7.461,-7.462l0,-13.814c0,-1.942 -1.622,-3.495 -3.579,-3.415c-1.878,0.062 -3.32,1.648 -3.32,3.511l0,12.659c0,0.917 -0.74,1.654 -1.655,1.654l-1.138,0c-0.337,0 -0.607,-0.273 -0.607,-0.609l0,-30.184c0,-1.877 -1.448,-3.463 -3.31,-3.529Z" style="fill:#1eb001;"/><clipPath id="_clip4"><path d="M271.8,0l-47.166,14.548l-9.195,5.11l-36.101,63.691l-11.867,2.746l-33.731,35.462l-24.056,67.62l6.433,11.867l372.557,0l5.898,-8.405l-23.04,-65.265l-28.314,-29.086l-12.58,-2.141l-18.871,10.471l-9.444,-2.606l-15.253,-24.842l-30.88,-20.299l-11.012,-14.148l-18.87,-3.146l-42.926,-36.858l-11.582,-4.719Z"/></clipPath><g clip-path="url(#_clip4)"><rect x="-34.719" y="-61.478" width="576" height="324" style="fill:url(#_Linear5);"/></g><clipPath id="_clip6"><path d="M162.116,0l-47.166,14.548l-9.195,5.11l-36.101,63.691l-11.867,2.746l-33.732,35.462l-24.055,67.62l6.433,11.867l372.556,0l5.898,-8.405l-23.039,-65.265l-28.315,-29.086l-12.58,-2.141l-18.87,10.471l-9.444,-2.606l-15.253,-24.842l-30.88,-20.299l-11.012,-14.148l-18.87,-3.146l-42.926,-36.858l-11.582,-4.719Z"/></clipPath><g clip-path="url(#_clip6)"><rect x="-144.403" y="-61.478" width="576" height="324" style="fill:url(#_Linear7);"/></g><clipPath id="_clip8"><path d="M233.214,133.807c-3.162,0 -5.576,0.535 -7.242,1.603c-1.837,1.153 -3.183,2.734 -4.037,4.742c-0.812,2.008 -1.346,4.187 -1.603,6.537c-0.256,2.521 -0.384,5.106 -0.384,7.754c0,2.521 0.128,4.978 0.384,7.37c0.257,2.521 0.791,4.786 1.603,6.794c0.854,1.922 2.2,3.503 4.037,4.742c1.666,1.196 4.08,1.795 7.242,1.795c3.162,0 5.661,-0.641 7.498,-1.923c1.837,-1.239 3.098,-2.863 3.781,-4.871c0.855,-2.008 1.432,-4.251 1.731,-6.729c0.085,-2.435 0.128,-4.828 0.128,-7.178c0,-2.563 -0.043,-5.02 -0.128,-7.37c-0.299,-2.349 -0.876,-4.528 -1.731,-6.536c-0.683,-2.008 -1.944,-3.632 -3.781,-4.871c-1.837,-1.239 -4.336,-1.859 -7.498,-1.859Zm-68.199,-0.769c-4.017,0 -7.306,1.261 -9.87,3.782c-2.521,2.648 -3.909,6.558 -4.165,11.727l28.07,0c-0.171,-5.169 -1.56,-9.079 -4.166,-11.727c-2.564,-2.521 -5.853,-3.782 -9.869,-3.782Zm0,-12.625c7.605,0.086 14.035,2.585 19.29,7.498c5.34,4.999 8.053,11.878 8.139,20.636l0,11.023l-41.464,0c0,5.341 1.538,9.4 4.614,12.177c2.862,2.82 6.622,4.23 11.279,4.23c5.426,0 10.275,-2.158 14.548,-6.473l9.677,8.267c-6.793,7.263 -14.783,10.852 -23.969,10.767c-3.503,0 -6.921,-0.513 -10.253,-1.538c-1.667,-0.556 -3.29,-1.303 -4.871,-2.243c-1.666,-0.812 -3.226,-1.816 -4.678,-3.013c-2.82,-2.478 -5.106,-5.938 -6.858,-10.382c-1.922,-4.272 -2.884,-9.826 -2.884,-16.662c0,-6.58 0.833,-12.049 2.5,-16.406c1.666,-4.444 3.802,-7.947 6.408,-10.511c2.649,-2.606 5.619,-4.486 8.909,-5.639c3.247,-1.154 6.451,-1.731 9.613,-1.731Zm81.337,-26.083l13.394,0l0,93.439l-13.394,0l0,-6.986c-4.401,4.999 -10.147,7.584 -17.24,7.755c-4.016,-0.086 -7.455,-0.919 -10.318,-2.5c-2.99,-1.538 -5.49,-3.589 -7.498,-6.152c-1.837,-2.094 -3.055,-4.935 -3.653,-8.524c-0.726,-3.418 -1.089,-9.057 -1.089,-16.919c0,-7.989 0.363,-13.671 1.089,-17.047c0.598,-3.418 1.816,-6.173 3.653,-8.267c3.76,-5.597 9.699,-8.502 17.816,-8.716c3.418,0 6.58,0.705 9.485,2.115c2.692,1.496 5.277,3.418 7.755,5.768l0,-33.966Zm-152.355,-0.769c11.622,0.256 21.726,3.482 30.314,9.677l-7.883,11.664c-7.007,-4.614 -14.719,-7.007 -23.135,-7.178c-4.358,0 -7.99,1.09 -10.895,3.269c-3.034,2.264 -4.593,5.639 -4.679,10.125c0,2.692 1.047,5.127 3.141,7.306c2.093,2.222 5.447,3.76 10.061,4.614c2.564,0.428 6.067,0.919 10.511,1.474c8.758,1.197 15.231,4.337 19.418,9.421c4.144,4.999 6.216,10.81 6.216,17.432c-0.47,17.859 -11.407,26.916 -32.812,27.173c-13.843,0 -25.742,-4.273 -35.697,-12.818l9.293,-10.638c7.434,6.11 16.278,9.207 26.532,9.293c12.134,-0.171 18.286,-4.508 18.457,-13.01c0.085,-6.964 -3.973,-11.151 -12.177,-12.561c-3.759,-0.513 -7.882,-1.09 -12.368,-1.731c-8.032,-1.324 -14.142,-4.293 -18.329,-8.908c-4.315,-4.742 -6.473,-10.51 -6.473,-17.303c0,-8.161 2.713,-14.74 8.139,-19.739c5.255,-4.956 12.711,-7.477 22.366,-7.562Z"/></clipPath><g clip-path="url(#_clip8)"><rect x="-34.77" y="-42.958" width="576" height="324" style="fill:url(#_Linear9);"/></g><clipPath id="_clip10"><path d="M428.577,153.646c-7.776,0.171 -11.621,2.841 -11.536,8.01c0,2.265 1.004,4.187 3.012,5.768c1.923,1.752 5.106,2.628 9.549,2.628c5.597,0.085 9.549,-0.577 11.856,-1.987c2.094,-1.41 3.14,-4.614 3.14,-9.613l0,-4.806l-16.021,0Zm1.73,-39.158c8.374,-0.085 15.06,1.496 20.059,4.743c4.999,3.332 7.541,9.058 7.627,17.175l0,45.438l-13.395,0l0,-5.896l-0.256,0c-1.239,2.264 -3.162,3.93 -5.768,4.999c-2.563,1.11 -6.109,1.666 -10.638,1.666c-7.434,-0.086 -13.159,-2.051 -17.176,-5.896c-4.229,-3.76 -6.344,-8.566 -6.344,-14.42c0,-5.597 1.837,-10.232 5.511,-13.907c3.675,-3.759 9.058,-5.682 16.15,-5.767l18.521,0l0,-6.986c0.086,-5.853 -4.464,-8.694 -13.65,-8.523c-3.333,0 -5.96,0.341 -7.883,1.025c-2.008,0.812 -3.589,2.179 -4.742,4.102l-10.511,-8.011c5.085,-6.665 12.583,-9.912 22.495,-9.742Zm-60.257,0c5.511,0 10.553,1.944 15.124,5.832c4.529,3.931 6.9,9.699 7.114,17.304l0,44.22l-13.394,0l0,-39.606c0,-4.657 -1.239,-8.203 -3.717,-10.638c-2.435,-2.478 -5.576,-3.717 -9.421,-3.717c-3.845,0 -7.007,1.239 -9.485,3.717c-2.52,2.435 -3.781,5.981 -3.781,10.638l0,39.606l-13.394,0l0,-66.522l13.394,0l0,7.049l0.257,0c4.4,-5.255 10.168,-7.883 17.303,-7.883Z"/></clipPath><g clip-path="url(#_clip10)"><rect x="-33.44" y="-48.883" width="576" height="324" style="fill:url(#_Linear11);"/></g><clipPath id="_clip12"><path d="M212.05,67.981c-2.4,0.053 -3.586,0.877 -3.56,2.472c0,0.699 0.31,1.292 0.93,1.78c0.593,0.541 1.575,0.811 2.946,0.811c1.727,0.026 2.947,-0.178 3.659,-0.613c0.646,-0.435 0.968,-1.424 0.968,-2.966l0,-1.484l-4.943,0Zm-18.497,-7.949c-0.923,0 -1.655,0.191 -2.195,0.573c-0.567,0.383 -0.982,0.884 -1.246,1.503c-0.25,0.62 -0.415,1.292 -0.494,2.017c-0.079,0.765 -0.119,1.536 -0.119,2.314c0,0.725 0.04,1.45 0.119,2.175c0.079,0.765 0.244,1.457 0.494,2.077c0.264,0.619 0.679,1.12 1.246,1.503c0.54,0.395 1.272,0.593 2.195,0.593c0.976,0 1.747,-0.185 2.314,-0.554c0.567,-0.382 0.969,-0.87 1.206,-1.463c0.264,-0.62 0.442,-1.305 0.534,-2.057c0.026,-0.738 0.039,-1.496 0.039,-2.274c0,-0.817 -0.013,-1.615 -0.039,-2.393c-0.092,-0.778 -0.27,-1.463 -0.534,-2.056c-0.237,-0.62 -0.639,-1.108 -1.206,-1.464c-0.567,-0.329 -1.338,-0.494 -2.314,-0.494Zm79.668,-0.238c-1.239,0 -2.254,0.389 -3.045,1.167c-0.778,0.818 -1.206,2.024 -1.286,3.619l8.662,0c-0.053,-1.595 -0.481,-2.801 -1.285,-3.619c-0.791,-0.778 -1.806,-1.167 -3.046,-1.167Zm0,-3.895c2.347,0.026 4.331,0.797 5.953,2.313c1.648,1.543 2.485,3.665 2.511,6.368l0,3.401l-12.795,0c0,1.648 0.475,2.901 1.424,3.758c0.884,0.87 2.044,1.305 3.481,1.305c1.674,0 3.17,-0.666 4.489,-1.997l2.986,2.551c-2.096,2.241 -4.562,3.348 -7.396,3.322c-1.081,0 -2.136,-0.158 -3.164,-0.475c-0.514,-0.171 -1.015,-0.402 -1.503,-0.692c-0.514,-0.25 -0.995,-0.56 -1.444,-0.929c-0.87,-0.765 -1.575,-1.833 -2.116,-3.204c-0.593,-1.318 -0.89,-3.032 -0.89,-5.141c0,-2.031 0.257,-3.718 0.772,-5.063c0.514,-1.371 1.173,-2.452 1.977,-3.243c0.818,-0.804 1.734,-1.384 2.749,-1.74c1.002,-0.356 1.991,-0.534 2.966,-0.534Zm-39.173,0c1.595,0.026 2.999,0.356 4.212,0.988c1.213,0.646 2.268,1.51 3.164,2.591l-3.045,2.709c-1.042,-1.384 -2.432,-2.102 -4.173,-2.155c-3.506,-0.053 -5.286,2.083 -5.339,6.407c0.053,4.298 1.833,6.414 5.339,6.348c1.741,-0.026 3.131,-0.738 4.173,-2.136l3.045,2.709c-0.896,1.029 -1.951,1.866 -3.164,2.512c-1.213,0.672 -2.617,1.022 -4.212,1.048c-2.426,0 -4.555,-0.824 -6.387,-2.472c-1.899,-1.648 -2.874,-4.318 -2.927,-8.009c0.053,-3.731 1.028,-6.434 2.927,-8.108c1.832,-1.648 3.961,-2.459 6.387,-2.432Zm-21.464,0c2.584,-0.027 4.647,0.461 6.189,1.463c1.543,1.028 2.327,2.795 2.354,5.3l0,14.021l-4.134,0l0,-1.82l-0.079,0c-0.382,0.699 -0.975,1.213 -1.779,1.543c-0.791,0.343 -1.886,0.514 -3.283,0.514c-2.294,-0.026 -4.061,-0.633 -5.3,-1.819c-1.305,-1.161 -1.958,-2.644 -1.958,-4.45c0,-1.727 0.567,-3.157 1.701,-4.291c1.134,-1.16 2.795,-1.754 4.983,-1.78l5.715,0l0,-2.155c0.027,-1.807 -1.377,-2.683 -4.212,-2.631c-1.028,0 -1.839,0.106 -2.432,0.317c-0.62,0.25 -1.107,0.672 -1.463,1.265l-3.244,-2.471c1.569,-2.057 3.883,-3.059 6.942,-3.006Zm-17.785,0c2.518,0.066 4.357,0.962 5.517,2.689c0.567,0.646 0.956,1.497 1.167,2.551c0.198,1.042 0.297,2.808 0.297,5.3c0,2.426 -0.099,4.166 -0.297,5.221c-0.211,1.054 -0.6,1.918 -1.167,2.59c-0.567,0.791 -1.312,1.424 -2.235,1.899c-0.909,0.487 -2.003,0.745 -3.282,0.771c-1.055,0 -1.998,-0.231 -2.828,-0.692c-0.897,-0.422 -1.721,-1.002 -2.472,-1.74l0,10.5l-4.133,0l0,-28.832l4.133,0l0,2.136c1.371,-1.53 3.138,-2.327 5.3,-2.393Zm-24.308,-2.136l-4.172,12.597l8.424,0l-4.173,-12.597l-0.079,0Zm73.675,-5.913l4.133,0l0,10.481l0.079,0c1.358,-1.621 3.138,-2.432 5.339,-2.432c1.701,0 3.257,0.6 4.667,1.799c1.398,1.213 2.13,2.993 2.196,5.34l0,13.645l-4.134,0l0,-12.222c0,-1.437 -0.382,-2.531 -1.146,-3.282c-0.752,-0.765 -1.721,-1.147 -2.907,-1.147c-1.187,0 -2.163,0.382 -2.927,1.147c-0.778,0.751 -1.167,1.845 -1.167,3.282l0,12.222l-4.133,0l0,-28.833Zm-75.474,0l3.658,0l10.481,28.833l-4.607,0l-2.235,-6.447l-10.936,0l-2.215,6.447l-4.627,0l10.481,-28.833Z"/></clipPath><g clip-path="url(#_clip12)"><rect x="-34.425" y="-53.436" width="576" height="324" style="fill:url(#_Linear13);"/></g><g><clipPath id="_clip14"><path d="M298.528,119.587c-17.924,0 -32.506,14.583 -32.506,32.506c0,17.924 14.582,32.506 32.506,32.506c17.923,0 32.506,-14.582 32.506,-32.506c0,-17.923 -14.583,-32.506 -32.506,-32.506Zm3.591,2.823c6.408,0.771 12.192,3.573 16.701,7.747c-1.938,1.794 -4.075,3.308 -6.36,4.515c-0.258,-0.487 -0.523,-0.972 -0.803,-1.447c-2.453,-4.187 -5.704,-7.865 -9.538,-10.815Zm-7.323,0.015c-3.826,2.947 -7.07,6.619 -9.52,10.8c-0.268,0.46 -0.527,0.927 -0.777,1.396c-2.248,-1.198 -4.352,-2.694 -6.263,-4.464c4.475,-4.141 10.209,-6.937 16.56,-7.732Zm2.426,1.439l0,14.206c-3.615,-0.153 -7.116,-0.945 -10.372,-2.326c0.216,-0.404 0.439,-0.807 0.671,-1.204c2.459,-4.193 5.776,-7.835 9.701,-10.676Zm2.612,0.09c3.871,2.829 7.143,6.435 9.574,10.586c0.241,0.409 0.473,0.831 0.696,1.249c-3.227,1.354 -6.688,2.128 -10.27,2.281l0,-14.116Zm-23.434,8.058c2.119,1.971 4.454,3.632 6.955,4.957c-1.923,4.346 -3.009,9.041 -3.184,13.824l-11.513,0c0.31,-7.212 3.188,-13.77 7.742,-18.781Zm44.256,0c4.554,5.011 7.431,11.569 7.741,18.781l-11.636,0c-0.174,-4.765 -1.255,-9.442 -3.163,-13.773c2.537,-1.333 4.912,-3.01 7.058,-5.008Zm-34.947,6.079c3.606,1.547 7.495,2.432 11.513,2.589l0,10.113l-14.439,0c0.172,-4.394 1.165,-8.708 2.926,-12.702Zm25.532,0.046c1.746,3.982 2.739,8.28 2.911,12.656l-14.318,0l0,-10.113c3.982,-0.157 7.829,-1.023 11.407,-2.543Zm-42.583,15.262l11.51,0c0.159,4.861 1.261,9.641 3.229,14.053c-2.468,1.301 -4.779,2.929 -6.877,4.861c-4.623,-5.029 -7.549,-11.636 -7.862,-18.914Zm14.119,0l14.445,0l0,10.36c-4.003,0.157 -7.877,1.039 -11.474,2.577c-1.803,-4.064 -2.814,-8.464 -2.971,-12.937Zm17.057,0l14.321,0c-0.157,4.455 -1.165,8.834 -2.956,12.885c-3.566,-1.51 -7.398,-2.368 -11.365,-2.525l0,-10.36Zm16.933,0l11.63,0c-0.313,7.278 -3.238,13.885 -7.861,18.914c-2.125,-1.959 -4.47,-3.603 -6.974,-4.912c1.953,-4.397 3.046,-9.162 3.205,-14.002Zm-19.545,12.973l0,14.092c-4.034,-2.92 -7.426,-6.685 -9.9,-11.016c-0.144,-0.256 -0.286,-0.512 -0.424,-0.771c3.241,-1.369 6.724,-2.155 10.324,-2.305Zm2.612,0c3.564,0.15 7.01,0.918 10.225,2.26c-0.148,0.274 -0.298,0.545 -0.455,0.816c-2.447,4.286 -5.791,8.018 -9.77,10.926l0,-14.002Zm12.584,3.377c2.249,1.183 4.352,2.654 6.27,4.409c-4.44,4.057 -10.098,6.799 -16.362,7.597c3.856,-3.01 7.116,-6.757 9.544,-11.01c0.187,-0.331 0.371,-0.662 0.548,-0.996Zm-27.877,0.051c0.169,0.316 0.343,0.632 0.521,0.945c2.426,4.244 5.676,7.982 9.52,10.989c-6.203,-0.822 -11.811,-3.552 -16.214,-7.576c1.89,-1.727 3.961,-3.184 6.173,-4.358Z"/></clipPath><g clip-path="url(#_clip14)"><rect x="-34.719" y="-61.478" width="576" height="324" style="fill:url(#_Linear15);"/><rect x="-34.719" y="-61.478" width="576" height="324" style="fill:url(#_Linear16);"/></g></g><defs><linearGradient id="_Linear2" x1="0" y1="0" x2="1" y2="0" gradientUnits="userSpaceOnUse" gradientTransform="matrix(9.89341e-15,161.572,-161.572,9.89341e-15,378.887,-156.604)"><stop offset="0" style="stop-color:#fff;stop-opacity:1"/><stop offset="1" style="stop-color:#ff6a00;stop-opacity:1"/></linearGradient><linearGradient id="_Linear3" x1="0" y1="0" x2="1" y2="0" gradientUnits="userSpaceOnUse" gradientTransform="matrix(9.89341e-15,161.572,-161.572,9.89341e-15,378.887,4.96785)"><stop offset="0" style="stop-color:#ff6a00;stop-opacity:1"/><stop offset="1" style="stop-color:#fff;stop-opacity:1"/></linearGradient><linearGradient id="_Linear5" x1="0" y1="0" x2="1" y2="0" gradientUnits="userSpaceOnUse" gradientTransform="matrix(1.23104e-14,201.044,-201.044,1.23104e-14,302.128,0)"><stop offset="0" style="stop-color:#780200;stop-opacity:1"/><stop offset="1" style="stop-color:#ff1f14;stop-opacity:1"/></linearGradient><linearGradient id="_Linear7" x1="0" y1="0" x2="1" y2="0" gradientUnits="userSpaceOnUse" gradientTransform="matrix(1.23104e-14,201.044,-201.044,1.23104e-14,192.444,0)"><stop offset="0" style="stop-color:#780200;stop-opacity:1"/><stop offset="1" style="stop-color:#ff1f14;stop-opacity:1"/></linearGradient><linearGradient id="_Linear9" x1="0" y1="0" x2="1" y2="0" gradientUnits="userSpaceOnUse" gradientTransform="matrix(9.65512e-15,157.68,-157.68,9.65512e-15,261.108,61.0216)"><stop offset="0" style="stop-color:#ffee26;stop-opacity:1"/><stop offset="1" style="stop-color:#fff;stop-opacity:1"/></linearGradient><linearGradient id="_Linear11" x1="0" y1="0" x2="1" y2="0" gradientUnits="userSpaceOnUse" gradientTransform="matrix(9.65512e-15,157.68,-157.68,9.65512e-15,262.438,55.0968)"><stop offset="0" style="stop-color:#ffee26;stop-opacity:1"/><stop offset="1" style="stop-color:#fff;stop-opacity:1"/></linearGradient><linearGradient id="_Linear13" x1="0" y1="0" x2="1" y2="0" gradientUnits="userSpaceOnUse" gradientTransform="matrix(2.95385e-15,48.24,-48.24,2.95385e-15,220.738,37.5971)"><stop offset="0" style="stop-color:#ffee26;stop-opacity:1"/><stop offset="1" style="stop-color:#fff;stop-opacity:1"/></linearGradient><linearGradient id="_Linear15" x1="0" y1="0" x2="1" y2="0" gradientUnits="userSpaceOnUse" gradientTransform="matrix(3.98086e-15,65.0123,-65.0123,3.98086e-15,298.528,54.5746)"><stop offset="0" style="stop-color:#fff;stop-opacity:1"/><stop offset="1" style="stop-color:#ffee26;stop-opacity:1"/></linearGradient><linearGradient id="_Linear16" x1="0" y1="0" x2="1" y2="0" gradientUnits="userSpaceOnUse" gradientTransform="matrix(3.98086e-15,65.0123,-65.0123,3.98086e-15,298.528,119.587)"><stop offset="0" style="stop-color:#ffee26;stop-opacity:1"/><stop offset="1" style="stop-color:#fff;stop-opacity:1"/></linearGradient></defs></svg>