<?xml version="1.0" encoding="UTF-8" standalone="no"?>
<!DOCTYPE svg PUBLIC "-//W3C//DTD SVG 1.1//EN" "http://www.w3.org/Graphics/SVG/1.1/DTD/svg11.dtd">
<svg width="100%" height="100%" viewBox="0 0 675 269" version="1.1" xmlns="http://www.w3.org/2000/svg" xmlns:xlink="http://www.w3.org/1999/xlink" xml:space="preserve" xmlns:serif="http://www.serif.com/" style="fill-rule:evenodd;clip-rule:evenodd;stroke-linejoin:round;stroke-miterlimit:2;">
    <g transform="matrix(1,0,0,1,-43.068,-169.089)">
        <path d="M258.656,169.089L195.932,188.435L183.705,195.23L135.697,279.93L119.915,283.581L75.058,330.74L43.068,420.663L51.622,436.445L547.063,436.445L554.907,425.268L524.268,338.476L486.614,299.796L469.885,296.949L444.79,310.874L432.231,307.408L411.947,274.373L370.882,247.377L356.237,228.563L331.143,224.379L274.059,175.364L258.656,169.089Z" style="fill:rgb(30,176,1);"/>
    </g>
    <g transform="matrix(1,0,0,1,-43.068,-168.386)">
        <path d="M420.693,168.386L357.804,187.783L345.544,194.597L297.41,279.519L281.586,283.18L236.612,330.463L204.538,420.622L213.115,436.445L709.857,436.445L717.721,425.239L687.001,338.219L649.249,299.437L632.476,296.583L607.315,310.544L594.723,307.069L574.386,273.947L533.213,246.88L518.53,228.017L493.37,223.822L436.135,174.678L420.693,168.386Z" style="fill:rgb(30,176,1);"/>
    </g>
    <g transform="matrix(1,0,0,1,-43.068,-236.538)">
        <path d="M606.367,293.755C603.757,293.648 601.601,295.747 601.601,298.333L601.601,350.685C601.601,351.133 601.233,351.502 600.784,351.502L599.013,351.502C597.792,351.502 596.807,350.515 596.807,349.297L596.807,328.696C596.807,326.106 594.669,324.031 592.06,324.114C589.556,324.202 587.627,326.32 587.627,328.803L587.627,350.733C587.627,356.231 592.077,360.682 597.576,360.682L600.784,360.682C601.233,360.682 601.601,361.039 601.601,361.491L601.601,378.565C601.601,378.993 601.94,379.335 602.369,379.335L610.004,379.335C610.433,379.335 610.779,378.993 610.779,378.565L610.779,349.487C610.779,349.039 611.14,348.674 611.589,348.674L614.564,348.674C620.062,348.674 624.513,344.223 624.513,338.725L624.513,320.306C624.513,317.716 622.349,315.645 619.74,315.752C617.236,315.835 615.313,317.95 615.313,320.433L615.313,337.313C615.313,338.534 614.326,339.518 613.107,339.518L611.589,339.518C611.14,339.518 610.779,339.153 610.779,338.705L610.779,298.46C610.779,295.957 608.85,293.843 606.367,293.755Z" style="fill:rgb(30,176,1);"/>
    </g>
</svg>
