<svg xmlns="http://www.w3.org/2000/svg" viewBox="0 0 800 440" font-family="system-ui, -apple-system, 'Segoe UI', sans-serif">
  <rect width="800" height="440" fill="#ffffff"/>
  <text x="100.0" y="45" text-anchor="middle" font-size="13" font-weight="600" fill="#2c3e50">Raster 1</text>
  <text x="100.0" y="58" text-anchor="middle" font-size="10" fill="#2980b9">1 band</text>
  <rect x="40" y="60" width="24" height="24" fill="#EEEEEE" stroke="#c8cdd0" stroke-width="0.5"/>
  <rect x="64" y="60" width="24" height="24" fill="#EEEEEE" stroke="#c8cdd0" stroke-width="0.5"/>
  <rect x="88" y="60" width="24" height="24" fill="#EEEEEE" stroke="#c8cdd0" stroke-width="0.5"/>
  <rect x="112" y="60" width="24" height="24" fill="#EEEEEE" stroke="#c8cdd0" stroke-width="0.5"/>
  <rect x="136" y="60" width="24" height="24" fill="#EEEEEE" stroke="#c8cdd0" stroke-width="0.5"/>
  <rect x="40" y="84" width="24" height="24" fill="#EEEEEE" stroke="#c8cdd0" stroke-width="0.5"/>
  <rect x="64" y="84" width="24" height="24" fill="#EEEEEE" stroke="#c8cdd0" stroke-width="0.5"/>
  <rect x="88" y="84" width="24" height="24" fill="#4FC3F7" stroke="#c8cdd0" stroke-width="0.5"/>
  <rect x="112" y="84" width="24" height="24" fill="#4FC3F7" stroke="#c8cdd0" stroke-width="0.5"/>
  <rect x="136" y="84" width="24" height="24" fill="#EEEEEE" stroke="#c8cdd0" stroke-width="0.5"/>
  <rect x="40" y="108" width="24" height="24" fill="#EEEEEE" stroke="#c8cdd0" stroke-width="0.5"/>
  <rect x="64" y="108" width="24" height="24" fill="#4FC3F7" stroke="#c8cdd0" stroke-width="0.5"/>
  <rect x="88" y="108" width="24" height="24" fill="#4FC3F7" stroke="#c8cdd0" stroke-width="0.5"/>
  <rect x="112" y="108" width="24" height="24" fill="#4FC3F7" stroke="#c8cdd0" stroke-width="0.5"/>
  <rect x="136" y="108" width="24" height="24" fill="#EEEEEE" stroke="#c8cdd0" stroke-width="0.5"/>
  <rect x="40" y="132" width="24" height="24" fill="#EEEEEE" stroke="#c8cdd0" stroke-width="0.5"/>
  <rect x="64" y="132" width="24" height="24" fill="#EEEEEE" stroke="#c8cdd0" stroke-width="0.5"/>
  <rect x="88" y="132" width="24" height="24" fill="#4FC3F7" stroke="#c8cdd0" stroke-width="0.5"/>
  <rect x="112" y="132" width="24" height="24" fill="#EEEEEE" stroke="#c8cdd0" stroke-width="0.5"/>
  <rect x="136" y="132" width="24" height="24" fill="#EEEEEE" stroke="#c8cdd0" stroke-width="0.5"/>
  <rect x="40" y="60" width="120" height="96" fill="none" stroke="#c8cdd0" stroke-width="1.2"/>
  <text x="100.0" y="185" text-anchor="middle" font-size="13" font-weight="600" fill="#2c3e50">Raster 2</text>
  <text x="100.0" y="198" text-anchor="middle" font-size="10" fill="#27ae60">1 band</text>
  <rect x="40" y="200" width="24" height="24" fill="#EEEEEE" stroke="#c8cdd0" stroke-width="0.5"/>
  <rect x="64" y="200" width="24" height="24" fill="#66BB6A" stroke="#c8cdd0" stroke-width="0.5"/>
  <rect x="88" y="200" width="24" height="24" fill="#EEEEEE" stroke="#c8cdd0" stroke-width="0.5"/>
  <rect x="112" y="200" width="24" height="24" fill="#EEEEEE" stroke="#c8cdd0" stroke-width="0.5"/>
  <rect x="136" y="200" width="24" height="24" fill="#EEEEEE" stroke="#c8cdd0" stroke-width="0.5"/>
  <rect x="40" y="224" width="24" height="24" fill="#66BB6A" stroke="#c8cdd0" stroke-width="0.5"/>
  <rect x="64" y="224" width="24" height="24" fill="#66BB6A" stroke="#c8cdd0" stroke-width="0.5"/>
  <rect x="88" y="224" width="24" height="24" fill="#66BB6A" stroke="#c8cdd0" stroke-width="0.5"/>
  <rect x="112" y="224" width="24" height="24" fill="#EEEEEE" stroke="#c8cdd0" stroke-width="0.5"/>
  <rect x="136" y="224" width="24" height="24" fill="#EEEEEE" stroke="#c8cdd0" stroke-width="0.5"/>
  <rect x="40" y="248" width="24" height="24" fill="#EEEEEE" stroke="#c8cdd0" stroke-width="0.5"/>
  <rect x="64" y="248" width="24" height="24" fill="#66BB6A" stroke="#c8cdd0" stroke-width="0.5"/>
  <rect x="88" y="248" width="24" height="24" fill="#66BB6A" stroke="#c8cdd0" stroke-width="0.5"/>
  <rect x="112" y="248" width="24" height="24" fill="#66BB6A" stroke="#c8cdd0" stroke-width="0.5"/>
  <rect x="136" y="248" width="24" height="24" fill="#EEEEEE" stroke="#c8cdd0" stroke-width="0.5"/>
  <rect x="40" y="272" width="24" height="24" fill="#EEEEEE" stroke="#c8cdd0" stroke-width="0.5"/>
  <rect x="64" y="272" width="24" height="24" fill="#EEEEEE" stroke="#c8cdd0" stroke-width="0.5"/>
  <rect x="88" y="272" width="24" height="24" fill="#66BB6A" stroke="#c8cdd0" stroke-width="0.5"/>
  <rect x="112" y="272" width="24" height="24" fill="#EEEEEE" stroke="#c8cdd0" stroke-width="0.5"/>
  <rect x="136" y="272" width="24" height="24" fill="#EEEEEE" stroke="#c8cdd0" stroke-width="0.5"/>
  <rect x="40" y="200" width="120" height="96" fill="none" stroke="#c8cdd0" stroke-width="1.2"/>
  <text x="546.0" y="68" text-anchor="middle" font-size="13" font-weight="600" fill="#2c3e50">Result</text>
  <text x="546.0" y="84" text-anchor="middle" font-size="10" fill="#2980b9">2 bands</text>
  <rect x="490" y="90" width="24" height="24" fill="#EEEEEE" stroke="#c8cdd0" stroke-width="0.5"/>
  <rect x="514" y="90" width="24" height="24" fill="#66BB6A" stroke="#c8cdd0" stroke-width="0.5"/>
  <rect x="538" y="90" width="24" height="24" fill="#EEEEEE" stroke="#c8cdd0" stroke-width="0.5"/>
  <rect x="562" y="90" width="24" height="24" fill="#EEEEEE" stroke="#c8cdd0" stroke-width="0.5"/>
  <rect x="586" y="90" width="24" height="24" fill="#EEEEEE" stroke="#c8cdd0" stroke-width="0.5"/>
  <rect x="490" y="114" width="24" height="24" fill="#66BB6A" stroke="#c8cdd0" stroke-width="0.5"/>
  <rect x="514" y="114" width="24" height="24" fill="#66BB6A" stroke="#c8cdd0" stroke-width="0.5"/>
  <rect x="538" y="114" width="24" height="24" fill="#66BB6A" stroke="#c8cdd0" stroke-width="0.5"/>
  <rect x="562" y="114" width="24" height="24" fill="#EEEEEE" stroke="#c8cdd0" stroke-width="0.5"/>
  <rect x="586" y="114" width="24" height="24" fill="#EEEEEE" stroke="#c8cdd0" stroke-width="0.5"/>
  <rect x="490" y="138" width="24" height="24" fill="#EEEEEE" stroke="#c8cdd0" stroke-width="0.5"/>
  <rect x="514" y="138" width="24" height="24" fill="#66BB6A" stroke="#c8cdd0" stroke-width="0.5"/>
  <rect x="538" y="138" width="24" height="24" fill="#66BB6A" stroke="#c8cdd0" stroke-width="0.5"/>
  <rect x="562" y="138" width="24" height="24" fill="#66BB6A" stroke="#c8cdd0" stroke-width="0.5"/>
  <rect x="586" y="138" width="24" height="24" fill="#EEEEEE" stroke="#c8cdd0" stroke-width="0.5"/>
  <rect x="490" y="162" width="24" height="24" fill="#EEEEEE" stroke="#c8cdd0" stroke-width="0.5"/>
  <rect x="514" y="162" width="24" height="24" fill="#EEEEEE" stroke="#c8cdd0" stroke-width="0.5"/>
  <rect x="538" y="162" width="24" height="24" fill="#66BB6A" stroke="#c8cdd0" stroke-width="0.5"/>
  <rect x="562" y="162" width="24" height="24" fill="#EEEEEE" stroke="#c8cdd0" stroke-width="0.5"/>
  <rect x="586" y="162" width="24" height="24" fill="#EEEEEE" stroke="#c8cdd0" stroke-width="0.5"/>
  <rect x="490" y="90" width="120" height="96" fill="none" stroke="#c8cdd0" stroke-width="1.2"/>
  <rect x="480" y="100" width="24" height="24" fill="#EEEEEE" stroke="#c8cdd0" stroke-width="0.5"/>
  <rect x="504" y="100" width="24" height="24" fill="#EEEEEE" stroke="#c8cdd0" stroke-width="0.5"/>
  <rect x="528" y="100" width="24" height="24" fill="#EEEEEE" stroke="#c8cdd0" stroke-width="0.5"/>
  <rect x="552" y="100" width="24" height="24" fill="#EEEEEE" stroke="#c8cdd0" stroke-width="0.5"/>
  <rect x="576" y="100" width="24" height="24" fill="#EEEEEE" stroke="#c8cdd0" stroke-width="0.5"/>
  <rect x="480" y="124" width="24" height="24" fill="#EEEEEE" stroke="#c8cdd0" stroke-width="0.5"/>
  <rect x="504" y="124" width="24" height="24" fill="#EEEEEE" stroke="#c8cdd0" stroke-width="0.5"/>
  <rect x="528" y="124" width="24" height="24" fill="#4FC3F7" stroke="#c8cdd0" stroke-width="0.5"/>
  <rect x="552" y="124" width="24" height="24" fill="#4FC3F7" stroke="#c8cdd0" stroke-width="0.5"/>
  <rect x="576" y="124" width="24" height="24" fill="#EEEEEE" stroke="#c8cdd0" stroke-width="0.5"/>
  <rect x="480" y="148" width="24" height="24" fill="#EEEEEE" stroke="#c8cdd0" stroke-width="0.5"/>
  <rect x="504" y="148" width="24" height="24" fill="#4FC3F7" stroke="#c8cdd0" stroke-width="0.5"/>
  <rect x="528" y="148" width="24" height="24" fill="#4FC3F7" stroke="#c8cdd0" stroke-width="0.5"/>
  <rect x="552" y="148" width="24" height="24" fill="#4FC3F7" stroke="#c8cdd0" stroke-width="0.5"/>
  <rect x="576" y="148" width="24" height="24" fill="#EEEEEE" stroke="#c8cdd0" stroke-width="0.5"/>
  <rect x="480" y="172" width="24" height="24" fill="#EEEEEE" stroke="#c8cdd0" stroke-width="0.5"/>
  <rect x="504" y="172" width="24" height="24" fill="#EEEEEE" stroke="#c8cdd0" stroke-width="0.5"/>
  <rect x="528" y="172" width="24" height="24" fill="#4FC3F7" stroke="#c8cdd0" stroke-width="0.5"/>
  <rect x="552" y="172" width="24" height="24" fill="#EEEEEE" stroke="#c8cdd0" stroke-width="0.5"/>
  <rect x="576" y="172" width="24" height="24" fill="#EEEEEE" stroke="#c8cdd0" stroke-width="0.5"/>
  <rect x="480" y="100" width="120" height="96" fill="none" stroke="#c8cdd0" stroke-width="1.2"/>
  <rect x="480" y="236" width="12" height="12" fill="#4FC3F7" stroke="#c8cdd0" stroke-width="0.5"/>
  <text x="498" y="246" text-anchor="start" font-size="10" fill="#2c3e50">Band 1 (from Raster 1)</text>
  <rect x="640" y="236" width="12" height="12" fill="#66BB6A" stroke="#c8cdd0" stroke-width="0.5"/>
  <text x="658" y="246" text-anchor="start" font-size="10" fill="#2c3e50">Band 2 (from Raster 2)</text>
  <defs><marker id="arw-15" markerWidth="8" markerHeight="6" refX="8" refY="3" orient="auto"><path d="M0,0 L8,3 L0,6" fill="#7f8c8d"/></marker></defs>
  <line x1="175" y1="108" x2="460" y2="136.0" stroke="#7f8c8d" stroke-width="2" marker-end="url(#arw-15)"/>
  <defs><marker id="arw-16" markerWidth="8" markerHeight="6" refX="8" refY="3" orient="auto"><path d="M0,0 L8,3 L0,6" fill="#7f8c8d"/></marker></defs>
  <line x1="175" y1="248" x2="460" y2="160.0" stroke="#7f8c8d" stroke-width="2" marker-end="url(#arw-16)"/>
</svg>