<svg width="148" height="69" viewBox="0 0 148 69" fill="none" xmlns="http://www.w3.org/2000/svg">
<g clip-path="url(#clip0_2006_29620)">
<path d="M30.7792 37.5152C31.7815 35.3852 31.9786 32.9701 31.3348 30.7085C30.6909 28.4469 29.2487 26.4889 27.2702 25.1902C28.8599 23.5734 30.5814 21.9712 32.3981 20.4414C30.2786 21.6885 28.2669 23.1071 26.3838 24.6827C24.3397 23.6278 21.9881 23.3105 19.7333 23.7853C17.4784 24.2602 15.4611 25.4976 14.0281 27.2848C12.5951 29.0719 11.8358 31.2973 11.8808 33.5784C11.9258 35.8596 12.7722 38.0539 14.2747 39.7844C12.3773 43.8517 12.077 47.1142 13.7179 48.2162C15.5127 49.3979 19.4099 47.2519 21.776 43.7647C21.776 43.7647 18.1572 46.9909 16.172 46.2514C14.9486 45.7947 14.9486 43.9387 15.9522 41.2852C17.8537 42.6658 20.1901 43.3307 22.5421 43.1606C24.8942 42.9905 27.1081 41.9966 28.7866 40.3572L29.1383 41.0097C33.4603 40.6617 46.3607 40.3209 46.3607 40.3209C46.3314 39.7192 37.7898 40.2992 30.7792 37.5152ZM13.0659 33.3754C13.0675 31.9304 13.4352 30.5088 14.1353 29.2407C14.8354 27.9726 15.8457 26.8985 17.0736 26.1167C18.3016 25.3349 19.708 24.8703 21.1643 24.7654C22.6206 24.6605 24.0802 24.9187 25.4095 25.5164C21.1274 29.2233 17.552 33.6605 14.8534 38.6172C13.6904 37.1125 13.062 35.2698 13.0659 33.3754ZM21.7907 42.0102C19.8319 42.0139 17.9294 41.3624 16.3917 40.1614C18.1206 36.3044 21.6369 31.1279 26.4351 26.0674C28.2375 27.1906 29.5625 28.9276 30.1602 30.9508C30.758 32.9741 30.5873 35.1439 29.6803 37.0512C28.1659 36.3785 26.767 35.4759 25.5341 34.3759L28.164 39.2624C27.3497 40.1296 26.3635 40.8212 25.2668 41.294C24.1702 41.7668 22.9868 42.0106 21.7907 42.0102Z" fill="#0033A1"/>
<path d="M89.9407 32.4765L91.5523 30.3522H85.9262L87.3108 28.5325H92.9441L94.5631 26.4082H83.3257L75.5972 36.5582H86.8346L88.4462 34.434H82.8202L84.3073 32.4765H89.9407Z" fill="#0033A1"/>
<path d="M97.7422 26.4082L90.0137 36.5582H95.6251L103.346 26.4082H97.7422Z" fill="#0033A1"/>
<path d="M116.423 26.4082L112.503 31.5557L111.302 26.4082H106.921L99.1929 36.5582H102.9L106.782 31.4615L107.976 36.5582H112.401L120.129 26.4082H116.423Z" fill="#0033A1"/>
<path d="M134.751 26.4091H125.74C125.009 26.4082 124.287 26.5762 123.632 26.8996C122.977 27.223 122.407 27.693 121.968 28.2723L117.316 34.3841C117.134 34.6193 117.037 34.9073 117.038 35.2033C117.038 35.5635 117.182 35.9091 117.438 36.1645C117.695 36.4199 118.043 36.5644 118.407 36.5663H127.418C128.151 36.5677 128.874 36.4001 129.53 36.0766C130.187 35.7532 130.757 35.2829 131.198 34.7031L132.319 33.2531H133.623L135.249 31.0781H128.348L126.151 33.9418C126.037 34.0928 125.888 34.2154 125.718 34.2997C125.548 34.3841 125.36 34.4278 125.169 34.4276H123.579C123.484 34.4276 123.393 34.3901 123.326 34.3235C123.258 34.2569 123.22 34.1665 123.22 34.0723C123.22 33.996 123.246 33.9218 123.294 33.8621L126.956 29.0046C127.07 28.8531 127.218 28.7302 127.389 28.6458C127.559 28.5615 127.747 28.5179 127.938 28.5188H129.528C129.575 28.5188 129.622 28.528 129.665 28.5458C129.709 28.5637 129.748 28.5899 129.782 28.6229C129.815 28.6558 129.841 28.695 129.859 28.7381C129.877 28.7812 129.887 28.8274 129.887 28.8741C129.885 28.9499 129.859 29.0233 129.813 29.0843L129.213 29.8746H134.809L135.798 28.5696C135.953 28.368 136.047 28.1276 136.071 27.8757C136.095 27.6237 136.047 27.3703 135.932 27.144C135.818 26.9177 135.642 26.7275 135.424 26.5951C135.206 26.4627 134.955 26.3932 134.7 26.3946L134.751 26.4091Z" fill="#0033A1"/>
<path d="M78.7248 27.7718C78.7248 27.4122 78.5805 27.0674 78.3236 26.8131C78.0666 26.5589 77.7182 26.416 77.3549 26.416H68.3444C67.6114 26.4146 66.8882 26.5823 66.232 26.9057C65.5759 27.2291 65.0049 27.6994 64.5644 28.2793L59.9127 34.391C59.761 34.5933 59.669 34.8333 59.6468 35.0842C59.6247 35.3352 59.6732 35.5873 59.787 35.8126C59.9008 36.0379 60.0755 36.2276 60.2917 36.3606C60.5078 36.4936 60.757 36.5647 61.0115 36.566H70.022C70.755 36.5674 71.4783 36.3998 72.1344 36.0763C72.7905 35.7529 73.3615 35.2826 73.802 34.7028L78.4537 28.591C78.6322 28.3546 78.7274 28.0669 78.7248 27.7718ZM72.4614 29.0985L68.7986 33.9488C68.6849 34.1002 68.5368 34.2231 68.3663 34.3075C68.1958 34.3919 68.0076 34.4354 67.817 34.4345H66.198C66.132 34.4339 66.0674 34.4152 66.0114 34.3805C65.9554 34.3459 65.9101 34.2966 65.8806 34.2382C65.8511 34.1797 65.8384 34.1143 65.844 34.0492C65.8496 33.984 65.8732 33.9217 65.9123 33.869L69.5751 29.0115C69.69 28.8613 69.8383 28.7394 70.0086 28.6551C70.1788 28.5709 70.3664 28.5266 70.5568 28.5258H72.1464C72.2416 28.5258 72.3329 28.5632 72.4002 28.6298C72.4675 28.6964 72.5054 28.7868 72.5054 28.881C72.5033 28.9569 72.4777 29.0303 72.4321 29.0913L72.4614 29.0985Z" fill="#0033A1"/>
<path d="M57.5319 31.7297C58.6208 31.4854 59.5866 30.8661 60.257 29.9825L61.3265 28.5832C61.481 28.3816 61.5754 28.1413 61.599 27.8893C61.6227 27.6374 61.5746 27.3839 61.4603 27.1576C61.346 26.9313 61.1699 26.7412 60.9521 26.6088C60.7343 26.4763 60.4833 26.4069 60.2277 26.4082H48.8584L41.1299 36.5582H52.8948C53.6278 36.5596 54.351 36.392 55.0072 36.0685C55.6633 35.7451 56.2343 35.2748 56.6748 34.695L57.7663 33.245C57.9104 33.0575 57.9877 32.828 57.986 32.5925C57.9858 32.4219 57.9452 32.2538 57.8676 32.1015C57.79 31.9491 57.6776 31.8169 57.5392 31.7152L57.5319 31.7297ZM52.3307 33.0492L51.6348 33.9627C51.5207 34.1138 51.3725 34.2363 51.2021 34.3207C51.0317 34.405 50.8437 34.4488 50.6531 34.4485H48.3602L49.8253 32.491H52.023C52.1182 32.491 52.2095 32.5284 52.2768 32.595C52.3442 32.6616 52.382 32.752 52.382 32.8462C52.382 32.9224 52.3562 32.9965 52.3087 33.0565L52.3307 33.0492ZM55.3342 29.1052L54.7408 29.881C54.6256 30.0303 54.477 30.1511 54.3067 30.2341C54.1364 30.3171 53.949 30.36 53.7592 30.3595H51.4663L52.8508 28.5397H55.0485C55.0956 28.5397 55.1423 28.5489 55.1859 28.5668C55.2294 28.5846 55.269 28.6108 55.3023 28.6438C55.3356 28.6768 55.3621 28.7159 55.3801 28.759C55.3982 28.8021 55.4074 28.8483 55.4074 28.895C55.4054 28.9708 55.3798 29.0442 55.3342 29.1052Z" fill="#0033A1"/>
</g>
<defs>
<clipPath id="clip0_2006_29620">
<rect width="126" height="29" fill="white" transform="translate(11 20)"/>
</clipPath>
</defs>
</svg>
