<svg width="148" height="69" viewBox="0 0 148 69" fill="none" xmlns="http://www.w3.org/2000/svg">
<g clip-path="url(#clip0_2006_29620)">
<path d="M94.3367 43.9328H94.3102C89.5834 47.2928 84.0068 50.8128 77.9788 54.5194L77.7398 54.6528C77.7138 54.6635 77.6905 54.6801 77.6718 54.7011C77.653 54.7222 77.6393 54.7473 77.6316 54.7745C77.6239 54.8017 77.6225 54.8303 77.6275 54.8582C77.6324 54.886 77.6436 54.9124 77.6601 54.9352C77.6767 54.9581 77.6982 54.9769 77.7231 54.9902C77.7479 55.0035 77.7754 55.0109 77.8036 55.012C77.8317 55.013 77.8597 55.0076 77.8855 54.9962C77.9112 54.9848 77.9341 54.9677 77.9523 54.9461L78.1382 54.8394C83.2633 52.1728 89.132 48.9994 95.0272 45.7194L95.1334 45.6661C94.7854 45.1302 94.5171 44.5463 94.3367 43.9328ZM125.353 18.7061C117.918 10.4661 69.9592 17.8794 49.5915 22.3594L49.1135 22.4661C49.0668 22.4782 49.0256 22.5059 48.9966 22.5447C48.9676 22.5835 48.9527 22.631 48.9542 22.6794C48.9568 22.7035 48.9648 22.7267 48.9776 22.7472C48.9904 22.7678 49.0077 22.7851 49.0282 22.7979C49.0486 22.8108 49.0717 22.8188 49.0957 22.8213C49.1197 22.8239 49.144 22.821 49.1666 22.8128L49.6446 22.7328C66.5336 19.7194 101.666 15.5328 109.208 23.0528C111.518 25.3461 110.987 28.3061 108.305 31.7994C109.785 32.7708 110.832 34.2813 111.226 36.0128C121.662 29.0528 128.672 22.3861 125.353 18.7061Z" fill="#CC2427"/>
<path d="M54.3182 37.4797C53.7358 37.4815 53.1688 37.6682 52.6984 38.0131C52.2163 38.4168 51.9035 38.9881 51.8221 39.6131C51.6627 40.4397 51.7424 40.9997 52.0611 41.3731C52.2466 41.5542 52.4674 41.695 52.7095 41.7868C52.9516 41.8785 53.21 41.9193 53.4685 41.9064C53.8709 41.9146 54.27 41.8326 54.6369 41.6664C54.991 41.5019 55.2939 41.2438 55.5132 40.9197C55.7616 40.5489 55.9332 40.1318 56.0178 39.6931C56.1505 38.9464 56.0443 38.4131 55.6991 38.0397C55.5229 37.8517 55.3082 37.7043 55.0698 37.6077C54.8314 37.511 54.575 37.4674 54.3182 37.4797ZM46.0596 47.8264L48.2637 35.3464H52.2469L51.9283 36.9464C52.3645 36.3985 52.9437 35.9831 53.6013 35.7464C54.4198 35.4107 55.2931 35.2298 56.1771 35.2131C57.2127 35.2131 57.8501 35.2664 58.6201 35.6664C59.3503 36.0343 59.9181 36.6616 60.2134 37.4264C60.5264 38.2325 60.6002 39.1124 60.4259 39.9597C60.3154 40.6873 60.0611 41.3852 59.678 42.0126C59.295 42.64 58.7908 43.1842 58.1953 43.6131C56.9737 44.4931 55.885 44.7331 54.3182 44.7331C53.8441 44.7418 53.371 44.688 52.9108 44.5731C52.5942 44.5039 52.2898 44.387 52.008 44.2264C51.7326 44.027 51.4828 43.7941 51.2644 43.5331L50.5209 47.8264H46.0596ZM92.0264 44.5997H87.4058L89.7426 31.6397L94.2304 31.7464L92.0264 44.5997ZM68.9766 35.2397L69.2953 33.3464L74.0221 32.3331L73.5175 35.2397H75.8544L75.4029 37.1331H73.1457L71.7914 44.5997H67.1974L68.5783 37.1331H66.8522L67.1974 35.2664H68.9766V35.2397ZM32.1713 41.2664C30.9338 41.5444 29.6686 41.6786 28.4005 41.6664C26.2496 41.6664 24.5235 40.5997 24.6297 38.5997C24.6828 37.2931 26.2496 34.5197 30.1797 34.5197C31.4246 34.4908 32.6512 34.8242 33.7115 35.4797L34.2692 32.2531C32.8521 31.6879 31.331 31.4333 29.808 31.5064C24.6297 31.5597 19.6639 33.9064 19.0532 38.7064C18.4424 43.5064 24.3642 44.8131 26.9931 44.8131C28.5068 44.8131 30.1001 44.7331 31.5606 44.5997L32.1713 41.2664ZM82.5462 40.3331L81.7761 40.5464L79.9969 40.8664C79.5761 40.901 79.1681 41.0285 78.802 41.2397C78.6951 41.3001 78.6035 41.3845 78.5344 41.4863C78.4653 41.588 78.4206 41.7044 78.4036 41.8264C78.3719 41.9448 78.3779 42.0702 78.4207 42.185C78.4636 42.2998 78.5412 42.3982 78.6426 42.4664C78.8816 42.6264 79.2534 42.6797 79.7845 42.6797C80.1795 42.6809 80.5727 42.627 80.9529 42.5197C81.3022 42.4171 81.6274 42.2447 81.9089 42.0131C82.095 41.849 82.2328 41.6369 82.3072 41.3997C82.4192 41.0523 82.4992 40.6952 82.5462 40.3331ZM87.4324 37.2664C87.4058 37.7197 87.3261 38.1464 87.2199 38.8131L86.3967 43.4797C86.3529 43.6674 86.3737 43.8645 86.4557 44.0388C86.5376 44.2131 86.676 44.3545 86.8481 44.4397V44.5997H82.0948V43.3997C81.3796 43.827 80.6118 44.1587 79.8111 44.3864C79.0652 44.5781 78.2971 44.6678 77.5273 44.6531C76.0137 44.6531 75.1374 44.4931 74.5266 43.9597C73.9158 43.4264 73.6237 43.0531 73.6503 42.3064C73.7006 41.7954 73.9043 41.3118 74.2345 40.9197C74.5817 40.5386 75.0077 40.2383 75.4826 40.0397C76.0819 39.7708 76.717 39.5911 77.368 39.5064C78.2178 39.3731 79.3862 39.2397 80.9529 39.1064C81.4786 39.0554 81.996 38.9389 82.4931 38.7597C82.8118 38.6264 82.9445 38.4931 82.9977 38.2264C83.0508 37.9597 82.9445 37.4797 82.3072 37.3464C80.6077 36.9997 77.4211 37.5597 75.7747 37.9597L76.651 35.5597C78.7505 35.2244 80.8719 35.0462 82.9977 35.0264C86.3701 35.0531 87.4589 36.0397 87.4324 37.2664ZM60.2931 44.5997L61.9395 35.2931H66.4804L64.834 44.5997H60.2931ZM62.2051 33.1597C62.3379 32.3864 63.5328 31.7731 64.8871 31.7731C66.2414 31.7731 67.1974 32.3864 67.0646 33.1597C66.9319 33.9331 65.7369 34.5464 64.3826 34.5464C63.0283 34.5464 62.0723 33.9064 62.2051 33.1597ZM41.7046 40.3064C41.457 40.4072 41.1986 40.4788 40.9345 40.5197L39.1819 40.8397C38.7519 40.8704 38.3344 40.998 37.9603 41.2131C37.8528 41.2792 37.7612 41.3686 37.6923 41.4746C37.6234 41.5807 37.5789 41.7009 37.562 41.8264C37.5347 41.9437 37.5458 42.0668 37.5936 42.1772C37.6414 42.2877 37.7235 42.3798 37.8276 42.4397C38.167 42.6302 38.5556 42.7139 38.9429 42.6797C39.3391 42.6718 39.7322 42.609 40.1113 42.4931C40.4606 42.3904 40.7858 42.2181 41.0673 41.9864C41.2534 41.8224 41.3912 41.6102 41.4656 41.3731C41.5945 41.0305 41.6749 40.6714 41.7046 40.3064ZM46.5907 37.2664C46.5642 37.7197 46.4845 38.1197 46.3783 38.8131L45.5551 43.4531C45.5113 43.6408 45.5321 43.8378 45.614 44.0121C45.696 44.1865 45.8343 44.3278 46.0065 44.4131V44.5997H41.2532V43.4264C40.5316 43.8343 39.7652 44.1564 38.9694 44.3864C38.2337 44.586 37.4744 44.6847 36.7123 44.6797C35.1721 44.6797 34.2957 44.5197 33.7115 43.9864C33.1273 43.4531 32.7821 43.0797 32.8087 42.3064C32.8657 41.8052 33.0689 41.332 33.3929 40.9464C33.7386 40.5569 34.1644 40.2476 34.641 40.0397C35.2526 39.7796 35.8953 39.6003 36.5529 39.5064C37.3761 39.3731 38.5446 39.2397 40.1113 39.1064C40.642 39.0904 41.1648 38.9727 41.6515 38.7597C41.9967 38.6264 42.1029 38.4931 42.156 38.2264C42.2091 37.9597 42.1029 37.4797 41.4656 37.3464C39.7661 37.0264 36.5795 37.5597 34.9331 37.9864L35.8094 35.5597C37.909 35.2255 40.0303 35.0472 42.156 35.0264C45.5285 35.0264 46.6173 36.0131 46.5907 37.2664Z" fill="#013D5B"/>
<path d="M110.509 38.5193L111.544 38.4126C111.89 38.4126 112.182 38.4926 112.208 38.8126C112.235 39.1326 111.863 40.4126 111.783 40.7593L111.066 43.8793C110.801 45.1593 110.482 46.4926 110.217 47.5593H112.022L113.031 42.5993C116.165 39.3459 117.36 38.2793 118.077 38.2793C118.156 38.2709 118.235 38.2803 118.31 38.3068C118.385 38.3333 118.453 38.3763 118.509 38.4325C118.565 38.4887 118.607 38.5569 118.634 38.6319C118.66 38.7069 118.67 38.7868 118.661 38.8659C118.688 39.4259 118.316 40.7326 118.21 41.1059L117.148 44.7059C116.935 45.5326 116.749 46.2526 116.776 46.7859C116.802 47.3193 117.28 47.9326 117.971 47.9326C119.298 47.9326 120.281 46.5459 121.104 45.1859L120.865 44.7326C120.52 45.2659 119.75 46.4659 119.113 46.4659C118.927 46.4659 118.741 46.3326 118.741 46.0126C118.762 45.5138 118.852 45.0204 119.006 44.5459L120.175 40.3059C120.467 39.1326 120.626 38.3859 120.626 37.9859C120.626 37.5859 120.122 36.8393 119.431 36.8393C118.236 36.8393 116.643 37.7193 113.297 41.5859H113.244L113.669 39.6926C113.908 38.6526 114.12 37.5859 114.333 36.8393C113.074 37.2882 111.788 37.6535 110.482 37.9326L110.509 38.5193ZM128.274 38.6259C128.248 37.8793 127.876 37.3726 127.106 37.3726C125.247 37.3726 123.282 41.0259 122.937 42.4926C125.964 42.4926 128.354 40.6793 128.274 38.6259ZM128.672 44.3593L129.018 44.5993C128.115 46.4393 126.282 47.9326 124.105 47.9326C122.326 47.9326 120.892 46.7593 120.812 44.5459C120.653 40.5459 124.397 36.8393 127.424 36.8393C128.726 36.8393 129.947 37.4259 130 38.8393C130.106 42.0126 125.672 42.9726 122.751 43.0259C122.655 43.4092 122.619 43.805 122.644 44.1993C122.698 45.5326 123.494 46.6259 125.114 46.6259C126.734 46.6259 127.955 45.4793 128.672 44.3593ZM97.364 41.7726C97.4437 44.6793 99.276 47.0526 101.666 47.0526C106.287 47.0526 108.252 41.3459 108.119 37.5326C108.013 34.6259 106.154 32.2526 103.764 32.2526C99.7805 32.2526 97.2047 37.9326 97.364 41.7726ZM94.921 41.6126C94.7351 36.6526 98.6121 31.5859 104.215 31.5859C107.986 31.5859 110.429 34.1193 110.562 37.9593C110.748 43.1859 107.136 47.9859 101.268 47.9859C97.4968 47.9859 95.0537 45.4793 94.921 41.6126Z" fill="#013D5B"/>
</g>
<defs>
<clipPath id="clip0_2006_29620">
<rect width="111" height="40" fill="white" transform="translate(19 15)"/>
</clipPath>
</defs>
</svg>
