<svg width="148" height="69" viewBox="0 0 148 69" fill="none" xmlns="http://www.w3.org/2000/svg">
<g clip-path="url(#clip0_2006_29620)">
<path d="M28.7159 31.293C29.7869 31.293 36.7375 34.3563 36.7375 45.3596C36.7375 50.618 34.9638 55.0008 33.9186 55.0008C33.457 55.0008 33.282 54.5407 33.282 53.6563C33.282 51.7093 33.9693 49.9846 33.9693 45.8293C33.9693 37.8056 30.6594 34.5684 29.1775 32.7461C28.7402 32.2067 28.4087 31.8559 28.4087 31.5388C28.4087 31.4097 28.5006 31.293 28.7159 31.293ZM46.235 31.5388C46.235 31.8559 45.9035 32.2067 45.4661 32.7461C43.985 34.5684 40.6766 37.8056 40.6766 45.8278C40.6766 49.9839 41.3609 51.7086 41.3609 53.6563C41.3609 54.5407 41.186 55.0008 40.7258 55.0008C39.6784 55.0008 37.9055 50.618 37.9055 45.3596C37.9055 34.3563 44.8575 31.293 45.9299 31.293C46.1438 31.293 46.235 31.4097 46.235 31.5388Z" fill="#0982C6"/>
<path d="M34.7844 33.4947C34.7844 34.9317 35.9193 36.0949 37.3203 36.0949C38.7257 36.0949 39.8621 34.9317 39.8621 33.4947C39.8621 32.0563 38.7257 30.8945 37.3211 30.8945C35.9193 30.8945 34.7844 32.0563 34.7844 33.4947Z" fill="#F8971F"/>
<path d="M24.1381 29.384C22.8113 28.7851 21.8175 27.5845 21.6558 26.4198C22.6408 25.7725 24.1969 25.7226 25.5244 26.3222C26.9136 26.9496 27.2392 28.0101 27.2473 28.9429C26.5395 29.555 25.5288 30.0129 24.1381 29.384ZM27.9441 22.3819C27.09 21.0719 26.8916 19.4132 27.4201 18.2676C28.6851 18.2507 30.1213 19.1079 30.974 20.4165C31.8649 21.7889 31.5437 22.9352 31.0085 23.7829C30.0133 23.926 28.835 23.7543 27.9441 22.3819ZM29.9199 29.3194C28.8674 28.4285 28.2756 27.0773 28.4315 25.9728C29.4973 25.6396 30.9299 25.9992 31.9825 26.8887C33.085 27.8237 33.1027 28.8732 32.8667 29.726C32.0626 30.0966 31.0225 30.2507 29.9199 29.3187M33.1402 25.9662C32.6874 24.5043 32.9424 22.886 33.7488 21.9445C34.9462 22.2652 36.0708 23.4607 36.5236 24.9226C36.9977 26.4543 36.3854 27.4487 35.6555 28.1055C34.6816 27.9749 33.6121 27.4979 33.1402 25.9662ZM27.5943 36.6408C26.5461 36.8448 25.4398 36.5446 24.8459 35.9157C25.1583 35.1084 26.0749 34.4185 27.1246 34.2152C28.2235 34.0024 28.8696 34.4993 29.2724 35.0563C29.107 35.7241 28.6968 36.4258 27.5943 36.6408ZM24.8231 33.5401C23.6287 33.4109 22.5408 32.7254 22.113 31.8521C22.7165 31.0903 23.9286 30.6522 25.1238 30.7813C26.3756 30.9171 26.9033 31.6657 27.151 32.3959C26.7512 33.0586 26.0757 33.6758 24.8231 33.5401ZM24.7166 24.6841C23.7794 23.89 23.2538 22.6901 23.3927 21.7089C24.3387 21.4109 25.6126 21.7316 26.5498 22.5228C27.5281 23.3535 27.5465 24.2863 27.3363 25.0452C26.6196 25.3754 25.6964 25.5119 24.7166 24.6841ZM31.1026 18.3894C30.7248 17.1712 30.9394 15.8208 31.6098 15.0377C32.6095 15.3071 33.5474 16.3022 33.9252 17.519C34.3199 18.796 33.8083 19.6231 33.199 20.1736C32.3867 20.0635 31.4995 19.6672 31.1034 18.3902M15.4102 50.0021C15.4102 50.0352 15.4315 50.0616 15.4734 50.0616C15.5123 50.0616 15.5829 50.03 15.6593 50.0029C19.4095 48.6598 24.9466 47.0115 32.7175 46.5095C32.7271 46.4391 32.7726 46.0934 32.7726 45.827C32.7726 45.2656 32.7065 44.6799 32.6889 44.5823C24.7261 45.3118 19.2302 47.617 15.6196 49.8326C15.4726 49.9236 15.4102 49.9442 15.4102 50.0021ZM47.3986 28.9422C47.4066 28.0101 47.7308 26.9489 49.12 26.3214C50.4461 25.7218 52.0044 25.771 52.9886 26.419C52.8261 27.5837 51.8338 28.7844 50.5078 29.3825C49.1156 30.0115 48.1057 29.5543 47.3986 28.9422ZM43.6366 23.7821C43.103 22.9345 42.7803 21.7874 43.6726 20.415C44.5245 19.1072 45.9601 18.25 47.2258 18.2669C47.7529 19.4125 47.5529 21.0711 46.7017 22.3811C45.8109 23.7535 44.6304 23.9253 43.6366 23.7821ZM41.7769 29.7253C41.5425 28.8725 41.5601 27.823 42.6627 26.888C43.7167 25.9985 45.1471 25.6389 46.2144 25.9728C46.3688 27.0759 45.7778 28.4277 44.7245 29.3179C43.6241 30.25 42.5811 30.0959 41.7769 29.7253ZM38.9889 28.1055C38.259 27.4487 37.6475 26.4543 38.1216 24.9219C38.5721 23.4607 39.7019 22.2659 40.8971 21.9445C41.7034 22.886 41.9585 24.5036 41.5057 25.9662C41.0316 27.4979 39.9665 27.9749 38.9889 28.1055ZM45.3743 35.057C45.7771 34.5015 46.4202 34.0024 47.5213 34.216C48.5724 34.4193 49.4868 35.1106 49.8 35.9164C49.2075 36.5454 48.0998 36.8448 47.0502 36.6415C45.9491 36.4265 45.5367 35.7241 45.3743 35.057ZM47.4949 32.3966C47.7426 31.6664 48.2711 30.9178 49.5228 30.7821C50.7173 30.6529 51.9279 31.0925 52.5314 31.8536C52.1043 32.7254 51.0157 33.4116 49.8227 33.5408C48.5695 33.6766 47.8925 33.0594 47.4949 32.3966ZM47.3089 25.0459C47.0979 24.2871 47.1148 23.3543 48.0961 22.5228C49.0333 21.7324 50.3064 21.4109 51.2524 21.7096C51.3906 22.6908 50.865 23.8908 49.9286 24.6841C48.9495 25.5134 48.0241 25.3769 47.3089 25.0459ZM41.4454 20.1743C40.8361 19.6239 40.326 18.7968 40.7214 17.5198C41.0978 16.303 42.0371 15.3078 43.0317 15.0385C43.7079 15.8223 43.9189 17.1719 43.5425 18.3902C43.1471 19.6672 42.2584 20.0642 41.4454 20.1743ZM59.0248 49.8334C55.4157 47.6177 49.9198 45.3125 41.9563 44.583C41.9032 44.9959 41.8752 45.4115 41.8725 45.8277C41.8725 46.0941 41.9188 46.4398 41.9276 46.5103C49.6978 47.013 55.2334 48.6606 58.9865 50.0036C59.0637 50.0308 59.1358 50.0623 59.1703 50.0623C59.2144 50.0623 59.2365 50.0352 59.2365 50.0036C59.2365 49.9449 59.1703 49.9244 59.0248 49.8334ZM37.3218 21.4549C36.2906 20.9757 35.2747 20.0848 35.2747 18.2331C35.2747 16.4644 36.1105 14.7633 37.3226 14C38.5347 14.7633 39.3704 16.4637 39.3704 18.2324C39.3704 20.0848 38.356 20.9757 37.3218 21.4549Z" fill="#56B948"/>
<path d="M76.213 27.7149C76.213 28.8055 77.1127 29.6898 78.227 29.6898C79.3384 29.6898 80.2396 28.8055 80.2396 27.7149C80.2396 26.6251 79.3384 25.7422 78.2263 25.7422C77.1127 25.7422 76.213 26.6251 76.213 27.7149ZM91.9327 38.1091C91.9327 41.226 90.7125 42.5243 88.9469 42.5243C87.1659 42.5243 86.1684 41.0154 86.1684 38.3689C86.1684 35.6682 87.7157 33.4357 90.5817 33.4357C91.1726 33.4357 91.5857 33.4944 91.9327 33.578V38.1091ZM92.1047 43.2215V44.2342C92.1047 47.012 90.3913 48.0909 88.2648 48.0909C86.3537 48.0909 84.9439 47.5162 84.4977 47.3614V50.1098C84.8608 50.2074 86.4132 50.6948 88.6279 50.6948C92.5604 50.6948 95.1882 49.0743 95.1882 43.5202V31.5341C94.6839 31.4064 92.8375 30.9176 90.7118 30.9176C85.1952 30.9176 82.8247 34.6092 82.8247 38.603C82.8247 42.2747 84.6748 45.1531 88.2185 45.1531C90.5552 45.1531 91.6783 43.744 92.0437 43.2215H92.1047ZM73.3463 41.5262C72.4606 41.9408 71.0434 42.2138 69.6718 42.2138C65.9319 42.2138 63.1777 39.5424 63.1777 35.4722C63.1777 31.4292 65.9128 28.7262 69.6718 28.7262C71.5352 28.7262 72.8612 29.1812 73.3471 29.4117V26.5025C72.529 26.1994 71.2022 25.8934 69.3264 25.8934C63.5232 25.8934 59.6216 29.9005 59.6216 35.4737C59.6216 40.7409 63.2115 45.0481 69.3271 45.0481C71.1206 45.0481 72.4702 44.7641 73.3463 44.4368V41.5262ZM122.599 38.1091C122.599 41.226 121.378 42.5243 119.613 42.5243C117.831 42.5243 116.828 41.0154 116.828 38.3689C116.828 35.6682 118.383 33.4357 121.247 33.4357C121.702 33.4284 122.156 33.4762 122.599 33.578V38.1091ZM126.264 44.8492C126.159 44.0904 125.855 42.0869 125.855 40.3622V31.5341C125.346 31.4064 123.498 30.9176 121.378 30.9176C115.858 30.9176 113.491 34.6092 113.491 38.603C113.491 42.2747 115.335 45.1531 118.882 45.1531C121.472 45.1531 122.632 43.4813 123.07 42.5896H123.155C123.188 43.013 123.304 44.4515 123.343 44.85H126.266L126.264 44.8492ZM79.8559 31.2655H76.6011V44.8485H79.8559V31.2655ZM98.873 44.8485V35.4502C98.873 34.1901 98.7583 31.7734 98.7252 31.2251H101.649L101.787 33.1355H101.848C102.187 32.6012 103.282 30.9176 105.833 30.9176C108.914 30.9176 110.626 33.1781 110.626 35.9948V44.8492H107.373V36.6369C107.373 34.9071 106.41 33.6 104.752 33.6C103.042 33.6 102.131 34.9798 102.131 36.6369V44.8485H98.873ZM131.041 42.5147C130.958 42.467 130.822 42.445 130.639 42.445H130.354V43.1246H130.655C130.762 43.1299 130.87 43.1163 130.972 43.0842C131.102 43.0328 131.167 42.9352 131.167 42.7892C131.167 42.6527 131.125 42.5617 131.041 42.5147ZM130.682 42.219C130.916 42.219 131.088 42.241 131.197 42.285C131.393 42.3687 131.489 42.525 131.489 42.762C131.489 42.9308 131.428 43.0571 131.306 43.1341C131.223 43.1829 131.13 43.2139 131.034 43.2251C131.163 43.2383 131.281 43.3059 131.358 43.4108C131.421 43.495 131.457 43.5964 131.46 43.7014V43.8394C131.46 43.8834 131.46 43.9297 131.463 43.9788C131.463 44.0126 131.47 44.0464 131.481 44.0779L131.491 44.0999H131.181L131.177 44.0816C131.176 44.0757 131.172 44.0684 131.172 44.0603L131.166 44.0009V43.8519C131.166 43.6346 131.105 43.4901 130.988 43.4203C130.916 43.3822 130.793 43.3587 130.618 43.3587H130.356V44.0999H130.023V42.219H130.683H130.682ZM129.671 42.1235C129.532 42.2589 129.422 42.4212 129.349 42.6004C129.275 42.7796 129.239 42.972 129.242 43.1657C129.242 43.5767 129.385 43.9289 129.671 44.2174C129.943 44.5014 130.323 44.6592 130.717 44.6526C131.126 44.6526 131.476 44.5073 131.763 44.2174C132.048 43.9297 132.192 43.5767 132.192 43.1679C132.192 42.7584 132.048 42.4105 131.763 42.1228C131.628 41.9828 131.465 41.872 131.285 41.7973C131.105 41.7225 130.912 41.6855 130.717 41.6883C130.522 41.6851 130.328 41.7221 130.149 41.7968C129.969 41.8716 129.806 41.9826 129.671 42.1228L129.671 42.1235ZM131.932 44.381C131.775 44.5438 131.586 44.6726 131.377 44.7593C131.168 44.8461 130.943 44.8889 130.717 44.8852C130.49 44.889 130.266 44.8462 130.057 44.7595C129.848 44.6727 129.659 44.5439 129.502 44.381C129.341 44.2228 129.213 44.0333 129.127 43.8243C129.041 43.6152 128.999 43.3909 129.002 43.165C129.002 42.6923 129.172 42.2887 129.505 41.954C129.662 41.7925 129.851 41.6648 130.059 41.5787C130.267 41.4926 130.491 41.45 130.717 41.4535C130.943 41.4496 131.167 41.492 131.376 41.5781C131.585 41.6642 131.774 41.7921 131.932 41.954C132.268 42.2865 132.436 42.6908 132.436 43.1642C132.439 43.3907 132.397 43.6155 132.31 43.8247C132.223 44.034 132.094 44.2233 131.932 44.381Z" fill="#0982C6"/>
</g>
<defs>
<clipPath id="clip0_2006_29620">
<rect width="118" height="41" fill="white" transform="translate(15 14)"/>
</clipPath>
</defs>
</svg>
