<svg width="148" height="69" viewBox="0 0 148 69" fill="none" xmlns="http://www.w3.org/2000/svg">
<g clip-path="url(#clip0_79_1791)">
<path d="M48.5 9H99.5V60H48.5V9Z" fill="#22559E"/>
<path d="M61.2565 43.1553H86.7717V47.2958H61.2565V43.1553Z" fill="white"/>
<path d="M73.9076 21.8003H78.2185L80.328 35.8204L82.4844 21.8003H86.7483V40.9563H83.9071V26.5299L81.5125 40.9563H79.0573L76.7465 26.5299V40.9283H73.9076V21.8003Z" fill="white"/>
<path d="M67.9991 27.8829H70.9126V26.53C70.9126 25.2049 70.9126 21.4033 66.0389 21.4033C61.2728 21.4033 61.2728 25.7449 61.2728 26.53C61.2728 26.9482 61.2728 35.7247 61.2728 36.4864C61.2728 39.3932 62.3359 41.2977 65.0904 41.3162C66.719 41.3187 67.8544 40.2998 68.095 39.9119V40.9284L70.9126 40.9563V30.5769H66.3287V32.8809H67.9991C67.9991 32.8809 67.9991 35.5656 67.9991 35.9139C67.9991 37.4515 67.5179 38.4982 66.0857 38.4982C64.6511 38.4982 64.1955 37.3836 64.1955 35.9139C64.1955 35.0027 64.1955 27.0978 64.1955 26.53C64.1955 25.7682 64.1955 24.0297 66.0857 24.0297C67.9991 24.0297 67.9991 25.7962 67.9991 26.53C67.9991 27.1678 67.9991 27.8829 67.9991 27.8829Z" fill="white"/>
</g>
<defs>
<clipPath id="clip0_79_1791">
<rect width="51" height="51" fill="white" transform="translate(48.5 9)"/>
</clipPath>
</defs>
</svg>
