<svg width="148" height="69" viewBox="0 0 148 69" fill="none" xmlns="http://www.w3.org/2000/svg">
<g clip-path="url(#clip0_2006_29620)">
<path d="M45.1725 38.4968C45.4837 38.6179 45.945 38.6958 46.5563 38.7317V38.9846H39.657V38.7317C40.267 38.6958 40.7296 38.6179 41.0408 38.4968C41.352 38.3769 41.5678 38.184 41.6856 37.9179C41.8034 37.653 41.8629 37.261 41.8629 36.7432V28.6813H41.8071L37.0765 39.2196H37.0207L31.9528 28.7185H31.897V36.7432C31.897 37.261 31.959 37.653 32.0843 37.9179C32.2083 38.1828 32.424 38.3757 32.7291 38.4968C33.0341 38.6179 33.4929 38.6958 34.103 38.7317V38.9846H28.8392V38.7317C29.4493 38.6958 29.9081 38.6179 30.2131 38.4968C30.5182 38.3769 30.7339 38.184 30.8579 37.9179C30.9819 37.653 31.0452 37.261 31.0452 36.7432V28.6633C31.0452 28.1455 30.9832 27.7536 30.8579 27.4887C30.7327 27.2238 30.5182 27.0308 30.2131 26.9098C29.9068 26.7899 29.4493 26.7108 28.8392 26.6748V26.4219H33.5611L37.8738 35.523L42.0564 26.4219H46.5563V26.6748C45.945 26.7108 45.4837 26.7899 45.1725 26.9098C44.8612 27.0308 44.643 27.2262 44.5178 27.4971C44.3925 27.768 44.3305 28.1563 44.3305 28.6633V36.7432C44.3305 37.261 44.3925 37.653 44.5178 37.9179C44.643 38.184 44.8612 38.3757 45.1725 38.4968ZM54.5469 32.4054C54.9325 33.0922 55.126 33.8689 55.126 34.7367C55.126 35.6045 54.9325 36.3812 54.5469 37.068C54.16 37.7548 53.6218 38.2858 52.9299 38.6586C52.238 39.0326 51.4494 39.2196 50.564 39.2196C49.6786 39.2196 48.8937 39.0326 48.208 38.6586C47.5223 38.2858 46.9829 37.7548 46.591 37.068C46.198 36.3812 46.002 35.6045 46.002 34.7367C46.002 33.8689 46.198 33.0922 46.591 32.4054C46.9841 31.7186 47.5223 31.1888 48.208 30.8148C48.8937 30.4409 49.6786 30.2539 50.564 30.2539C51.4494 30.2539 52.238 30.4409 52.9299 30.8148C53.6218 31.1888 54.16 31.7186 54.5469 32.4054ZM52.677 34.7367C52.677 33.8809 52.5926 33.1462 52.424 32.5313C52.2554 31.9164 52.0123 31.4501 51.6949 31.1301C51.3774 30.8113 50.9992 30.6506 50.564 30.6506C50.1275 30.6506 49.7506 30.8101 49.4331 31.1301C49.1157 31.4501 48.8726 31.9164 48.704 32.5313C48.5354 33.1462 48.451 33.8809 48.451 34.7367C48.451 35.5925 48.5354 36.3273 48.704 36.9422C48.8726 37.5571 49.1157 38.0233 49.4331 38.3434C49.7506 38.6634 50.1275 38.8228 50.564 38.8228C51.0005 38.8228 51.3774 38.6634 51.6949 38.3434C52.0123 38.0245 52.2554 37.5571 52.424 36.9422C52.5926 36.3273 52.677 35.5925 52.677 34.7367ZM61.4661 32.1885C61.7897 32.1885 62.0836 32.2424 62.3452 32.3515V30.363C62.1828 30.2911 61.9906 30.2551 61.7662 30.2551C61.192 30.2551 60.6849 30.4996 60.2422 30.9874C59.7995 31.4753 59.4548 32.0362 59.1349 33.1534H59.0927V30.327H59.0183L55.3157 31.3578V31.5928C55.7398 31.5928 56.0671 31.6323 56.2978 31.7102C56.5284 31.7881 56.6933 31.9152 56.7938 32.0902C56.893 32.2652 56.9438 32.5025 56.9438 32.8046V37.2874C56.9438 37.6614 56.9066 37.9382 56.8322 38.1192C56.7578 38.3002 56.6202 38.4357 56.4205 38.5256C56.2209 38.6155 55.9034 38.685 55.467 38.7329V38.9858H60.665V38.7329C60.2286 38.697 59.9012 38.6334 59.683 38.5435C59.4647 38.4536 59.3122 38.3146 59.2254 38.1276C59.1386 37.9406 59.094 37.6602 59.094 37.2874V33.7347C59.4858 32.8441 60.3488 32.1885 61.4661 32.1885ZM88.7523 38.1084C88.6779 37.9215 88.6407 37.6422 88.6407 37.2682V33.1462C88.6407 31.2104 87.5321 30.2539 86.0788 30.2539C84.6256 30.2539 83.6918 31.2487 83.2926 31.7785H83.2554V30.327H83.181L79.4783 31.3578V31.5928C79.89 31.5928 80.2136 31.6323 80.4505 31.7102C80.6873 31.7881 80.856 31.9116 80.9552 32.0806C81.0544 32.2496 81.1052 32.4845 81.1052 32.7854V37.267C81.1052 37.641 81.068 37.9215 80.9936 38.1072C80.9192 38.2942 80.7816 38.4321 80.5819 38.5232C80.3823 38.6131 80.0648 38.6826 79.6284 38.7305V38.9834H84.4904V38.7305C84.1544 38.6826 83.8952 38.6131 83.7142 38.5232C83.5331 38.4333 83.4116 38.2942 83.3496 38.1072C83.2876 37.9203 83.2566 37.641 83.2566 37.267V32.4354C83.6869 31.9308 84.1928 31.4465 85.0149 31.4465C86.1446 31.4465 86.4918 32.27 86.4918 33.2001V37.267C86.4918 37.641 86.457 37.9215 86.3888 38.1072C86.3206 38.2942 86.2016 38.4321 86.033 38.5232C85.8643 38.6131 85.6064 38.6826 85.2567 38.7305V38.9834H90.063V38.7305C89.6513 38.6826 89.3487 38.6131 89.1565 38.5232C88.9606 38.4333 88.8279 38.2954 88.7523 38.1084ZM136 36.4903C135.587 37.3617 134.435 39.2196 132.092 39.2196C129.866 39.2196 128.016 37.46 128.016 34.8098C128.016 33.978 128.203 33.2133 128.576 32.5145C128.951 31.8157 129.458 31.2643 130.1 30.8604C130.742 30.4565 131.449 30.2551 132.223 30.2551C134.469 30.2551 135.588 31.7845 135.588 33.3787V33.7383H130.017C130.017 33.7706 130.016 33.8018 130.016 33.8342C130.016 35.752 130.899 37.5942 133.119 37.5942C134.808 37.5942 135.515 36.6905 135.793 36.3656L136 36.4903ZM130.055 33.1282H133.55C133.526 31.8181 133.122 30.6746 132.017 30.6698C130.98 30.6662 130.229 31.6011 130.055 33.1282ZM111.199 38.1084C111.124 37.9215 111.087 37.6422 111.087 37.2682V33.1462C111.087 32.5193 110.978 31.9895 110.76 31.5556C110.542 31.1217 110.239 30.7969 109.853 30.5799C109.466 30.363 109.024 30.2551 108.525 30.2551C107.951 30.2551 107.444 30.3965 107.001 30.6794C106.559 30.9623 106.138 31.3698 105.739 31.8996H105.702V26H105.627L101.925 27.0308V27.2657C102.336 27.2657 102.66 27.3053 102.897 27.3832C103.134 27.4611 103.302 27.5846 103.402 27.7536C103.501 27.9226 103.552 28.1575 103.552 28.4584V37.267C103.552 37.641 103.514 37.9215 103.44 38.1072C103.366 38.2942 103.228 38.4321 103.028 38.5232C102.829 38.6131 102.511 38.6826 102.075 38.7305V38.9834H106.937V38.7305C106.601 38.6826 106.342 38.6131 106.161 38.5232C105.98 38.4333 105.858 38.2942 105.796 38.1072C105.734 37.9203 105.703 37.641 105.703 37.267V32.4354C106.133 31.9308 106.639 31.4465 107.461 31.4465C107.923 31.4465 108.284 31.594 108.546 31.8888C108.808 32.1837 108.939 32.6212 108.939 33.1989V37.267C108.939 37.641 108.905 37.9215 108.837 38.1072C108.768 38.2942 108.649 38.4321 108.481 38.5232C108.312 38.6131 108.054 38.6826 107.704 38.7305V38.9834H112.511V38.7305C112.099 38.6826 111.796 38.6131 111.604 38.5232C111.407 38.4333 111.274 38.2954 111.199 38.1084ZM97.617 38.2043C94.8593 38.2223 92.6719 36.0792 92.6719 32.602C92.6719 28.927 94.7092 26.7839 97.0392 26.7839C99.3692 26.7839 100.369 28.8132 100.878 30.8065L101.251 30.8005V27.1327C100.376 26.664 98.9401 26.1354 96.8532 26.1354C92.8282 26.1354 89.7902 28.9822 89.7902 32.783C89.7902 36.404 92.3247 39.2675 96.6858 39.2495C99.0902 39.2315 100.767 37.8447 101.568 36.7816L101.307 36.5119C100.767 37.1064 99.6854 38.1863 97.617 38.2043ZM125.379 33.96L124.09 33.3631C123.233 32.9927 122.743 32.5025 122.743 31.8996C122.743 31.2164 123.39 30.7489 124.296 30.7489C125.614 30.7489 126.297 31.4537 126.58 33.0203H126.969V30.7429C126.582 30.5979 125.56 30.2551 124.52 30.2551C122.463 30.2551 121.211 31.5053 121.211 32.9484C121.211 33.5033 121.363 33.9876 121.668 34.4035C121.973 34.8194 122.432 35.1778 123.042 35.4787L124.389 36.1295C125.31 36.5359 125.679 36.9362 125.679 37.5391C125.679 38.2055 125.124 38.7269 124.071 38.7269C122.532 38.7269 121.801 37.3162 121.6 36.1835H121.211V38.5148C121.797 38.8815 122.901 39.2196 123.922 39.2196C125.894 39.2196 127.269 38.0521 127.269 36.4004C127.268 35.2102 126.611 34.4658 125.379 33.96ZM23.1637 33.5081V36.7432C23.1637 37.249 23.2381 37.6374 23.3882 37.9095C23.5382 38.1804 23.7874 38.3769 24.1359 38.4968C24.4843 38.6179 25.015 38.6958 25.7256 38.7317V38.9846H18.4889V38.7317C19.099 38.6958 19.5578 38.6179 19.8628 38.4968C20.1679 38.3769 20.3836 38.184 20.5076 37.9179C20.6316 37.653 20.6949 37.261 20.6949 36.7432V28.7185C20.6949 27.0656 19.9224 26.73 18.7493 26.73C17.4622 26.73 16.6748 27.0644 16.6748 28.6645V37.6434C16.6748 39.6726 15.3108 41.6024 12.6175 41.6024C12.4092 41.6024 12.2034 41.5904 12 41.5677V41.3507C12.6398 41.3135 13.1582 41.1038 13.5525 40.7166C13.989 40.2887 14.2072 39.5875 14.2072 38.6107V28.6633C14.2072 28.1575 14.1452 27.768 14.02 27.4971C13.8947 27.2262 13.6765 27.0308 13.3652 26.9098C13.054 26.7899 12.5989 26.7108 12 26.6748V26.4219H24.7782C27.6848 26.4219 29.484 27.8267 29.484 29.947C29.484 32.3743 27.0176 33.5081 24.8129 33.5081H23.1637ZM23.1637 33.0227H24.0553C25.5718 33.0227 26.8478 32.1645 26.8478 29.965C26.8478 27.2765 25.0113 26.9074 24.1012 26.9074H23.1637V33.0227ZM78.7244 38.2631C79.0332 38.2631 79.3047 38.1324 79.4771 38.0197V38.4488C79.1324 38.7605 78.4925 39.2136 77.5303 39.2136C76.7193 39.2136 76.0386 38.7161 75.8575 37.9574H75.8092C75.493 38.5351 74.527 39.2651 73.473 39.2651C72.2082 39.2651 71.277 38.45 71.277 37.2107C71.277 36.2422 71.9627 35.5973 73.1035 35.2066L75.8092 34.2645V33.0503C75.8092 31.9463 74.9833 31.4369 74.088 31.4369C73.1742 31.4369 72.331 31.8109 71.453 32.6763L71.1902 32.439C71.9627 31.2332 73.1928 30.2479 74.9672 30.2479C76.6536 30.2479 78.0064 31.3183 77.9891 33.0503L77.9544 37.3809C77.9519 37.991 78.216 38.2631 78.7244 38.2631ZM75.8092 34.8302L74.7204 35.2569C73.8772 35.5794 73.3329 35.9533 73.3329 36.8187C73.3329 37.5487 73.8599 38.0581 74.5977 38.0581C74.9846 38.0581 75.5463 37.7692 75.8104 37.4468V34.8302H75.8092ZM120.005 38.2631C120.315 38.2631 120.586 38.1312 120.759 38.0197V38.4488C120.414 38.7605 119.775 39.2148 118.811 39.2148C118 39.2148 117.319 38.7173 117.138 37.9586H117.09C116.774 38.5363 115.808 39.2663 114.754 39.2663C113.489 39.2663 112.558 38.4512 112.558 37.2119C112.558 36.2434 113.244 35.5985 114.384 35.2078L117.09 34.2657V33.0503C117.09 31.9463 116.264 31.4369 115.369 31.4369C114.455 31.4369 113.612 31.8109 112.734 32.6763L112.47 32.439C113.242 31.2332 114.472 30.2479 116.247 30.2479C117.933 30.2479 119.286 31.3183 119.269 33.0503L119.234 37.3809C119.233 37.991 119.496 38.2631 120.005 38.2631ZM117.089 34.8302L116 35.2569C115.157 35.5794 114.612 35.9533 114.612 36.8187C114.612 37.5487 115.139 38.0581 115.877 38.0581C116.264 38.0581 116.826 37.7692 117.09 37.4468V34.8302H117.089ZM69.0561 30.8484C69.8559 31.4513 70.2093 32.3191 70.2093 33.0599C70.2093 35.0052 68.4894 36.0133 66.5315 36.0133C66.0156 36.0133 65.5172 35.9425 65.0621 35.8035C64.8091 35.9917 64.5921 36.2374 64.5921 36.5251C64.5921 37.1436 65.635 37.2682 66.2574 37.303L68.3803 37.4444C70.0816 37.5511 71.1604 38.1336 71.1604 39.6019C71.1604 41.4586 68.8887 42.9976 65.5804 42.9976C63.6596 42.9976 62.287 42.3611 62.287 41.2284C62.287 40.2444 62.8474 39.681 64.2883 39.0122C63.3459 38.7473 63.1277 38.2043 63.1277 37.6733C63.1277 36.947 63.7985 36.2949 64.7074 35.6764C63.6187 35.233 62.8536 34.3544 62.8536 33.0575C62.8536 31.1121 64.5735 30.1041 66.5315 30.1041C67.4317 30.1041 68.1484 30.3018 68.7002 30.6123C69.1119 29.8128 69.9241 28.8827 71.3799 28.8827V30.5428C70.6024 30.3102 69.6538 30.4313 69.0561 30.8484ZM63.8233 40.4529C63.8233 41.479 65.0311 41.938 66.6046 41.938C68.105 41.938 70.1349 41.2836 70.1349 40.2396C70.1349 39.6379 69.7877 39.4964 68.8726 39.4257L65.196 39.162C64.9802 39.1464 64.7856 39.1225 64.6107 39.0901C64.0812 39.4892 63.8233 39.8992 63.8233 40.4529ZM67.9401 33.0611C67.9401 31.3986 67.3734 30.6027 66.5315 30.6027C65.6895 30.6027 65.1228 31.3986 65.1228 33.0611C65.1228 34.7235 65.6895 35.5194 66.5315 35.5194C67.3734 35.5194 67.9401 34.7235 67.9401 33.0611Z" fill="black"/>
</g>
<defs>
<clipPath id="clip0_2006_29620">
<rect width="124" height="17" fill="white" transform="translate(12 26)"/>
</clipPath>
</defs>
</svg>
