<svg width="148" height="69" viewBox="0 0 148 69" fill="none" xmlns="http://www.w3.org/2000/svg">
<g clip-path="url(#clip0_2006_29620)">
<path d="M82.2545 44.435H86.6164V40.0731L71.1075 24.5645H66.7456V28.9263L72.0768 34.7419L66.7456 40.0731V44.435H71.1075L76.4387 39.1038L82.2545 44.435Z" fill="#FDB913"/>
<path d="M81.2852 24.5645H86.6163V29.8956H81.2852V24.5645Z" fill="#FDB913"/>
<path d="M103.579 40.5578L105.518 44.435H109.395V40.0731L102.61 25.0491V24.5645H96.794V25.0491L89.5244 40.0731V44.435H93.8861L95.8247 40.5578H103.579ZM99.7019 29.8956L102.125 36.1961H97.2786L99.7019 29.8956Z" fill="#FDB913"/>
<path d="M57.5376 40.5578L59.4762 44.435H63.8378V40.0731L56.5683 25.0491V24.5645H50.7524V25.0491L43.9673 40.0731V44.435H47.8445L49.7831 40.5578H57.5376ZM53.6603 29.8956L56.0836 36.1961H51.2371L53.6603 29.8956Z" fill="#FDB913"/>
<path d="M119.573 37.1652L125.873 44.435H129.266V40.5578L125.873 36.6806L126.358 36.1959C127.109 35.8697 127.773 35.3718 128.296 34.7419C129.221 33.6608 129.736 32.2875 129.75 30.8649C129.687 28.9747 128.801 27.2034 127.327 26.0184C126.058 24.9724 124.551 24.5645 122.48 24.5645H112.788V44.435H117.634V37.1652H119.573ZM117.634 32.8033V28.9263H122.965C123.951 28.9263 124.419 29.8791 124.419 30.8649C124.419 31.8506 123.951 32.8033 122.965 32.8033H117.634Z" fill="#FDB913"/>
<path d="M35.728 44.435H40.5745V24.5645H35.2433L34.7587 25.0491L29.9124 33.288L25.0658 25.0491L24.5812 24.5645H19.25V44.435H24.0965V34.2573L27.9738 40.5578H31.851L35.728 34.2573V44.435Z" fill="#FDB913"/>
</g>
<defs>
<clipPath id="clip0_2006_29620">
<rect width="148" height="69" fill="white"/>
</clipPath>
</defs>
</svg>
