<svg width="148" height="69" viewBox="0 0 148 69" fill="none" xmlns="http://www.w3.org/2000/svg">
<g clip-path="url(#clip0_79_1909)">
<path fill-rule="evenodd" clip-rule="evenodd" d="M79.8062 32.7202C80.3497 31.0555 81.591 30.1561 83.3358 29.9035C84.5715 29.7251 85.7974 29.7864 86.9987 30.1656C87.3192 30.2664 87.4567 30.3658 87.4567 30.3658C87.4567 30.3658 87.5717 32.042 87.6173 32.7243C86.6158 32.3477 85.6228 32.1442 84.5877 32.166C83.4137 32.1898 82.6745 32.7317 82.3968 33.834C81.9353 35.6437 82.3968 37.0749 82.3968 37.0749C82.6745 38.1772 83.4137 38.7192 84.5877 38.743C85.6228 38.7641 86.6158 38.5605 87.6173 38.184C87.5717 38.8662 87.4567 40.5425 87.4567 40.5425C87.4567 40.5425 87.3192 40.6426 86.9987 40.7433C85.7974 41.1226 84.5715 41.1838 83.3358 41.0048C81.591 40.7529 80.3799 39.8902 79.8062 38.1888C79.2879 36.6494 79.3363 34.2752 79.8062 32.7202Z" fill="#333333"/>
<path fill-rule="evenodd" clip-rule="evenodd" d="M72.6969 36.3656C71.835 36.3656 71.173 36.7483 71.173 37.6463C71.173 38.351 71.4802 38.7915 72.1745 38.9345C72.7404 39.0407 73.3267 39.0577 73.9172 38.9127C74.5561 38.7561 75.0217 38.3183 75.1192 37.6865C75.1845 37.2691 75.1816 36.7667 75.1816 36.3656H72.6969ZM75.587 40.9062C75.587 40.9062 75.3065 40.1226 75.1816 39.8005C74.3226 41.1064 73.0062 41.1466 71.6681 41.0969C71.0201 41.0724 70.3995 40.9076 69.8441 40.5672C68.8559 39.9612 68.4667 39.0352 68.4113 37.9527C68.3159 36.0865 69.3791 34.8501 71.2943 34.609C71.8133 34.543 72.3421 34.5403 72.8674 34.5321C73.6248 34.5198 74.406 34.5287 75.1852 34.5287C75.1852 34.5287 75.2209 33.6695 75.0547 33.1745C74.7973 32.4038 73.8723 32.2451 73.1717 32.222C71.3238 32.1614 69.3139 32.6169 69.3139 32.6169L69.7445 30.2359C71.5433 29.9377 73.4712 29.6565 75.2784 30.1086C76.8023 30.4899 77.6881 31.5234 77.8711 33.0404C77.9097 33.359 77.937 33.681 77.9377 34.001C77.9427 36.2233 77.9377 40.9062 77.9377 40.9062H75.587Z" fill="#333333"/>
<path fill-rule="evenodd" clip-rule="evenodd" d="M117.549 36.3656C116.687 36.3656 116.025 36.7483 116.025 37.6463C116.025 38.351 116.333 38.7915 117.027 38.9345C117.593 39.0407 118.179 39.0577 118.77 38.9127C119.408 38.7561 119.873 38.3183 119.972 37.6865C120.036 37.2691 120.034 36.7667 120.034 36.3656H117.549ZM120.439 40.9062C120.439 40.9062 120.159 40.1226 120.034 39.8005C119.175 41.1064 117.859 41.1466 116.52 41.0969C115.872 41.0724 115.252 40.9076 114.696 40.5672C113.708 39.9612 113.319 39.0352 113.264 37.9527C113.168 36.0865 114.231 34.8501 116.147 34.609C116.666 34.543 117.194 34.5403 117.719 34.5321C118.477 34.5198 119.258 34.5287 120.037 34.5287C120.037 34.5287 120.073 33.6695 119.907 33.1745C119.649 32.4038 118.725 32.2451 118.024 32.222C116.176 32.1614 114.165 32.6169 114.165 32.6169L114.597 30.2359C116.395 29.9377 118.323 29.6565 120.13 30.1086C121.655 30.4899 122.54 31.5234 122.723 33.0404C122.762 33.359 122.789 33.681 122.79 34.001C122.795 36.2233 122.79 40.9062 122.79 40.9062H120.439Z" fill="#333333"/>
<path fill-rule="evenodd" clip-rule="evenodd" d="M64.0736 40.9065H66.8795V25.8086L64.0736 26.3267V40.9065Z" fill="#333333"/>
<path fill-rule="evenodd" clip-rule="evenodd" d="M57.2292 33.1225H54.5986V28.4811H57.2292C58.6928 28.5547 59.4509 29.5473 59.4509 30.8035C59.4509 32.1993 58.5616 33.0353 57.2292 33.1225ZM57.2292 25.979H51.5585V40.9067H54.5986V35.628H57.2292C59.9741 35.628 62.4328 34.3228 62.4328 30.8035C62.4328 27.2842 59.9741 25.979 57.2292 25.979Z" fill="#333333"/>
<path fill-rule="evenodd" clip-rule="evenodd" d="M125.029 40.9068H127.76V30.0322H125.029V40.9068Z" fill="#333333"/>
<path fill-rule="evenodd" clip-rule="evenodd" d="M102.944 31.2391L102.631 30.0183H100.276V40.9065H103.022V34.804C103.022 34.804 103.033 34.3689 103.063 34.1538C103.221 32.9868 104.212 32.2202 105.236 32.1671C105.837 32.1357 106.329 32.2045 106.814 32.3686L107.261 30.0775C105.447 29.5002 103.916 29.9379 102.944 31.2391Z" fill="#333333"/>
<path fill-rule="evenodd" clip-rule="evenodd" d="M96.0965 34.4708C96.0474 32.96 95.3293 32.0299 93.8138 32.0326C92.3151 32.0347 91.5612 33.1206 91.5591 34.4708H96.0965ZM98.1254 38.2529L97.7228 40.6297C95.9913 41.107 93.966 41.3079 92.1384 40.8204C90.5654 40.401 89.5252 39.4192 89.0862 37.9029C88.5939 36.2015 88.596 34.481 89.1641 32.7931C89.784 30.9542 91.165 30.0234 93.1104 29.8457C94.067 29.7579 95.0207 29.8063 95.9338 30.1337C97.3224 30.6314 98.0798 31.6623 98.4557 33.0063C98.7552 34.0765 98.7068 35.17 98.6822 36.2982H91.5689C91.4939 37.6129 92.2429 38.4027 93.2941 38.6342C94.3293 38.8616 95.3665 38.7799 96.3974 38.6076C96.9781 38.5103 97.5223 38.3802 98.1254 38.2529Z" fill="#333333"/>
<path fill-rule="evenodd" clip-rule="evenodd" d="M107.783 40.9064H111.03V37.8779H107.783V40.9064Z" fill="#333333"/>
<path fill-rule="evenodd" clip-rule="evenodd" d="M125.03 28.49V26.2827V25.979H127.761V28.49H125.03Z" fill="#333333"/>
<path fill-rule="evenodd" clip-rule="evenodd" d="M27.3637 31.2555C26.7823 31.2555 26.3117 30.798 26.3117 30.2342V28.1917C26.3117 27.6279 26.7823 27.1704 27.3637 27.1704C27.9443 27.1704 28.4156 27.6279 28.4156 28.1917V30.2342C28.4156 30.798 27.9443 31.2555 27.3637 31.2555Z" fill="#5E63E5"/>
<path fill-rule="evenodd" clip-rule="evenodd" d="M35.7792 31.2555C35.1979 31.2555 34.7273 30.798 34.7273 30.2342V28.1917C34.7273 27.6279 35.1979 27.1704 35.7792 27.1704C36.3599 27.1704 36.8312 27.6279 36.8312 28.1917V30.2342C36.8312 30.798 36.3599 31.2555 35.7792 31.2555Z" fill="#5E63E5"/>
<path fill-rule="evenodd" clip-rule="evenodd" d="M31.5714 37.3829C27.1168 37.3829 23.5065 33.6954 23.5065 29.146C23.5065 28.3739 23.6131 27.627 23.8074 26.9182V26.972C24.2555 25.5095 25.5908 24.4467 27.1715 24.4467C29.1183 24.4467 30.5195 26.059 30.5195 28.0478V30.4505V31.2552V31.8326C30.5195 32.3909 30.9858 32.8437 31.5609 32.8437H31.5819C32.157 32.8437 32.6234 32.3909 32.6234 31.8326V31.2552V30.4505V28.0478C32.6234 26.059 34.0239 24.4467 35.9714 24.4467C37.5521 24.4467 38.8874 25.5095 39.3355 26.9727V26.9182C39.5298 27.627 39.6364 28.3739 39.6364 29.146C39.6364 33.6954 36.0254 37.3829 31.5714 37.3829ZM34.7273 40.4481C34.7273 41.0112 34.2567 41.468 33.6767 41.468H33.6739C33.0932 41.468 32.6234 41.0112 32.6234 40.4481V40.0049C32.6234 39.9688 32.6725 39.9606 32.6851 39.9947C32.831 40.3875 33.2188 40.6687 33.6739 40.6687H33.6767C34.1319 40.6687 34.519 40.3875 34.6656 39.9947C34.6775 39.9606 34.7273 39.9688 34.7273 40.0049V40.4481ZM32.6234 42.4907C32.6234 43.0537 32.1528 43.5106 31.5728 43.5106H31.57C30.9894 43.5106 30.5195 43.0537 30.5195 42.4907V42.0474C30.5195 42.0113 30.5686 42.0032 30.5812 42.0372C30.7271 42.4301 31.1149 42.7112 31.57 42.7112H31.5728C32.028 42.7112 32.4151 42.4301 32.5617 42.0372C32.5736 42.0032 32.6234 42.0113 32.6234 42.0474V42.4907ZM29.4689 41.468H29.4661C28.8855 41.468 28.4156 41.0112 28.4156 40.4481V40.0049C28.4156 39.9688 28.4647 39.9606 28.4773 39.9947C28.6232 40.3875 29.011 40.6687 29.4661 40.6687H29.4689C29.9241 40.6687 30.3112 40.3875 30.4578 39.9947C30.4697 39.9606 30.5195 39.9688 30.5195 40.0049V40.4481C30.5195 41.0112 30.0489 41.468 29.4689 41.468ZM41.2248 23.4507L41.6757 21.0425H37.428C34.756 21.0425 32.4796 22.6649 31.5714 24.9472C30.6632 22.6649 28.3861 21.0425 25.7142 21.0425H21.4671L21.9181 23.4507C20.6817 25.178 20 27.3118 20 29.6975C20 40.6701 31.5714 47.5957 31.5714 47.5957C31.5714 47.5957 43.1429 40.6701 43.1429 29.6975C43.1429 27.3118 42.4612 25.178 41.2248 23.4507Z" fill="#5E63E5"/>
<path fill-rule="evenodd" clip-rule="evenodd" d="M36.1299 50.319C36.1299 50.6949 34.0891 50.9999 31.5714 50.9999C29.0538 50.9999 27.013 50.6949 27.013 50.319C27.013 49.9425 29.0538 49.6382 31.5714 49.6382C34.0891 49.6382 36.1299 49.9425 36.1299 50.319Z" fill="#5E63E5"/>
<path fill-rule="evenodd" clip-rule="evenodd" d="M31.5714 23.3035C32.6731 21.5421 34.6613 20.3622 36.9391 20.3622H37.6159C35.9201 19.4927 33.8878 19.0005 31.5714 19.0005C29.255 19.0005 27.2226 19.4927 25.5269 20.3622H26.2036C28.4815 20.3622 30.4696 21.5421 31.5714 23.3035Z" fill="#5E63E5"/>
</g>
<defs>
<clipPath id="clip0_79_1909">
<rect width="108" height="32" fill="white" transform="translate(20 19)"/>
</clipPath>
</defs>
</svg>
