<svg width="148" height="69" viewBox="0 0 148 69" fill="none" xmlns="http://www.w3.org/2000/svg">
<g clip-path="url(#clip0_2006_29620)">
<path fill-rule="evenodd" clip-rule="evenodd" d="M50 10H99V59H50V10Z" fill="white"/>
<path fill-rule="evenodd" clip-rule="evenodd" d="M63.444 46.0061L62.6252 39.3744C60.4573 37.8328 58.7872 36.5641 56.7799 35.1029C55.8322 28.1173 57.5827 24.3276 60.152 20.7305C63.3476 16.6678 68.4862 13.6328 74.6365 13.6328C80.787 13.6969 85.9416 16.7962 88.9768 20.8589C91.8189 24.713 93.3446 29.5625 92.2363 35.2956L86.6963 39.3744L85.877 46.0061H77.0936C76.5476 46.4401 75.8091 46.8412 74.6365 46.8735C73.4803 46.8412 72.7576 46.4401 72.1635 46.0061H63.444Z" fill="#CC2229"/>
<path fill-rule="evenodd" clip-rule="evenodd" d="M74.6366 36.8035C74.1709 30.6209 74.0425 22.9931 73.6571 16.8751C72.9987 16.7145 72.0673 16.7628 71.2966 16.8912C70.5258 17.1321 69.9638 17.3408 69.3054 17.7102C70.5098 23.5875 71.9069 31.0706 73.0953 36.8998C71.4735 31.2312 69.3054 24.1335 67.6998 18.481C66.929 18.6416 66.1743 19.075 65.6285 19.5247C65.0504 19.9744 64.7131 20.3118 64.1831 21.1146C66.5114 26.0927 69.3054 32.4357 71.6502 37.3815C68.936 32.8851 65.644 26.9598 62.9141 22.4957C62.3843 22.9614 61.9827 23.2987 61.4526 24.1978C61.003 24.9205 60.7782 25.7716 60.6819 26.5907C63.6688 30.236 67.2336 34.6038 70.2365 38.2326C67.1055 35.2137 63.2512 31.3276 60.1521 28.3086C59.8471 28.9187 59.6544 29.4327 59.558 30.4442C59.4457 31.4237 59.6384 32.5958 59.8471 33.3025L65.901 37.7989L66.5434 42.7931L73.2077 42.8412C73.6894 43.4032 73.8498 43.6922 74.6369 43.7403C75.3913 43.6922 75.8253 43.2265 76.018 42.8412H82.6657L83.3399 37.831L89.3461 33.3666C89.5705 32.6281 89.7149 31.4877 89.6351 30.5083C89.5387 29.4485 89.3461 28.9185 89.0891 28.3564C85.974 31.3594 82.1037 35.2457 79.0046 38.2644C82.0234 34.6674 85.5563 30.2833 88.575 26.6062C88.4146 25.7874 88.222 24.9521 87.74 24.2296C87.1779 23.3302 86.8566 22.9931 86.3429 22.5114C83.5972 26.9595 80.2569 32.9334 77.543 37.3973C79.9521 32.4354 82.6818 26.0924 85.0426 21.1789C84.5288 20.3918 84.1592 19.9904 83.6455 19.573C83.0354 19.1073 82.2806 18.6739 81.5419 18.4972C79.8557 24.1335 77.7845 31.2956 76.1463 36.9158C77.2862 31.0866 78.7156 23.6678 79.8557 17.8068C79.2779 17.3891 78.7159 17.1804 77.9606 16.9557C77.0938 16.7951 76.2427 16.763 75.568 16.8754C75.1186 23.0414 75.1021 30.6532 74.6366 36.8035Z" fill="#F6D330"/>
<path fill-rule="evenodd" clip-rule="evenodd" d="M56.2339 53.071H59.3492C59.3012 53.7617 59.6385 53.9221 59.7991 54.0347C59.9756 54.0988 61.2766 54.1628 61.9187 54.0505C62.1757 54.0024 62.4165 53.9061 62.4165 53.119C62.4165 52.782 62.3361 52.4126 61.9508 52.332C60.5857 52.2199 59.2529 52.3643 57.888 52.2357C56.5229 51.9309 56.3145 51.5773 56.2339 50.5015C56.3302 49.008 56.8603 48.5746 58.3858 48.5263C59.9752 48.4782 61.5657 48.4782 63.1552 48.5263C64.777 48.5263 65.2748 49.1529 65.2748 50.5177H62.4165C62.4165 49.8431 62.2881 49.5863 61.9508 49.554C61.2557 49.506 60.5582 49.506 59.8632 49.554C59.6062 49.554 59.2691 49.6827 59.2691 50.2928C59.2691 50.8706 59.4135 51.0152 59.7991 51.0638C60.9713 51.1116 62.1597 51.1278 63.3159 51.2076C65.2427 51.3203 65.3071 52.1714 65.3711 53.0705C65.4031 54.3555 64.9374 54.8047 64.6004 55.0139C64.2793 55.1583 62.7215 55.3352 62.4165 55.3352H59.3334C58.6428 55.3352 57.7757 55.2549 57.0209 55.0299C56.3142 54.8375 56.2339 53.89 56.2339 53.071ZM85.5084 55.3672H88.2381V48.5588H85.5084V55.3672ZM90.0686 55.3672H92.7665V48.5588H90.0686V55.3672ZM83.9186 51.8022C83.8689 51.5893 83.8043 51.3801 83.7254 51.1761C83.2597 50.4214 81.6541 50.4214 80.0966 50.3891C78.9244 50.3891 77.1742 50.4214 76.6602 50.9189C76.4513 51.1438 76.3389 51.4649 76.2748 51.8022C76.1945 52.2039 76.2103 52.621 76.2103 52.814C76.2103 53.1671 76.2426 54.5319 76.9009 54.8853C77.511 55.2869 79.3576 55.3352 80.0641 55.3352C80.8188 55.3352 82.9066 55.2549 83.2119 54.9013C83.7574 54.7086 83.8861 54.0344 83.9984 53.5047H81.3168C81.3168 54.0344 80.8991 54.3558 80.0641 54.3069C79.3093 54.3555 78.8759 54.1788 78.8759 53.2316L83.9982 53.2474C83.9984 52.782 84.0149 52.284 83.9186 51.8022ZM81.3168 52.2679H78.8759C78.8759 52.0753 78.9082 51.9143 78.9562 51.8022C79.1324 51.3688 79.5823 51.3528 80.0638 51.3205C80.8025 51.3205 81.1238 51.4972 81.2525 51.8022C81.3168 51.9309 81.3328 52.0913 81.3168 52.2679ZM66.9769 55.3672H69.6426V52.4766C69.7069 52.0755 69.8032 51.7542 70.7827 51.7542C71.7138 51.7384 71.9709 51.9949 71.9709 52.4766V55.3672H74.6365V52.4766C74.6365 51.5292 74.6207 51.0155 74.0104 50.743C73.4643 50.3894 72.6773 50.4377 71.9388 50.4377C71.1681 50.4377 70.301 50.534 69.6426 50.8553V48.5591H66.9769V55.3672Z" fill="#CC2229"/>
</g>
<defs>
<clipPath id="clip0_2006_29620">
<rect width="49" height="49" fill="white" transform="translate(50 10)"/>
</clipPath>
</defs>
</svg>
