<svg width="148" height="69" viewBox="0 0 148 69" fill="none" xmlns="http://www.w3.org/2000/svg">
<g clip-path="url(#clip0_2006_29620)">
<path d="M8.26465 41.0502H26.66L26.658 41.0462L14.3791 38.0137L8.26465 41.0502Z" fill="#0A7ABC"/>
<path d="M8.26465 41.0496L14.379 38.0128L10.5815 37.0742L8.26465 41.0496Z" fill="#A6D71C"/>
<path d="M14.3794 38.0131L26.6568 41.0464L22.5305 33.9629L14.3794 38.0131Z" fill="#40C1F3"/>
<path d="M17.4625 25.2637L11.0693 36.2379L22.0391 33.1207L17.4625 25.2637Z" fill="#ED1C24"/>
<mask id="mask0_2006_29620" style="mask-type:luminance" maskUnits="userSpaceOnUse" x="8" y="25" width="132" height="19">
<path d="M8.26514 43.7383H139.736V25.2624H8.26514V43.7383Z" fill="white"/>
</mask>
<g mask="url(#mask0_2006_29620)">
<path d="M134.705 34.0978L136.499 39.2727L138.264 34.0978H139.736C139.736 34.0978 137.71 39.5181 136.936 41.6135C136.235 43.5068 135.069 43.6075 134.471 43.6075C134.209 43.6075 133.946 43.5648 133.902 43.5508L133.713 42.3073C133.757 42.3213 134.108 42.4381 134.486 42.4381C135.2 42.4381 135.448 41.9457 135.566 41.6275C135.681 41.31 135.784 41.0072 135.784 41.0072L133.217 34.0978H134.705ZM132.565 36.0638V41.0498H131.136V36.5408C131.136 35.7456 130.873 35.2106 130.013 35.2106C129.284 35.2106 128.54 35.9044 128.249 36.2653V41.0498H126.819V34.0978H128.045L128.161 34.9938C128.467 34.7196 129.357 33.9671 130.479 33.9671C131.88 33.9671 132.565 34.8063 132.565 36.0638ZM124.024 37.6109C122.419 37.7697 121.093 38.1019 121.093 39.0698C121.093 39.6916 121.53 39.9951 122.172 39.9951C123.134 39.9951 123.863 39.2433 124.024 39.0838V37.6109ZM124.199 41.0498L124.141 40.1966C124.009 40.3994 123.309 41.1946 122.055 41.1946C120.743 41.1946 119.692 40.5148 119.692 39.0258C119.692 36.9451 122.537 36.6555 124.024 36.4968V36.2807C124.024 35.7743 123.82 35.1679 122.653 35.1679C121.603 35.1679 120.525 35.7169 120.349 35.8037L120.16 34.5608C120.363 34.4594 121.501 33.9671 122.755 33.9671C124.841 33.9671 125.453 34.907 125.453 36.424V41.0498H124.199ZM114.247 36.1065V39.7496C114.364 39.7923 114.932 39.9951 115.589 39.9951C116.96 39.9951 117.644 38.9544 117.644 37.5808C117.644 36.1219 117.019 35.1679 115.91 35.1679C115.078 35.1679 114.393 35.9331 114.247 36.1065ZM114.116 34.9938C114.276 34.8203 115.02 33.9671 116.304 33.9671C117.966 33.9671 119.074 35.1239 119.074 37.5808C119.074 40.1399 117.354 41.1946 115.691 41.1946C115.005 41.1946 114.349 40.9491 114.247 40.905V43.3333L112.818 43.7383V34.0978H113.984L114.116 34.9938ZM111.502 36.0638V41.0498H110.087V36.5408C110.087 35.7456 109.853 35.2106 108.992 35.2106C108.263 35.2106 107.563 35.8904 107.272 36.2653V41.0498H105.843V36.5408C105.843 35.7456 105.61 35.2106 104.749 35.2106C104.02 35.2106 103.32 35.9044 103.028 36.2653V41.0498H101.598V34.0978H102.824L102.94 34.9938C103.246 34.7196 104.121 33.9671 105.245 33.9671C106.222 33.9671 106.82 34.3727 107.097 35.0518C107.549 34.6189 108.395 33.9671 109.488 33.9671C110.889 33.9671 111.502 34.8063 111.502 36.0638ZM97.4778 39.9951C98.5716 39.9951 99.2865 38.9691 99.2865 37.5808C99.2865 36.1785 98.5857 35.1679 97.4778 35.1679C96.2526 35.1679 95.6697 36.3233 95.6697 37.5808C95.6697 38.9251 96.326 39.9951 97.4778 39.9951ZM97.4778 41.1946C95.6697 41.1946 94.2251 40.0378 94.2251 37.5808C94.2251 35.1525 95.6986 33.9671 97.4778 33.9671C99.3451 33.9671 100.716 35.2393 100.716 37.5808C100.716 39.9811 99.2576 41.1946 97.4778 41.1946ZM93.6055 31.7416L93.3874 33.2166C93.1975 33.0572 92.1764 32.2487 90.6894 32.2487C88.5885 32.2487 87.5532 33.9244 87.5532 36.0638C87.5532 38.3334 88.676 39.8643 90.6894 39.8643C92.0889 39.8643 93.1976 39.0698 93.5328 38.8097L93.7374 40.2833C93.6055 40.4427 92.6146 41.1946 90.6753 41.1946C87.947 41.1946 86.0077 39.2433 86.0077 36.0638C86.0077 32.8984 87.947 30.9324 90.6753 30.9324C92.4827 30.9324 93.4022 31.5968 93.6055 31.7416ZM81.815 36.0638V41.0498H80.3859V36.5408C80.3859 35.7456 80.1233 35.2106 79.2624 35.2106C78.5333 35.2106 77.7902 35.9044 77.4981 36.2653V41.0498H76.069V34.0978H77.2948L77.4105 34.9938C77.7175 34.7196 78.6067 33.9671 79.7295 33.9671C81.1304 33.9671 81.815 34.8063 81.815 36.0638ZM72.7133 35.3414C73.136 34.7336 73.9384 33.9671 75.1339 33.9671L75.3385 35.2393C74.2306 35.2393 73.4571 35.6876 72.7867 36.7576V41.0498H71.3576V34.0978H72.5389L72.7133 35.3414ZM68.7125 36.6849C68.625 36.2226 68.4345 35.0959 67.1656 35.0959C66.1458 35.0959 65.6934 35.9911 65.5756 36.6849H68.7125ZM65.5029 37.7836C65.5184 38.5208 65.7951 39.9811 67.4719 39.9811C68.7697 39.9811 69.7478 39.1852 69.9511 38.9971L70.1557 40.2406C69.8636 40.4861 68.9885 41.1946 67.3117 41.1946C65.3864 41.1946 64.0745 39.9084 64.0745 37.5668C64.0745 35.1385 65.5474 33.9531 67.1811 33.9531C69.2665 33.9531 70.1705 35.6449 70.1705 37.4361V37.7836H65.5029ZM63.0625 36.0638V41.0498H61.6475V36.5408C61.6475 35.7456 61.3709 35.2106 60.5106 35.2106C59.7816 35.2106 59.0526 35.9044 58.7456 36.2653V41.0498H57.3306V31.0051L58.7456 30.6002V34.921C59.0526 34.6616 59.8832 33.9671 60.9771 33.9671C62.3765 33.9671 63.0625 34.8063 63.0625 36.0638ZM56.1704 41.0638C56.1118 41.0785 55.6305 41.1946 55.0765 41.1946C53.7357 41.1946 53.0349 40.5288 53.0349 39.1419V35.2973H52.0285V34.0978H53.0349V32.2186L54.4492 31.8143V34.0978H55.9227L56.1274 35.2973H54.4492V38.9971C54.4492 39.6475 54.814 39.8643 55.3398 39.8643C55.6305 39.8643 55.9079 39.8217 55.9813 39.7923L56.1704 41.0638ZM45.1866 39.0838V34.0978H46.6156V38.6068C46.6156 39.416 46.8775 39.9371 47.7384 39.9371C48.4675 39.9371 49.2106 39.2573 49.5028 38.8964V34.0978H50.9325V41.0498H49.7074L49.5903 40.1686C49.284 40.4281 48.4089 41.1946 47.2713 41.1946C45.8718 41.1946 45.1866 40.3413 45.1866 39.0838ZM41.0101 39.9951C42.1032 39.9951 42.8174 38.9691 42.8174 37.5808C42.8174 36.1785 42.1188 35.1679 41.0101 35.1679C39.7842 35.1679 39.2013 36.3233 39.2013 37.5808C39.2013 38.9251 39.8576 39.9951 41.0101 39.9951ZM41.0101 41.1946C39.2013 41.1946 37.7574 40.0378 37.7574 37.5808C37.7574 35.1525 39.2303 33.9671 41.0101 33.9671C42.876 33.9671 44.2472 35.2393 44.2472 37.5808C44.2472 39.9811 42.7892 41.1946 41.0101 41.1946ZM30.3389 40.5008L30.5725 39.0558C30.7905 39.2006 31.7828 39.8643 33.4313 39.8643C34.7002 39.8643 35.516 39.3293 35.516 38.4628C35.516 37.8123 35.1081 37.3934 34.058 36.873C33.8251 36.7576 32.8039 36.3233 32.4532 36.1646C31.2429 35.6155 30.4553 34.8063 30.4553 33.4908C30.4553 31.9871 31.7094 30.9324 33.8251 30.9324C35.2973 30.9324 36.2013 31.4241 36.4342 31.5542L36.1865 32.9411C35.9388 32.7977 35.0206 32.2487 33.7517 32.2487C32.5562 32.2487 31.943 32.7977 31.943 33.5201C31.943 34.1265 32.3657 34.4881 33.1392 34.8497C33.4158 34.9791 34.6699 35.5001 34.9035 35.6008C36.3615 36.2653 37.0185 37.1185 37.0185 38.3474C37.0185 40.0378 35.6036 41.1946 33.4885 41.1946C31.5936 41.1946 30.6014 40.6596 30.3389 40.5008Z" fill="#5A5758"/>
</g>
</g>
<defs>
<clipPath id="clip0_2006_29620">
<rect width="132" height="19" fill="white" transform="translate(8 25)"/>
</clipPath>
</defs>
</svg>
