<svg width="148" height="69" viewBox="0 0 148 69" fill="none" xmlns="http://www.w3.org/2000/svg">
<g clip-path="url(#clip0_2006_29620)">
<path d="M45.3375 33.4219C45.3375 34.0494 44.9314 34.1601 44.0085 34.1601H37.7691L37.4737 33.9017V31.9449L37.7321 31.6865H44.0085C44.8945 31.6865 45.3375 31.7975 45.3375 32.425V33.4219ZM45.3375 30.0254H35.0005L34.6313 30.3205V39.5133H37.474V36.0431L37.7324 35.7847H45.3375C47.2573 35.7847 48.1435 35.2676 48.1435 33.9387V31.8342C48.1435 30.5422 47.2573 30.0254 45.3375 30.0254Z" fill="#005387"/>
<path d="M53.3857 31.7601L55.8596 35.378L55.7119 35.7104H50.2479L48.8452 37.4455H56.9671L57.5576 37.7776L58.8129 39.5129H62.0987L54.8997 29.9141L53.3857 31.7601Z" fill="#005387"/>
<path d="M85.985 37.6665V35.082L86.2804 34.8239H91.7813V33.1992H83.0684V39.5123H95.9163V37.888H86.3174L85.985 37.6665Z" fill="#005387"/>
<path d="M83.0684 30.0254H96.0267V31.7975H83.0684V30.0254Z" fill="#005387"/>
<path d="M68.6334 31.7235H79.0812C78.9335 30.3945 78.0846 30.0254 76.0171 30.0254H68.5227C66.1599 30.0254 65.4214 30.4682 65.4214 32.2773V37.2984C65.4214 39.0705 66.1599 39.5503 68.5227 39.5503H76.0171C78.1213 39.5503 78.9335 39.1442 79.0072 37.7782H68.6334L68.338 37.4828V31.9452L68.6334 31.7235Z" fill="#005387"/>
<path d="M27.617 33.7171H20.0488L19.8274 33.4587V31.8343L20.0488 31.6499H30.2752L30.4229 31.3175C30.0908 30.4314 29.1679 29.9883 27.5065 29.9883H20.381C18.0181 29.9883 17.2799 30.4314 17.2799 32.2404V33.311C17.2799 35.0831 18.0181 35.5632 20.381 35.5632H27.9491L28.1705 35.7846V37.4827L27.9861 37.7411H19.3104H17.0582C17.0582 37.7411 16.7998 37.8888 16.7998 37.9258C16.9845 39.1808 17.8337 39.5132 19.8642 39.5132H27.617C29.9798 39.5132 30.755 39.0701 30.755 37.2613V35.969C30.755 34.1972 29.9796 33.7171 27.617 33.7171Z" fill="#005387"/>
<path d="M104.186 29.9883H99.9033L99.6816 30.4314L104.407 33.9018C105.293 33.3847 106.29 32.8679 107.324 32.3514L104.186 29.9883Z" fill="#005387"/>
<path d="M108.025 36.4859L112.197 39.5133H116.48L116.664 39.1074L110.462 34.5664C109.65 35.1939 108.801 35.8214 108.025 36.4859Z" fill="#005387"/>
<path d="M103.558 39.5126H99.6812L99.3491 38.9958C101.969 36.4491 113.704 25.6006 139.2 24.4512H139.194C138.386 24.4841 117.566 25.4682 103.558 39.5126Z" fill="#A7A9AC"/>
</g>
<defs>
<clipPath id="clip0_2006_29620">
<rect width="148" height="69" fill="white"/>
</clipPath>
</defs>
</svg>
