<svg width="148" height="69" viewBox="0 0 148 69" fill="none" xmlns="http://www.w3.org/2000/svg">
<g clip-path="url(#clip0_2006_29620)">
<path d="M84.3352 30.9979L84.37 30.9422L84.3328 30.9979C83.7027 30.5639 82.7913 30.3625 81.8989 30.3625C79.8761 30.3643 78.4304 31.3683 77.4794 32.7788C76.5339 34.1936 76.0886 36.0161 76.0886 37.6384C76.0886 38.8108 76.2643 39.9041 76.9762 40.891C77.3269 41.3728 78.1773 42.5304 80.9259 42.5341C82.8346 42.5329 83.7387 42.0364 84.2285 41.7493L84.3102 41.6385C84.406 41.2185 84.7281 39.3115 84.8592 38.8334L84.7604 38.7575C83.7954 39.5252 82.7431 40.086 81.5481 40.086C80.7466 40.086 80.1372 39.895 79.7261 39.5264C79.3162 39.1609 79.1155 38.6204 79.1155 37.9506C79.1155 37.7039 79.1356 37.4786 79.1545 37.2319L79.1606 37.1738L79.2167 37.1719C81.0852 37.1242 82.0374 37.0985 83.602 37.0985C84.1132 37.0985 84.6896 37.1009 85.3857 37.1064L85.5064 37.0219C85.662 36.294 85.8303 35.4614 85.8303 34.4372C85.8303 33.5281 85.734 31.912 84.3352 30.9979ZM83.0975 34.9809L83.0872 35.0341L81.256 35.0574L79.4455 35.0813L79.4619 35.0201L79.4705 34.9931C79.5071 34.8658 79.5467 34.7256 79.5925 34.583C79.7169 34.1826 79.895 33.7467 80.2104 33.3469C80.2659 33.279 80.3239 33.2092 80.3855 33.1443C80.9467 32.5284 81.478 32.4329 81.822 32.4329C82.307 32.4329 82.662 32.6276 82.8901 32.9172C82.9286 32.968 82.9609 33.0176 82.9926 33.0745C83.1055 33.2673 83.1744 33.4865 83.1994 33.7161C83.2116 33.7981 83.2159 33.8844 83.2159 33.9671C83.2165 34.3111 83.1555 34.6491 83.0975 34.9809ZM75.9874 32.9117L75.8629 33.0353L74.0598 32.9888L73.2247 36.935C73.1094 37.4297 72.8544 38.6644 72.8544 39.0624C72.852 39.434 72.9917 39.6874 73.1869 39.838C73.3796 39.9905 73.6212 40.0407 73.8371 40.0413C74.3386 40.0413 74.5136 39.9011 74.8479 39.7731L74.9071 39.8282L74.4636 42.1013L74.3111 42.2501C73.6938 42.3811 73.2345 42.4888 72.5848 42.4888C70.9073 42.479 69.6965 41.914 69.6897 39.9519C69.6897 39.0336 70.0594 37.3617 70.3345 36.1189L71 32.9864L69.5842 33.0347L69.4988 32.9111L69.913 30.7035L70.0417 30.6325H71.4801L72.0553 27.7252L72.1676 27.5978C73.6078 27.2281 74.0232 27.0499 75.3353 26.6165L75.4048 26.6948L74.9699 28.5675L74.5191 30.6765L76.3662 30.6196L76.4144 30.7163L75.9874 32.9117ZM98.2243 29.1877L98.1249 29.2985L93.3663 29.2869L92.5922 33.2716L96.7567 33.1455L96.8183 33.2447C96.4755 34.3901 96.3962 34.714 96.1656 35.7131L96.0601 35.8141L92.0999 35.8055L91.5796 38.5702L90.9208 42.1607L90.833 42.2433L87.4224 42.3315L87.381 42.2433L87.9721 39.1866L88.8767 34.8713C89.5587 31.5183 89.7539 30.4476 90.3986 26.7946L90.5011 26.6942H95.4842L98.6489 26.611L98.7099 26.6942L98.2243 29.1877ZM104.947 31.1271C104.285 30.6588 103.228 30.4182 101.779 30.4182C101.063 30.4182 100.342 30.4874 99.617 30.6251C98.9691 30.7488 98.5671 30.8535 98.2249 30.952L98.131 31.0475L97.6607 33.4651L97.8126 33.5569C98.1145 33.4173 98.5574 33.2459 99.1418 33.0384C99.7396 32.8272 100.29 32.7213 100.786 32.7213C101.513 32.7213 102.067 32.8211 102.443 33.0274C102.831 33.2367 103.109 33.6965 103.107 34.2022C103.107 34.3271 103.097 34.4366 103.08 34.5358C103.061 34.6289 103.049 34.6974 103.045 34.7366L103.037 34.788C103.037 34.788 102.802 34.8046 102.552 34.826C102.388 34.8419 102.178 34.8658 101.935 34.8939C101.538 34.9368 101.081 34.9931 100.682 35.0605C99.7255 35.2202 97.0342 35.6408 96.2266 37.4499C95.3799 38.932 95.5245 40.8983 96.3559 41.8552C96.6493 42.1937 97.0964 42.5121 97.701 42.6345L97.6997 42.6364C97.726 42.6455 97.8187 42.6572 97.8394 42.6621C100.167 43.0233 101.836 40.9883 101.836 40.9883L101.587 42.2427L101.689 42.3309L104.304 42.2427L104.412 42.1478L105.951 34.3901C105.983 34.2267 106.009 34.0332 106.029 33.8134C106.046 33.5906 106.057 33.41 106.057 33.2771C106.055 32.2842 105.607 31.5948 104.947 31.1271ZM102.255 38.8836C102.255 38.8836 101.629 39.8692 100.729 40.2225C99.8256 40.5733 99.1735 40.2966 98.9185 39.9458C98.7123 39.6715 98.2841 38.8059 99.0972 37.8319C99.922 36.8481 102.647 36.785 102.647 36.785L102.255 38.8836ZM114.948 30.2603L114.308 33.5967L114.173 33.7332C113.99 33.7002 113.757 33.6732 113.482 33.6732C112.619 33.6732 111.391 33.9512 110.431 35.2282L110.421 35.2386L109.098 42.1619L109.005 42.2446L106.133 42.3321L106.059 42.2562L108.317 30.6337L108.44 30.5119L111.283 30.2358L111.395 30.3576L111.067 32.0411L111.207 31.9138C111.801 31.3732 112.328 30.9998 112.917 30.6631C113.5 30.3264 114.085 30.1592 114.673 30.1592C114.73 30.1592 114.788 30.1592 114.849 30.1617L114.948 30.2603ZM130.323 33.1847C130.323 33.8869 130.165 34.616 130.01 35.3255L128.676 42.1613L128.574 42.2439L125.568 42.3505L125.493 42.2439C125.493 42.2439 127.033 34.6931 127.033 34.3179C127.033 33.9757 126.853 33.0586 125.897 33.0586C125.144 33.0586 124.365 33.822 124.365 33.822L122.741 42.1619L122.641 42.2446L121.348 42.2899L120.189 42.329L119.617 42.348L119.582 42.3009L119.545 42.2439C119.545 42.2439 119.777 41.0949 120.065 39.6715H120.057C120.506 37.4456 121.08 34.5468 121.08 34.3179C121.08 33.9757 120.901 33.0586 119.943 33.0586C119.192 33.0586 118.414 33.822 118.414 33.822L116.79 42.1619L116.687 42.2446L116.223 42.2605L113.665 42.3468L113.599 42.2446L115.853 30.6337L115.966 30.5192L118.964 30.2358L119.086 30.3576L118.768 31.9921C118.768 31.9921 120.215 30.4004 122.059 30.3637C123.781 30.3313 124.141 31.9921 124.141 31.9921C124.141 31.9921 125.854 30.3258 127.681 30.3637C128.605 30.3711 130.318 30.78 130.323 33.1847ZM67.5535 31.1271C66.8929 30.6588 65.8376 30.4182 64.3888 30.4182C63.6709 30.4182 62.9505 30.4874 62.2282 30.6251C61.5792 30.7488 61.1772 30.8535 60.8338 30.952L60.7404 31.0475L60.2701 33.4651L60.422 33.5569C60.724 33.4173 61.1674 33.2459 61.7506 33.0384C62.349 32.8272 62.8986 32.7213 63.3952 32.7213C64.1223 32.7213 64.6725 32.8211 65.0531 33.0274C65.4393 33.2367 65.7156 33.6965 65.7156 34.2022C65.7156 34.3271 65.7071 34.4366 65.69 34.5358C65.6698 34.6289 65.6589 34.6974 65.654 34.7366L65.6467 34.788C65.6467 34.788 65.4124 34.8046 65.1629 34.826C64.9988 34.8419 64.7866 34.8658 64.5456 34.8939C64.1479 34.9368 63.6904 34.9931 63.2933 35.0605C62.335 35.2202 59.6449 35.6408 58.8366 37.4499C57.9899 38.932 58.1351 40.8983 58.9666 41.8552C59.2575 42.1937 59.7059 42.5121 60.311 42.6345L60.3098 42.6364C60.3354 42.6455 60.4287 42.6572 60.4482 42.6621C62.7766 43.0233 64.4462 40.9883 64.4462 40.9883L64.1961 42.2427L64.298 42.3309L66.9142 42.2427L67.0222 42.1478L68.5594 34.3901C68.593 34.2267 68.6192 34.0332 68.6405 33.8134C68.6558 33.5906 68.6674 33.41 68.6674 33.2771C68.6649 32.2842 68.219 31.5948 67.5535 31.1271ZM64.8634 38.8836C64.8634 38.8836 64.24 39.8692 63.3384 40.2225C62.4356 40.5733 61.7848 40.2966 61.5267 39.9458C61.3224 39.6715 60.8948 38.8059 61.7097 37.8319C62.5314 36.8481 65.2593 36.785 65.2593 36.785L64.8634 38.8836ZM58.5615 32.9117L58.4359 33.0353L56.6345 32.9888L55.8 36.935C55.6829 37.4297 55.4267 38.6644 55.4267 39.0624C55.4261 39.434 55.5646 39.6874 55.7592 39.838C55.9544 39.9905 56.1947 40.0407 56.41 40.0413C56.9121 40.0413 57.0878 39.9011 57.4208 39.7731L57.4806 39.8282L57.0377 42.1013L56.8852 42.2501C56.2704 42.3811 55.8086 42.4888 55.1577 42.4888C53.4839 42.479 52.2706 41.914 52.2639 39.9519C52.2639 39.0336 52.6348 37.3617 52.9086 36.1189L53.5735 32.9864L52.1571 33.0347L52.0717 32.9111L52.4871 30.7035L52.6152 30.6325H54.053L54.6288 27.7252L54.7417 27.5978C56.1795 27.2281 56.5961 27.0499 57.9106 26.6165L57.9777 26.6948L57.5428 28.5675L57.0957 30.6778L58.9391 30.6208L58.9897 30.7176L58.5615 32.9117ZM51.7893 27.5501L51.2415 30.3809L51.1207 30.4194C50.903 30.1121 50.7712 29.9915 50.468 29.7564C49.7946 29.2361 48.9955 28.9416 48.1799 28.9416C47.5406 28.9416 47.0093 29.1418 46.6409 29.4754C46.2694 29.8078 46.0583 30.2811 46.0583 30.8094C46.0602 31.8085 46.7415 32.2958 47.9524 33.0237L48.4233 33.2918C49.4377 33.9591 51.0134 34.9827 51.0134 37.306C51.0097 39.9464 49.3243 42.5953 45.2806 42.6015C44.2893 42.6015 43.3188 42.4233 42.3849 42.0737C41.7548 41.8313 41.451 41.6213 41.0698 41.3379L41.038 41.1561L41.5748 38.3945L41.695 38.3541C41.9384 38.67 42.2434 38.9283 42.6997 39.2313C43.6739 39.8833 44.6084 39.9531 45.0067 39.9531C46.4341 39.9519 47.5565 39.134 47.5565 37.8637C47.5553 36.7262 46.6592 36.1563 45.7235 35.6029L45.0762 35.2025C44.0575 34.534 42.6454 33.6249 42.6411 31.3457C42.6411 30.469 42.8924 29.211 43.6659 28.1806C44.6858 26.8258 46.2895 26.3392 47.9048 26.3392C49.9843 26.3392 51.1738 27.0781 51.7313 27.4362L51.7893 27.5501ZM22.5483 32.5364C23.3676 33.0439 24.5186 33.3665 25.8143 33.3665C27.1081 33.3665 28.2701 33.0439 29.1016 32.5364C29.936 32.0295 30.4277 31.3451 30.4295 30.6227C30.4277 29.8984 29.9391 29.2207 29.1083 28.7181C28.2799 28.2161 27.1209 27.9002 25.8234 27.8978C24.5284 27.9002 23.3755 28.2161 22.5526 28.7181C21.7291 29.2214 21.2454 29.8966 21.2435 30.6208C21.2454 31.3469 21.7279 32.0295 22.5483 32.5364ZM22.7551 36.452C21.9267 35.9494 20.7671 35.6329 19.4721 35.6329C18.1759 35.6329 17.023 35.9494 16.2007 36.4495C15.3766 36.9528 14.8928 37.6256 14.891 38.3498C14.8928 39.0765 15.3741 39.759 16.1964 40.2684C17.015 40.7722 18.1661 41.0955 19.4623 41.0979C20.7586 41.0949 21.9206 40.7722 22.7515 40.2659C23.5841 39.759 24.0758 39.0765 24.0782 38.3522C24.0752 37.6305 23.5859 36.9552 22.7551 36.452ZM35.4315 36.452C34.6019 35.9494 33.4417 35.6329 32.1461 35.6329C30.851 35.6329 29.6963 35.9494 28.8759 36.4495C28.0518 36.9521 27.5692 37.6256 27.568 38.3516C27.5692 39.0758 28.0493 39.7584 28.8722 40.2678C29.6914 40.7716 30.8419 41.0949 32.1369 41.0973C33.432 41.0942 34.5952 40.7716 35.4273 40.2653C36.2599 39.7584 36.7516 39.0758 36.7528 38.3516C36.7516 37.6304 36.2624 36.9552 35.4315 36.452ZM32.132 33.7357C31.5464 33.7357 30.981 33.7914 30.4436 33.8924C31.6178 33.0512 32.3407 31.8936 32.3407 30.6159C32.3407 28.0453 29.4322 26 25.821 26C22.2104 26.0006 19.3318 28.046 19.3318 30.6166C19.3318 31.896 20.0412 33.0537 21.2039 33.8948C20.6561 33.7914 20.0815 33.7357 19.4886 33.7357C15.878 33.7357 13 35.7816 13 38.3498C13 40.9161 15.8627 43.0006 19.4745 43.0006C22.5483 43.0006 25.125 41.4922 25.8265 39.4597C26.5103 41.4922 29.0424 43.0006 32.1168 43.0006C35.728 43.0006 38.6529 40.9167 38.6529 38.3498C38.6529 35.7816 35.7414 33.7357 32.132 33.7357ZM20.5091 30.6141C20.5134 29.4564 21.3893 28.6747 21.903 28.3104C22.9302 27.5776 24.3222 27.1828 25.8216 27.1828C27.3259 27.1828 28.7228 27.5795 29.7579 28.3104C30.2758 28.6771 31.1621 29.4601 31.1664 30.6141C31.1493 32.5437 28.6807 34.0797 25.8057 34.084C24.3125 34.084 22.9265 33.683 21.9036 32.9447C21.0124 32.3038 20.5091 31.4779 20.5091 30.6141ZM19.4745 41.8172C17.9794 41.8172 16.5947 41.4156 15.5687 40.6761C14.6818 40.0376 14.1773 39.2117 14.1773 38.3498C14.1822 37.1921 15.0575 36.4085 15.5693 36.0436C16.5978 35.3157 17.9892 34.9184 19.4892 34.916C20.9941 34.9184 22.391 35.3151 23.4261 36.0467C23.9446 36.4128 24.8322 37.1946 24.8371 38.3498C24.8194 40.277 22.3489 41.813 19.4745 41.8172ZM25.8283 37.2429C25.5453 36.4244 24.9572 35.6935 24.1551 35.1149C24.6815 35.2135 25.2336 35.2662 25.8027 35.2662C26.3883 35.2662 26.9538 35.2111 27.493 35.1094C26.6933 35.6886 26.1059 36.4201 25.8283 37.2429ZM32.1162 41.8172C30.6229 41.8172 29.237 41.4156 28.2122 40.6761C27.3234 40.0376 26.8177 39.2117 26.8177 38.3498C26.8214 37.1921 27.6998 36.4103 28.2134 36.0436C29.2394 35.3157 30.6321 34.9184 32.1314 34.916C33.6363 34.9184 35.0326 35.3151 36.0708 36.0467C36.5887 36.4128 37.4726 37.1964 37.475 38.3498C37.461 40.277 34.9911 41.813 32.1162 41.8172Z" fill="#ED1D24"/>
<path d="M135 32.691C134.992 33.7158 134.25 34.4896 133.279 34.481C132.314 34.4731 131.581 33.6876 131.589 32.6628C131.597 31.6172 132.329 30.8593 133.319 30.8672C134.279 30.8752 135.009 31.6662 135 32.691ZM131.813 32.6585C131.805 33.5358 132.463 34.2545 133.28 34.2613C134.097 34.2686 134.769 33.5603 134.776 32.6787C134.78 32.2588 134.624 31.8308 134.362 31.5474C134.106 31.2682 133.699 31.0907 133.329 31.0876C132.464 31.0803 131.821 31.7519 131.813 32.6585ZM133.221 31.6509C133.437 31.6533 133.537 31.6637 133.66 31.706C133.874 31.7794 134.01 31.9845 134.008 32.2159C134.006 32.462 133.853 32.6561 133.606 32.7308L134.01 33.7078L133.724 33.706L133.349 32.7797L133.33 32.7748L133.149 32.773L132.957 32.7718L132.926 32.7767L132.918 33.6993L132.658 33.6968L132.675 31.6466L133.221 31.6509ZM133.197 32.563C133.449 32.5655 133.546 32.5502 133.623 32.4902C133.703 32.4339 133.753 32.3316 133.753 32.2196C133.755 32.0714 133.689 31.9631 133.56 31.9165C133.49 31.8835 133.377 31.8737 133.153 31.8712L132.934 31.87L132.927 32.5612L133.197 32.563Z" fill="#ED1D24"/>
</g>
<defs>
<clipPath id="clip0_2006_29620">
<rect width="122" height="17" fill="white" transform="translate(13 26)"/>
</clipPath>
</defs>
</svg>
