<svg width="148" height="69" viewBox="0 0 148 69" fill="none" xmlns="http://www.w3.org/2000/svg">
<path d="M99.073 27.5683C98.5834 27.5683 98.1812 27.3934 97.8315 27.0612C97.4818 26.7114 97.3245 26.3093 97.3245 25.8196C97.3245 25.33 97.4993 24.9104 97.849 24.5781C98.1987 24.2459 98.6009 24.071 99.0904 24.071C99.5625 24.071 99.9647 24.2459 100.297 24.5781C100.647 24.9278 100.821 25.33 100.821 25.8022C100.821 26.2743 100.647 26.694 100.314 27.0437C99.9822 27.4109 99.5625 27.5683 99.073 27.5683ZM55.7984 39.8961L51.2524 24.2459H45.0803V25.2601H45.6748C46.1469 25.2601 46.5141 25.2951 46.7588 25.3825C47.1785 25.5224 47.4582 25.8371 47.5806 26.3442C47.6506 26.5716 47.668 27.0612 47.668 27.7956V40.141C47.668 41.2951 47.6331 42.1169 47.5631 42.589C47.4582 43.2186 47.2309 43.6907 46.8812 44.0054C46.5141 44.3377 46.0769 44.4951 45.5874 44.4951H45.0803V45.5268H51.672V44.4951H51.2524C50.0984 44.4951 49.3641 43.9355 49.0493 42.8339C48.9444 42.4317 48.892 41.5224 48.892 40.141V26.1694L54.5046 45.5268H55.4837L61.1138 26.1694V41.365C61.1138 42.0819 61.0788 42.6765 61.0263 43.1311C60.9914 43.5158 60.8515 43.8131 60.6417 44.0229C60.3095 44.3377 59.75 44.5125 58.9457 44.5125H58.6834V45.5442H66.6914V44.5125H66.2542C65.1527 44.5125 64.4883 44.1803 64.261 43.5333C64.1386 43.1836 64.0861 42.4666 64.0861 41.3825V28.4251C64.0861 27.7082 64.1211 27.1136 64.1736 26.6415C64.2085 26.2743 64.3484 25.977 64.5582 25.7672C64.873 25.4349 65.45 25.2776 66.2368 25.2776H66.6739V24.2459H60.4493L55.7984 39.8961ZM73.4929 30.3836C75.4861 30.3836 77.0947 31.1705 78.3361 32.7442C79.4202 34.1082 79.9622 35.9267 79.9622 38.1475C79.9622 40.4207 79.4202 42.2393 78.3361 43.6207C77.1122 45.1945 75.4687 45.9814 73.4055 45.9814C71.4647 45.9814 69.8736 45.1945 68.6496 43.6207C67.5656 42.2393 67.0236 40.4207 67.0236 38.1825C67.0236 35.9268 67.5656 34.1082 68.6496 32.7442C69.8736 31.1705 71.4822 30.3836 73.4929 30.3836ZM73.4929 44.9497C75.7309 44.9497 76.8499 42.6765 76.8499 38.1125C76.8499 36.0142 76.6052 34.4229 76.1156 33.3213C75.8184 32.6393 75.3638 32.1322 74.7868 31.765C74.3846 31.5202 73.965 31.3978 73.4929 31.3978C72.7585 31.3978 72.1116 31.6951 71.5521 32.2896C70.6079 33.2688 70.1358 35.1748 70.1358 38.0076C70.1358 40.3508 70.4331 42.1344 71.0101 43.341C71.5171 44.4251 72.3389 44.9497 73.4929 44.9497ZM89.0717 30.5235C90.6104 30.5235 91.8693 31.0655 92.8659 32.1672C94.1423 33.5836 94.7892 35.5071 94.7892 37.9202C94.7892 40.2284 94.2122 42.1344 93.0757 43.6907C92.0091 45.1421 90.5929 45.859 88.8444 45.859C87.9003 45.859 87.026 45.5967 86.2392 45.0896C86.0644 44.9847 85.7147 44.7049 85.1726 44.2677C84.9628 44.0929 84.788 44.0229 84.6306 44.0229C84.4383 44.0229 84.2285 44.1803 84.0012 44.5125C83.7914 44.8098 83.5641 45.1421 83.3368 45.5268H82.2702C82.3751 45.2295 82.4276 45.0371 82.445 44.9847C82.5325 44.565 82.5849 43.6907 82.5849 42.3792V27.7606C82.5849 26.6065 82.4625 25.8896 82.2003 25.6098C81.9904 25.3475 81.5708 25.2251 80.9588 25.2251H80.7315V24.2459L85.2776 24.036V32.9191C85.5398 32.3071 85.8895 31.8349 86.3266 31.4852C87.1134 30.8382 88.0227 30.5235 89.0717 30.5235ZM88.4947 44.7399C90.6104 44.7399 91.6595 42.4841 91.6595 37.9901C91.6595 35.9268 91.3972 34.3355 90.8726 33.2164C90.3656 32.1847 89.6312 31.6601 88.6346 31.6601C87.9352 31.6601 87.2883 31.9224 86.6763 32.4645C85.5573 33.4961 84.9978 35.3497 84.9978 38.0426C84.9978 40.1235 85.2601 41.7322 85.7846 42.8688C86.0644 43.4634 86.4665 43.953 87.0085 44.3027C87.4631 44.5825 87.9527 44.7399 88.4947 44.7399ZM121.261 43.4284C121.663 42.9563 122.065 42.2918 122.485 41.4524L123.429 41.9595C122.083 44.6524 120.282 45.9989 118.009 45.9989C116.33 45.9989 114.967 45.4218 113.882 44.2852C112.554 42.8688 111.889 40.8054 111.889 38.1125C111.889 35.647 112.554 33.6535 113.882 32.1672C114.932 30.9956 116.19 30.4011 117.677 30.4011C119.862 30.4011 121.523 31.5027 122.625 33.706C123.219 34.8776 123.551 36.3464 123.604 38.0951H114.879C114.897 40.1584 115.106 41.6798 115.526 42.659C116.103 44.0579 117.1 44.7573 118.516 44.7573C119.6 44.7399 120.509 44.3027 121.261 43.4284ZM115.211 34.2481C115.001 34.9825 114.897 35.8918 114.879 36.941H120.632C120.632 35.647 120.492 34.5628 120.212 33.7235C119.705 32.2371 118.901 31.4852 117.817 31.4852C116.593 31.5027 115.718 32.4295 115.211 34.2481ZM109.144 44.1628C108.882 43.8655 108.759 43.1311 108.759 41.9595V24.0186L104.074 24.2284V25.2076H104.423C105.018 25.2076 105.437 25.33 105.647 25.5923C105.909 25.8896 106.032 26.6065 106.032 27.7606V41.9421C106.032 43.1136 105.909 43.8306 105.647 44.1453C105.42 44.4076 105.018 44.53 104.423 44.53H103.916V45.5093H110.893V44.53H110.386C109.791 44.5475 109.371 44.4076 109.144 44.1628ZM101.049 44.1628C100.786 43.8655 100.664 43.1311 100.664 41.9595V30.6109L95.9782 30.8207V31.8175H96.3453C96.9398 31.8175 97.3595 31.9399 97.5868 32.1847C97.849 32.4819 97.9714 33.1989 97.9714 34.353V41.9421C97.9714 43.1136 97.849 43.8306 97.5868 44.1453C97.3595 44.4076 96.9573 44.53 96.3453 44.53H95.8383V45.5093H102.815V44.53H102.308C101.678 44.5475 101.276 44.4076 101.049 44.1628ZM34.7294 34.0382V38.3574H39.0481V34.0382H36.8101H34.7294ZM21.8082 24.2459L21.5984 31.765L22.7349 31.9574C22.9447 29.7366 23.5217 28.0929 24.4834 27.0262C25.48 25.9071 26.8613 25.3125 28.6273 25.2776V40.9978C28.6273 42.3792 28.4349 43.2535 28.0328 43.6732C27.7006 44.0229 27.1236 44.2328 26.3018 44.3202C26.057 44.3377 25.6549 44.3552 25.0779 44.3552V45.5617H35.5861V44.3552C35.0092 44.3552 34.5895 44.3377 34.3622 44.3202C33.5579 44.2328 32.9809 44.0229 32.6312 43.6732C32.2291 43.2535 32.0368 42.3792 32.0368 40.9978V25.2776C33.8027 25.33 35.184 25.9071 36.1981 27.0262C37.1423 28.0929 37.7368 29.7366 37.9466 31.9574L39.0831 31.765L38.8733 24.2459H21.8082ZM25.8996 34.0382H23.7665H21.5809V38.3574H25.8996V34.0382ZM124.321 32.0972V30.6109H124.793V30.3836H123.604V30.6109H124.076V32.0972H124.321ZM125.23 32.0972V30.7683L125.632 32.0972H125.894L126.279 30.7508V32.0972H126.506V30.3836H126.174L125.755 31.765L125.335 30.3836H125.003V32.0972H125.23Z" fill="#E20074"/>
</svg>
