<svg width="148" height="69" viewBox="0 0 148 69" fill="none" xmlns="http://www.w3.org/2000/svg">
<g clip-path="url(#clip0_2006_29620)">
<path fill-rule="evenodd" clip-rule="evenodd" d="M127.384 43.3185H130.598L130.598 35.1477C130.6 34.6588 130.538 34.1717 130.412 33.699C129.778 31.3692 127.505 29.756 125.005 29.8581C123.846 29.9078 122.755 30.3371 121.764 31.1351L121.638 31.2372L121.511 31.1351C120.521 30.338 119.43 29.9078 118.27 29.859C115.768 29.7542 113.498 31.3683 112.863 33.6999C112.738 34.1726 112.675 34.6588 112.677 35.1477V43.3176H115.891V35.286C115.891 34.1509 116.824 33.2173 117.96 33.2173C119.095 33.2173 120.028 34.1509 120.028 35.286V43.3176H123.247L123.248 35.267C123.253 34.1355 124.185 33.2074 125.316 33.2074C126.451 33.2074 127.385 34.1419 127.385 35.2761V35.2851V43.3176L127.384 43.3185ZM103.641 40.1102C101.713 40.1111 100.124 38.5269 100.119 36.5983C100.124 34.6697 101.713 33.0854 103.641 33.0863C105.57 33.0854 107.159 34.6697 107.163 36.5983C107.159 38.5269 105.57 40.112 103.641 40.1102ZM103.641 29.8798C99.927 29.8798 96.9039 32.8938 96.9039 36.5983C96.9039 40.3036 99.9261 43.3176 103.641 43.3176C107.357 43.3176 110.379 40.3036 110.379 36.5983C110.379 32.8929 107.357 29.8798 103.641 29.8798ZM92.5551 43.3204H96.7223L94.8578 40.1111L92.6626 40.1084C91.626 40.1084 90.7241 39.361 90.6509 38.4428C90.6418 38.3226 90.6328 38.1744 90.6256 38.0108V33.1694H94.8569L96.5108 30.2684H90.6247V25.0059L87.4073 27.2273V30.1148H85.3757V33.3249H87.4064L87.41 37.7081C87.41 37.7099 87.4073 37.9123 87.41 37.9701L87.4227 38.2142C87.5329 40.3434 88.584 41.9105 90.546 42.8721C91.072 43.1288 91.6522 43.2706 92.3752 43.3176H92.5551V43.3204ZM79.8655 43.3185H83.0784V35.1477C83.0802 34.6588 83.0178 34.1717 82.8922 33.699C82.2587 31.3692 79.9857 29.756 77.4851 29.8581C76.3264 29.9078 75.2356 30.3371 74.2442 31.1351L74.1177 31.2372L73.9912 31.1351C73.0006 30.338 71.9107 29.9078 70.7503 29.859C68.2487 29.7542 65.9785 31.3683 65.3441 33.6999C65.2185 34.1726 65.1561 34.6588 65.1579 35.1477V43.3176H68.3716V35.286C68.3716 34.1518 69.3052 33.2182 70.4394 33.2182C71.5745 33.2182 72.5081 34.1518 72.5081 35.286V43.3176H75.7282V35.267C75.7327 34.1355 76.6654 33.2074 77.7959 33.2074C78.9311 33.2074 79.8646 34.1419 79.8646 35.2761V35.2851L79.8655 43.3185ZM56.1231 40.1102C54.1945 40.1111 52.6057 38.5269 52.6012 36.5983C52.6057 34.6697 54.1945 33.0854 56.1231 33.0863C58.0517 33.0854 59.6405 34.6697 59.645 36.5983C59.6405 38.5269 58.0517 40.112 56.1231 40.1102ZM56.1231 29.8798C52.4078 29.8798 49.3848 32.8938 49.3848 36.5983C49.3848 40.3036 52.4078 43.3176 56.1231 43.3176C59.8375 43.3176 62.8606 40.3036 62.8606 36.5983C62.8606 32.8929 59.8384 29.8798 56.1231 29.8798ZM45.0359 43.3204H49.204L47.3387 40.1111L45.1444 40.1084C44.1078 40.1084 43.2049 39.361 43.1317 38.4428C43.1227 38.3226 43.1136 38.1744 43.1073 38.0108V33.1694H47.3387L48.9925 30.2684H43.1073V25.0059L39.8881 27.2273V30.1148H37.8574V33.3249H39.8881L39.8909 37.7081C39.8909 37.7099 39.8891 37.9123 39.8918 37.9701L39.9044 38.2142C40.0147 40.3434 41.0657 41.9105 43.0278 42.8721C43.5529 43.1288 44.134 43.2706 44.8561 43.3176H45.0368L45.0359 43.3204Z" fill="black"/>
<path fill-rule="evenodd" clip-rule="evenodd" d="M25.1183 45.0084L27.9886 40.0504H22.248L25.1183 45.0084ZM25.1183 34.6911C22.9746 34.6921 21.2078 32.9306 21.2032 30.7869C21.2078 28.6433 22.9746 26.8818 25.1183 26.8827C27.262 26.8818 29.0288 28.6433 29.0333 30.7869C29.0288 32.9306 27.262 34.6921 25.1183 34.6911ZM25.1183 23.3184C20.9881 23.3184 17.6289 26.6686 17.6289 30.7869C17.6289 34.9053 20.9881 38.2555 25.1183 38.2555C29.2484 38.2555 32.6077 34.9053 32.6077 30.7869C32.6077 26.6686 29.2475 23.3184 25.1183 23.3184Z" fill="#DF1B12"/>
</g>
<defs>
<clipPath id="clip0_2006_29620">
<rect width="148" height="69" fill="white"/>
</clipPath>
</defs>
</svg>
