<svg width="148" height="69" viewBox="0 0 148 69" fill="none" xmlns="http://www.w3.org/2000/svg">
<g clip-path="url(#clip0_2006_29620)">
<path d="M27.9835 42.7091C28.423 43.872 29.0314 44.8662 29.809 45.6919C30.5865 46.5176 31.5077 47.1496 32.5725 47.5877C33.6374 48.0259 34.7952 48.2449 36.046 48.2449C37.2631 48.2449 38.404 48.0174 39.4689 47.5623C40.5338 47.1073 41.4633 46.467 42.2577 45.6413C43.0521 44.8155 43.6691 43.8298 44.1086 42.6839C44.5481 41.5379 44.7678 40.2573 44.7678 38.8417V17.002H50.0921V52.3904H44.8185V49.1043C43.6353 50.3512 42.2408 51.3118 40.6351 51.986C39.0292 52.6599 37.2969 52.997 35.4376 52.997C33.5444 52.997 31.7781 52.6683 30.1385 52.0111C28.499 51.3539 27.0791 50.4188 25.8791 49.2054C24.6791 47.992 23.7325 46.5345 23.0395 44.8324C22.3465 43.1304 22 41.2347 22 39.145V17.002H27.3243V38.8417C27.3243 40.2573 27.544 41.5463 27.9835 42.7091ZM59.2697 17.002V29.8934C60.4529 28.7138 61.8221 27.7786 63.3771 27.0877C64.9321 26.3967 66.6224 26.0512 68.4478 26.0512C70.3409 26.0512 72.1155 26.4051 73.7721 27.1128C75.4285 27.8206 76.8651 28.7812 78.0822 29.9945C79.2992 31.2079 80.2627 32.6402 80.9726 34.2917C81.6825 35.9432 82.0374 37.6958 82.0374 39.5495C82.0374 41.403 81.6825 43.1472 80.9726 44.7818C80.2627 46.4164 79.2992 47.8404 78.0822 49.0536C76.8651 50.267 75.4285 51.2275 73.7721 51.9353C72.1155 52.6431 70.3408 52.9969 68.4478 52.9969C66.6223 52.9969 64.9236 52.6514 63.3517 51.9605C61.7798 51.2696 60.4022 50.3343 59.219 49.1547V52.3902H54.1483V17.002H59.2697ZM59.8528 43.0377C60.3091 44.1163 60.9431 45.06 61.7544 45.8688C62.5657 46.6777 63.5123 47.3181 64.594 47.79C65.6758 48.2618 66.8421 48.4977 68.0929 48.4977C69.3099 48.4977 70.4592 48.2618 71.5409 47.79C72.6227 47.3181 73.5607 46.6778 74.3553 45.8688C75.1497 45.0601 75.7835 44.1163 76.2568 43.0377C76.73 41.9592 76.9667 40.7965 76.9667 39.5495C76.9667 38.3024 76.73 37.1312 76.2568 36.0358C75.7835 34.9405 75.1497 33.9884 74.3553 33.1795C73.5608 32.3707 72.6228 31.7387 71.5409 31.2838C70.4591 30.8288 69.3098 30.6012 68.0929 30.6012C66.8759 30.6012 65.7266 30.8287 64.6448 31.2838C63.5631 31.7388 62.6166 32.3707 61.8051 33.1795C60.9939 33.9884 60.3515 34.9405 59.8783 36.0358C59.405 37.1312 59.1684 38.3024 59.1684 39.5495C59.1683 40.7965 59.3965 41.9592 59.8528 43.0377ZM84.9272 34.3423C85.6032 32.7246 86.5331 31.3007 87.7161 30.0705C88.8992 28.8403 90.3022 27.8714 91.9249 27.1636C93.5476 26.4559 95.3054 26.102 97.1985 26.102C99.0578 26.102 100.782 26.4391 102.371 27.1131C103.96 27.7871 105.329 28.7224 106.478 29.9189C107.627 31.1153 108.523 32.5309 109.165 34.1655C109.808 35.8001 110.129 37.578 110.129 39.4991V41.1674H89.0853C89.2544 42.2122 89.5925 43.1812 90.0995 44.0742C90.6066 44.9673 91.2404 45.7425 92.001 46.3997C92.7616 47.057 93.6236 47.5711 94.5871 47.9417C95.5506 48.3124 96.5731 48.4978 97.6549 48.4978C100.731 48.4978 103.216 47.2339 105.109 44.7061L108.811 47.436C107.526 49.1549 105.937 50.5031 104.044 51.4805C102.151 52.4578 100.021 52.9465 97.655 52.9465C95.7281 52.9465 93.928 52.6094 92.2547 51.9354C90.5813 51.2614 89.1277 50.3176 87.8938 49.1043C86.66 47.8909 85.6881 46.467 84.9782 44.8324C84.2683 43.1979 83.9133 41.4199 83.9133 39.4989C83.913 37.679 84.2512 35.9601 84.9272 34.3423ZM92.0517 32.3453C90.6149 33.5418 89.66 35.1343 89.1867 37.1228H104.957C104.517 35.1343 103.579 33.5418 102.143 32.3453C100.706 31.149 99.024 30.5507 97.0972 30.5507C95.1702 30.5507 93.4884 31.149 92.0517 32.3453ZM119.712 32.9267C118.631 34.1063 118.09 35.7072 118.09 37.7294V52.3905H112.968V26.6074H118.039V29.7924C118.681 28.7476 119.518 27.9218 120.549 27.3152C121.58 26.7084 122.805 26.4051 124.225 26.4051H126V31.1572H123.87C122.18 31.1574 120.794 31.7471 119.712 32.9267Z" fill="#010202"/>
</g>
<defs>
<clipPath id="clip0_2006_29620">
<rect width="104" height="36" fill="white" transform="translate(22 17)"/>
</clipPath>
</defs>
</svg>
