<svg xmlns="http://www.w3.org/2000/svg" width="1280" height="720" viewBox="0 0 1280 720" role="img" aria-label="Apache Sedona STAC reader: multispectral satellite imagery footprints spatially joined to a vector area of interest above the curved limb of the Earth">
<defs>
<linearGradient id="space" x1="0" y1="0" x2="0.35" y2="1"><stop offset="0" stop-color="#0b0a26"/><stop offset="0.5" stop-color="#1a0f30"/><stop offset="1" stop-color="#2c1430"/></linearGradient>
<radialGradient id="atmoGlow" cx="0.5" cy="1" r="0.75"><stop offset="0" stop-color="#35c9d8" stop-opacity="0.28"/><stop offset="0.5" stop-color="#6f8ff0" stop-opacity="0.1"/><stop offset="1" stop-color="#6f8ff0" stop-opacity="0"/></radialGradient>
<linearGradient id="ocean" x1="0" y1="0" x2="0" y2="1"><stop offset="0" stop-color="#123a52"/><stop offset="1" stop-color="#081426"/></linearGradient>
<filter id="soft" x="-20%" y="-20%" width="140%" height="140%"><feGaussianBlur stdDeviation="6"/></filter>
</defs>

<rect width="1280" height="720" fill="url(#space)"/>
<rect x="0" y="360" width="1280" height="360" fill="url(#atmoGlow)"/>

<!-- stars -->
<g fill="#e9ecff"><circle cx="120" cy="90" r="1.3" opacity=".7"/><circle cx="300" cy="150" r="1" opacity=".5"/><circle cx="520" cy="70" r="1.4" opacity=".8"/><circle cx="980" cy="60" r="1.1" opacity=".6"/><circle cx="1180" cy="120" r="1.4" opacity=".75"/><circle cx="1240" cy="240" r="1" opacity=".5"/><circle cx="60" cy="300" r="1.1" opacity=".55"/><circle cx="1210" cy="360" r="1.2" opacity=".5"/><circle cx="430" cy="110" r="1" opacity=".5"/><circle cx="760" cy="95" r="1.2" opacity=".6"/></g>

<!-- faint sky graticule -->
<g stroke="#7d84c8" stroke-opacity="0.08" stroke-width="1">
<line x1="640" y1="0" x2="640" y2="470"/><line x1="760" y1="0" x2="760" y2="470"/><line x1="880" y1="0" x2="880" y2="470"/><line x1="1000" y1="0" x2="1000" y2="470"/><line x1="1120" y1="0" x2="1120" y2="470"/><line x1="1240" y1="0" x2="1240" y2="470"/>
<line x1="600" y1="120" x2="1280" y2="120"/><line x1="600" y1="220" x2="1280" y2="220"/><line x1="600" y1="320" x2="1280" y2="320"/></g>

<!-- ===== Earth limb + full-spectrum atmosphere ===== -->
<g filter="url(#soft)">
<circle cx="640" cy="1272" r="800" fill="none" stroke="#35c9d8" stroke-width="16" opacity="0.20"/>
<circle cx="640" cy="1272" r="786" fill="none" stroke="#6f8ff0" stroke-width="14" opacity="0.26"/>
<circle cx="640" cy="1272" r="773" fill="none" stroke="#c86ff0" stroke-width="12" opacity="0.30"/>
<circle cx="640" cy="1272" r="762" fill="none" stroke="#ff6a9a" stroke-width="11" opacity="0.34"/>
<circle cx="640" cy="1272" r="752" fill="none" stroke="#ff8a4d" stroke-width="10" opacity="0.40"/>
<circle cx="640" cy="1272" r="744" fill="none" stroke="#ffd27f" stroke-width="8" opacity="0.5"/>
</g>
<circle cx="640" cy="1272" r="740" fill="url(#ocean)"/>
<!-- faint continents + latitude arcs on the globe cap -->
<g fill="#1d5a54" opacity="0.55"><path d="M300,600 q90,-46 190,-16 q70,22 40,70 q-50,60 -150,44 q-120,-20 -80,-98 Z"/><path d="M760,640 q120,-40 220,4 q60,30 8,74 q-90,54 -200,20 q-96,-40 -28,-98 Z"/></g>
<g stroke="#5fd8e0" stroke-opacity="0.12" stroke-width="1.3" fill="none"><path d="M40,588 Q640,540 1240,588"/><path d="M120,656 Q640,612 1160,656"/></g>

<!-- ===== satellite + sensor rays to the swath ===== -->
<g stroke="#7fe6ff" stroke-opacity="0.26" stroke-width="1">
<line x1="1128" y1="118" x2="660" y2="270"/><line x1="1128" y1="118" x2="800" y2="330"/><line x1="1128" y1="118" x2="960" y2="300"/><line x1="1128" y1="118" x2="900" y2="420"/><line x1="1128" y1="118" x2="1090" y2="300"/></g>
<path d="M660,180 Q900,84 1200,150" fill="none" stroke="#7fe6ff" stroke-width="1.4" stroke-dasharray="2 8" opacity="0.6"/>
<g transform="translate(1128,118) rotate(20)">
<rect x="-12" y="-9" width="24" height="18" rx="2.5" fill="#f7efe7"/>
<rect x="-40" y="-6" width="24" height="12" rx="2" fill="#35c9d8"/>
<rect x="18" y="-6" width="24" height="12" rx="2" fill="#35c9d8"/>
<line x1="0" y1="9" x2="0" y2="27" stroke="#ff7a45" stroke-width="2"/>
</g>
<text x="1002" y="96" font-family="ui-monospace, 'SF Mono', Menlo, monospace" font-size="14" fill="#a9b3e0">SENTINEL-2 · descending node</text>

<!-- ===== multispectral footprint tiles ===== -->
<g stroke-width="2">
<polygon points="646,214 762,230 744,330 628,314" fill="#8a6ff0" fill-opacity="0.42" stroke="#8a6ff0"/>
<polygon points="762,230 878,246 860,346 744,330" fill="#4d8ff5" fill-opacity="0.42" stroke="#4d8ff5"/>
<polygon points="878,246 994,262 976,362 860,346" fill="#35c9d8" fill-opacity="0.42" stroke="#35c9d8"/>
<polygon points="994,262 1110,278 1092,378 976,362" fill="#2fd2a8" fill-opacity="0.42" stroke="#2fd2a8"/>
<polygon points="700,318 816,334 798,434 682,418" fill="#7ed957" fill-opacity="0.42" stroke="#7ed957"/>
<polygon points="816,334 932,350 914,450 798,434" fill="#f5c542" fill-opacity="0.42" stroke="#f5c542"/>
<polygon points="932,350 1048,366 1030,466 914,450" fill="#f2913a" fill-opacity="0.42" stroke="#f2913a"/>
</g>
<text x="646" y="204" font-family="ui-monospace, 'SF Mono', Menlo, monospace" font-size="13" fill="#a9b3e0">multispectral footprints · tile 10SEG …</text>

<!-- AOI polygon over the swath; body = the match -->
<polygon points="838,300 966,318 986,404 846,430 796,368" fill="#ffffff" fill-opacity="0.14" stroke="#ff7a45" stroke-width="2.8" stroke-dasharray="7 5"/>
<circle cx="898" cy="366" r="7" fill="#ff7a45"/>
<text x="742" y="474" font-family="Inter, 'Helvetica Neue', Arial, sans-serif" font-size="18" font-weight="700" fill="#f7efe7">your AOI <tspan fill="#ff9a5c">&#8745;</tspan> footprint = match</text>

<!-- ===== LEFT: title block ===== -->
<text x="72" y="150" font-family="Inter, 'Helvetica Neue', Arial, sans-serif" font-size="20" font-weight="700" letter-spacing="4" fill="#f0a94e">APACHE SEDONA · STAC READER</text>
<text x="70" y="236" font-family="Inter, 'Helvetica Neue', Arial, sans-serif" font-size="72" font-weight="800" fill="#f7efe7">Join the <tspan fill="#35c9d8">sky</tspan></text>
<text x="70" y="316" font-family="Inter, 'Helvetica Neue', Arial, sans-serif" font-size="72" font-weight="800" fill="#f7efe7">to the <tspan fill="#ff7a45">ground</tspan>.</text>
<text x="72" y="382" font-family="Inter, 'Helvetica Neue', Arial, sans-serif" font-size="23" font-weight="500" fill="#b6acc9">Read a planetary imagery catalog as a Sedona DataFrame,</text>
<text x="72" y="414" font-family="Inter, 'Helvetica Neue', Arial, sans-serif" font-size="23" font-weight="500" fill="#b6acc9">then spatially join footprints to your vector shapes.</text>

<rect x="72" y="470" width="452" height="52" rx="10" fill="#140f28" stroke="#3c3268" stroke-width="1.5"/>
<text x="94" y="503" font-family="ui-monospace, 'SF Mono', Menlo, monospace" font-size="19" fill="#8fe6d0">sedona.read.<tspan fill="#f7efe7">format</tspan>(<tspan fill="#f5c542">"stac"</tspan>).<tspan fill="#f7efe7">load</tspan>(url)</text>

<g font-family="Inter, 'Helvetica Neue', Arial, sans-serif" font-size="15">
<rect x="72" y="560" width="150" height="34" rx="17" fill="none" stroke="#35c9d8" stroke-opacity="0.6" stroke-width="1.3"/><text x="147" y="582" text-anchor="middle" fill="#5fd8e0">geometry column</text>
<rect x="234" y="560" width="150" height="34" rx="17" fill="none" stroke="#7ed957" stroke-opacity="0.6" stroke-width="1.3"/><text x="309" y="582" text-anchor="middle" fill="#98e07a">filter pushdown</text>
<rect x="396" y="560" width="120" height="34" rx="17" fill="none" stroke="#ff7a45" stroke-opacity="0.6" stroke-width="1.3"/><text x="456" y="582" text-anchor="middle" fill="#ff9a5c">ST_Intersects</text>
</g>

<text x="72" y="662" font-family="Inter, 'Helvetica Neue', Arial, sans-serif" font-size="15" fill="#9086a8">A field guide to the STAC catalog reader</text>
</svg>
