<svg xmlns="http://www.w3.org/2000/svg" width="380" height="290" viewBox="0 0 380 290" role="img" aria-label="Box3D anatomy: a cuboid spanning two opposite corners"><defs><marker id="arr" markerWidth="8" markerHeight="8" refX="6" refY="3" orient="auto"><path d="M0,0 L6,3 L0,6 Z" fill="#888"/></marker></defs><rect width="380" height="290" fill="white"/><line x1="190.0" y1="170.0" x2="262.7" y2="212.0" stroke="#888" stroke-width="1.2" marker-end="url(#arr)"/><text x="266.7" y="216.0" font-size="13" fill="#888" font-family="sans-serif" font-style="italic">x</text><line x1="190.0" y1="170.0" x2="117.3" y2="212.0" stroke="#888" stroke-width="1.2" marker-end="url(#arr)"/><text x="107.3" y="216.0" font-size="13" fill="#888" font-family="sans-serif" font-style="italic">y</text><line x1="190.0" y1="170.0" x2="190.0" y2="86.0" stroke="#888" stroke-width="1.2" marker-end="url(#arr)"/><text x="186.0" y="80.0" font-size="13" fill="#888" font-family="sans-serif" font-style="italic">z</text><polygon points="132.8,155.0 200.4,194.0 200.4,248.0 132.8,209.0" fill="#9ec5e3" fill-opacity="1.0" stroke="#33485e" stroke-width="1.4" stroke-linejoin="round"/><polygon points="257.5,161.0 200.4,194.0 200.4,248.0 257.5,215.0" fill="#7fa9d0" fill-opacity="1.0" stroke="#33485e" stroke-width="1.4" stroke-linejoin="round"/><polygon points="190.0,122.0 257.5,161.0 200.4,194.0 132.8,155.0" fill="#cfe3f3" fill-opacity="1.0" stroke="#33485e" stroke-width="1.4" stroke-linejoin="round"/><line x1="190.0" y1="176.0" x2="130.0" y2="236.0" stroke="#c62828" stroke-width="1" stroke-dasharray="3,2"/><line x1="200.4" y1="194.0" x2="234.0" y2="76.0" stroke="#2e7d32" stroke-width="1" stroke-dasharray="3,2"/><circle cx="190.0" cy="176.0" r="4" fill="#c62828"/><circle cx="200.4" cy="194.0" r="4" fill="#2e7d32"/><text x="60" y="240" font-size="12" fill="#c62828" font-family="sans-serif" font-weight="normal" text-anchor="start">(xmin, ymin, zmin)</text><text x="300" y="80" font-size="12" fill="#2e7d32" font-family="sans-serif" font-weight="normal" text-anchor="end">(xmax, ymax, zmax)</text><text x="190" y="28" font-size="18" fill="#1b2a38" font-family="sans-serif" font-weight="bold" text-anchor="middle">Box3D</text></svg>