<svg xmlns="http://www.w3.org/2000/svg" width="340" height="250" viewBox="0 0 340 250" role="img" aria-label="ST_Box3D returns the bounding cuboid of a geometry"><defs><marker id="arr" markerWidth="8" markerHeight="8" refX="6" refY="3" orient="auto"><path d="M0,0 L6,3 L0,6 Z" fill="#888"/></marker></defs><rect width="340" height="250" fill="white"/><line x1="150.0" y1="150.0" x2="225.2" y2="193.4" stroke="#888" stroke-width="1.2" marker-end="url(#arr)"/><text x="229.2" y="197.4" font-size="13" fill="#888" font-family="sans-serif" font-style="italic">x</text><line x1="150.0" y1="150.0" x2="74.8" y2="193.4" stroke="#888" stroke-width="1.2" marker-end="url(#arr)"/><text x="64.8" y="197.4" font-size="13" fill="#888" font-family="sans-serif" font-style="italic">y</text><line x1="150.0" y1="150.0" x2="150.0" y2="63.2" stroke="#888" stroke-width="1.2" marker-end="url(#arr)"/><text x="146.0" y="57.2" font-size="13" fill="#888" font-family="sans-serif" font-style="italic">z</text><polygon points="101.7,134.5 160.7,168.6 160.7,221.3 101.7,187.2" fill="#9ec5e3" fill-opacity="0.45" stroke="#33485e" stroke-width="1.4" stroke-linejoin="round"/><polygon points="211.7,139.2 160.7,168.6 160.7,221.3 211.7,191.8" fill="#7fa9d0" fill-opacity="0.45" stroke="#33485e" stroke-width="1.4" stroke-linejoin="round"/><polygon points="152.7,105.1 211.7,139.2 160.7,168.6 101.7,134.5" fill="#cfe3f3" fill-opacity="0.45" stroke="#33485e" stroke-width="1.4" stroke-linejoin="round"/><line x1="152.7" y1="157.8" x2="160.7" y2="168.6" stroke="#c62828" stroke-width="2.6"/><circle cx="152.7" cy="157.8" r="3.5" fill="#c62828"/><circle cx="160.7" cy="168.6" r="3.5" fill="#c62828"/><text x="170" y="30" font-size="15" fill="#1b2a38" font-family="sans-serif" font-weight="bold" text-anchor="middle">ST_Box3D(geometry)</text><text x="170" y="234" font-size="12" fill="#1b2a38" font-family="sans-serif" font-weight="normal" text-anchor="middle">tightest cuboid enclosing the geometry</text></svg>