<svg xmlns="http://www.w3.org/2000/svg" width="340" height="285" viewBox="0 0 340 285" role="img" aria-label="ST_Contains (Box3D) true"><defs><marker id="arr" markerWidth="8" markerHeight="8" refX="6" refY="3" orient="auto"><path d="M0,0 L6,3 L0,6 Z" fill="#888"/></marker></defs><rect width="340" height="285" fill="white"/><line x1="150.0" y1="160.0" x2="215.5" y2="197.8" stroke="#888" stroke-width="1.2" marker-end="url(#arr)"/><text x="219.5" y="201.8" font-size="13" fill="#888" font-family="sans-serif" font-style="italic">x</text><line x1="150.0" y1="160.0" x2="84.5" y2="197.8" stroke="#888" stroke-width="1.2" marker-end="url(#arr)"/><text x="74.5" y="201.8" font-size="13" fill="#888" font-family="sans-serif" font-style="italic">y</text><line x1="150.0" y1="160.0" x2="150.0" y2="84.4" stroke="#888" stroke-width="1.2" marker-end="url(#arr)"/><text x="146.0" y="78.4" font-size="13" fill="#888" font-family="sans-serif" font-style="italic">z</text><polygon points="103.2,143.8 150.0,170.8 150.0,219.4 103.2,192.4" fill="#9ec5e3" fill-opacity="0.5" stroke="#33485e" stroke-width="1.4" stroke-linejoin="round"/><polygon points="196.8,143.8 150.0,170.8 150.0,219.4 196.8,192.4" fill="#7fa9d0" fill-opacity="0.5" stroke="#33485e" stroke-width="1.4" stroke-linejoin="round"/><polygon points="150.0,116.8 196.8,143.8 150.0,170.8 103.2,143.8" fill="#cfe3f3" fill-opacity="0.5" stroke="#33485e" stroke-width="1.4" stroke-linejoin="round"/><polygon points="126.6,154.6 150.0,168.1 150.0,192.4 126.6,178.9" fill="#eeb699" fill-opacity="0.5" stroke="#33485e" stroke-width="1.4" stroke-linejoin="round"/><polygon points="173.4,154.6 150.0,168.1 150.0,192.4 173.4,178.9" fill="#e29a73" fill-opacity="0.5" stroke="#33485e" stroke-width="1.4" stroke-linejoin="round"/><polygon points="150.0,141.1 173.4,154.6 150.0,168.1 126.6,154.6" fill="#f6d6c2" fill-opacity="0.5" stroke="#33485e" stroke-width="1.4" stroke-linejoin="round"/><text x="170" y="28" font-size="14" fill="#1b2a38" font-family="sans-serif" font-weight="bold" text-anchor="middle">ST_Contains (Box3D)</text><text x="170" y="250" font-size="11" fill="#1b2a38" font-family="sans-serif" font-weight="normal" text-anchor="middle">B lies fully inside A on all three axes</text><text x="170" y="269" font-size="16" fill="#2e7d32" font-family="sans-serif" font-weight="bold" text-anchor="middle">true</text></svg>