<svg xmlns="http://www.w3.org/2000/svg" viewBox="0 0 500 300" width="500" height="300" style="background:#ffffff">
  <defs>
    <style>
      text { font-family: 'Segoe UI', Arial, Helvetica, sans-serif; }
    </style>
    <marker id="arrowResult" markerWidth="8" markerHeight="6" refX="8" refY="3" orient="auto">
      <path d="M0,0 L8,3 L0,6" fill="#2ecc71" />
    </marker>
    <marker id="arrowA" markerWidth="7" markerHeight="5" refX="7" refY="2.5" orient="auto">
      <path d="M0,0 L7,2.5 L0,5" fill="#4a90d9" />
    </marker>
    <marker id="arrowGray" markerWidth="7" markerHeight="5" refX="7" refY="2.5" orient="auto">
      <path d="M0,0 L7,2.5 L0,5" fill="#999999" />
    </marker>
  </defs>
  <text x="250" y="22" text-anchor="middle" font-size="16" font-weight="bold" fill="#333333">ST_LineMerge</text>
  <polyline points="92.86,212.86 187.14,118.57" fill="none" stroke="#4a90d9" stroke-width="2.5" stroke-linecap="round" stroke-linejoin="round" stroke-dasharray="6,3" />
  <circle cx="92.86" cy="212.86" r="3" fill="#4a90d9" />
  <circle cx="187.14" cy="118.57" r="3" fill="#4a90d9" />
  <polyline points="187.14,118.57 281.43,181.43" fill="none" stroke="#4a90d9" stroke-width="2.5" stroke-linecap="round" stroke-linejoin="round" stroke-dasharray="6,3" />
  <circle cx="187.14" cy="118.57" r="3" fill="#4a90d9" />
  <circle cx="281.43" cy="181.43" r="3" fill="#4a90d9" />
  <polyline points="281.43,181.43 407.14,87.14" fill="none" stroke="#4a90d9" stroke-width="2.5" stroke-linecap="round" stroke-linejoin="round" stroke-dasharray="6,3" />
  <circle cx="281.43" cy="181.43" r="3" fill="#4a90d9" />
  <circle cx="407.14" cy="87.14" r="3" fill="#4a90d9" />
  <polyline points="92.86,212.86 187.14,118.57 281.43,181.43 407.14,87.14" fill="none" stroke="#2ecc71" stroke-width="2.5" stroke-linecap="round" stroke-linejoin="round" />
  <circle cx="92.86" cy="212.86" r="3" fill="#2ecc71" />
  <circle cx="187.14" cy="118.57" r="3" fill="#2ecc71" />
  <circle cx="281.43" cy="181.43" r="3" fill="#2ecc71" />
  <circle cx="407.14" cy="87.14" r="3" fill="#2ecc71" />
  <text x="250" y="292" text-anchor="middle" font-size="13" fill="#333333" font-style="italic">Merges the line work of a MultiLineString into a connected line</text>
  <rect x="176" y="255" width="12" height="12" rx="2" fill="#4a90d9" stroke="#4a90d9" stroke-width="1" />
  <text x="192" y="266" font-size="13" fill="#333333">Input</text>
  <rect x="246" y="255" width="12" height="12" rx="2" fill="#2ecc71" stroke="#2ecc71" stroke-width="1" />
  <text x="262" y="266" font-size="13" fill="#333333">Result</text>
</svg>