<svg width="18" height="18" viewBox="0 0 18 18" fill="none" xmlns="http://www.w3.org/2000/svg">
<path d="M9 10.125C9.62132 10.125 10.125 9.62132 10.125 9C10.125 8.37868 9.62132 7.875 9 7.875C8.37868 7.875 7.875 8.37868 7.875 9C7.875 9.62132 8.37868 10.125 9 10.125Z" stroke="#7142FF" stroke-width="1.5" stroke-linecap="round" stroke-linejoin="round"/>
<path d="M6.41342 11.7787C6.0446 11.4139 5.75201 10.9808 5.55238 10.504C5.35275 10.0272 5.25 9.51608 5.25 8.99994C5.25 8.4838 5.35275 7.97272 5.55238 7.49592C5.75201 7.01912 6.0446 6.58596 6.41342 6.22119" stroke="#7142FF" stroke-width="1.5" stroke-linecap="round" stroke-linejoin="round"/>
<path d="M13.5527 4.125C14.8583 5.41807 15.5918 7.17161 15.5918 9C15.5918 10.8284 14.8583 12.5819 13.5527 13.875" stroke="#7142FF" stroke-width="1.5" stroke-linecap="round" stroke-linejoin="round"/>
<path d="M11.4302 6.22119C11.799 6.58596 12.0916 7.01912 12.2912 7.49592C12.4908 7.97272 12.5936 8.4838 12.5936 8.99994C12.5936 9.51608 12.4908 10.0272 12.2912 10.504C12.0916 10.9808 11.799 11.4139 11.4302 11.7787" stroke="#7142FF" stroke-width="1.5" stroke-linecap="round" stroke-linejoin="round"/>
<path d="M4.13377 13.875C2.82817 12.5819 2.09473 10.8284 2.09473 9C2.09473 7.17161 2.82817 5.41807 4.13377 4.125" stroke="#7142FF" stroke-width="1.5" stroke-linecap="round" stroke-linejoin="round"/>
</svg>
