<svg xmlns="http://www.w3.org/2000/svg" width="400" height="180" viewBox="0 0 400 180">
  <rect width="400" height="180" fill="#f5f5f5" rx="5"/>
  <text x="200" y="18" font-family="monospace" font-size="12" fill="#333" text-anchor="middle" font-weight="bold">ST_BingTileY</text>
  <text x="200" y="32" font-family="monospace" font-size="9" fill="#888" text-anchor="middle">Get tile Y coordinate from quadkey</text>
  <rect x="90" y="48" width="32" height="32" fill="#fff" stroke="#ddd" stroke-width="0.8"/>
  <rect x="90" y="80" width="32" height="32" fill="rgba(74,144,217,0.2)" stroke="#1565C0" stroke-width="1.5"/>
  <rect x="90" y="112" width="32" height="32" fill="#fff" stroke="#ddd" stroke-width="0.8"/>
  <rect x="122" y="48" width="32" height="32" fill="#fff" stroke="#ddd" stroke-width="0.8"/>
  <rect x="122" y="80" width="32" height="32" fill="rgba(74,144,217,0.2)" stroke="#1565C0" stroke-width="1.5"/>
  <rect x="122" y="112" width="32" height="32" fill="#fff" stroke="#ddd" stroke-width="0.8"/>
  <rect x="154" y="48" width="32" height="32" fill="#fff" stroke="#ddd" stroke-width="0.8"/>
  <rect x="154" y="80" width="32" height="32" fill="rgba(74,144,217,0.2)" stroke="#1565C0" stroke-width="1.5"/>
  <rect x="154" y="112" width="32" height="32" fill="#fff" stroke="#ddd" stroke-width="0.8"/>
  <rect x="186" y="48" width="32" height="32" fill="#fff" stroke="#ddd" stroke-width="0.8"/>
  <rect x="186" y="80" width="32" height="32" fill="rgba(74,144,217,0.2)" stroke="#1565C0" stroke-width="1.5"/>
  <rect x="186" y="112" width="32" height="32" fill="#fff" stroke="#ddd" stroke-width="0.8"/>
  <rect x="218" y="48" width="32" height="32" fill="#fff" stroke="#ddd" stroke-width="0.8"/>
  <rect x="218" y="80" width="32" height="32" fill="rgba(74,144,217,0.2)" stroke="#1565C0" stroke-width="1.5"/>
  <rect x="218" y="112" width="32" height="32" fill="#fff" stroke="#ddd" stroke-width="0.8"/>
  <rect x="250" y="48" width="32" height="32" fill="#fff" stroke="#ddd" stroke-width="0.8"/>
  <rect x="250" y="80" width="32" height="32" fill="rgba(74,144,217,0.2)" stroke="#1565C0" stroke-width="1.5"/>
  <rect x="250" y="112" width="32" height="32" fill="#fff" stroke="#ddd" stroke-width="0.8"/>
  <text x="82" y="67" font-family="monospace" font-size="8" fill="#999" text-anchor="end">0</text>
  <text x="82" y="99" font-family="monospace" font-size="8" fill="#1565C0" text-anchor="end" font-weight="bold">1</text>
  <text x="82" y="131" font-family="monospace" font-size="8" fill="#999" text-anchor="end">2</text>
  <text x="65" y="99" font-family="monospace" font-size="10" fill="#1565C0" text-anchor="end" font-weight="bold">Y = 1</text>
  <text x="200" y="158" font-family="monospace" font-size="10" fill="#1565C0" text-anchor="middle">Returns the tile Y coordinate from a quadkey</text>
</svg>