<svg xmlns="http://www.w3.org/2000/svg" viewBox="0 0 500 300" width="500" height="300" style="background:#ffffff">
  <defs>
    <style>
      text { font-family: 'Segoe UI', Arial, Helvetica, sans-serif; }
    </style>
    <marker id="arrowResult" markerWidth="8" markerHeight="6" refX="8" refY="3" orient="auto">
      <path d="M0,0 L8,3 L0,6" fill="#2ecc71" />
    </marker>
    <marker id="arrowA" markerWidth="7" markerHeight="5" refX="7" refY="2.5" orient="auto">
      <path d="M0,0 L7,2.5 L0,5" fill="#4a90d9" />
    </marker>
    <marker id="arrowGray" markerWidth="7" markerHeight="5" refX="7" refY="2.5" orient="auto">
      <path d="M0,0 L7,2.5 L0,5" fill="#999999" />
    </marker>
  </defs>
  <text x="250" y="22" text-anchor="middle" font-size="16" font-weight="bold" fill="#333333">ST_RemoveRepeatedPoints</text>
  <polyline points="102.24,215.67 200.75,117.16 200.75,117.16 299.25,182.84 299.25,182.84 299.25,182.84 397.76,84.33" fill="none" stroke="#4a90d9" stroke-width="2.5" stroke-linecap="round" stroke-linejoin="round" stroke-dasharray="6,3" />
  <circle cx="102.24" cy="215.67" r="3" fill="#4a90d9" />
  <circle cx="200.75" cy="117.16" r="3" fill="#4a90d9" />
  <circle cx="200.75" cy="117.16" r="3" fill="#4a90d9" />
  <circle cx="299.25" cy="182.84" r="3" fill="#4a90d9" />
  <circle cx="299.25" cy="182.84" r="3" fill="#4a90d9" />
  <circle cx="299.25" cy="182.84" r="3" fill="#4a90d9" />
  <circle cx="397.76" cy="84.33" r="3" fill="#4a90d9" />
  <polyline points="102.24,215.67 200.75,117.16 299.25,182.84 397.76,84.33" fill="none" stroke="#2ecc71" stroke-width="2.5" stroke-linecap="round" stroke-linejoin="round" />
  <circle cx="102.24" cy="215.67" r="3" fill="#2ecc71" />
  <circle cx="200.75" cy="117.16" r="3" fill="#2ecc71" />
  <circle cx="299.25" cy="182.84" r="3" fill="#2ecc71" />
  <circle cx="397.76" cy="84.33" r="3" fill="#2ecc71" />
  <circle cx="200.75" cy="117.16" r="9" fill="none" stroke="#d94a4a" stroke-width="2" stroke-dasharray="3,2" />
  <circle cx="299.25" cy="182.84" r="9" fill="none" stroke="#d94a4a" stroke-width="2" stroke-dasharray="3,2" />
  <text x="250" y="292" text-anchor="middle" font-size="13" fill="#333333" font-style="italic">Removes consecutive duplicate points from a geometry</text>
  <rect x="121" y="255" width="12" height="12" rx="2" fill="#4a90d9" stroke="#4a90d9" stroke-width="1" />
  <text x="137" y="266" font-size="13" fill="#333333">Input</text>
  <rect x="191" y="255" width="12" height="12" rx="2" fill="#2ecc71" stroke="#2ecc71" stroke-width="1" />
  <text x="207" y="266" font-size="13" fill="#333333">Result</text>
  <rect x="269" y="255" width="12" height="12" rx="2" fill="#d94a4a" stroke="#d94a4a" stroke-width="1" />
  <text x="285" y="266" font-size="13" fill="#333333">Duplicates</text>
</svg>