<svg xmlns="http://www.w3.org/2000/svg" width="400" height="180" viewBox="0 0 400 180">
  <rect width="400" height="180" fill="#f5f5f5" rx="5"/>
  <text x="200" y="18" font-family="monospace" font-size="12" fill="#333" text-anchor="middle" font-weight="bold">ST_ScaleGeom</text>
  <text x="200" y="32" font-family="monospace" font-size="9" fill="#888" text-anchor="middle">factor=(0.5, 0.75) relative to centroid</text>
  <polygon points="159.9,149.2 240.1,149.2 240.1,89.0 200.0,48.8 159.9,89.0 159.9,149.2" stroke="#1565C0" stroke-width="2" fill="rgba(21,101,192,0.12)" stroke-dasharray="6,3"/>
  <circle cx="159.9" cy="149.2" r="2.5" fill="#1565C0"/>
  <circle cx="240.1" cy="149.2" r="2.5" fill="#1565C0"/>
  <circle cx="240.1" cy="89.0" r="2.5" fill="#1565C0"/>
  <circle cx="200.0" cy="48.8" r="2.5" fill="#1565C0"/>
  <circle cx="159.9" cy="89.0" r="2.5" fill="#1565C0"/>
  <polygon points="179.9,138.1 220.1,138.1 220.1,93.0 200.0,62.9 179.9,93.0 179.9,138.1" stroke="#43A047" stroke-width="2" fill="rgba(67,160,71,0.18)"/>
  <circle cx="179.9" cy="138.1" r="2.5" fill="#43A047"/>
  <circle cx="220.1" cy="138.1" r="2.5" fill="#43A047"/>
  <circle cx="220.1" cy="93.0" r="2.5" fill="#43A047"/>
  <circle cx="200.0" cy="62.9" r="2.5" fill="#43A047"/>
  <circle cx="179.9" cy="93.0" r="2.5" fill="#43A047"/>

  <rect x="100" y="162" width="8" height="8" fill="rgba(21,101,192,0.12)" stroke="#1565C0" stroke-width="1" stroke-dasharray="2,1"/>
  <text x="112" y="170" font-family="monospace" font-size="9" fill="#1565C0">Input</text>
  <rect x="220" y="162" width="8" height="8" fill="rgba(67,160,71,0.18)" stroke="#43A047" stroke-width="1"/>
  <text x="232" y="170" font-family="monospace" font-size="9" fill="#43A047">Result</text>
</svg>