<svg width="32" height="32" viewBox="0 0 32 32" fill="none" xmlns="http://www.w3.org/2000/svg">
<path d="M10.3333 18.4667L13.5333 21.6667M10.3333 18.4667C10.3333 18.4667 12.2226 13.7435 14.9124 10.4667M10.3333 18.4667C3.37527 16.7272 9.62675 10.4667 14.9124 10.4667M13.5333 21.6667C13.5333 21.6667 18.2565 19.7775 21.5333 17.0876M13.5333 21.6667C15.2728 28.6248 21.5333 22.3733 21.5333 17.0876M14.9124 10.4667C17.633 7.15245 22.1165 5.66675 26.3333 5.66675C26.3333 9.88352 24.8476 14.367 21.5333 17.0876" stroke="#CA463A" stroke-width="2" stroke-linecap="round" stroke-linejoin="round"/>
<path d="M19.2667 12.6096L20.2095 11.6667" stroke="#CA463A" stroke-width="2" stroke-linecap="round" stroke-linejoin="round"/>
<path d="M7.35808 22.1016C6.08954 23.1696 5.66669 26.3395 5.66669 26.3395C5.66669 26.3395 8.8296 25.9157 9.89518 24.6444C10.4956 23.9324 10.4872 22.839 9.81906 22.1779C9.14716 21.5352 8.06833 21.5017 7.35808 22.1016Z" stroke="#CA463A" stroke-width="2" stroke-linecap="round" stroke-linejoin="round"/>
</svg>
