<svg width="32" height="32" viewBox="0 0 32 32" fill="none" xmlns="http://www.w3.org/2000/svg">
<path d="M4 7.89114L6.35191 6.70808C8.22876 5.76397 10.4379 5.76398 12.3148 6.70808L13.0186 7.06211C14.8954 8.00621 17.1046 8.00621 18.9814 7.06211L19.6852 6.70808C21.5621 5.76398 23.7712 5.76398 25.6481 6.70808L28 7.89114M4 13.9274L6.35191 12.7444C8.22876 11.8003 10.4379 11.8003 12.3148 12.7444L13.0186 13.0984C14.8954 14.0425 17.1046 14.0425 18.9814 13.0984L19.6852 12.7444C21.5621 11.8003 23.7712 11.8003 25.6481 12.7444L28 13.9274M4 19.9637L6.35191 18.7806C8.22876 17.8365 10.4379 17.8365 12.3148 18.7806L13.0186 19.1347C14.8954 20.0788 17.1046 20.0788 18.9814 19.1347L19.6852 18.7806C21.5621 17.8365 23.7712 17.8365 25.6481 18.7806L28 19.9637M4 26L6.35191 24.8169C8.22876 23.8728 10.4379 23.8728 12.3148 24.8169L13.0186 25.171C14.8954 26.1151 17.1046 26.1151 18.9814 25.171L19.6852 24.8169C21.5621 23.8728 23.7712 23.8728 25.6481 24.8169L28 26" stroke="#CA463A" stroke-width="2" stroke-linecap="round" stroke-linejoin="round"/>
</svg>
