<svg xmlns="http://www.w3.org/2000/svg" viewBox="0 0 780 400" font-family="system-ui, -apple-system, 'Segoe UI', sans-serif">
  <rect width="780" height="400" fill="#ffffff"/>
  <text x="165.0" y="40" text-anchor="middle" font-size="16" font-weight="600" fill="#2c3e50">RS_RasterToWorldCoord</text>
  <text x="97.0" y="72" text-anchor="middle" font-size="10" fill="#7f8c8d">1</text>
  <text x="131.0" y="72" text-anchor="middle" font-size="10" fill="#7f8c8d">2</text>
  <text x="165.0" y="72" text-anchor="middle" font-size="10" fill="#7f8c8d">3</text>
  <text x="199.0" y="72" text-anchor="middle" font-size="10" fill="#7f8c8d">4</text>
  <text x="233.0" y="72" text-anchor="middle" font-size="10" fill="#7f8c8d">5</text>
  <text x="165.0" y="58" text-anchor="middle" font-size="10" fill="#7f8c8d">col</text>
  <text x="68" y="100.0" text-anchor="middle" font-size="10" fill="#7f8c8d">1</text>
  <text x="68" y="134.0" text-anchor="middle" font-size="10" fill="#7f8c8d">2</text>
  <text x="68" y="168.0" text-anchor="middle" font-size="10" fill="#7f8c8d">3</text>
  <text x="68" y="202.0" text-anchor="middle" font-size="10" fill="#7f8c8d">4</text>
  <text x="68" y="236.0" text-anchor="middle" font-size="10" fill="#7f8c8d">5</text>
  <text x="50" y="165.0" text-anchor="middle" font-size="10" fill="#7f8c8d">row</text>
  <rect x="80" y="80" width="34" height="34" fill="#EEEEEE" stroke="#c8cdd0" stroke-width="0.5"/>
  <rect x="114" y="80" width="34" height="34" fill="#EEEEEE" stroke="#c8cdd0" stroke-width="0.5"/>
  <rect x="148" y="80" width="34" height="34" fill="#EEEEEE" stroke="#c8cdd0" stroke-width="0.5"/>
  <rect x="182" y="80" width="34" height="34" fill="#EEEEEE" stroke="#c8cdd0" stroke-width="0.5"/>
  <rect x="216" y="80" width="34" height="34" fill="#EEEEEE" stroke="#c8cdd0" stroke-width="0.5"/>
  <rect x="80" y="114" width="34" height="34" fill="#EEEEEE" stroke="#c8cdd0" stroke-width="0.5"/>
  <rect x="114" y="114" width="34" height="34" fill="#EEEEEE" stroke="#c8cdd0" stroke-width="0.5"/>
  <rect x="148" y="114" width="34" height="34" fill="#4FC3F7" stroke="#c8cdd0" stroke-width="0.5"/>
  <rect x="182" y="114" width="34" height="34" fill="#4FC3F7" stroke="#c8cdd0" stroke-width="0.5"/>
  <rect x="216" y="114" width="34" height="34" fill="#EEEEEE" stroke="#c8cdd0" stroke-width="0.5"/>
  <rect x="80" y="148" width="34" height="34" fill="#EEEEEE" stroke="#c8cdd0" stroke-width="0.5"/>
  <rect x="114" y="148" width="34" height="34" fill="#fff176" stroke="#c8cdd0" stroke-width="0.5"/>
  <rect x="148" y="148" width="34" height="34" fill="#4FC3F7" stroke="#c8cdd0" stroke-width="0.5"/>
  <rect x="182" y="148" width="34" height="34" fill="#4FC3F7" stroke="#c8cdd0" stroke-width="0.5"/>
  <rect x="216" y="148" width="34" height="34" fill="#4FC3F7" stroke="#c8cdd0" stroke-width="0.5"/>
  <rect x="80" y="182" width="34" height="34" fill="#EEEEEE" stroke="#c8cdd0" stroke-width="0.5"/>
  <rect x="114" y="182" width="34" height="34" fill="#4FC3F7" stroke="#c8cdd0" stroke-width="0.5"/>
  <rect x="148" y="182" width="34" height="34" fill="#4FC3F7" stroke="#c8cdd0" stroke-width="0.5"/>
  <rect x="182" y="182" width="34" height="34" fill="#4FC3F7" stroke="#c8cdd0" stroke-width="0.5"/>
  <rect x="216" y="182" width="34" height="34" fill="#EEEEEE" stroke="#c8cdd0" stroke-width="0.5"/>
  <rect x="80" y="216" width="34" height="34" fill="#EEEEEE" stroke="#c8cdd0" stroke-width="0.5"/>
  <rect x="114" y="216" width="34" height="34" fill="#EEEEEE" stroke="#c8cdd0" stroke-width="0.5"/>
  <rect x="148" y="216" width="34" height="34" fill="#4FC3F7" stroke="#c8cdd0" stroke-width="0.5"/>
  <rect x="182" y="216" width="34" height="34" fill="#EEEEEE" stroke="#c8cdd0" stroke-width="0.5"/>
  <rect x="216" y="216" width="34" height="34" fill="#EEEEEE" stroke="#c8cdd0" stroke-width="0.5"/>
  <rect x="80" y="80" width="170" height="170" fill="none" stroke="#c8cdd0" stroke-width="1.2"/>
  <circle cx="131.0" cy="165.0" r="5" fill="#e74c3c" stroke="white" stroke-width="1.5"/>
  <defs><marker id="arw-21" markerWidth="8" markerHeight="6" refX="8" refY="3" orient="auto"><path d="M0,0 L8,3 L0,6" fill="#7f8c8d"/></marker></defs>
  <line x1="151.0" y1="165.0" x2="305" y2="165.0" stroke="#7f8c8d" stroke-width="2" marker-end="url(#arw-21)"/>
  <rect x="310" y="125.0" width="210" height="80" rx="8" fill="#E3F2FD" stroke="#2980b9" stroke-width="1.5"/>
  <text x="415.0" y="147.0" text-anchor="middle" font-size="11" fill="#2980b9">World Coordinates</text>
  <text x="415.0" y="167.0" text-anchor="middle" font-size="14" fill="#2c3e50">POINT (-122, 48)</text>
  <text x="415.0" y="187.0" text-anchor="middle" font-size="10" fill="#7f8c8d">(col=2, row=3)</text>
  <text x="165.0" y="275" text-anchor="middle" font-size="10" fill="#7f8c8d">UL = (-123, 50)    scaleX = 1    scaleY = -1</text>
</svg>