<svg xmlns="http://www.w3.org/2000/svg" width="400" height="180" viewBox="0 0 400 180">
  <rect width="400" height="180" fill="#f5f5f5" rx="5"/>
  <text x="200" y="18" font-family="monospace" font-size="12" fill="#333" text-anchor="middle" font-weight="bold">ST_Affine</text>
  <text x="200" y="32" font-family="monospace" font-size="9" fill="#888" text-anchor="middle">horizontal shear (b=0.4)</text>
  <polygon points="113.1,149.2 246.8,149.2 246.8,48.8 113.1,48.8 113.1,149.2" stroke="#1565C0" stroke-width="2" fill="rgba(21,101,192,0.12)" stroke-dasharray="6,3"/>
  <circle cx="113.1" cy="149.2" r="2.5" fill="#1565C0"/>
  <circle cx="246.8" cy="149.2" r="2.5" fill="#1565C0"/>
  <circle cx="246.8" cy="48.8" r="2.5" fill="#1565C0"/>
  <circle cx="113.1" cy="48.8" r="2.5" fill="#1565C0"/>
  <polygon points="113.1,149.2 246.8,149.2 286.9,48.8 153.2,48.8 113.1,149.2" stroke="#43A047" stroke-width="2" fill="rgba(67,160,71,0.18)"/>
  <circle cx="113.1" cy="149.2" r="2.5" fill="#43A047"/>
  <circle cx="246.8" cy="149.2" r="2.5" fill="#43A047"/>
  <circle cx="286.9" cy="48.8" r="2.5" fill="#43A047"/>
  <circle cx="153.2" cy="48.8" r="2.5" fill="#43A047"/>

  <rect x="100" y="162" width="8" height="8" fill="rgba(21,101,192,0.12)" stroke="#1565C0" stroke-width="1" stroke-dasharray="2,1"/>
  <text x="112" y="170" font-family="monospace" font-size="9" fill="#1565C0">Input</text>
  <rect x="220" y="162" width="8" height="8" fill="rgba(67,160,71,0.18)" stroke="#43A047" stroke-width="1"/>
  <text x="232" y="170" font-family="monospace" font-size="9" fill="#43A047">Result</text>
</svg>