<svg xmlns="http://www.w3.org/2000/svg" viewBox="0 0 880 490" font-family="system-ui, -apple-system, 'Segoe UI', sans-serif">
  <rect width="880" height="490" fill="#ffffff"/>
  <text x="80.0" y="50" text-anchor="middle" font-size="10" fill="#2980b9">idx = 1</text>
  <rect x="30" y="55" width="20" height="20" fill="#EEEEEE" stroke="#c8cdd0" stroke-width="0.5"/>
  <rect x="50" y="55" width="20" height="20" fill="#EEEEEE" stroke="#c8cdd0" stroke-width="0.5"/>
  <rect x="70" y="55" width="20" height="20" fill="#EEEEEE" stroke="#c8cdd0" stroke-width="0.5"/>
  <rect x="90" y="55" width="20" height="20" fill="#EEEEEE" stroke="#c8cdd0" stroke-width="0.5"/>
  <rect x="110" y="55" width="20" height="20" fill="#EEEEEE" stroke="#c8cdd0" stroke-width="0.5"/>
  <rect x="30" y="75" width="20" height="20" fill="#EEEEEE" stroke="#c8cdd0" stroke-width="0.5"/>
  <rect x="50" y="75" width="20" height="20" fill="#EEEEEE" stroke="#c8cdd0" stroke-width="0.5"/>
  <rect x="70" y="75" width="20" height="20" fill="#4FC3F7" stroke="#c8cdd0" stroke-width="0.5"/>
  <rect x="90" y="75" width="20" height="20" fill="#4FC3F7" stroke="#c8cdd0" stroke-width="0.5"/>
  <rect x="110" y="75" width="20" height="20" fill="#EEEEEE" stroke="#c8cdd0" stroke-width="0.5"/>
  <rect x="30" y="95" width="20" height="20" fill="#EEEEEE" stroke="#c8cdd0" stroke-width="0.5"/>
  <rect x="50" y="95" width="20" height="20" fill="#4FC3F7" stroke="#c8cdd0" stroke-width="0.5"/>
  <rect x="70" y="95" width="20" height="20" fill="#4FC3F7" stroke="#c8cdd0" stroke-width="0.5"/>
  <rect x="90" y="95" width="20" height="20" fill="#4FC3F7" stroke="#c8cdd0" stroke-width="0.5"/>
  <rect x="110" y="95" width="20" height="20" fill="#EEEEEE" stroke="#c8cdd0" stroke-width="0.5"/>
  <rect x="30" y="115" width="20" height="20" fill="#EEEEEE" stroke="#c8cdd0" stroke-width="0.5"/>
  <rect x="50" y="115" width="20" height="20" fill="#EEEEEE" stroke="#c8cdd0" stroke-width="0.5"/>
  <rect x="70" y="115" width="20" height="20" fill="#4FC3F7" stroke="#c8cdd0" stroke-width="0.5"/>
  <rect x="90" y="115" width="20" height="20" fill="#EEEEEE" stroke="#c8cdd0" stroke-width="0.5"/>
  <rect x="110" y="115" width="20" height="20" fill="#EEEEEE" stroke="#c8cdd0" stroke-width="0.5"/>
  <rect x="30" y="55" width="100" height="80" fill="none" stroke="#c8cdd0" stroke-width="1.2"/>
  <text x="80.0" y="160" text-anchor="middle" font-size="10" fill="#27ae60">idx = 2</text>
  <rect x="30" y="165" width="20" height="20" fill="#EEEEEE" stroke="#c8cdd0" stroke-width="0.5"/>
  <rect x="50" y="165" width="20" height="20" fill="#66BB6A" stroke="#c8cdd0" stroke-width="0.5"/>
  <rect x="70" y="165" width="20" height="20" fill="#EEEEEE" stroke="#c8cdd0" stroke-width="0.5"/>
  <rect x="90" y="165" width="20" height="20" fill="#EEEEEE" stroke="#c8cdd0" stroke-width="0.5"/>
  <rect x="110" y="165" width="20" height="20" fill="#EEEEEE" stroke="#c8cdd0" stroke-width="0.5"/>
  <rect x="30" y="185" width="20" height="20" fill="#66BB6A" stroke="#c8cdd0" stroke-width="0.5"/>
  <rect x="50" y="185" width="20" height="20" fill="#66BB6A" stroke="#c8cdd0" stroke-width="0.5"/>
  <rect x="70" y="185" width="20" height="20" fill="#66BB6A" stroke="#c8cdd0" stroke-width="0.5"/>
  <rect x="90" y="185" width="20" height="20" fill="#EEEEEE" stroke="#c8cdd0" stroke-width="0.5"/>
  <rect x="110" y="185" width="20" height="20" fill="#EEEEEE" stroke="#c8cdd0" stroke-width="0.5"/>
  <rect x="30" y="205" width="20" height="20" fill="#EEEEEE" stroke="#c8cdd0" stroke-width="0.5"/>
  <rect x="50" y="205" width="20" height="20" fill="#66BB6A" stroke="#c8cdd0" stroke-width="0.5"/>
  <rect x="70" y="205" width="20" height="20" fill="#66BB6A" stroke="#c8cdd0" stroke-width="0.5"/>
  <rect x="90" y="205" width="20" height="20" fill="#66BB6A" stroke="#c8cdd0" stroke-width="0.5"/>
  <rect x="110" y="205" width="20" height="20" fill="#EEEEEE" stroke="#c8cdd0" stroke-width="0.5"/>
  <rect x="30" y="225" width="20" height="20" fill="#EEEEEE" stroke="#c8cdd0" stroke-width="0.5"/>
  <rect x="50" y="225" width="20" height="20" fill="#EEEEEE" stroke="#c8cdd0" stroke-width="0.5"/>
  <rect x="70" y="225" width="20" height="20" fill="#66BB6A" stroke="#c8cdd0" stroke-width="0.5"/>
  <rect x="90" y="225" width="20" height="20" fill="#EEEEEE" stroke="#c8cdd0" stroke-width="0.5"/>
  <rect x="110" y="225" width="20" height="20" fill="#EEEEEE" stroke="#c8cdd0" stroke-width="0.5"/>
  <rect x="30" y="165" width="100" height="80" fill="none" stroke="#c8cdd0" stroke-width="1.2"/>
  <text x="80.0" y="270" text-anchor="middle" font-size="10" fill="#E65100">idx = 3</text>
  <rect x="30" y="275" width="20" height="20" fill="#FFA726" stroke="#c8cdd0" stroke-width="0.5"/>
  <rect x="50" y="275" width="20" height="20" fill="#FFA726" stroke="#c8cdd0" stroke-width="0.5"/>
  <rect x="70" y="275" width="20" height="20" fill="#EEEEEE" stroke="#c8cdd0" stroke-width="0.5"/>
  <rect x="90" y="275" width="20" height="20" fill="#EEEEEE" stroke="#c8cdd0" stroke-width="0.5"/>
  <rect x="110" y="275" width="20" height="20" fill="#EEEEEE" stroke="#c8cdd0" stroke-width="0.5"/>
  <rect x="30" y="295" width="20" height="20" fill="#FFA726" stroke="#c8cdd0" stroke-width="0.5"/>
  <rect x="50" y="295" width="20" height="20" fill="#FFA726" stroke="#c8cdd0" stroke-width="0.5"/>
  <rect x="70" y="295" width="20" height="20" fill="#FFA726" stroke="#c8cdd0" stroke-width="0.5"/>
  <rect x="90" y="295" width="20" height="20" fill="#FFA726" stroke="#c8cdd0" stroke-width="0.5"/>
  <rect x="110" y="295" width="20" height="20" fill="#EEEEEE" stroke="#c8cdd0" stroke-width="0.5"/>
  <rect x="30" y="315" width="20" height="20" fill="#EEEEEE" stroke="#c8cdd0" stroke-width="0.5"/>
  <rect x="50" y="315" width="20" height="20" fill="#FFA726" stroke="#c8cdd0" stroke-width="0.5"/>
  <rect x="70" y="315" width="20" height="20" fill="#FFA726" stroke="#c8cdd0" stroke-width="0.5"/>
  <rect x="90" y="315" width="20" height="20" fill="#FFA726" stroke="#c8cdd0" stroke-width="0.5"/>
  <rect x="110" y="315" width="20" height="20" fill="#EEEEEE" stroke="#c8cdd0" stroke-width="0.5"/>
  <rect x="30" y="335" width="20" height="20" fill="#EEEEEE" stroke="#c8cdd0" stroke-width="0.5"/>
  <rect x="50" y="335" width="20" height="20" fill="#EEEEEE" stroke="#c8cdd0" stroke-width="0.5"/>
  <rect x="70" y="335" width="20" height="20" fill="#FFA726" stroke="#c8cdd0" stroke-width="0.5"/>
  <rect x="90" y="335" width="20" height="20" fill="#FFA726" stroke="#c8cdd0" stroke-width="0.5"/>
  <rect x="110" y="335" width="20" height="20" fill="#EEEEEE" stroke="#c8cdd0" stroke-width="0.5"/>
  <rect x="30" y="275" width="100" height="80" fill="none" stroke="#c8cdd0" stroke-width="1.2"/>
  <text x="522.0" y="82" text-anchor="middle" font-size="14" font-weight="600" fill="#2c3e50">Result</text>
  <text x="522.0" y="98" text-anchor="middle" font-size="10" fill="#2980b9">3 bands</text>
  <rect x="476" y="104" width="26" height="26" fill="#FFA726" stroke="#c8cdd0" stroke-width="0.5"/>
  <rect x="502" y="104" width="26" height="26" fill="#FFA726" stroke="#c8cdd0" stroke-width="0.5"/>
  <rect x="528" y="104" width="26" height="26" fill="#EEEEEE" stroke="#c8cdd0" stroke-width="0.5"/>
  <rect x="554" y="104" width="26" height="26" fill="#EEEEEE" stroke="#c8cdd0" stroke-width="0.5"/>
  <rect x="580" y="104" width="26" height="26" fill="#EEEEEE" stroke="#c8cdd0" stroke-width="0.5"/>
  <rect x="476" y="130" width="26" height="26" fill="#FFA726" stroke="#c8cdd0" stroke-width="0.5"/>
  <rect x="502" y="130" width="26" height="26" fill="#FFA726" stroke="#c8cdd0" stroke-width="0.5"/>
  <rect x="528" y="130" width="26" height="26" fill="#FFA726" stroke="#c8cdd0" stroke-width="0.5"/>
  <rect x="554" y="130" width="26" height="26" fill="#FFA726" stroke="#c8cdd0" stroke-width="0.5"/>
  <rect x="580" y="130" width="26" height="26" fill="#EEEEEE" stroke="#c8cdd0" stroke-width="0.5"/>
  <rect x="476" y="156" width="26" height="26" fill="#EEEEEE" stroke="#c8cdd0" stroke-width="0.5"/>
  <rect x="502" y="156" width="26" height="26" fill="#FFA726" stroke="#c8cdd0" stroke-width="0.5"/>
  <rect x="528" y="156" width="26" height="26" fill="#FFA726" stroke="#c8cdd0" stroke-width="0.5"/>
  <rect x="554" y="156" width="26" height="26" fill="#FFA726" stroke="#c8cdd0" stroke-width="0.5"/>
  <rect x="580" y="156" width="26" height="26" fill="#EEEEEE" stroke="#c8cdd0" stroke-width="0.5"/>
  <rect x="476" y="182" width="26" height="26" fill="#EEEEEE" stroke="#c8cdd0" stroke-width="0.5"/>
  <rect x="502" y="182" width="26" height="26" fill="#EEEEEE" stroke="#c8cdd0" stroke-width="0.5"/>
  <rect x="528" y="182" width="26" height="26" fill="#FFA726" stroke="#c8cdd0" stroke-width="0.5"/>
  <rect x="554" y="182" width="26" height="26" fill="#FFA726" stroke="#c8cdd0" stroke-width="0.5"/>
  <rect x="580" y="182" width="26" height="26" fill="#EEEEEE" stroke="#c8cdd0" stroke-width="0.5"/>
  <rect x="476" y="104" width="130" height="104" fill="none" stroke="#c8cdd0" stroke-width="1.2"/>
  <rect x="468" y="112" width="26" height="26" fill="#EEEEEE" stroke="#c8cdd0" stroke-width="0.5"/>
  <rect x="494" y="112" width="26" height="26" fill="#66BB6A" stroke="#c8cdd0" stroke-width="0.5"/>
  <rect x="520" y="112" width="26" height="26" fill="#EEEEEE" stroke="#c8cdd0" stroke-width="0.5"/>
  <rect x="546" y="112" width="26" height="26" fill="#EEEEEE" stroke="#c8cdd0" stroke-width="0.5"/>
  <rect x="572" y="112" width="26" height="26" fill="#EEEEEE" stroke="#c8cdd0" stroke-width="0.5"/>
  <rect x="468" y="138" width="26" height="26" fill="#66BB6A" stroke="#c8cdd0" stroke-width="0.5"/>
  <rect x="494" y="138" width="26" height="26" fill="#66BB6A" stroke="#c8cdd0" stroke-width="0.5"/>
  <rect x="520" y="138" width="26" height="26" fill="#66BB6A" stroke="#c8cdd0" stroke-width="0.5"/>
  <rect x="546" y="138" width="26" height="26" fill="#EEEEEE" stroke="#c8cdd0" stroke-width="0.5"/>
  <rect x="572" y="138" width="26" height="26" fill="#EEEEEE" stroke="#c8cdd0" stroke-width="0.5"/>
  <rect x="468" y="164" width="26" height="26" fill="#EEEEEE" stroke="#c8cdd0" stroke-width="0.5"/>
  <rect x="494" y="164" width="26" height="26" fill="#66BB6A" stroke="#c8cdd0" stroke-width="0.5"/>
  <rect x="520" y="164" width="26" height="26" fill="#66BB6A" stroke="#c8cdd0" stroke-width="0.5"/>
  <rect x="546" y="164" width="26" height="26" fill="#66BB6A" stroke="#c8cdd0" stroke-width="0.5"/>
  <rect x="572" y="164" width="26" height="26" fill="#EEEEEE" stroke="#c8cdd0" stroke-width="0.5"/>
  <rect x="468" y="190" width="26" height="26" fill="#EEEEEE" stroke="#c8cdd0" stroke-width="0.5"/>
  <rect x="494" y="190" width="26" height="26" fill="#EEEEEE" stroke="#c8cdd0" stroke-width="0.5"/>
  <rect x="520" y="190" width="26" height="26" fill="#66BB6A" stroke="#c8cdd0" stroke-width="0.5"/>
  <rect x="546" y="190" width="26" height="26" fill="#EEEEEE" stroke="#c8cdd0" stroke-width="0.5"/>
  <rect x="572" y="190" width="26" height="26" fill="#EEEEEE" stroke="#c8cdd0" stroke-width="0.5"/>
  <rect x="468" y="112" width="130" height="104" fill="none" stroke="#c8cdd0" stroke-width="1.2"/>
  <rect x="460" y="120" width="26" height="26" fill="#EEEEEE" stroke="#c8cdd0" stroke-width="0.5"/>
  <rect x="486" y="120" width="26" height="26" fill="#EEEEEE" stroke="#c8cdd0" stroke-width="0.5"/>
  <rect x="512" y="120" width="26" height="26" fill="#EEEEEE" stroke="#c8cdd0" stroke-width="0.5"/>
  <rect x="538" y="120" width="26" height="26" fill="#EEEEEE" stroke="#c8cdd0" stroke-width="0.5"/>
  <rect x="564" y="120" width="26" height="26" fill="#EEEEEE" stroke="#c8cdd0" stroke-width="0.5"/>
  <rect x="460" y="146" width="26" height="26" fill="#EEEEEE" stroke="#c8cdd0" stroke-width="0.5"/>
  <rect x="486" y="146" width="26" height="26" fill="#EEEEEE" stroke="#c8cdd0" stroke-width="0.5"/>
  <rect x="512" y="146" width="26" height="26" fill="#4FC3F7" stroke="#c8cdd0" stroke-width="0.5"/>
  <rect x="538" y="146" width="26" height="26" fill="#4FC3F7" stroke="#c8cdd0" stroke-width="0.5"/>
  <rect x="564" y="146" width="26" height="26" fill="#EEEEEE" stroke="#c8cdd0" stroke-width="0.5"/>
  <rect x="460" y="172" width="26" height="26" fill="#EEEEEE" stroke="#c8cdd0" stroke-width="0.5"/>
  <rect x="486" y="172" width="26" height="26" fill="#4FC3F7" stroke="#c8cdd0" stroke-width="0.5"/>
  <rect x="512" y="172" width="26" height="26" fill="#4FC3F7" stroke="#c8cdd0" stroke-width="0.5"/>
  <rect x="538" y="172" width="26" height="26" fill="#4FC3F7" stroke="#c8cdd0" stroke-width="0.5"/>
  <rect x="564" y="172" width="26" height="26" fill="#EEEEEE" stroke="#c8cdd0" stroke-width="0.5"/>
  <rect x="460" y="198" width="26" height="26" fill="#EEEEEE" stroke="#c8cdd0" stroke-width="0.5"/>
  <rect x="486" y="198" width="26" height="26" fill="#EEEEEE" stroke="#c8cdd0" stroke-width="0.5"/>
  <rect x="512" y="198" width="26" height="26" fill="#4FC3F7" stroke="#c8cdd0" stroke-width="0.5"/>
  <rect x="538" y="198" width="26" height="26" fill="#EEEEEE" stroke="#c8cdd0" stroke-width="0.5"/>
  <rect x="564" y="198" width="26" height="26" fill="#EEEEEE" stroke="#c8cdd0" stroke-width="0.5"/>
  <rect x="460" y="120" width="130" height="104" fill="none" stroke="#c8cdd0" stroke-width="1.2"/>
  <rect x="460" y="269" width="12" height="12" fill="#4FC3F7" stroke="#c8cdd0" stroke-width="0.5"/>
  <text x="478" y="279" text-anchor="start" font-size="10" fill="#2c3e50">Band 1 (idx=1)</text>
  <rect x="590" y="269" width="12" height="12" fill="#66BB6A" stroke="#c8cdd0" stroke-width="0.5"/>
  <text x="608" y="279" text-anchor="start" font-size="10" fill="#2c3e50">Band 2 (idx=2)</text>
  <rect x="720" y="269" width="12" height="12" fill="#FFA726" stroke="#c8cdd0" stroke-width="0.5"/>
  <text x="738" y="279" text-anchor="start" font-size="10" fill="#2c3e50">Band 3 (idx=3)</text>
  <defs><marker id="arw-20" markerWidth="8" markerHeight="6" refX="8" refY="3" orient="auto"><path d="M0,0 L8,3 L0,6" fill="#7f8c8d"/></marker></defs>
  <line x1="155" y1="205" x2="440" y2="172" stroke="#7f8c8d" stroke-width="2" marker-end="url(#arw-20)"/>
  <text x="297.5" y="178.5" text-anchor="middle" font-size="12" fill="#2c3e50">GROUP BY</text>
  <text x="440.0" y="478" text-anchor="middle" font-size="10" fill="#7f8c8d">RS_Union_Aggr(raster, index)</text>
</svg>