<svg xmlns="http://www.w3.org/2000/svg" viewBox="0 0 500 300" width="500" height="300" style="background:#ffffff">
  <defs>
    <style>
      text { font-family: 'Segoe UI', Arial, Helvetica, sans-serif; }
    </style>
  </defs>
  <text x="250" y="22" text-anchor="middle" font-size="16" font-weight="bold" fill="#333333">ST_OffsetCurve</text>
  <!-- Input: L-shaped line -->
  <polyline points="60,200 280,200 280,60" fill="none" stroke="#4a90d9" stroke-width="3" />
  <text x="170" y="190" text-anchor="middle" font-size="13" font-weight="bold" fill="#4a90d9">Input</text>
  <!-- Positive offset (left side) = inner side, clipped corner -->
  <polyline points="60,160 240,160 240,60" fill="none" stroke="#2ecc71" stroke-width="2.5" />
  <text x="150" y="152" font-size="12" font-weight="bold" fill="#2ecc71">+d (left)</text>
  <!-- Negative offset (right side) = outer side, arc at corner -->
  <polyline points="60,240 280,240 298,239 314,235 326,228 334,218 340,206 340,60"
    fill="none" stroke="#e67e22" stroke-width="2.5" stroke-dasharray="8,4" />
  <text x="350" y="248" font-size="12" font-weight="bold" fill="#e67e22">−d (right)</text>
  <!-- Distance markers -->
  <line x1="130" y1="160" x2="130" y2="200" stroke="#999" stroke-width="1" stroke-dasharray="3,2" />
  <line x1="126" y1="160" x2="134" y2="160" stroke="#999" stroke-width="1" />
  <line x1="126" y1="200" x2="134" y2="200" stroke="#999" stroke-width="1" />
  <text x="136" y="184" font-size="12" font-weight="bold" fill="#999">d</text>
  <line x1="130" y1="200" x2="130" y2="240" stroke="#999" stroke-width="1" stroke-dasharray="3,2" />
  <line x1="126" y1="240" x2="134" y2="240" stroke="#999" stroke-width="1" />
  <text x="136" y="224" font-size="12" font-weight="bold" fill="#999">d</text>
  <!-- Arc label -->
  <text x="355" y="195" font-size="11" font-style="italic" fill="#e67e22">arc</text>
  <!-- Caption -->
  <text x="250" y="282" text-anchor="middle" font-size="13" fill="#333333" font-style="italic">Returns a line offset by distance d from the input</text>
  <!-- Legend -->
  <rect x="63" y="250" width="12" height="12" rx="2" fill="#4a90d9" stroke="#4a90d9" stroke-width="1" />
  <text x="79" y="261" font-size="13" fill="#333333">Input line</text>
  <rect x="173" y="250" width="12" height="12" rx="2" fill="#2ecc71" stroke="#2ecc71" stroke-width="1" />
  <text x="189" y="261" font-size="13" fill="#333333">Positive offset</text>
  <rect x="313" y="250" width="12" height="12" rx="2" fill="#e67e22" stroke="#e67e22" stroke-width="1" />
  <text x="329" y="261" font-size="13" fill="#333333">Negative offset</text>
</svg>
