<svg xmlns="http://www.w3.org/2000/svg" viewBox="0 0 500 300" width="500" height="300" style="background:#ffffff">
  <defs>
    <style>
      text { font-family: 'Segoe UI', Arial, Helvetica, sans-serif; }
    </style>
  </defs>
  <text x="250" y="22" text-anchor="middle" font-size="16" font-weight="bold" fill="#333333">ST_OffsetCurve — Negative Offset on L-shape</text>
  <!-- Mapping: x range [0,13] → [60,450], y range [-3,10] → [245,35] -->
  <!-- cx = x*30+60, cy = 245 - (y+3)*16.15 -->

  <!-- Input: LINESTRING(0 0, 10 0, 10 10) -->
  <polyline points="60,196 360,196 360,35" fill="none" stroke="#4a90d9" stroke-width="3" />
  <circle cx="60" cy="196" r="4" fill="#4a90d9" />
  <circle cx="360" cy="196" r="4" fill="#4a90d9" />
  <circle cx="360" cy="35" r="4" fill="#4a90d9" />
  <text x="40" y="192" font-size="11" fill="#4a90d9">(0, 0)</text>
  <text x="324" y="192" font-size="11" fill="#4a90d9">(10, 0)</text>
  <text x="364" y="33" font-size="11" fill="#4a90d9">(10, 10)</text>

  <!-- Result: actual JTS output with 9 arc segments (default qs=8) -->
  <polyline points="60,245 360,245 377,244 394,240 410,235 424,228 435,219 443,209 448,199 450,196 450,35"
    fill="none" stroke="#e67e22" stroke-width="3" />
  <!-- Vertex dots on arc segments -->
  <circle cx="60" cy="245" r="4" fill="#e67e22" />
  <circle cx="360" cy="245" r="3" fill="#e67e22" />
  <circle cx="377" cy="244" r="3" fill="#e67e22" />
  <circle cx="394" cy="240" r="3" fill="#e67e22" />
  <circle cx="410" cy="235" r="3" fill="#e67e22" />
  <circle cx="424" cy="228" r="3" fill="#e67e22" />
  <circle cx="435" cy="219" r="3" fill="#e67e22" />
  <circle cx="443" cy="209" r="3" fill="#e67e22" />
  <circle cx="448" cy="199" r="3" fill="#e67e22" />
  <circle cx="450" cy="196" r="3" fill="#e67e22" />
  <circle cx="450" cy="35" r="4" fill="#e67e22" />
  <text x="40" y="253" font-size="11" fill="#e67e22">(0, -3)</text>
  <text x="453" y="41" font-size="11" fill="#e67e22">(13, 10)</text>

  <!-- Distance marker -->
  <line x1="200" y1="196" x2="200" y2="245" stroke="#999" stroke-width="1" stroke-dasharray="3,2" />
  <line x1="196" y1="196" x2="204" y2="196" stroke="#999" stroke-width="1" />
  <line x1="196" y1="245" x2="204" y2="245" stroke="#999" stroke-width="1" />
  <text x="207" y="224" font-size="12" font-weight="bold" fill="#999">d = 3</text>

  <!-- Point count annotation -->
  <text x="460" y="224" font-size="11" fill="#e67e22">11 points</text>
  <text x="460" y="237" font-size="11" fill="#e67e22">(9 on arc)</text>

  <!-- Caption -->
  <text x="250" y="290" text-anchor="middle" font-size="13" fill="#333333" font-style="italic">Negative offset creates a segmented arc at the outer corner</text>
  <!-- Legend -->
  <rect x="73" y="265" width="12" height="12" rx="2" fill="#4a90d9" stroke="#4a90d9" stroke-width="1" />
  <text x="89" y="276" font-size="13" fill="#333333">Input line</text>
  <rect x="253" y="265" width="12" height="12" rx="2" fill="#e67e22" stroke="#e67e22" stroke-width="1" />
  <text x="269" y="276" font-size="13" fill="#333333">Offset curve (distance = -3.0)</text>
</svg>
