<svg xmlns="http://www.w3.org/2000/svg" viewBox="0 0 500 300" width="500" height="300" style="background:#ffffff">
  <defs>
    <style>
      text { font-family: 'Segoe UI', Arial, Helvetica, sans-serif; }
    </style>
  </defs>
  <text x="250" y="22" text-anchor="middle" font-size="16" font-weight="bold" fill="#333333">ST_OffsetCurve</text>
  <!-- Original line -->
  <polyline points="80,170 200,170 300,100 420,100" fill="none" stroke="#4a90d9" stroke-width="3" />
  <text x="250" y="155" text-anchor="middle" font-size="13" font-weight="bold" fill="#4a90d9">Input</text>
  <!-- Positive offset (left side) -->
  <polyline points="80,130 200,130 300,60 420,60" fill="none" stroke="#2ecc71" stroke-width="2.5" />
  <text x="420" y="55" font-size="12" font-weight="bold" fill="#2ecc71">+d (left)</text>
  <!-- Negative offset (right side) -->
  <polyline points="80,210 200,210 300,140 420,140" fill="none" stroke="#e67e22" stroke-width="2.5" stroke-dasharray="8,4" />
  <text x="420" y="155" font-size="12" font-weight="bold" fill="#e67e22">−d (right)</text>
  <!-- Distance markers -->
  <line x1="130" y1="130" x2="130" y2="170" stroke="#999" stroke-width="1" stroke-dasharray="3,2" />
  <line x1="126" y1="130" x2="134" y2="130" stroke="#999" stroke-width="1" />
  <line x1="126" y1="170" x2="134" y2="170" stroke="#999" stroke-width="1" />
  <text x="138" y="154" font-size="12" font-weight="bold" fill="#999">d</text>
  <line x1="130" y1="170" x2="130" y2="210" stroke="#999" stroke-width="1" stroke-dasharray="3,2" />
  <line x1="126" y1="210" x2="134" y2="210" stroke="#999" stroke-width="1" />
  <text x="138" y="194" font-size="12" font-weight="bold" fill="#999">d</text>
  <!-- Caption -->
  <text x="250" y="282" text-anchor="middle" font-size="13" fill="#333333" font-style="italic">Returns a line offset by distance d from the input</text>
  <!-- Legend -->
  <rect x="63" y="245" width="12" height="12" rx="2" fill="#4a90d9" stroke="#4a90d9" stroke-width="1" />
  <text x="79" y="256" font-size="13" fill="#333333">Input line</text>
  <rect x="173" y="245" width="12" height="12" rx="2" fill="#2ecc71" stroke="#2ecc71" stroke-width="1" />
  <text x="189" y="256" font-size="13" fill="#333333">Positive offset</text>
  <rect x="313" y="245" width="12" height="12" rx="2" fill="#e67e22" stroke="#e67e22" stroke-width="1" />
  <text x="329" y="256" font-size="13" fill="#333333">Negative offset</text>
</svg>
