<svg width="32" height="32" viewBox="0 0 32 32" fill="none" xmlns="http://www.w3.org/2000/svg">
<path d="M8.66663 10.6667C8.66663 12.1394 9.86053 13.3333 11.3333 13.3333C12.8061 13.3333 14 12.1394 14 10.6667C14 9.19391 12.8061 8 11.3333 8C9.86053 8 8.66663 9.19391 8.66663 10.6667Z" stroke="#CA463A" stroke-width="2" stroke-linecap="round" stroke-linejoin="round"/>
<path d="M27.9031 13.3197C19.0882 12.1096 11.4882 18.6536 12 27.3333" stroke="#CA463A" stroke-width="2" stroke-linecap="round" stroke-linejoin="round"/>
<path d="M4 17.4207C7.70581 16.9076 11.0331 18.6992 12.8314 21.5545" stroke="#CA463A" stroke-width="2" stroke-linecap="round" stroke-linejoin="round"/>
<path d="M4 12.5333C4 9.54639 4 8.05291 4.5813 6.91205C5.09262 5.90852 5.90852 5.09262 6.91205 4.5813C8.05291 4 9.54639 4 12.5333 4H19.4667C22.4536 4 23.9471 4 25.0879 4.5813C26.0915 5.09262 26.9074 5.90852 27.4187 6.91205C28 8.05291 28 9.54639 28 12.5333V19.4667C28 22.4536 28 23.9471 27.4187 25.0879C26.9074 26.0915 26.0915 26.9074 25.0879 27.4187C23.9471 28 22.4536 28 19.4667 28H12.5333C9.54639 28 8.05291 28 6.91205 27.4187C5.90852 26.9074 5.09262 26.0915 4.5813 25.0879C4 23.9471 4 22.4536 4 19.4667V12.5333Z" stroke="#CA463A" stroke-width="2" stroke-linecap="round" stroke-linejoin="round"/>
</svg>
