<svg xmlns="http://www.w3.org/2000/svg" width="400" height="150" viewBox="0 0 400 150">
  <rect width="400" height="150" fill="#f5f5f5" rx="5"/>
  <text x="200" y="18" font-family="monospace" font-size="12" fill="#333" text-anchor="middle" font-weight="bold">ST_LineLocatePoint</text>
  <text x="200" y="32" font-family="monospace" font-size="9" fill="#888" text-anchor="middle">Returns fraction = 0.35</text>
  <polyline points="138.8,115.0 173.8,62.5 226.2,80.0 261.2,45.0" fill="none" stroke="#1565C0" stroke-width="2"/>
  <circle cx="138.8" cy="115.0" r="2.5" fill="#1565C0"/>
  <circle cx="173.8" cy="62.5" r="2.5" fill="#1565C0"/>
  <circle cx="226.2" cy="80.0" r="2.5" fill="#1565C0"/>
  <circle cx="261.2" cy="45.0" r="2.5" fill="#1565C0"/>
  <circle cx="191.2" cy="106.2" r="5" fill="#FF9800" stroke="#fff" stroke-width="1"/>
  <text x="191.2" y="98.2" font-family="monospace" font-size="9" fill="#FF9800" text-anchor="middle">Point</text>
  <circle cx="171.4" cy="66.1" r="4" fill="#E53935" stroke="#fff" stroke-width="1"/>
  <text x="171.4" y="58.1" font-family="monospace" font-size="9" fill="#E53935" text-anchor="middle">Closest</text>
  <line x1="191.2" y1="106.2" x2="171.4" y2="66.1" stroke="#999" stroke-width="1" stroke-dasharray="3,2"/>
  <rect x="65" y="132" width="8" height="8" fill="rgba(21,101,192,0.2)" stroke="#1565C0" stroke-width="1"/>
  <text x="77" y="140" font-family="monospace" font-size="9" fill="#1565C0">LineString</text>
  <rect x="155" y="132" width="8" height="8" fill="#FF9800" stroke="#FF9800" stroke-width="1"/>
  <text x="167" y="140" font-family="monospace" font-size="9" fill="#FF9800">Query</text>
  <rect x="245" y="132" width="8" height="8" fill="#E53935" stroke="#E53935" stroke-width="1"/>
  <text x="257" y="140" font-family="monospace" font-size="9" fill="#E53935">Closest</text>
</svg>