<svg xmlns="http://www.w3.org/2000/svg" width="360" height="275" viewBox="0 0 360 275" role="img" aria-label="ST_3DExtent aggregates points into an enclosing cuboid"><defs><marker id="arr" markerWidth="8" markerHeight="8" refX="6" refY="3" orient="auto"><path d="M0,0 L6,3 L0,6 Z" fill="#888"/></marker></defs><rect width="360" height="275" fill="white"/><line x1="160.0" y1="165.0" x2="220.6" y2="200.0" stroke="#888" stroke-width="1.2" marker-end="url(#arr)"/><text x="224.6" y="204.0" font-size="13" fill="#888" font-family="sans-serif" font-style="italic">x</text><line x1="160.0" y1="165.0" x2="99.4" y2="200.0" stroke="#888" stroke-width="1.2" marker-end="url(#arr)"/><text x="89.4" y="204.0" font-size="13" fill="#888" font-family="sans-serif" font-style="italic">y</text><line x1="160.0" y1="165.0" x2="160.0" y2="95.0" stroke="#888" stroke-width="1.2" marker-end="url(#arr)"/><text x="156.0" y="89.0" font-size="13" fill="#888" font-family="sans-serif" font-style="italic">z</text><polygon points="103.7,142.5 168.7,180.0 168.7,240.0 103.7,202.5" fill="#9ec5e3" fill-opacity="0.3" stroke="#33485e" stroke-width="1.4" stroke-linejoin="round"/><polygon points="225.0,147.5 168.7,180.0 168.7,240.0 225.0,207.5" fill="#7fa9d0" fill-opacity="0.3" stroke="#33485e" stroke-width="1.4" stroke-linejoin="round"/><polygon points="160.0,110.0 225.0,147.5 168.7,180.0 103.7,142.5" fill="#cfe3f3" fill-opacity="0.3" stroke="#33485e" stroke-width="1.4" stroke-linejoin="round"/><circle cx="160.0" cy="170.0" r="3.5" fill="#c62828"/><circle cx="203.3" cy="160.0" r="3.5" fill="#c62828"/><circle cx="134.0" cy="200.0" r="3.5" fill="#c62828"/><circle cx="164.3" cy="167.5" r="3.5" fill="#c62828"/><circle cx="142.7" cy="145.0" r="3.5" fill="#c62828"/><text x="175" y="28" font-size="15" fill="#1b2a38" font-family="sans-serif" font-weight="bold" text-anchor="middle">ST_3DExtent(geom)</text><text x="175" y="258" font-size="11" fill="#1b2a38" font-family="sans-serif" font-weight="normal" text-anchor="middle">enclosing cuboid over a column of geometries</text></svg>