<svg xmlns="http://www.w3.org/2000/svg" viewBox="0 0 400 300" width="400" height="300" style="background:#ffffff">
  <defs>
    <style>
      text { font-family: 'Segoe UI', Arial, Helvetica, sans-serif; }
    </style>
  </defs>
  <text x="200" y="22" text-anchor="middle" font-size="16" font-weight="bold" fill="#333333">ST_OrderingEquals(A, B)</text>
  <rect x="325" y="8" width="60" height="22" rx="4" fill="#c0392b" />
  <text x="355" y="24" text-anchor="middle" font-size="12" font-weight="bold" fill="white">FALSE</text>
  <line x1="200" y1="35" x2="200" y2="270" stroke="#ddd" stroke-width="1" stroke-dasharray="4,4" />
  <text x="100" y="45" text-anchor="middle" font-size="15" font-weight="bold" fill="#4a90d9">Geometry A</text>
  <text x="300" y="45" text-anchor="middle" font-size="15" font-weight="bold" fill="#d94a4a">Geometry B</text>
  <path d="M 150.0 177.5 L 100.0 102.5 L 50.0 177.5 L 150.0 177.5 Z" fill="rgba(74,144,217,0.25)" stroke="#4a90d9" stroke-width="2.5" fill-rule="evenodd" />
  <circle cx="150.0" cy="177.5" r="9" fill="white" stroke="#4a90d9" stroke-width="1.5" />
  <text x="150.0" y="181.5" text-anchor="middle" font-size="10" font-weight="bold" fill="#4a90d9">1</text>
  <circle cx="100.0" cy="102.5" r="9" fill="white" stroke="#4a90d9" stroke-width="1.5" />
  <text x="100.0" y="106.5" text-anchor="middle" font-size="10" font-weight="bold" fill="#4a90d9">2</text>
  <circle cx="50.0" cy="177.5" r="9" fill="white" stroke="#4a90d9" stroke-width="1.5" />
  <text x="50.0" y="181.5" text-anchor="middle" font-size="10" font-weight="bold" fill="#4a90d9">3</text>
  <polygon points="125.0,140.0 126.39,151.09 134.71,145.55" fill="#4a90d9" />
  <path d="M 300.0 102.5 L 250.0 177.5 L 350.0 177.5 L 300.0 102.5 Z" fill="rgba(217,74,74,0.25)" stroke="#d94a4a" stroke-width="2.5" fill-rule="evenodd" />
  <circle cx="300.0" cy="102.5" r="9" fill="white" stroke="#d94a4a" stroke-width="1.5" />
  <text x="300.0" y="106.5" text-anchor="middle" font-size="10" font-weight="bold" fill="#d94a4a">1</text>
  <circle cx="250.0" cy="177.5" r="9" fill="white" stroke="#d94a4a" stroke-width="1.5" />
  <text x="250.0" y="181.5" text-anchor="middle" font-size="10" font-weight="bold" fill="#d94a4a">2</text>
  <circle cx="350.0" cy="177.5" r="9" fill="white" stroke="#d94a4a" stroke-width="1.5" />
  <text x="350.0" y="181.5" text-anchor="middle" font-size="10" font-weight="bold" fill="#d94a4a">3</text>
  <polygon points="275.0,140.0 284.71,134.45 276.39,128.91" fill="#d94a4a" />
  <text x="200" y="290" text-anchor="middle" font-size="12" fill="#666666" font-style="italic">Same geometry, different start vertex</text>
</svg>