<svg xmlns="http://www.w3.org/2000/svg" width="700" height="370" viewBox="0 0 700 370" font-family="Arial, Helvetica, sans-serif">
<rect width="700" height="370" fill="white"/>
<text x="350" y="28" text-anchor="middle" font-size="17" fill="#333" font-weight="bold" font-style="normal">RS_SkewY</text><text x="350" y="48" text-anchor="middle" font-size="12" fill="#666" font-weight="normal" font-style="normal">Y skew: vertical shift per column</text><text x="160.0" y="80" text-anchor="middle" font-size="13" fill="#333" font-weight="bold" font-style="normal">SkewY = 0</text><rect x="60" y="90" width="200" height="200" fill="#E3F2FD" stroke="#1565C0" stroke-width="1.5"/>
<line x1="110" y1="90" x2="110" y2="290" stroke="#1565C0" stroke-width="0.8" opacity="0.5"/>
<line x1="160" y1="90" x2="160" y2="290" stroke="#1565C0" stroke-width="0.8" opacity="0.5"/>
<line x1="210" y1="90" x2="210" y2="290" stroke="#1565C0" stroke-width="0.8" opacity="0.5"/>
<line x1="60" y1="140" x2="260" y2="140" stroke="#1565C0" stroke-width="0.8" opacity="0.5"/>
<line x1="60" y1="190" x2="260" y2="190" stroke="#1565C0" stroke-width="0.8" opacity="0.5"/>
<line x1="60" y1="240" x2="260" y2="240" stroke="#1565C0" stroke-width="0.8" opacity="0.5"/><text x="355" y="190.0" text-anchor="middle" font-size="28" fill="#333" font-weight="bold" font-style="normal">→</text><text x="500.0" y="80" text-anchor="middle" font-size="13" fill="#333" font-weight="bold" font-style="normal">SkewY = 0.2</text><polygon points="400.0,90.0 600.0,138.0 600.0,338.0 400.0,290.0" fill="#E3F2FD" stroke="#1565C0" stroke-width="1.5" opacity="1.0"/>
<line x1="450.0" y1="102.0" x2="450.0" y2="302.0" stroke="#1565C0" stroke-width="0.8" opacity="0.4"/>
<line x1="500.0" y1="114.0" x2="500.0" y2="314.0" stroke="#1565C0" stroke-width="0.8" opacity="0.4"/>
<line x1="550.0" y1="126.0" x2="550.0" y2="326.0" stroke="#1565C0" stroke-width="0.8" opacity="0.4"/>
<line x1="400.0" y1="140.0" x2="600.0" y2="188.0" stroke="#1565C0" stroke-width="0.8" opacity="0.4"/>
<line x1="400.0" y1="190.0" x2="600.0" y2="238.0" stroke="#1565C0" stroke-width="0.8" opacity="0.4"/>
<line x1="400.0" y1="240.0" x2="600.0" y2="288.0" stroke="#1565C0" stroke-width="0.8" opacity="0.4"/><line x1="620" y1="90" x2="620" y2="138" stroke="#D32F2F" stroke-width="2"/>
<polygon points="620,138 616.2,132.1 623.8,132.1" fill="#D32F2F"/>
<polygon points="620,90 623.8,95.9 616.2,95.9" fill="#D32F2F"/><text x="630" y="118.0" text-anchor="start" font-size="11" fill="#D32F2F" font-weight="bold" font-style="normal">SkewY × 4 cols</text><line x1="600" y1="90" x2="615" y2="90" stroke="#D32F2F" stroke-width="1" stroke-dasharray="3,3"/><line x1="600" y1="138" x2="615" y2="138" stroke="#D32F2F" stroke-width="1" stroke-dasharray="3,3"/><text x="350" y="355" text-anchor="middle" font-size="11" fill="#666" font-weight="normal" font-style="italic">Each column shifts vertically by SkewY CRS units</text></svg>