<svg xmlns="http://www.w3.org/2000/svg" width="400" height="190" viewBox="0 0 400 190">
  <rect width="400" height="190" fill="#f5f5f5" rx="5"/>
  <text x="200" y="18" font-family="monospace" font-size="12" fill="#333" text-anchor="middle" font-weight="bold">ST_BingTileZoomLevel</text>
  <text x="200" y="32" font-family="monospace" font-size="9" fill="#888" text-anchor="middle">Get zoom level from quadkey</text>
  <rect x="35" y="52" width="31" height="31" fill="#fff" stroke="#ccc" stroke-width="0.8"/>
  <rect x="35" y="83" width="31" height="31" fill="#fff" stroke="#ccc" stroke-width="0.8"/>
  <rect x="66" y="52" width="31" height="31" fill="#fff" stroke="#ccc" stroke-width="0.8"/>
  <rect x="66" y="83" width="31" height="31" fill="#fff" stroke="#ccc" stroke-width="0.8"/>
  <text x="66" y="128" font-family="monospace" font-size="9" fill="#999" text-anchor="middle">Zoom 1</text>
  <rect x="125" y="52" width="15" height="15" fill="#fff" stroke="#ccc" stroke-width="0.8"/>
  <rect x="125" y="67" width="15" height="15" fill="#fff" stroke="#ccc" stroke-width="0.8"/>
  <rect x="125" y="82" width="15" height="15" fill="#fff" stroke="#ccc" stroke-width="0.8"/>
  <rect x="125" y="97" width="15" height="15" fill="#fff" stroke="#ccc" stroke-width="0.8"/>
  <rect x="140" y="52" width="15" height="15" fill="#fff" stroke="#ccc" stroke-width="0.8"/>
  <rect x="140" y="67" width="15" height="15" fill="#fff" stroke="#ccc" stroke-width="0.8"/>
  <rect x="140" y="82" width="15" height="15" fill="#fff" stroke="#ccc" stroke-width="0.8"/>
  <rect x="140" y="97" width="15" height="15" fill="#fff" stroke="#ccc" stroke-width="0.8"/>
  <rect x="155" y="52" width="15" height="15" fill="#fff" stroke="#ccc" stroke-width="0.8"/>
  <rect x="155" y="67" width="15" height="15" fill="#fff" stroke="#ccc" stroke-width="0.8"/>
  <rect x="155" y="82" width="15" height="15" fill="#fff" stroke="#ccc" stroke-width="0.8"/>
  <rect x="155" y="97" width="15" height="15" fill="#fff" stroke="#ccc" stroke-width="0.8"/>
  <rect x="170" y="52" width="15" height="15" fill="#fff" stroke="#ccc" stroke-width="0.8"/>
  <rect x="170" y="67" width="15" height="15" fill="#fff" stroke="#ccc" stroke-width="0.8"/>
  <rect x="170" y="82" width="15" height="15" fill="#fff" stroke="#ccc" stroke-width="0.8"/>
  <rect x="170" y="97" width="15" height="15" fill="#fff" stroke="#ccc" stroke-width="0.8"/>
  <text x="156" y="128" font-family="monospace" font-size="9" fill="#999" text-anchor="middle">Zoom 2</text>
  <rect x="215.0" y="52.0" width="7.8" height="7.8" fill="#fff" stroke="#ddd" stroke-width="0.5"/>
  <rect x="215.0" y="59.8" width="7.8" height="7.8" fill="#fff" stroke="#ddd" stroke-width="0.5"/>
  <rect x="215.0" y="67.5" width="7.8" height="7.8" fill="#fff" stroke="#ddd" stroke-width="0.5"/>
  <rect x="215.0" y="75.2" width="7.8" height="7.8" fill="#fff" stroke="#ddd" stroke-width="0.5"/>
  <rect x="215.0" y="83.0" width="7.8" height="7.8" fill="#fff" stroke="#ddd" stroke-width="0.5"/>
  <rect x="215.0" y="90.8" width="7.8" height="7.8" fill="#fff" stroke="#ddd" stroke-width="0.5"/>
  <rect x="215.0" y="98.5" width="7.8" height="7.8" fill="#fff" stroke="#ddd" stroke-width="0.5"/>
  <rect x="215.0" y="106.2" width="7.8" height="7.8" fill="#fff" stroke="#ddd" stroke-width="0.5"/>
  <rect x="222.8" y="52.0" width="7.8" height="7.8" fill="#fff" stroke="#ddd" stroke-width="0.5"/>
  <rect x="222.8" y="59.8" width="7.8" height="7.8" fill="#fff" stroke="#ddd" stroke-width="0.5"/>
  <rect x="222.8" y="67.5" width="7.8" height="7.8" fill="#fff" stroke="#ddd" stroke-width="0.5"/>
  <rect x="222.8" y="75.2" width="7.8" height="7.8" fill="#fff" stroke="#ddd" stroke-width="0.5"/>
  <rect x="222.8" y="83.0" width="7.8" height="7.8" fill="#fff" stroke="#ddd" stroke-width="0.5"/>
  <rect x="222.8" y="90.8" width="7.8" height="7.8" fill="#fff" stroke="#ddd" stroke-width="0.5"/>
  <rect x="222.8" y="98.5" width="7.8" height="7.8" fill="#fff" stroke="#ddd" stroke-width="0.5"/>
  <rect x="222.8" y="106.2" width="7.8" height="7.8" fill="#fff" stroke="#ddd" stroke-width="0.5"/>
  <rect x="230.5" y="52.0" width="7.8" height="7.8" fill="#fff" stroke="#ddd" stroke-width="0.5"/>
  <rect x="230.5" y="59.8" width="7.8" height="7.8" fill="#fff" stroke="#ddd" stroke-width="0.5"/>
  <rect x="230.5" y="67.5" width="7.8" height="7.8" fill="#fff" stroke="#ddd" stroke-width="0.5"/>
  <rect x="230.5" y="75.2" width="7.8" height="7.8" fill="#fff" stroke="#ddd" stroke-width="0.5"/>
  <rect x="230.5" y="83.0" width="7.8" height="7.8" fill="#fff" stroke="#ddd" stroke-width="0.5"/>
  <rect x="230.5" y="90.8" width="7.8" height="7.8" fill="#fff" stroke="#ddd" stroke-width="0.5"/>
  <rect x="230.5" y="98.5" width="7.8" height="7.8" fill="#fff" stroke="#ddd" stroke-width="0.5"/>
  <rect x="230.5" y="106.2" width="7.8" height="7.8" fill="#fff" stroke="#ddd" stroke-width="0.5"/>
  <rect x="238.2" y="52.0" width="7.8" height="7.8" fill="#fff" stroke="#ddd" stroke-width="0.5"/>
  <rect x="238.2" y="59.8" width="7.8" height="7.8" fill="#fff" stroke="#ddd" stroke-width="0.5"/>
  <rect x="238.2" y="67.5" width="7.8" height="7.8" fill="#fff" stroke="#ddd" stroke-width="0.5"/>
  <rect x="238.2" y="75.2" width="7.8" height="7.8" fill="#fff" stroke="#ddd" stroke-width="0.5"/>
  <rect x="238.2" y="83.0" width="7.8" height="7.8" fill="#fff" stroke="#ddd" stroke-width="0.5"/>
  <rect x="238.2" y="90.8" width="7.8" height="7.8" fill="#fff" stroke="#ddd" stroke-width="0.5"/>
  <rect x="238.2" y="98.5" width="7.8" height="7.8" fill="#fff" stroke="#ddd" stroke-width="0.5"/>
  <rect x="238.2" y="106.2" width="7.8" height="7.8" fill="#fff" stroke="#ddd" stroke-width="0.5"/>
  <rect x="246.0" y="52.0" width="7.8" height="7.8" fill="#fff" stroke="#ddd" stroke-width="0.5"/>
  <rect x="246.0" y="59.8" width="7.8" height="7.8" fill="#fff" stroke="#ddd" stroke-width="0.5"/>
  <rect x="246.0" y="67.5" width="7.8" height="7.8" fill="#fff" stroke="#ddd" stroke-width="0.5"/>
  <rect x="246.0" y="75.2" width="7.8" height="7.8" fill="#fff" stroke="#ddd" stroke-width="0.5"/>
  <rect x="246.0" y="83.0" width="7.8" height="7.8" fill="#fff" stroke="#ddd" stroke-width="0.5"/>
  <rect x="246.0" y="90.8" width="7.8" height="7.8" fill="#fff" stroke="#ddd" stroke-width="0.5"/>
  <rect x="246.0" y="98.5" width="7.8" height="7.8" fill="#fff" stroke="#ddd" stroke-width="0.5"/>
  <rect x="246.0" y="106.2" width="7.8" height="7.8" fill="#fff" stroke="#ddd" stroke-width="0.5"/>
  <rect x="253.8" y="52.0" width="7.8" height="7.8" fill="#fff" stroke="#ddd" stroke-width="0.5"/>
  <rect x="253.8" y="59.8" width="7.8" height="7.8" fill="#fff" stroke="#ddd" stroke-width="0.5"/>
  <rect x="253.8" y="67.5" width="7.8" height="7.8" fill="#fff" stroke="#ddd" stroke-width="0.5"/>
  <rect x="253.8" y="75.2" width="7.8" height="7.8" fill="#fff" stroke="#ddd" stroke-width="0.5"/>
  <rect x="253.8" y="83.0" width="7.8" height="7.8" fill="#fff" stroke="#ddd" stroke-width="0.5"/>
  <rect x="253.8" y="90.8" width="7.8" height="7.8" fill="#fff" stroke="#ddd" stroke-width="0.5"/>
  <rect x="253.8" y="98.5" width="7.8" height="7.8" fill="#fff" stroke="#ddd" stroke-width="0.5"/>
  <rect x="253.8" y="106.2" width="7.8" height="7.8" fill="#fff" stroke="#ddd" stroke-width="0.5"/>
  <rect x="261.5" y="52.0" width="7.8" height="7.8" fill="#fff" stroke="#ddd" stroke-width="0.5"/>
  <rect x="261.5" y="59.8" width="7.8" height="7.8" fill="#fff" stroke="#ddd" stroke-width="0.5"/>
  <rect x="261.5" y="67.5" width="7.8" height="7.8" fill="#fff" stroke="#ddd" stroke-width="0.5"/>
  <rect x="261.5" y="75.2" width="7.8" height="7.8" fill="#fff" stroke="#ddd" stroke-width="0.5"/>
  <rect x="261.5" y="83.0" width="7.8" height="7.8" fill="#fff" stroke="#ddd" stroke-width="0.5"/>
  <rect x="261.5" y="90.8" width="7.8" height="7.8" fill="#fff" stroke="#ddd" stroke-width="0.5"/>
  <rect x="261.5" y="98.5" width="7.8" height="7.8" fill="#fff" stroke="#ddd" stroke-width="0.5"/>
  <rect x="261.5" y="106.2" width="7.8" height="7.8" fill="#fff" stroke="#ddd" stroke-width="0.5"/>
  <rect x="269.2" y="52.0" width="7.8" height="7.8" fill="#fff" stroke="#ddd" stroke-width="0.5"/>
  <rect x="269.2" y="59.8" width="7.8" height="7.8" fill="#fff" stroke="#ddd" stroke-width="0.5"/>
  <rect x="269.2" y="67.5" width="7.8" height="7.8" fill="#fff" stroke="#ddd" stroke-width="0.5"/>
  <rect x="269.2" y="75.2" width="7.8" height="7.8" fill="#fff" stroke="#ddd" stroke-width="0.5"/>
  <rect x="269.2" y="83.0" width="7.8" height="7.8" fill="#fff" stroke="#ddd" stroke-width="0.5"/>
  <rect x="269.2" y="90.8" width="7.8" height="7.8" fill="#fff" stroke="#ddd" stroke-width="0.5"/>
  <rect x="269.2" y="98.5" width="7.8" height="7.8" fill="#fff" stroke="#ddd" stroke-width="0.5"/>
  <rect x="269.2" y="106.2" width="7.8" height="7.8" fill="#fff" stroke="#ddd" stroke-width="0.5"/>
  <rect x="238.2" y="67.5" width="7.8" height="7.8" fill="rgba(74,144,217,0.4)" stroke="#1565C0" stroke-width="1"/>
  <text x="246" y="128" font-family="monospace" font-size="9" fill="#1565C0" text-anchor="middle" font-weight="bold">Zoom 3</text>
  <text x="340" y="88" font-family="monospace" font-size="11" fill="#1565C0" font-weight="bold">Returns: 3</text>
  <text x="200" y="150" font-family="monospace" font-size="10" fill="#333" text-anchor="middle">Higher zoom = more tiles = finer resolution</text>
  <text x="200" y="168" font-family="monospace" font-size="10" fill="#666" text-anchor="middle">Returns the zoom level encoded in the quadkey</text>
</svg>