<svg xmlns="http://www.w3.org/2000/svg" viewBox="0 0 500 300" width="500" height="300" style="background:#ffffff">
  <defs>
    <style>
      text { font-family: 'Segoe UI', Arial, Helvetica, sans-serif; }
    </style>
    <marker id="arrowResult" markerWidth="8" markerHeight="6" refX="8" refY="3" orient="auto">
      <path d="M0,0 L8,3 L0,6" fill="#2ecc71" />
    </marker>
    <marker id="arrowA" markerWidth="7" markerHeight="5" refX="7" refY="2.5" orient="auto">
      <path d="M0,0 L7,2.5 L0,5" fill="#4a90d9" />
    </marker>
    <marker id="arrowGray" markerWidth="7" markerHeight="5" refX="7" refY="2.5" orient="auto">
      <path d="M0,0 L7,2.5 L0,5" fill="#999999" />
    </marker>
  </defs>
  <text x="250" y="22" text-anchor="middle" font-size="16" font-weight="bold" fill="#333333">ST_Segmentize</text>
  <polyline points="88.46,150.0 411.54,150.0" fill="none" stroke="#4a90d9" stroke-width="2" stroke-linecap="round" stroke-linejoin="round" stroke-dasharray="6,3" />
  <circle cx="88.46" cy="150.0" r="3" fill="#4a90d9" />
  <circle cx="411.54" cy="150.0" r="3" fill="#4a90d9" />
  <polyline points="88.46,150.0 169.23,150.0 250.0,150.0 330.77,150.0 411.54,150.0" fill="none" stroke="#2ecc71" stroke-width="3" stroke-linecap="round" stroke-linejoin="round" />
  <circle cx="88.46" cy="150.0" r="3" fill="#2ecc71" />
  <circle cx="169.23" cy="150.0" r="3" fill="#2ecc71" />
  <circle cx="250.0" cy="150.0" r="3" fill="#2ecc71" />
  <circle cx="330.77" cy="150.0" r="3" fill="#2ecc71" />
  <circle cx="411.54" cy="150.0" r="3" fill="#2ecc71" />
  <circle cx="88.46" cy="150.0" r="5" fill="#2ecc71" />
  <circle cx="169.23" cy="150.0" r="5" fill="#2ecc71" />
  <circle cx="250.0" cy="150.0" r="5" fill="#2ecc71" />
  <circle cx="330.77" cy="150.0" r="5" fill="#2ecc71" />
  <circle cx="411.54" cy="150.0" r="5" fill="#2ecc71" />
  <text x="129" y="136" text-anchor="middle" font-size="13" fill="#2ecc71" font-style="italic">max_length</text>
  <text x="250" y="292" text-anchor="middle" font-size="13" fill="#333333" font-style="italic">Splits long segments to ensure none exceeds the given length</text>
  <rect x="156" y="255" width="12" height="12" rx="2" fill="#4a90d9" stroke="#4a90d9" stroke-width="1" />
  <text x="172" y="266" font-size="13" fill="#333333">Input</text>
  <rect x="226" y="255" width="12" height="12" rx="2" fill="#2ecc71" stroke="#2ecc71" stroke-width="1" />
  <text x="242" y="266" font-size="13" fill="#333333">Segmentized</text>
</svg>