<svg xmlns="http://www.w3.org/2000/svg" viewBox="0 0 500 300" width="500" height="300" style="background:#ffffff">
  <defs>
    <style>
      text { font-family: 'Segoe UI', Arial, Helvetica, sans-serif; }
    </style>
    <marker id="arrowResult" markerWidth="8" markerHeight="6" refX="8" refY="3" orient="auto">
      <path d="M0,0 L8,3 L0,6" fill="#2ecc71" />
    </marker>
    <marker id="arrowA" markerWidth="7" markerHeight="5" refX="7" refY="2.5" orient="auto">
      <path d="M0,0 L7,2.5 L0,5" fill="#4a90d9" />
    </marker>
    <marker id="arrowGray" markerWidth="7" markerHeight="5" refX="7" refY="2.5" orient="auto">
      <path d="M0,0 L7,2.5 L0,5" fill="#999999" />
    </marker>
  </defs>
  <text x="250" y="22" text-anchor="middle" font-size="16" font-weight="bold" fill="#333333">ST_Polygon</text>
  <path d="M 131.08 224.32 L 368.92 224.32 L 368.92 75.68 L 131.08 75.68 L 131.08 224.32 Z" fill="rgba(46,204,113,0.25)" stroke="#2ecc71" stroke-width="2.5" fill-rule="evenodd" />
  <polyline points="131.08,224.32 368.92,224.32 368.92,75.68 131.08,75.68 131.08,224.32" fill="none" stroke="#4a90d9" stroke-width="2.5" stroke-linecap="round" stroke-linejoin="round" stroke-dasharray="6,3" />
  <circle cx="131.08" cy="224.32" r="3" fill="#4a90d9" />
  <circle cx="368.92" cy="224.32" r="3" fill="#4a90d9" />
  <circle cx="368.92" cy="75.68" r="3" fill="#4a90d9" />
  <circle cx="131.08" cy="75.68" r="3" fill="#4a90d9" />
  <circle cx="131.08" cy="224.32" r="3" fill="#4a90d9" />
  <text x="250" y="292" text-anchor="middle" font-size="13" fill="#333333" font-style="italic">Creates a Polygon from a LineString and sets the SRID</text>
  <rect x="100" y="255" width="12" height="12" rx="2" fill="#4a90d9" stroke="#4a90d9" stroke-width="1" />
  <text x="116" y="266" font-size="13" fill="#333333">Input LineString</text>
  <rect x="258" y="255" width="12" height="12" rx="2" fill="#2ecc71" stroke="#2ecc71" stroke-width="1" />
  <text x="274" y="266" font-size="13" fill="#333333">Result Polygon</text>
</svg>