<svg xmlns="http://www.w3.org/2000/svg" viewBox="0 0 500 300" width="500" height="300" style="background:#ffffff">
  <defs>
    <style>
      text { font-family: 'Segoe UI', Arial, Helvetica, sans-serif; }
    </style>
    <marker id="arrowResult" markerWidth="8" markerHeight="6" refX="8" refY="3" orient="auto">
      <path d="M0,0 L8,3 L0,6" fill="#2ecc71" />
    </marker>
    <marker id="arrowA" markerWidth="7" markerHeight="5" refX="7" refY="2.5" orient="auto">
      <path d="M0,0 L7,2.5 L0,5" fill="#4a90d9" />
    </marker>
    <marker id="arrowGray" markerWidth="7" markerHeight="5" refX="7" refY="2.5" orient="auto">
      <path d="M0,0 L7,2.5 L0,5" fill="#999999" />
    </marker>
  </defs>
  <text x="250" y="22" text-anchor="middle" font-size="16" font-weight="bold" fill="#333333">ST_Project</text>
  <polyline points="190.17,234.62 190.17,65.38" fill="none" stroke="#999999" stroke-width="2.5" stroke-linecap="round" stroke-linejoin="round" stroke-dasharray="4,3" />
  <circle cx="190.17" cy="234.62" r="3" fill="#999999" />
  <circle cx="190.17" cy="65.38" r="3" fill="#999999" />
  <text x="178" y="61" font-size="13" fill="#999999" font-weight="bold">N</text>
  <polyline points="190.17,234.62 309.83,114.95" fill="none" stroke="#2ecc71" stroke-width="2" stroke-linecap="round" stroke-linejoin="round" stroke-dasharray="5,3" />
  <circle cx="190.17" cy="234.62" r="3" fill="#2ecc71" />
  <circle cx="309.83" cy="114.95" r="3" fill="#2ecc71" />
  <circle cx="190.17" cy="234.62" r="5" fill="#4a90d9" stroke="#4a90d9" stroke-width="1.5" />
  <text x="150" y="251" font-size="13" fill="#4a90d9" font-weight="bold">start</text>
  <circle cx="309.83" cy="114.95" r="8" fill="white" stroke="#2ecc71" stroke-width="2.5" />
  <circle cx="309.83" cy="114.95" r="4" fill="#2ecc71" />
  <text x="320" y="105" font-size="13" fill="#2ecc71" font-weight="bold">projected</text>
  <text x="260" y="175" font-size="13" fill="#2ecc71" font-style="italic">distance</text>
  <path d="M 190.2 209.6 A 25 25 0 0 1 207.8 216.9" fill="none" stroke="#2ecc71" stroke-width="1.5" />
  <text x="204" y="204" text-anchor="middle" font-size="12" fill="#2ecc71" font-style="italic">azimuth</text>
  <text x="250" y="292" text-anchor="middle" font-size="13" fill="#333333" font-style="italic">Projects a point by distance and azimuth to a new location</text>
  <rect x="140" y="255" width="12" height="12" rx="2" fill="#4a90d9" stroke="#4a90d9" stroke-width="1" />
  <text x="156" y="266" font-size="13" fill="#333333">Start point</text>
  <rect x="258" y="255" width="12" height="12" rx="2" fill="#2ecc71" stroke="#2ecc71" stroke-width="1" />
  <text x="274" y="266" font-size="13" fill="#333333">Projected</text>
</svg>