<svg xmlns="http://www.w3.org/2000/svg" width="400" height="170" viewBox="0 0 400 170">
  <rect width="400" height="170" fill="#f5f5f5" rx="5"/>
  <text x="200" y="18" font-family="monospace" font-size="12" fill="#333" text-anchor="middle" font-weight="bold">ST_LocalOutlierFactor</text>
  <text x="200" y="32" font-family="monospace" font-size="9" fill="#888" text-anchor="middle">k=5</text>
  <circle cx="163.4" cy="118.1" r="4" fill="#1565C0" fill-opacity="0.6" stroke="#fff" stroke-width="1"/>
  <circle cx="170.3" cy="113.6" r="4" fill="#1565C0" fill-opacity="0.6" stroke="#fff" stroke-width="1"/>
  <circle cx="158.9" cy="120.4" r="4" fill="#1565C0" fill-opacity="0.6" stroke="#fff" stroke-width="1"/>
  <circle cx="165.7" cy="125.0" r="4" fill="#1565C0" fill-opacity="0.6" stroke="#fff" stroke-width="1"/>
  <circle cx="172.6" cy="115.9" r="4" fill="#1565C0" fill-opacity="0.6" stroke="#fff" stroke-width="1"/>
  <circle cx="232.0" cy="49.6" r="4" fill="#1565C0" fill-opacity="0.6" stroke="#fff" stroke-width="1"/>
  <circle cx="236.6" cy="54.1" r="4" fill="#1565C0" fill-opacity="0.6" stroke="#fff" stroke-width="1"/>
  <circle cx="229.7" cy="47.3" r="4" fill="#1565C0" fill-opacity="0.6" stroke="#fff" stroke-width="1"/>
  <circle cx="238.9" cy="45.0" r="4" fill="#1565C0" fill-opacity="0.6" stroke="#fff" stroke-width="1"/>
  <circle cx="227.4" cy="56.4" r="4" fill="#1565C0" fill-opacity="0.6" stroke="#fff" stroke-width="1"/>
  <circle cx="232.0" cy="118.1" r="4" fill="#1565C0" fill-opacity="0.6" stroke="#fff" stroke-width="1"/>
  <circle cx="238.9" cy="122.7" r="4" fill="#1565C0" fill-opacity="0.6" stroke="#fff" stroke-width="1"/>
  <circle cx="227.4" cy="113.6" r="4" fill="#1565C0" fill-opacity="0.6" stroke="#fff" stroke-width="1"/>
  <circle cx="234.3" cy="111.3" r="4" fill="#1565C0" fill-opacity="0.6" stroke="#fff" stroke-width="1"/>
  <circle cx="241.1" cy="118.1" r="4" fill="#1565C0" fill-opacity="0.6" stroke="#fff" stroke-width="1"/>
  <circle cx="197.7" cy="61.0" r="10" fill="none" stroke="#E53935" stroke-width="2"/>
  <circle cx="197.7" cy="61.0" r="4" fill="#E53935" stroke="#fff" stroke-width="1"/>
  <text x="211.7" y="65.0" font-family="monospace" font-size="9" fill="#E53935">LOF=2.8</text>
  <text x="173.4" y="122.1" font-family="monospace" font-size="8" fill="#1565C0">LOF~1.0</text>
  <rect x="110" y="152" width="8" height="8" fill="#1565C0" stroke="#1565C0" stroke-width="1"/>
  <text x="122" y="160" font-family="monospace" font-size="9" fill="#1565C0">Inlier (LOF~1)</text>
  <rect x="200" y="152" width="8" height="8" fill="none" stroke="#E53935" stroke-width="1"/>
  <text x="212" y="160" font-family="monospace" font-size="9" fill="#E53935">Outlier (LOF>1)</text>
</svg>