<svg xmlns="http://www.w3.org/2000/svg" width="620" height="380" viewBox="0 0 620 380" font-family="Arial, Helvetica, sans-serif">
<rect width="620" height="380" fill="white"/>
<text x="310" y="28" text-anchor="middle" font-size="17" fill="#333" font-weight="bold" font-style="normal">RS_Rotation</text><text x="310" y="48" text-anchor="middle" font-size="12" fill="#666" font-weight="normal" font-style="normal">Returns the uniform rotation of the raster in radians</text><line x1="200" y1="300" x2="550" y2="300" stroke="#333" stroke-width="1.5"/>
<polygon points="550,300 543.2,304.3 543.2,295.7" fill="#333"/><line x1="200" y1="300" x2="200" y2="65" stroke="#333" stroke-width="1.5"/>
<polygon points="200,65 204.3,71.8 195.7,71.8" fill="#333"/><text x="555" y="305" text-anchor="middle" font-size="13" fill="#333" font-weight="bold" font-style="normal">X</text><text x="188" y="60" text-anchor="middle" font-size="13" fill="#333" font-weight="bold" font-style="normal">Y</text><polygon points="230.0,240.0 429.4,147.0 499.1,296.6 299.7,389.5" fill="#E3F2FD" stroke="#1565C0" stroke-width="1.5" opacity="1.0"/>
<line x1="279.8" y1="216.8" x2="349.6" y2="366.3" stroke="#1565C0" stroke-width="0.8" opacity="0.4"/>
<line x1="329.7" y1="193.5" x2="399.4" y2="343.1" stroke="#1565C0" stroke-width="0.8" opacity="0.4"/>
<line x1="379.5" y1="170.3" x2="449.3" y2="319.8" stroke="#1565C0" stroke-width="0.8" opacity="0.4"/>
<line x1="253.2" y1="289.8" x2="452.6" y2="196.9" stroke="#1565C0" stroke-width="0.8" opacity="0.4"/>
<line x1="276.5" y1="339.7" x2="475.9" y2="246.7" stroke="#1565C0" stroke-width="0.8" opacity="0.4"/><circle cx="230" cy="240" r="5" fill="#FF8F00" stroke="white" stroke-width="1.5"/><path d="M 290.0 240.0 A 60 60 0 0 1 284.4 265.4" fill="none" stroke="#D32F2F" stroke-width="2"/><line x1="286.378467222199" y1="263.357095704442" x2="284.378467222199" y2="265.357095704442" stroke="#D32F2F" stroke-width="0.5"/>
<polygon points="284.378467222199,265.357095704442 285.7,259.5 290.2,264.0" fill="#D32F2F"/><line x1="230" y1="240" x2="310" y2="240" stroke="#666" stroke-width="1.2" stroke-dasharray="5,3"/><text x="306.1510885553548" y="256.882289887172" text-anchor="middle" font-size="16" fill="#D32F2F" font-weight="bold" font-style="italic">θ</text><rect x="380" y="100" width="200" height="65" fill="#F5F5F5" stroke="#666" stroke-width="1" rx="6"/><text x="480" y="122" text-anchor="middle" font-size="12" fill="#333" font-weight="bold" font-style="normal">RS_Rotation(raster)</text><text x="480" y="145" text-anchor="middle" font-size="13" fill="#D32F2F" font-weight="bold" font-style="normal">= θ (in radians)</text><text x="310" y="365" text-anchor="middle" font-size="11" fill="#666" font-weight="normal" font-style="italic">Rotation is derived from ScaleX, ScaleY, SkewX, SkewY</text></svg>