<svg width="1490" height="342" viewBox="0 0 1490 342" fill="none" xmlns="http://www.w3.org/2000/svg">
<path d="M1489.86 453.951C1070.06 428.219 321.795 443.229 0.140625 453.951C51.2377 437.777 88.519 435.264 100.773 436.029C113.271 391.917 146.417 341.065 161.427 321.153C170.25 306.449 186.853 293.582 194.052 288.987C196.656 278.265 200.853 255.26 196.809 249.01C192.766 242.761 191.755 226.801 191.755 219.602C194.512 210.871 199.383 192.399 196.809 188.355C194.236 184.312 193.899 178.706 194.052 176.408L200.026 155.271C200.332 148.072 201.129 130.09 201.864 115.753C202.599 101.417 229.741 73.9383 243.219 61.9912H261.14C274.374 60.5208 291.161 46.0616 297.901 39.0159C304.518 30.9285 307.704 30.1321 308.469 30.7447C312.145 34.4208 321.427 41.7729 329.147 41.7729C336.867 41.7729 343.698 34.4208 346.149 30.7447C359.383 18.6138 372.494 14.0493 377.395 13.2835C382.909 12.5176 396.327 9.69912 405.885 4.55265C415.442 -0.593817 426.103 -0.348612 430.239 0.4173C442.002 0.0496944 504.372 50.5035 534.087 75.7763L537.304 71.6408C538.682 70.4154 543.461 67.689 551.548 66.5862C559.636 65.4834 569.01 61.5322 572.686 59.6944C585.184 59.6944 585.858 72.254 584.633 78.5338V179.625L588.309 232.008C589.412 254.065 591.219 263.255 591.985 265.093C596.029 265.461 598.571 256.669 599.337 252.227V221.44C609.262 215.191 612.663 203.519 613.122 198.465L617.258 158.028C622.404 154.72 625.835 141.026 626.907 134.593L631.502 104.725L635.178 97.3731H646.207L644.369 136.891H648.504L650.342 102.428L656.316 101.049V125.863L665.046 139.188L667.803 179.625L685.724 182.382L699.969 232.008L717.89 215.926L721.566 164.461L724.323 40.3944C744.173 37.0856 754.037 28.9068 756.488 25.231L776.247 28.9067C785.069 13.0997 801.367 8.84158 808.412 8.68841C818.675 6.54418 841.772 2.16381 852.065 1.79621C862.358 1.4286 882.393 16.3472 891.123 23.8525L904.909 16.0409L925.586 23.8525L947.643 25.231L966.023 44.5303C973.008 44.8979 984.863 56.6306 989.917 62.451C991.449 62.2979 995.983 63.5539 1001.86 69.8031C1007.75 76.0524 1023.31 91.7063 1030.35 98.752L1034.49 78.5338C1034.03 77.0021 1034.21 73.4792 1038.62 71.6412C1043.04 69.8031 1044.75 76.3897 1045.06 79.9127C1047.63 79.9127 1049.19 78.9934 1049.65 78.5338L1067.57 59.6944C1072.48 57.55 1083.93 54.1803 1090.55 57.8564C1097.17 61.5324 1100.66 74.0923 1101.58 79.9127C1111.87 78.8099 1119.34 87.7244 1121.8 92.3195C1126.94 79.0857 1134.36 76.3899 1137.42 76.6962C1139.87 78.3811 1146.43 82.8536 1153.04 87.2649C1159.66 91.6761 1166.21 108.096 1168.67 115.754L1190.26 113.916C1195.78 112.445 1198.69 122.187 1199.45 127.242C1213.05 134.226 1215.53 160.785 1215.08 173.192L1228.4 171.814C1239.8 171.079 1246.02 189.888 1247.7 199.384L1259.19 203.06C1276.1 214.456 1284 233.235 1285.84 241.199C1285.84 249.164 1286.67 270.056 1289.97 289.907C1293.28 309.758 1356.3 394.368 1387.39 434.192C1429.66 434.192 1473.32 447.365 1489.86 453.951Z" fill="#EA7A0C"/>
<path d="M904.745 16.6723C902.729 15.9344 902.225 18.5169 902.225 19.9004C901.525 19.2855 899.705 18.0559 898.025 18.0559C896.345 18.0559 897.325 21.1303 898.025 22.6674C899.425 22.6674 902.729 22.9441 904.745 24.0509C906.761 25.1577 913.616 24.9732 914.736 24.0509C914.456 23.1285 913.392 19.9004 914.736 19.9004C918.428 19.9004 907.264 17.5946 904.745 16.6723Z" fill="#4C5721"/>
<path d="M267.785 208.254L202.307 189.107H197.729V198.224L275.569 220.563L332.804 198.224L369.435 181.357L406.981 173.151H455.059L487.11 208.254L536.104 203.695L586.471 220.563V208.254L532.899 189.107H487.11L460.553 162.665H422.091H378.592L320.899 189.107L267.785 208.254Z" fill="#F78E26"/>
<path d="M263.76 240.42L196.89 221.272H192.214V230.39L271.71 252.728L330.163 230.39L367.573 213.522L405.918 205.316H455.019L487.753 240.42L537.789 235.861L589.227 252.728V240.42L534.515 221.272H487.753L460.631 194.831H421.35H376.926L318.005 221.272L263.76 240.42Z" fill="#DA5508"/>
<path d="M215.699 182.884L194.052 179.208V176.451L195.894 171.396L226.293 174.613L258.534 191.155L281.103 182.884L322.096 170.937L370.918 149.799L436.322 144.285L478.236 154.394L501.265 174.613L545.943 170.937L584.632 174.613V191.155L540.416 182.884H496.659L470.866 159.908L436.322 154.394L375.985 159.908L331.768 179.208L304.593 191.155L281.103 196.669L262.68 201.264L237.347 192.993L215.699 182.884Z" fill="#CC6B0B"/>
<path d="M216.643 295.003L194.972 291.327V288.57L196.816 283.515L227.249 286.732L259.526 303.274L282.119 295.003L323.157 283.056L372.034 261.918L437.51 256.404L479.47 266.514L502.525 286.732L547.251 283.056C547.251 283.056 588.744 261.459 592.424 265.135C596.104 268.811 606.684 270.19 611.284 274.785L572.183 286.732L555.163 290.867L541.718 295.003H497.914L472.092 272.028L437.51 266.514L377.106 272.028L332.84 291.327L305.635 303.274L282.119 308.788L263.675 313.383L238.315 305.112L216.643 295.003Z" fill="#C76827"/>
<path d="M226.218 168.179L196.81 166.341L197.729 163.584L198.188 164.503L228.056 168.179L262.978 185.181L279.521 177.369L315.822 166.341L339.257 157.151L376.017 141.987L427.941 137.392L486.758 151.637L510.652 166.801L544.196 160.827L564.415 157.611L584.633 165.882V169.558L562.577 159.449L510.652 169.098L485.38 153.016L427.941 138.771L376.017 143.366L345.23 156.232L316.741 168.179L279.521 178.748L262.978 186.56L253.788 182.883L226.218 168.179Z" fill="#D04600"/>
<path d="M226.217 243.079L194.051 241.241L193.592 238.484L198.187 239.403L228.055 243.079L262.977 260.081L279.519 252.269L315.82 241.241L339.255 232.051L376.016 216.887L427.94 212.292L486.757 226.537L510.651 241.7L544.195 235.727L564.413 232.51L588.767 240.781V244.457L562.575 234.348L510.651 243.998L485.378 227.915L427.94 213.671L376.016 218.266L345.229 231.132L316.739 243.079L279.519 253.648L262.977 261.459L253.787 257.783L226.217 243.079Z" fill="#DA6021"/>
<path d="M226.677 245.836L195.431 243.998L194.512 241.241L198.647 242.16L228.515 245.836L263.437 262.838L279.98 255.026L316.281 243.998L339.715 234.808L376.476 218.725L428.4 215.049L487.217 229.294L510.652 243.998C521.849 240.654 529.957 239.968 544.655 238.484C548.995 236.028 549.457 234.079 562.576 234.348L588.768 243.998L589.227 247.214C578.966 243.302 571.97 241.47 562.576 237.105C547.872 239.403 530.934 242.852 511.111 246.755L485.838 230.672L428.4 216.428L378.773 221.023L345.689 233.889L317.2 245.836L279.98 256.405L263.437 264.216L254.247 260.54L226.677 245.836Z" fill="#E26321"/>
<path d="M958.003 31.9011C954.987 29.1667 952.441 31.9331 951.545 33.6582C950.73 32.2615 948.373 29.0903 945.461 27.5783C942.55 26.0663 942.257 30.7817 942.475 33.3284C944.901 34.5884 950.448 37.907 953.225 41.1014C956.001 44.2958 961.772 44.8104 964.31 44.6684C964.422 43.2663 964.064 40.1598 961.735 38.9502C958.824 37.4382 961.772 35.3191 958.003 31.9011Z" fill="#574621"/>
<path d="M201.864 120.85L201.404 125.905L222.542 116.255L245.976 118.093L258.383 107.984L304.793 122.229L334.202 120.391L360.393 109.363L399.911 102.93L428.4 101.092L472.054 122.688L508.814 145.204L542.818 136.014L584.173 117.634V112.579L542.818 133.716L508.814 143.826L472.973 121.31L428.4 96.956L399.911 102.011L360.393 107.984L335.121 118.093L304.793 120.391L258.383 106.606L245.976 116.255L222.542 113.958L201.864 120.85Z" fill="#BA3300"/>
<path d="M390.721 54.2215L354.42 73.0613L352.122 78.5754L390.721 57.4381L401.749 70.3042L415.993 57.4381L444.942 66.6282L476.189 85.0084L506.516 98.7936L518.463 111.66L531.33 106.605L542.358 111.66L579.578 104.308V98.7936L542.358 108.903L531.33 104.308L518.463 108.903L506.516 96.0366L476.189 80.8729L444.942 64.3307L415.993 54.2215L404.965 64.3307L390.721 54.2215Z" fill="#F78E26"/>
<path d="M262.059 222.861L195.43 208.616H194.971L194.052 210.913L259.761 224.699L275.384 233.429L363.61 191.614L410.02 179.208L454.132 183.803L482.162 215.049L537.303 212.292L587.849 228.375V225.158L535.465 207.697L482.162 212.292L454.132 181.505L410.02 177.829L394.397 181.505L363.61 189.776L325.011 208.616L278.601 230.213L262.059 222.861Z" fill="#E06A19"/>
<path d="M372.301 22.8748C371.102 22.4784 368.471 25.0222 367.305 26.3437C366.306 28.4911 366.206 33.1825 373.8 34.7683C383.292 36.7505 393.283 26.3437 395.281 23.8662C396.88 21.8842 400.75 22.875 401.749 22.8748C405.745 25.848 408.77 13.4595 411.268 11.4775C413.766 9.4954 415.764 13.4595 418.262 14.4508C420.76 15.442 425.256 11.4775 427.254 9.49526C429.252 7.51306 431.75 13.4595 434.248 13.4595C436.746 13.4595 437.246 16.9283 439.244 19.4061C441.242 21.884 441.242 16.9283 445.239 15.9374C448.436 15.1447 452.233 17.9196 453.731 19.4061C453.731 20.0668 454.631 21.3883 458.228 21.3883C462.724 21.3883 455.23 16.9283 453.731 16.9283C452.233 16.9283 447.737 14.9463 448.736 13.4595C449.735 11.9727 444.24 9.49526 442.241 7.01751C440.643 5.03531 438.245 6.1916 437.246 7.01751C435.747 7.84343 432.25 8.60327 430.251 5.03531C427.754 0.575368 425.544 -0.932459 421.048 0.55419C416.552 2.04084 418.861 5.03515 411.867 3.05295C404.873 1.07075 405.873 14.4505 404.374 13.4595C402.875 12.4685 403.774 15.9372 402.775 16.9283C401.976 17.7212 400.777 17.5204 400.277 18.016C398.945 18.016 396.354 17.2412 397.154 15.259C398.153 12.7811 393.783 13.9551 391.784 13.4595C389.786 12.964 390.881 18.4755 388.882 18.4755C386.884 18.4755 388.287 20.3972 386.289 22.8748C384.69 24.8569 382.292 22.7097 381.293 21.3883V19.4061H378.795C378.129 19.5713 376.797 20.199 376.797 21.3883C376.797 22.875 373.8 23.3704 372.301 22.8748Z" fill="#574621"/>
<path d="M620.472 176.451L615.418 178.289V178.748L614.039 193.452H615.418L621.851 191.614H626.446L631.041 193.452L637.014 190.236L646.664 185.641L656.773 190.236H672.856L664.585 184.722L667.801 178.748L667.342 174.153H665.504L656.773 176.451L652.178 177.37L644.826 174.153L642.528 175.532L634.717 177.37L631.041 179.667L627.824 177.37L620.472 176.451Z" fill="#DA5508"/>
<path d="M395.316 37.22L359.015 56.0597L356.718 61.5738L395.316 40.4365L406.344 53.3027L420.589 40.4365L449.538 49.6266L480.784 68.0069L511.112 81.7921L523.059 94.6583L535.925 89.6037L546.953 94.6583L584.173 87.3062V81.7921L546.953 91.9012L535.925 87.3062L523.059 91.9012L511.112 79.035L480.784 63.8713L449.538 47.3291L420.589 37.22L409.561 47.3291L395.316 37.22Z" fill="#BA3300"/>
<path d="M200.944 133.257L200.484 154.394L235.866 159.449L266.194 176.91L307.09 164.503L364.988 133.716L402.667 124.067L417.371 127.743L441.266 124.067L514.327 161.287L557.98 154.853L583.713 147.961V121.769L537.762 140.149L508.354 147.961L469.296 124.067L424.264 102.47L361.312 111.2L335.579 121.769L304.333 124.986L258.382 111.2L246.435 121.769H227.595L200.944 133.257Z" fill="#DA5508"/>
<path d="M156.895 330.385L156.372 351.522L196.675 356.577L231.221 374.038L277.805 361.632L343.756 330.845L386.676 321.195L403.426 324.871L430.643 321.195L513.867 358.415L563.592 351.982L630.583 345.089L636.097 318.897L540.561 337.278L507.062 345.089L462.572 321.195L411.277 299.598L339.569 308.329L310.257 318.897L274.665 322.114L222.323 308.329L208.714 318.897H187.254L156.895 330.385Z" fill="#E75C1C"/>
<path d="M1105.25 138.312C1100.11 138.679 1078.3 151.944 1068.03 158.53V175.991L1108.01 153.016C1110.22 143.826 1129.15 152.25 1138.34 157.611L1168.67 164.503L1204.05 197.588L1213.7 213.211L1276.65 221.023C1274.81 217.347 1264.55 207.544 1259.65 203.102L1207.72 190.695L1193.02 164.503L1147.99 149.34C1144 149.187 1136.22 148.145 1136.96 145.204C1137.88 141.528 1121.34 130.959 1116.28 129.581C1111.23 128.202 1111.69 137.852 1105.25 138.312Z" fill="#DA5508"/>
<path d="M207.377 102.01C204.068 104.584 202.629 112.273 202.322 115.796L219.324 109.822L245.516 113.498L262.058 98.7938L305.711 113.498H333.282L363.609 98.7938L426.561 93.7392L472.052 113.498L509.272 141.528L538.221 131.419L583.713 108.903L585.091 93.7392L540.978 122.229L513.408 133.716L476.648 107.524L426.561 81.7921L360.852 93.7392L335.579 103.848L307.549 102.01L262.058 91.4417L243.678 102.01H207.377Z" fill="#F78E26"/>
<path d="M755.109 95.118L723.403 113.039L722.484 122.688L754.19 107.525L773.03 110.282V105.227L772.111 103.389L755.109 95.118Z" fill="#DA5508"/>
<path d="M722.944 106.146V109.363L727.539 106.146L738.568 101.092L749.596 95.5775L757.407 91.9015L773.031 100.173V98.7941L757.407 90.5229L749.596 94.199L740.865 98.7941L722.944 106.146Z" fill="#BA3300"/>
<path d="M755.11 117.634L723.863 133.257V155.773L755.11 133.257L778.545 138.771L803.817 122.688L839.659 111.201L878.717 122.688L910.882 164.963L932.939 155.773L962.347 147.042L1067.57 220.563V205.4L955.454 138.771L932.939 130.04L902.152 138.771L881.474 111.201L822.657 90.5229L803.817 95.5775L771.192 123.148L755.11 117.634Z" fill="#FF8825"/>
<path d="M723.862 78.5756L723.402 84.0896L747.756 68.4664L757.865 62.0333L778.084 72.602L799.68 51.4647L813.925 49.6267L850.226 43.6531L886.987 65.2499L911.8 96.9558L939.37 87.7657L960.048 75.8185L1001.86 109.362L1068.49 153.475C1082.83 139.139 1091.93 134.635 1094.68 134.176L1106.63 130.5C1105.53 113.958 1112.3 113.804 1115.82 115.796C1121.33 111.017 1135.89 130.347 1142.47 140.609L1162.69 147.961L1193.94 160.368L1210.94 183.803L1246.32 194.371L1243.1 186.56L1210.94 179.207L1193.94 156.692L1162.69 145.663L1142.47 138.311C1139.72 130.653 1130.52 114.785 1115.82 112.579C1097.44 109.822 1112.14 130.5 1097.9 130.5C1086.5 130.5 1073.55 144.285 1068.49 151.178L1038.16 130.5L1001.86 105.686L960.048 72.602L939.37 85.0087L911.34 95.5773L886.987 62.0333L850.226 41.8151L821.277 46.4101L799.68 49.6267L778.084 70.764L757.865 58.8168L747.756 65.7094L723.862 78.5756Z" fill="#DA5508"/>
<path d="M722.484 132.338L722.944 126.824L746.838 113.958L756.947 107.065L777.166 119.012L798.762 97.8748L820.359 94.6583L849.308 90.0632L886.069 110.282L901.795 133.257L937.074 116.715L959.13 120.85L1000.95 153.935L1037.25 178.748L1067.57 199.426C1072.63 192.533 1085.59 178.748 1096.98 178.748C1111.23 178.748 1096.52 158.07 1114.9 160.827C1129.61 163.033 1138.8 178.901 1141.55 186.56L1161.77 193.912L1193.02 204.94L1210.02 227.456L1282.16 232.051L1285.38 239.862L1210.02 232.051L1193.02 208.616L1161.77 196.209L1141.55 188.857C1134.97 178.595 1120.42 159.265 1114.9 164.044C1111.38 162.053 1104.61 162.206 1105.71 178.748L1093.77 182.424C1091.01 182.884 1081.91 187.387 1067.57 201.723L1000.95 157.611L959.13 124.067L937.074 118.553L903.989 136.014L901.795 133.257L886.069 113.498L849.308 91.9013L813.007 97.8748L798.762 99.7129L777.166 120.85L756.947 110.282L746.838 116.715L722.484 132.338Z" fill="#AF4202"/>
<path d="M200.331 258.056L197.573 278.975L226.53 281.485L261.921 296.965L323.971 281.485L353.387 266.423L408.542 255.127H439.797L483.002 266.423L510.12 284.832L552.865 277.301L589.175 266.423V262.24L549.647 251.362L503.225 266.423L448.07 243.413L408.542 231.698L376.368 241.321L372.231 233.79L343.735 248.851L287.2 262.24L261.921 272.281L226.53 255.127L197.573 252.617L200.331 258.056Z" fill="#BF4B0B"/>
<path d="M229.894 275.244L198.648 273.406L197.729 270.649L201.864 271.568L231.732 275.244L266.654 292.246L283.196 284.434L319.497 273.406L342.932 264.216L376.936 242.16L431.617 244.457L490.434 258.702L513.869 273.406C525.066 270.063 535.012 269.376 549.71 267.892C554.05 265.436 554.512 263.487 567.631 263.757H591.525V265.135C572.686 267.892 580.038 266.514 565.793 266.514C551.089 268.811 534.151 272.261 514.328 276.163L489.055 260.081L431.617 245.836L376.936 244.457L348.906 263.297L320.416 275.244L283.196 285.813L266.654 293.625L257.464 289.949L229.894 275.244Z" fill="#D1440B"/>
<path d="M205.908 318.897L168.501 317.059L167.4 314.302L172.351 315.221L208.109 318.897L249.918 335.899L269.723 328.087L313.182 317.059L341.238 307.869L381.948 285.813L447.412 288.11L517.827 302.355L545.883 317.059C559.288 313.716 571.196 313.029 588.793 311.545C593.988 309.089 594.542 307.14 610.248 307.41H638.854V308.788C616.299 311.545 625.101 310.167 608.047 310.167C590.443 312.464 570.165 315.914 546.433 319.816L516.177 303.734L447.412 289.489L381.948 288.11L348.39 306.95L314.282 318.897L269.723 329.466L249.918 337.278L238.916 333.602L205.908 318.897Z" fill="#D1440B"/>
<path d="M746.839 74.8995L724.323 90.9822L723.404 91.9013L722.944 103.389L759.705 85.9277L780.842 101.091L807.494 74.8995L848.849 62.0333L885.15 101.091L905.368 123.148L933.398 106.605L957.293 101.091L1008.3 123.148L1067.11 176.45V157.151L1008.3 114.877L957.293 79.4946L933.398 90.9822L909.044 101.091L885.15 65.7094L848.849 46.4101C837.974 48.5545 814.478 52.8432 807.494 52.8432C800.509 52.8432 786.816 70.6108 780.842 79.4946L759.705 65.7094L746.839 74.8995Z" fill="#F68F2A"/>
<path d="M757.407 167.72L721.565 184.722L720.187 190.236L757.407 170.477L769.354 180.586L822.197 149.34L844.253 146.582L895.718 199.885L934.316 187.019L962.806 184.722L1001.86 199.885L1065.28 254.107L1099.28 224.699C1098.18 196.025 1110.77 202.03 1117.2 208.616L1161.31 227.915L1195.78 240.322L1214.16 260.54H1265.16L1286.76 273.406V269.271L1265.16 257.783H1214.16L1195.78 237.565L1161.31 224.699L1121.8 208.616C1120.26 205.706 1114.99 199.885 1106.17 199.885C1097.35 199.885 1096.37 213.67 1096.98 220.563L1065.28 250.431L1001.86 196.669L961.427 180.586L934.316 184.722L898.475 196.669L892.042 190.236L846.091 143.825L824.035 146.582L806.574 155.773L771.651 176.91L757.407 167.72Z" fill="#F68F2A"/>
<path d="M1019.32 231.132L974.293 218.265C974.293 233.705 969.698 251.043 967.4 257.783L998.647 249.512L1024.84 262.378L1066.19 279.38L1097.44 267.892L1122.71 249.512L1153.5 257.783L1187.96 304.653L1215.53 296.841L1258.27 304.653L1298.7 308.329L1288.14 290.867L1263.78 279.38H1215.53L1196.23 267.892H1187.96L1167.29 240.322L1122.71 218.265L1097.44 240.322L1066.19 257.783L1042.3 249.512L1019.32 231.132Z" fill="#FF9A45"/>
<path d="M752.811 181.046L720.187 200.804V219.185L747.297 206.318L757.866 214.59L774.408 211.373L785.896 219.185L801.06 206.318L825.873 195.75H832.766L839.658 206.318H859.417L872.743 219.185L881.933 235.727L916.396 219.185L932.938 235.727L940.75 214.59L970.158 249.053V235.727L974.753 200.804L956.373 186.1L932.938 195.75L895.258 206.318L889.744 195.75H872.743L864.472 181.046L839.658 162.206L820.818 167.72H810.709L801.06 181.046H790.951L774.408 195.75L752.811 181.046Z" fill="#FF8E31"/>
<path d="M746.379 146.123L723.863 162.206L722.944 163.125L722.484 174.612L759.245 157.151L780.382 172.315L807.034 146.123L848.389 133.257L884.69 172.315L894.799 190.236L932.938 177.829L956.833 172.315L1007.84 194.371L1066.65 247.674V228.375L1007.84 186.1L956.833 150.718L932.938 162.206L908.584 172.315L884.69 136.933L848.389 117.634C837.514 119.778 814.018 124.067 807.034 124.067C800.049 124.067 786.356 141.834 780.382 150.718L759.245 136.933L746.379 146.123Z" fill="#DA5508"/>
<path d="M962.044 342.625L954.648 396.763L946.724 432.855L979.476 415.937L1062.42 362.363L1090.94 366.31L1137.96 384.92L1164.9 370.822L1192.37 348.264L1226.71 358.415L1279.01 374.769L1308.06 370.822L1312.29 362.363L1324.44 353.34L1312.29 339.805L1293.27 348.264L1279.01 333.602L1248.89 339.805L1230.41 342.625L1211.92 325.143L1192.37 308.788H1177.58L1170.71 325.143L1122.11 333.602L1071.4 330.218L1024.91 342.625L1020.15 330.218L988.985 325.143L962.044 342.625Z" fill="#D9560B"/>
<path d="M947.644 287.191L952.247 277.894L960.989 272.877L974.332 268.773L980.773 263.756H1005.62L1011.14 272.877L1031.84 277.894H1050.71L1064.05 285.647H1081.07L1093.5 277.894L1116.04 272.877L1125.24 277.894H1137.67H1152.85L1171.25 294.768L1178.32 302.977L1205.43 317.978L1209.9 308.906L1215.42 302.977L1240.27 308.906L1247.17 315.29H1270.63H1288.12H1301" stroke="#AF4202" stroke-width="4"/>
<path d="M946.724 296.382L955.454 287.72H963.021L976.535 283.553L983.06 278.461H1008.22L1013.82 287.72L1034.79 292.813H1053.89L1067.41 300.683H1084.65L1097.23 292.813L1120.07 287.72L1129.39 292.813H1141.97H1157.35L1175.99 309.942L1181.11 324.294H1199.29H1215.13L1220.73 318.275L1245.89 324.294L1252.88 330.775H1276.65H1294.36H1306.01L1309.73 340.035" stroke="#FF7C2C" stroke-width="4"/>
<path d="M941.21 310.792L948.032 302.922L957.291 297.829L971.423 293.662L978.245 288.57H1004.56L1010.41 297.829L1032.34 302.922H1052.31L1066.45 310.792H1084.48L1097.63 302.922L1121.51 297.829L1131.26 302.922H1144.41H1160.5L1169.58 322.573L1179.23 334.403H1204.35H1220.92L1226.77 328.385L1253.08 334.403L1260.39 340.885H1285.24H1303.76H1315.94L1319.84 350.144" stroke="#F68F2A" stroke-width="4"/>
<path d="M646.206 260.081L639.772 304.193L632.88 333.602L661.369 319.817L733.512 276.163L758.325 279.38L799.221 294.544L822.656 283.056L846.55 264.676L876.418 272.947L921.909 286.273L947.182 283.056L950.858 276.163L961.427 268.811L950.858 257.783L934.316 264.676L921.909 252.729L895.717 257.783L879.635 260.081L863.552 245.836L846.55 232.51H833.684L827.711 245.836L785.436 252.729L741.323 249.972L700.887 260.081L696.751 249.972L669.64 245.836L646.206 260.081Z" fill="#DA5508"/>
<path d="M600.716 239.403L645.288 246.755L671.02 234.348L698.591 239.403L709.619 251.809L745.92 234.348L769.814 239.403H800.601L827.712 219.184L858.039 226.996L867.689 239.403L887.448 251.809L916.397 239.403L930.227 251.448C930.485 251.673 930.84 251.75 931.168 251.653L946.043 247.231C947.038 246.935 948.115 247.174 948.891 247.864L964.185 261.459" stroke="#EE8D2D" stroke-width="4"/>
<path opacity="0.8" d="M938.912 74.4404L923.748 71.2239C932.203 86.2957 932.479 119.778 931.56 134.636L931.1 247.257C934.041 243.213 937.686 233.123 938.912 227.916L941.209 162.666L955.454 149.799V52.3841C942.588 57.5306 939.065 69.2327 938.912 74.4404Z" fill="#B24B0D"/>
<path opacity="0.8" d="M1489.86 454C1070.06 428.268 321.795 443.278 0.140625 454C51.2377 437.826 88.519 435.313 100.773 436.078C113.271 391.966 161.427 321.202 161.427 321.202C161.734 319.974 195.798 376.607 235.867 379.553C264.707 386.513 285.672 382.491 325.471 371.282C436.212 391.04 519.383 368.984 624.15 394.716C678.832 411.552 809.791 380.012 897.557 391.195C941.669 397.473 948.102 391.195 1014.27 371.741C1033.11 346.468 1102.96 339.116 1182.45 341.414C1234.37 344.63 1281.56 365.791 1322.6 362.551C1342.66 360.967 1356.3 394.417 1387.39 434.241C1429.66 434.241 1473.32 447.414 1489.86 454Z" fill="#933D09"/>
<g opacity="0.6">
<path d="M1489.86 454C1070.06 428.267 321.795 443.278 0.140625 454C51.2377 437.826 88.519 435.313 100.773 436.078C113.271 391.965 146.417 341.113 161.427 321.201C170.25 306.497 186.853 293.631 194.052 289.036C196.656 278.314 200.853 255.308 196.809 249.059C192.766 242.809 191.755 226.849 191.755 219.65C194.512 210.92 199.383 192.448 196.809 188.404C194.236 184.36 193.899 178.754 194.052 176.457L200.026 155.319C200.332 148.12 201.129 130.138 201.864 115.802C202.599 101.465 229.741 73.9868 243.219 62.0397H261.14C274.374 60.5692 291.161 46.1101 297.901 39.0643C304.518 30.977 307.704 30.1805 308.469 30.7932C312.145 34.4693 321.427 41.8214 329.147 41.8214C336.867 41.8214 343.698 34.4693 346.149 30.7932C359.383 18.6623 372.494 14.0978 377.395 13.332C375.404 19.4727 369.492 33.5003 361.772 40.4848C358.402 55.161 351.112 92.793 348.906 125.911C346.7 159.029 351.969 173.407 354.88 176.457C352.276 176.164 345.598 177.234 339.716 183.851L335.121 144.793V82.7594C332.517 78.1363 325.287 68.4391 317.2 66.6347C314.137 73.9728 307.275 96.1014 304.334 125.911C304.64 131.439 305.529 143.966 306.631 149.847C307.734 155.729 307.091 168.228 306.631 173.742H324.552V320.324C348.14 322.469 402.025 332.731 428.86 356.625L551.548 377.255L598.877 322.573L697.212 353.82L758.786 309.756L807.953 334.569C820.972 327.37 851.882 312.329 871.365 309.756C855.895 299.814 819.716 278.451 798.763 272.536C772.571 265.141 721.566 259.621 640.233 305.572C632.728 294.558 607.792 269.12 591.985 266.514L629.205 268.4C635.178 268.247 647.493 263.805 648.964 247.263C650.434 230.72 651.414 216.782 651.721 211.881C652.487 208.205 655.856 202.231 663.208 207.745L664.587 185.229L667.803 179.673L685.724 182.43L699.969 232.057L717.89 215.974L721.566 164.51L724.323 40.4428L736.729 44.6206L746.379 57.4867V35.4304L755.11 28.9552L752.353 65.2984L761.083 82.7594H746.379L755.11 110.33V159.957C756.029 166.083 760.532 180.359 771.192 188.446L773.49 72.6505C773.796 69.4339 772.755 61.898 766.138 57.4867L768.895 40.4428L776.247 28.9552C785.069 13.1482 796.771 9.39175 803.817 9.23858L806.115 35.4304C806.881 40.9445 806.85 54.6378 800.601 65.2984L803.817 91.4902H822.198L826.333 192.122C828.171 191.328 831.847 187.727 831.847 179.673V65.2984C832.46 58.8653 836.902 46.2748 849.768 47.3776C851.146 43.061 852.433 32.3225 846.551 23.901C840.67 15.4795 844.713 10.6171 847.47 9.23858L848.389 1.84468H852.065C860.877 1.52999 876.827 12.4174 886.713 20.2667V102.059L904.909 118.601C897.68 160.11 883.92 253.788 886.713 296.43C914.988 302.097 971.537 295.603 971.537 224.288L970.159 177.877C974.754 177.39 984.036 174.034 984.403 164.51C984.771 154.986 984.863 152.911 984.863 153.064H994.972V143.414C995.431 140.811 998.005 135.97 1004.62 137.441C1004.62 124.853 1009.77 99.5023 1030.35 98.8005L1034.49 78.5822C1034.03 77.0506 1034.21 73.5277 1038.62 71.6896C1043.04 69.8516 1044.75 76.4381 1045.06 79.9612C1047.63 79.9612 1049.19 79.0419 1049.65 78.5822L1067.57 59.7429C1072.48 57.5985 1083.93 54.2288 1090.55 57.9049C1097.17 61.5809 1100.66 74.1408 1101.58 79.9612C1098.05 81.6598 1091.47 88.4575 1093.31 102.059C1085.95 101.293 1070.51 104.632 1067.57 124.115V278.509C1073.85 276.379 1088.34 261.357 1096.06 218.314V184.77C1104.64 181.832 1121.8 173.666 1121.8 164.51V92.3679C1126.94 79.1341 1134.36 76.4384 1137.42 76.7447C1139.87 78.4296 1147.07 83.6786 1154.42 85.9761C1162.01 88.3482 1165.76 106.306 1168.21 113.964H1191.18C1196.7 112.494 1198.69 122.235 1199.45 127.29L1203.59 134.224L1195.78 142.955L1199.45 296.43C1199.61 301.025 1200.65 310.583 1203.59 312.053C1207.72 296.277 1217.83 262.61 1225.18 254.155L1215.08 225.207C1213.85 220.611 1211.77 206.091 1213.24 184.77C1214.77 180.008 1219.95 170.76 1228.4 171.862C1239.8 171.127 1246.02 189.936 1247.7 199.433L1259.19 203.109C1276.1 214.505 1284 233.283 1285.84 241.248C1285.84 249.213 1286.67 270.105 1289.97 289.956C1293.28 309.806 1356.3 394.417 1387.39 434.241C1429.66 434.241 1473.32 447.413 1489.86 454Z" fill="url(#paint0_linear_63_1909)"/>
<path d="M551.548 66.6347C559.636 65.5319 561.657 63.962 567.631 62.124C565.487 64.881 559.452 73.9371 559.819 90.1117H544.656C541.133 91.4902 534.087 95.9934 534.087 102.978V119.52C529.032 113.24 516.901 105 508.814 122.277L504.679 291.835H484.92C471.388 280.584 420.249 253.004 334.287 260.867C333.635 260.936 332.994 260.997 332.364 261.048C333.007 260.986 333.648 260.925 334.287 260.867C356.935 258.45 391.736 244.907 363.151 207.746C377.395 225.207 416.27 266.195 446.781 261.048C447.24 247.876 449.262 220.244 453.673 215.097C458.085 209.951 463.17 201.006 465.161 197.177V140.198C467.152 127.791 475.362 102.978 492.272 102.978H515.247L524.437 94.7068C523.978 89.8052 525.908 80.5536 537.304 82.7594L534.087 75.8248L537.304 71.6893C538.682 70.4639 543.461 67.7375 551.548 66.6347Z" fill="url(#paint1_linear_63_1909)"/>
<path d="M410.02 37.2685L397.614 27.6188L388.423 142.495C390.997 185.873 400.524 212.034 404.966 219.692L403.128 116.304L416.913 140.198L421.048 23.4833L410.02 37.2685Z" fill="url(#paint2_linear_63_1909)"/>
</g>
<path d="M199.945 258.818C198.691 258.465 198.096 262.648 197.573 264.262L342.166 251.775L374.977 237.854L424.571 239.856L439.452 242.972L494.048 259.214H546.657L575.652 269.226L592.439 265.221C589.387 260.855 591.421 256.264 583.898 254.856C576.376 253.447 572.058 259.257 570.839 262.338L567.705 256.616C565.267 255.296 560.496 252.215 560.914 250.454C561.331 248.694 558.302 245.906 556.734 244.733C556.038 243.266 553.287 240.684 547.854 242.092C542.421 243.5 537.58 242.092 535.839 241.212C534.794 239.891 532.496 236.81 531.66 235.05C530.824 233.289 526.436 235.197 524.346 236.37C523.302 237.837 520.585 239.891 518.078 236.37C514.944 231.969 513.376 233.73 511.809 233.289C510.242 232.849 508.675 234.61 506.585 236.81C504.914 238.571 502.406 237.251 501.361 236.37C495.511 237.075 494.048 242.239 494.048 244.733C493.874 245.76 493.108 247.638 491.436 246.933C489.764 246.229 487.605 247.227 486.735 247.814C484.645 249.134 480.57 250.983 480.988 247.814C481.406 244.645 477.68 243.266 475.765 242.972C477.854 241.564 475.59 239.451 474.197 238.571C474.023 237.984 473.988 236.546 475.242 235.49C476.496 234.434 473.327 232.996 471.585 232.409C471.063 232.116 469.6 232.585 467.929 236.81C466.257 241.036 463.75 239.745 462.705 238.571C462.705 237.251 463.018 234.434 464.272 233.73C465.839 232.849 463.75 231.089 462.705 229.328C461.66 227.568 459.048 228.008 457.481 228.888C455.914 229.768 453.302 227.128 453.302 226.247C453.302 225.367 447.556 229.328 447.033 227.568C446.615 226.159 444.77 226.101 443.899 226.247C442.227 222.374 441.113 223.46 440.765 224.487C441.183 229.064 437.108 231.969 435.018 232.849C433.974 232.849 432.302 232.145 433.974 229.328C435.645 226.511 431.188 224.34 428.75 223.607C428.332 218.325 425.79 219.059 424.571 220.086C424.919 221.553 424.884 224.575 421.959 224.927C419.033 225.279 419.695 229.182 420.392 231.089C418.824 231.529 416.004 231.529 417.257 228.008C418.511 224.487 415.342 223.607 413.601 223.607C413.252 221.846 411.929 218.237 409.421 217.885C406.914 217.533 404.546 218.912 403.675 219.646C402.282 218.032 399.078 216.301 397.407 222.286C395.735 228.272 392.879 228.595 391.66 228.008C391.486 228.155 390.302 227.392 386.959 223.167C383.616 218.941 377.904 220.233 375.466 221.406C375.292 220.966 374.004 220.35 370.242 221.406C366.481 222.463 367.282 224.781 368.153 225.807C369.024 226.834 370.242 228.8 368.153 228.448C365.541 228.008 368.675 231.969 365.541 232.409C363.034 232.762 361.71 235.197 361.362 236.371C360.317 236.811 358.228 237.075 358.228 234.61C358.228 232.145 356.486 230.355 355.616 229.769C354.745 229.329 352.272 228.976 349.347 231.089C346.422 233.202 344.994 231.382 344.646 230.209C344.994 229.475 344.437 227.92 339.422 227.568C333.153 227.128 326.362 236.811 324.272 233.73C322.601 231.265 320.442 232.703 319.571 233.73C319.571 234.61 318.317 236.459 313.302 236.811C308.287 237.163 307.73 240.479 308.079 242.092C308.601 243.266 308.601 245.349 304.422 244.293C300.243 243.237 297.457 246.494 296.586 248.254C296.76 247.814 296.795 246.758 295.541 246.053C294.288 245.349 290.84 245.467 289.273 245.613C288.924 245.613 288.123 245.701 287.705 246.053C287.183 246.494 287.705 246.934 286.138 246.934C284.885 246.934 284.223 247.521 284.049 247.814C284.049 247.521 283.735 246.758 282.482 246.053C281.228 245.349 279.173 245.76 278.302 246.053C278.302 245.76 277.989 245.085 276.735 244.733C275.482 244.381 275.516 245.173 275.691 245.613C275.342 245.613 274.541 245.349 274.123 244.293C273.705 243.237 271.86 243.853 270.989 244.293C270.815 244.44 270.362 244.645 269.944 244.293C269.526 243.941 268.725 244.146 268.377 244.293C267.855 244.44 266.497 244.645 265.243 244.293C263.989 243.941 263.676 242.092 263.676 241.212C263.327 240.625 262.317 239.364 261.064 239.011C259.81 238.659 257.407 239.745 256.362 240.332C255.84 240.332 254.586 240.156 253.75 239.452C252.706 238.572 250.094 240.772 248.526 240.332C246.959 239.892 247.482 243.413 246.437 243.413C245.601 243.413 245.392 245.173 245.392 246.053C245.044 246.053 244.347 246.23 244.347 246.934C244.347 247.638 243.303 247.227 242.78 246.934C242.432 246.494 241.422 246.053 240.168 247.814C238.915 249.574 238.253 248.841 238.079 248.254C238.079 247.667 237.556 246.142 235.467 244.733C232.855 242.973 231.81 247.374 230.243 247.374C228.676 247.374 228.153 249.575 227.109 249.575C226.064 249.575 226.064 250.895 225.541 252.215C225.019 253.536 222.93 252.215 222.407 251.775C221.885 251.335 221.362 253.096 220.318 253.096C219.273 253.096 219.795 253.536 220.317 253.976L220.318 253.976C220.84 254.416 218.75 255.297 218.228 254.856C217.706 254.416 217.183 255.736 216.139 256.617C215.303 257.321 215.094 256.323 215.094 255.736C214.745 255.296 213.736 254.328 212.482 253.976C210.915 253.536 210.392 255.297 209.347 255.297C208.512 255.297 208.303 256.764 208.303 257.497C208.303 257.351 207.989 256.969 206.736 256.617C205.482 256.265 205.517 257.057 205.691 257.497C205.343 257.937 204.437 258.73 203.601 258.378C202.765 258.026 201.86 259.405 201.512 260.138C201.512 259.845 201.198 259.17 199.945 258.818Z" fill="#574621"/>
<path opacity="0.9" d="M611.284 268.352L603.013 268.811C598.877 269.73 594.282 268.352 592.444 266.054L596.12 262.838L598.418 257.324C598.555 253.618 599.327 249.813 599.337 246.755C599.36 239.575 599.337 233.968 599.337 225.158C605.617 225.618 620.107 226.537 622.312 226.537C624.518 226.537 636.097 228.068 641.612 228.834L650.342 229.294L649.423 246.755L648.045 254.107L643.909 261L640.233 265.135L630.583 268.811L611.284 268.352Z" fill="#C0510E"/>
<path d="M637.016 100.632L631.501 104.767L631.042 107.524L637.935 102.01L645.746 104.308V102.01L637.016 100.632Z" fill="#DA5508"/>
<path d="M673.224 274.665C670.31 273.896 642.649 279.618 639.816 282.182C642.353 287.817 639.815 284.464 635.723 313.931C634.223 324.736 670.437 313.931 684.151 292.67C720.575 286.43 738.894 274.079 741.215 271.782C745.101 267.938 757.998 274.665 760.427 274.665C770.14 280.432 771.107 266.976 777.178 263.131C783.249 259.287 787.859 264.21 793.929 266.132C800 268.055 809.207 260.248 814.064 256.403C818.92 252.558 817.706 256.403 823.777 256.403C829.848 256.403 831.062 263.131 835.918 267.937C840.775 272.743 840.775 263.131 850.488 261.209C858.259 259.672 857.628 264.931 871.128 267.937C871.128 269.219 872.473 267.937 881.215 267.937C892.142 267.937 881.998 257.668 878.356 257.668C874.713 257.668 875.928 239.102 878.356 236.218C880.784 233.334 848.06 248.714 843.203 243.908C839.318 240.063 833.49 242.306 831.062 243.908C827.419 245.51 828.634 238.292 823.777 231.372C817.706 222.721 802.623 228.488 791.696 231.371C780.769 234.255 786.382 240.063 769.384 236.218C752.386 232.373 754.814 258.325 751.172 256.403C747.53 254.481 749.714 261.209 747.286 263.131C745.343 264.669 742.43 264.28 741.215 265.241C737.978 265.241 731.682 263.738 733.624 259.893C736.053 255.087 725.432 257.364 720.575 256.403C715.719 255.442 718.379 266.132 713.523 266.132C708.666 266.132 712.076 269.86 707.22 274.665C703.334 278.51 697.506 274.345 695.078 271.782V267.937H689.007C687.389 268.258 684.151 269.475 684.151 271.782C684.151 274.665 676.866 275.626 673.224 274.665Z" fill="#574621"/>
<path d="M641.151 104.308L631.042 108.443L630.582 110.741L638.394 107.065L645.746 109.362V107.065L641.151 104.308Z" fill="#FF9D3D"/>
<path d="M1489.86 453.999C1070.06 428.267 321.795 443.278 0.140625 453.999C51.2377 437.826 88.519 435.312 100.773 436.078C113.271 391.965 161.427 321.201 161.427 321.201C161.734 319.974 195.798 376.606 235.867 379.552C264.707 386.512 285.672 382.49 325.471 371.281C436.212 391.04 519.383 368.984 624.15 394.716C678.832 411.552 809.791 380.012 897.557 391.195C941.669 397.473 948.102 391.195 1014.27 371.741C1033.11 346.468 1102.96 339.116 1182.45 341.413C1234.37 344.63 1281.56 365.791 1322.6 362.55C1342.66 360.966 1356.3 394.416 1387.39 434.24C1429.66 434.24 1473.32 447.413 1489.86 453.999Z" fill="#CD6E25"/>
<path d="M625.068 143.366C623.598 151.821 619.554 156.692 617.716 158.07L638.394 153.016H649.881L666.883 163.125L665.045 148.88L649.881 141.528H643.448L625.068 143.366Z" fill="#F7902C"/>
<path d="M615.879 171.396C619.555 171.855 621.546 170.171 624.15 169.558L628.745 170.477C631.502 172.315 631.686 171.58 634.259 170.477C641.244 169.374 641.611 170.017 642.53 168.639C643.449 167.72 643.357 167.444 644.828 168.179C646.666 169.098 646.666 168.639 648.044 168.639C649.147 168.639 654.937 168.333 657.694 168.179L658.613 167.72L662.749 166.801H665.046L665.965 167.26H666.884H667.344" stroke="#DC6F05" stroke-width="2"/>
<path d="M626.447 136.933L629.664 119.472L638.394 114.877L644.828 120.391L644.368 136.933L639.773 134.176L626.447 136.933Z" fill="#F66603"/>
<path d="M656.316 104.308L650.342 105.686V107.524H656.316V104.308Z" fill="#DA5508"/>
<path d="M656.316 110.281L650.342 111.2L649.883 117.174L652.18 116.714L653.099 114.876L656.316 117.174V110.281Z" fill="#DA5508"/>
<path d="M655.857 124.067L649.424 125.905L648.505 136.933L654.478 136.474L665.047 144.745V139.231L655.857 125.905V124.067Z" fill="#DA5508"/>
<path d="M607.608 225.618L604.391 225.158H599.337V227.915L602.553 226.537L605.31 226.996L608.987 227.456C610.059 227.303 612.295 226.996 612.663 226.996C613.03 226.996 616.798 226.537 618.636 226.537L623.231 226.996L625.529 228.375H631.043H634.719L639.773 229.294C641.305 229.753 644.552 230.672 645.288 230.672C646.687 230.672 647.126 231.591 648.964 231.591L650.342 232.51L651.261 227.915L650.802 226.996L648.504 226.537C647.279 226.69 644.644 226.996 643.909 226.996C643.174 226.996 639.314 226.69 637.476 226.537C636.557 226.23 634.076 225.618 631.502 225.618H626.907H620.934C620.199 225.618 618.177 225.311 617.258 225.158L614.041 226.077L607.608 225.618Z" fill="#D35B12"/>
<path d="M547.315 374.83C545.317 374.159 542.628 382.78 541.795 385.855L1175.91 383.745C1175.36 380.111 1171.25 369.963 1159.26 367.279C1147.27 364.595 1140.62 372.071 1138.67 377.943L1133.45 370.634C1129.57 368.118 1121.96 362.246 1122.63 358.891C1123.29 355.536 1118.47 350.223 1115.97 347.986C1114.86 345.19 1110.47 340.269 1101.81 342.953C1093.16 345.638 1085.44 342.953 1082.66 341.276C1081 338.759 1077.34 332.888 1076 329.532C1074.67 326.177 1067.68 329.812 1064.35 332.049C1062.68 334.845 1058.35 338.759 1054.36 332.049C1049.36 323.661 1046.86 327.016 1044.37 326.177C1041.87 325.338 1039.37 328.694 1036.04 332.888C1033.38 336.243 1029.38 333.726 1027.71 332.049C1018.39 333.391 1016.06 343.233 1016.06 347.986C1015.78 349.944 1014.56 353.523 1011.9 352.18C1009.23 350.838 1005.79 352.74 1004.4 353.858C1001.07 356.375 994.578 359.898 995.244 353.858C995.91 347.819 989.971 345.19 986.918 344.631C990.248 341.947 986.64 337.921 984.42 336.243C984.143 335.124 984.087 332.384 986.085 330.371C988.083 328.358 983.032 325.618 980.257 324.499C979.425 323.94 977.093 324.835 974.429 332.888C971.765 340.94 967.768 338.48 966.103 336.243C966.103 333.726 966.603 328.358 968.601 327.016C971.099 325.338 967.768 321.983 966.103 318.628C964.438 315.272 960.275 316.111 957.777 317.789C955.28 319.466 951.117 314.434 951.117 312.756C951.117 311.078 941.958 318.628 941.126 315.272C940.46 312.588 937.518 312.476 936.13 312.756C933.466 305.374 931.69 307.443 931.135 309.401C931.801 318.124 925.307 323.661 921.976 325.338C920.311 325.338 917.647 323.996 920.311 318.628C922.976 313.259 915.871 309.121 911.985 307.723C911.319 297.657 907.268 299.055 905.325 301.013C905.88 303.809 905.824 309.569 901.162 310.24C896.499 310.911 897.554 318.348 898.664 321.983C896.166 322.822 891.67 322.822 893.669 316.111C895.667 309.401 890.616 307.723 887.841 307.723C887.286 304.368 885.176 297.49 881.18 296.819C877.184 296.148 873.409 298.776 872.022 300.174C869.801 297.098 864.695 293.799 862.031 305.207C859.366 316.615 854.815 317.23 852.872 316.111C852.595 316.391 850.707 314.937 845.379 306.885C840.05 298.832 830.948 301.293 827.062 303.529C826.785 302.691 824.731 301.516 818.736 303.529C812.742 305.543 814.018 309.96 815.406 311.918C816.794 313.875 818.736 317.622 815.406 316.951C811.243 316.112 816.239 323.661 811.243 324.5C807.247 325.171 805.138 329.812 804.582 332.049C802.917 332.888 799.587 333.391 799.587 328.694C799.587 323.997 796.812 320.585 795.424 319.467C794.036 318.628 790.096 317.957 785.433 321.983C780.771 326.01 778.495 322.543 777.94 320.306C778.495 318.908 777.607 315.944 769.614 315.273C759.623 314.434 748.8 332.888 745.469 327.017C742.805 322.319 739.364 325.059 737.976 327.017C737.976 328.694 735.978 332.217 727.985 332.888C719.992 333.559 719.104 339.878 719.659 342.954C720.492 345.191 720.492 349.161 713.831 347.148C707.17 345.135 702.73 351.342 701.342 354.698C701.62 353.859 701.675 351.846 699.677 350.503C697.679 349.161 692.184 349.385 689.686 349.665C689.131 349.665 687.855 349.832 687.189 350.503C686.356 351.342 687.189 352.181 684.691 352.181C682.693 352.181 681.638 353.3 681.36 353.859C681.36 353.3 680.861 351.846 678.863 350.503C676.865 349.161 673.59 349.944 672.202 350.503C672.202 349.944 671.703 348.658 669.704 347.987C667.706 347.316 667.762 348.826 668.039 349.665C667.484 349.665 666.208 349.161 665.541 347.148C664.875 345.135 661.934 346.309 660.546 347.148C660.268 347.428 659.547 347.819 658.881 347.148C658.215 346.477 656.938 346.869 656.383 347.148C655.55 347.428 653.386 347.819 651.388 347.148C649.389 346.477 648.89 342.954 648.89 341.276C648.335 340.158 646.725 337.754 644.727 337.082C642.729 336.411 638.899 338.48 637.234 339.599C636.401 339.599 634.403 339.263 633.071 337.921C631.406 336.244 627.243 340.438 624.745 339.599C622.247 338.76 623.08 345.471 621.415 345.471C620.082 345.471 619.749 348.826 619.749 350.503C619.194 350.503 618.084 350.839 618.084 352.181C618.084 353.523 616.419 352.74 615.587 352.181C615.032 351.342 613.422 350.503 611.424 353.859C609.425 357.214 608.371 355.816 608.093 354.697C608.093 353.579 607.261 350.671 603.93 347.987C599.768 344.632 598.102 353.02 595.605 353.02C593.107 353.02 592.274 357.214 590.609 357.214C588.944 357.214 588.944 359.73 588.111 362.247C587.279 364.763 583.948 362.247 583.116 361.408C582.283 360.57 581.451 363.925 579.786 363.925C578.121 363.925 578.953 364.763 579.785 365.602L579.786 365.603C580.618 366.442 577.288 368.119 576.455 367.28C575.623 366.441 574.79 368.958 573.125 370.636C571.793 371.978 571.46 370.076 571.46 368.958C570.905 368.119 569.295 366.274 567.297 365.603C564.799 364.764 563.967 368.119 562.301 368.119C560.969 368.119 560.636 370.915 560.636 372.313C560.636 372.034 560.137 371.307 558.138 370.636C556.14 369.965 556.196 371.475 556.473 372.313C555.918 373.152 554.475 374.662 553.143 373.991C551.811 373.321 550.368 375.949 549.813 377.347C549.813 376.787 549.313 375.501 547.315 374.83Z" fill="#66620B"/>
<path d="M430.334 15.7528C428.128 15.0176 427.577 17.5908 427.577 18.9693C426.811 18.3567 424.82 17.1315 422.982 17.1315C421.144 17.1315 422.216 20.1948 422.982 21.7265C424.513 21.7265 428.128 22.0022 430.334 23.105C432.539 24.2079 440.041 24.0241 441.266 23.105C440.96 22.186 439.796 18.9693 441.266 18.9693C445.306 18.9693 433.091 16.6718 430.334 15.7528Z" fill="#574621"/>
<path d="M486.233 43.3233C484.027 42.5881 483.476 45.1614 483.476 46.5399C482.71 45.9272 483.379 46.5399 481.541 46.5399C479.703 46.5399 481.693 48.0952 482.459 49.6269C482.918 50.5459 484.027 49.5728 486.233 50.6756C488.438 51.7784 491.441 50.2161 492.666 49.2971C492.36 48.378 491.379 46.5399 489.909 46.5399C488.071 46.5399 488.99 44.2423 486.233 43.3233Z" fill="#574621"/>
<path d="M476.439 28.2251C473.423 25.4907 470.878 28.2571 469.982 29.9821C469.167 28.5855 466.809 25.4143 463.898 23.9023C460.986 22.3903 460.694 27.1057 460.912 29.6523C463.338 30.9123 468.884 34.231 471.661 37.4254C474.438 40.6198 480.209 41.1344 482.747 40.9924C482.859 39.5903 482.501 36.4837 480.172 35.2741C477.26 33.7621 480.209 31.6431 476.439 28.2251Z" fill="#574621"/>
<path d="M453.554 13.6411C452.304 11.6809 450.255 13.3325 449.387 14.4033C449.178 13.4451 448.403 11.2394 446.975 10.0818C445.547 8.92428 444.451 11.9791 444.081 13.6512C445.271 14.6158 447.905 17.1064 448.924 19.3521C449.943 21.5978 453.259 22.2749 454.789 22.3327C455.13 21.4259 455.526 19.3807 454.384 18.4547C452.956 17.2972 455.117 16.0913 453.554 13.6411Z" fill="#574621"/>
<path d="M610.825 209.075L608.068 213.671L611.744 210.454C612.817 209.995 615.145 208.8 615.88 207.697C616.615 206.594 618.331 207.238 619.097 207.697C626.816 204.756 629.052 206.472 629.206 207.697L637.477 202.642L644.829 198.966L654.019 200.804L663.669 202.642V198.966H654.019L642.991 197.128C638.549 200.192 629.389 205.951 628.287 204.48C626.908 202.642 620.935 205.859 619.097 204.48C617.626 203.378 612.97 207.084 610.825 209.075Z" fill="#AB470D"/>
<path d="M727.538 224.699L700.887 232.51V234.808L727.538 226.537L742.242 224.699H754.649L776.705 237.565L778.543 234.808L824.953 206.778L833.225 209.075L840.577 214.13H850.226H860.795L865.39 220.104L872.742 232.51L874.58 239.862L880.554 242.16L889.284 243.538L896.177 237.565L912.719 234.808L919.152 232.51L926.964 237.565L935.235 244.917L940.749 234.808L945.344 232.51L949.939 234.808L957.751 246.295L967.86 255.026V252.269L957.751 243.538L949.939 232.51L945.344 229.753L940.749 232.51L934.775 242.619L926.964 234.808L919.152 229.753L912.719 232.51L896.177 234.808L889.284 239.862H879.175L874.58 229.753L865.39 217.347L862.633 211.373H850.226H840.577L833.225 206.778L824.953 204.94L807.952 214.13L776.705 234.808L754.649 222.401L727.538 224.699Z" fill="#AF4202"/>
<defs>
<linearGradient id="paint0_linear_63_1909" x1="0.140625" y1="227.919" x2="1489.86" y2="227.919" gradientUnits="userSpaceOnUse">
<stop offset="0.486962" stop-color="#A43F0D"/>
<stop offset="1" stop-color="#DA5508"/>
</linearGradient>
<linearGradient id="paint1_linear_63_1909" x1="0.140625" y1="227.919" x2="1489.86" y2="227.919" gradientUnits="userSpaceOnUse">
<stop offset="0.486962" stop-color="#A43F0D"/>
<stop offset="1" stop-color="#DA5508"/>
</linearGradient>
<linearGradient id="paint2_linear_63_1909" x1="0.140625" y1="227.919" x2="1489.86" y2="227.919" gradientUnits="userSpaceOnUse">
<stop offset="0.486962" stop-color="#A43F0D"/>
<stop offset="1" stop-color="#DA5508"/>
</linearGradient>
</defs>
</svg>
