<svg xmlns="http://www.w3.org/2000/svg" viewBox="0 0 820 400" font-family="system-ui, -apple-system, 'Segoe UI', sans-serif">
  <rect width="820" height="400" fill="#ffffff"/>
  <text x="410" y="28" text-anchor="middle" font-size="16" font-weight="600" fill="#2c3e50">RS_TileExplode</text>
  <text x="410" y="48" text-anchor="middle" font-size="12" fill="#7f8c8d">Explodes a raster into tile records with (x, y) indices</text>
  <rect x="25" y="80" width="22" height="22" fill="#EEEEEE" stroke="#c8cdd0" stroke-width="0.5"/>
  <rect x="47" y="80" width="22" height="22" fill="#EEEEEE" stroke="#c8cdd0" stroke-width="0.5"/>
  <rect x="69" y="80" width="22" height="22" fill="#EEEEEE" stroke="#c8cdd0" stroke-width="0.5"/>
  <rect x="91" y="80" width="22" height="22" fill="#EEEEEE" stroke="#c8cdd0" stroke-width="0.5"/>
  <rect x="113" y="80" width="22" height="22" fill="#EEEEEE" stroke="#c8cdd0" stroke-width="0.5"/>
  <rect x="135" y="80" width="22" height="22" fill="#EEEEEE" stroke="#c8cdd0" stroke-width="0.5"/>
  <rect x="157" y="80" width="22" height="22" fill="#EEEEEE" stroke="#c8cdd0" stroke-width="0.5"/>
  <rect x="179" y="80" width="22" height="22" fill="#EEEEEE" stroke="#c8cdd0" stroke-width="0.5"/>
  <rect x="201" y="80" width="22" height="22" fill="#EEEEEE" stroke="#c8cdd0" stroke-width="0.5"/>
  <rect x="223" y="80" width="22" height="22" fill="#EEEEEE" stroke="#c8cdd0" stroke-width="0.5"/>
  <rect x="245" y="80" width="22" height="22" fill="#EEEEEE" stroke="#c8cdd0" stroke-width="0.5"/>
  <rect x="267" y="80" width="22" height="22" fill="#EEEEEE" stroke="#c8cdd0" stroke-width="0.5"/>
  <rect x="25" y="102" width="22" height="22" fill="#EEEEEE" stroke="#c8cdd0" stroke-width="0.5"/>
  <rect x="47" y="102" width="22" height="22" fill="#EEEEEE" stroke="#c8cdd0" stroke-width="0.5"/>
  <rect x="69" y="102" width="22" height="22" fill="#EEEEEE" stroke="#c8cdd0" stroke-width="0.5"/>
  <rect x="91" y="102" width="22" height="22" fill="#EEEEEE" stroke="#c8cdd0" stroke-width="0.5"/>
  <rect x="113" y="102" width="22" height="22" fill="#4FC3F7" stroke="#c8cdd0" stroke-width="0.5"/>
  <rect x="135" y="102" width="22" height="22" fill="#4FC3F7" stroke="#c8cdd0" stroke-width="0.5"/>
  <rect x="157" y="102" width="22" height="22" fill="#4FC3F7" stroke="#c8cdd0" stroke-width="0.5"/>
  <rect x="179" y="102" width="22" height="22" fill="#4FC3F7" stroke="#c8cdd0" stroke-width="0.5"/>
  <rect x="201" y="102" width="22" height="22" fill="#EEEEEE" stroke="#c8cdd0" stroke-width="0.5"/>
  <rect x="223" y="102" width="22" height="22" fill="#EEEEEE" stroke="#c8cdd0" stroke-width="0.5"/>
  <rect x="245" y="102" width="22" height="22" fill="#EEEEEE" stroke="#c8cdd0" stroke-width="0.5"/>
  <rect x="267" y="102" width="22" height="22" fill="#EEEEEE" stroke="#c8cdd0" stroke-width="0.5"/>
  <rect x="25" y="124" width="22" height="22" fill="#EEEEEE" stroke="#c8cdd0" stroke-width="0.5"/>
  <rect x="47" y="124" width="22" height="22" fill="#EEEEEE" stroke="#c8cdd0" stroke-width="0.5"/>
  <rect x="69" y="124" width="22" height="22" fill="#EEEEEE" stroke="#c8cdd0" stroke-width="0.5"/>
  <rect x="91" y="124" width="22" height="22" fill="#4FC3F7" stroke="#c8cdd0" stroke-width="0.5"/>
  <rect x="113" y="124" width="22" height="22" fill="#4FC3F7" stroke="#c8cdd0" stroke-width="0.5"/>
  <rect x="135" y="124" width="22" height="22" fill="#4FC3F7" stroke="#c8cdd0" stroke-width="0.5"/>
  <rect x="157" y="124" width="22" height="22" fill="#4FC3F7" stroke="#c8cdd0" stroke-width="0.5"/>
  <rect x="179" y="124" width="22" height="22" fill="#4FC3F7" stroke="#c8cdd0" stroke-width="0.5"/>
  <rect x="201" y="124" width="22" height="22" fill="#4FC3F7" stroke="#c8cdd0" stroke-width="0.5"/>
  <rect x="223" y="124" width="22" height="22" fill="#EEEEEE" stroke="#c8cdd0" stroke-width="0.5"/>
  <rect x="245" y="124" width="22" height="22" fill="#EEEEEE" stroke="#c8cdd0" stroke-width="0.5"/>
  <rect x="267" y="124" width="22" height="22" fill="#EEEEEE" stroke="#c8cdd0" stroke-width="0.5"/>
  <rect x="25" y="146" width="22" height="22" fill="#EEEEEE" stroke="#c8cdd0" stroke-width="0.5"/>
  <rect x="47" y="146" width="22" height="22" fill="#EEEEEE" stroke="#c8cdd0" stroke-width="0.5"/>
  <rect x="69" y="146" width="22" height="22" fill="#4FC3F7" stroke="#c8cdd0" stroke-width="0.5"/>
  <rect x="91" y="146" width="22" height="22" fill="#4FC3F7" stroke="#c8cdd0" stroke-width="0.5"/>
  <rect x="113" y="146" width="22" height="22" fill="#4FC3F7" stroke="#c8cdd0" stroke-width="0.5"/>
  <rect x="135" y="146" width="22" height="22" fill="#4FC3F7" stroke="#c8cdd0" stroke-width="0.5"/>
  <rect x="157" y="146" width="22" height="22" fill="#4FC3F7" stroke="#c8cdd0" stroke-width="0.5"/>
  <rect x="179" y="146" width="22" height="22" fill="#4FC3F7" stroke="#c8cdd0" stroke-width="0.5"/>
  <rect x="201" y="146" width="22" height="22" fill="#4FC3F7" stroke="#c8cdd0" stroke-width="0.5"/>
  <rect x="223" y="146" width="22" height="22" fill="#4FC3F7" stroke="#c8cdd0" stroke-width="0.5"/>
  <rect x="245" y="146" width="22" height="22" fill="#EEEEEE" stroke="#c8cdd0" stroke-width="0.5"/>
  <rect x="267" y="146" width="22" height="22" fill="#EEEEEE" stroke="#c8cdd0" stroke-width="0.5"/>
  <rect x="25" y="168" width="22" height="22" fill="#EEEEEE" stroke="#c8cdd0" stroke-width="0.5"/>
  <rect x="47" y="168" width="22" height="22" fill="#EEEEEE" stroke="#c8cdd0" stroke-width="0.5"/>
  <rect x="69" y="168" width="22" height="22" fill="#4FC3F7" stroke="#c8cdd0" stroke-width="0.5"/>
  <rect x="91" y="168" width="22" height="22" fill="#4FC3F7" stroke="#c8cdd0" stroke-width="0.5"/>
  <rect x="113" y="168" width="22" height="22" fill="#4FC3F7" stroke="#c8cdd0" stroke-width="0.5"/>
  <rect x="135" y="168" width="22" height="22" fill="#4FC3F7" stroke="#c8cdd0" stroke-width="0.5"/>
  <rect x="157" y="168" width="22" height="22" fill="#4FC3F7" stroke="#c8cdd0" stroke-width="0.5"/>
  <rect x="179" y="168" width="22" height="22" fill="#4FC3F7" stroke="#c8cdd0" stroke-width="0.5"/>
  <rect x="201" y="168" width="22" height="22" fill="#4FC3F7" stroke="#c8cdd0" stroke-width="0.5"/>
  <rect x="223" y="168" width="22" height="22" fill="#4FC3F7" stroke="#c8cdd0" stroke-width="0.5"/>
  <rect x="245" y="168" width="22" height="22" fill="#EEEEEE" stroke="#c8cdd0" stroke-width="0.5"/>
  <rect x="267" y="168" width="22" height="22" fill="#EEEEEE" stroke="#c8cdd0" stroke-width="0.5"/>
  <rect x="25" y="190" width="22" height="22" fill="#EEEEEE" stroke="#c8cdd0" stroke-width="0.5"/>
  <rect x="47" y="190" width="22" height="22" fill="#EEEEEE" stroke="#c8cdd0" stroke-width="0.5"/>
  <rect x="69" y="190" width="22" height="22" fill="#EEEEEE" stroke="#c8cdd0" stroke-width="0.5"/>
  <rect x="91" y="190" width="22" height="22" fill="#4FC3F7" stroke="#c8cdd0" stroke-width="0.5"/>
  <rect x="113" y="190" width="22" height="22" fill="#4FC3F7" stroke="#c8cdd0" stroke-width="0.5"/>
  <rect x="135" y="190" width="22" height="22" fill="#4FC3F7" stroke="#c8cdd0" stroke-width="0.5"/>
  <rect x="157" y="190" width="22" height="22" fill="#4FC3F7" stroke="#c8cdd0" stroke-width="0.5"/>
  <rect x="179" y="190" width="22" height="22" fill="#4FC3F7" stroke="#c8cdd0" stroke-width="0.5"/>
  <rect x="201" y="190" width="22" height="22" fill="#4FC3F7" stroke="#c8cdd0" stroke-width="0.5"/>
  <rect x="223" y="190" width="22" height="22" fill="#EEEEEE" stroke="#c8cdd0" stroke-width="0.5"/>
  <rect x="245" y="190" width="22" height="22" fill="#EEEEEE" stroke="#c8cdd0" stroke-width="0.5"/>
  <rect x="267" y="190" width="22" height="22" fill="#EEEEEE" stroke="#c8cdd0" stroke-width="0.5"/>
  <rect x="25" y="212" width="22" height="22" fill="#EEEEEE" stroke="#c8cdd0" stroke-width="0.5"/>
  <rect x="47" y="212" width="22" height="22" fill="#EEEEEE" stroke="#c8cdd0" stroke-width="0.5"/>
  <rect x="69" y="212" width="22" height="22" fill="#EEEEEE" stroke="#c8cdd0" stroke-width="0.5"/>
  <rect x="91" y="212" width="22" height="22" fill="#EEEEEE" stroke="#c8cdd0" stroke-width="0.5"/>
  <rect x="113" y="212" width="22" height="22" fill="#4FC3F7" stroke="#c8cdd0" stroke-width="0.5"/>
  <rect x="135" y="212" width="22" height="22" fill="#4FC3F7" stroke="#c8cdd0" stroke-width="0.5"/>
  <rect x="157" y="212" width="22" height="22" fill="#4FC3F7" stroke="#c8cdd0" stroke-width="0.5"/>
  <rect x="179" y="212" width="22" height="22" fill="#4FC3F7" stroke="#c8cdd0" stroke-width="0.5"/>
  <rect x="201" y="212" width="22" height="22" fill="#EEEEEE" stroke="#c8cdd0" stroke-width="0.5"/>
  <rect x="223" y="212" width="22" height="22" fill="#EEEEEE" stroke="#c8cdd0" stroke-width="0.5"/>
  <rect x="245" y="212" width="22" height="22" fill="#EEEEEE" stroke="#c8cdd0" stroke-width="0.5"/>
  <rect x="267" y="212" width="22" height="22" fill="#EEEEEE" stroke="#c8cdd0" stroke-width="0.5"/>
  <rect x="25" y="234" width="22" height="22" fill="#EEEEEE" stroke="#c8cdd0" stroke-width="0.5"/>
  <rect x="47" y="234" width="22" height="22" fill="#EEEEEE" stroke="#c8cdd0" stroke-width="0.5"/>
  <rect x="69" y="234" width="22" height="22" fill="#EEEEEE" stroke="#c8cdd0" stroke-width="0.5"/>
  <rect x="91" y="234" width="22" height="22" fill="#EEEEEE" stroke="#c8cdd0" stroke-width="0.5"/>
  <rect x="113" y="234" width="22" height="22" fill="#EEEEEE" stroke="#c8cdd0" stroke-width="0.5"/>
  <rect x="135" y="234" width="22" height="22" fill="#EEEEEE" stroke="#c8cdd0" stroke-width="0.5"/>
  <rect x="157" y="234" width="22" height="22" fill="#EEEEEE" stroke="#c8cdd0" stroke-width="0.5"/>
  <rect x="179" y="234" width="22" height="22" fill="#EEEEEE" stroke="#c8cdd0" stroke-width="0.5"/>
  <rect x="201" y="234" width="22" height="22" fill="#EEEEEE" stroke="#c8cdd0" stroke-width="0.5"/>
  <rect x="223" y="234" width="22" height="22" fill="#EEEEEE" stroke="#c8cdd0" stroke-width="0.5"/>
  <rect x="245" y="234" width="22" height="22" fill="#EEEEEE" stroke="#c8cdd0" stroke-width="0.5"/>
  <rect x="267" y="234" width="22" height="22" fill="#EEEEEE" stroke="#c8cdd0" stroke-width="0.5"/>
  <rect x="25" y="80" width="264" height="176" fill="none" stroke="#c8cdd0" stroke-width="1.2"/>
  <text x="157.0" y="68" text-anchor="middle" font-size="12" fill="#2980b9">Input: 12x8 raster</text>
  <defs><marker id="ah-299-168" markerWidth="8" markerHeight="6" refX="8" refY="3" orient="auto"><path d="M0,0 L8,3 L0,6" fill="#7f8c8d"/></marker></defs>
  <line x1="299" y1="168.0" x2="349" y2="168.0" stroke="#7f8c8d" stroke-width="2" marker-end="url(#ah-299-168)"/>
  <text x="324.0" y="158.0" text-anchor="middle" font-size="12" fill="#2c3e50">RS_TileExplode</text>
  <rect x="367" y="75" width="20" height="20" fill="#EEEEEE" stroke="#c8cdd0" stroke-width="0.5"/>
  <rect x="387" y="75" width="20" height="20" fill="#EEEEEE" stroke="#c8cdd0" stroke-width="0.5"/>
  <rect x="407" y="75" width="20" height="20" fill="#EEEEEE" stroke="#c8cdd0" stroke-width="0.5"/>
  <rect x="427" y="75" width="20" height="20" fill="#EEEEEE" stroke="#c8cdd0" stroke-width="0.5"/>
  <rect x="367" y="95" width="20" height="20" fill="#EEEEEE" stroke="#c8cdd0" stroke-width="0.5"/>
  <rect x="387" y="95" width="20" height="20" fill="#EEEEEE" stroke="#c8cdd0" stroke-width="0.5"/>
  <rect x="407" y="95" width="20" height="20" fill="#EEEEEE" stroke="#c8cdd0" stroke-width="0.5"/>
  <rect x="427" y="95" width="20" height="20" fill="#EEEEEE" stroke="#c8cdd0" stroke-width="0.5"/>
  <rect x="367" y="115" width="20" height="20" fill="#EEEEEE" stroke="#c8cdd0" stroke-width="0.5"/>
  <rect x="387" y="115" width="20" height="20" fill="#EEEEEE" stroke="#c8cdd0" stroke-width="0.5"/>
  <rect x="407" y="115" width="20" height="20" fill="#EEEEEE" stroke="#c8cdd0" stroke-width="0.5"/>
  <rect x="427" y="115" width="20" height="20" fill="#4FC3F7" stroke="#c8cdd0" stroke-width="0.5"/>
  <rect x="367" y="135" width="20" height="20" fill="#EEEEEE" stroke="#c8cdd0" stroke-width="0.5"/>
  <rect x="387" y="135" width="20" height="20" fill="#EEEEEE" stroke="#c8cdd0" stroke-width="0.5"/>
  <rect x="407" y="135" width="20" height="20" fill="#4FC3F7" stroke="#c8cdd0" stroke-width="0.5"/>
  <rect x="427" y="135" width="20" height="20" fill="#4FC3F7" stroke="#c8cdd0" stroke-width="0.5"/>
  <rect x="367" y="75" width="80" height="80" fill="none" stroke="#c8cdd0" stroke-width="1.2"/>
  <rect x="367" y="75" width="80" height="80" fill="none" stroke="#2980b9" stroke-width="1.5" rx="2"/>
  <text x="407.0" y="169" text-anchor="middle" font-size="10" fill="#e74c3c">x=0, y=0</text>
  <rect x="473" y="75" width="20" height="20" fill="#EEEEEE" stroke="#c8cdd0" stroke-width="0.5"/>
  <rect x="493" y="75" width="20" height="20" fill="#EEEEEE" stroke="#c8cdd0" stroke-width="0.5"/>
  <rect x="513" y="75" width="20" height="20" fill="#EEEEEE" stroke="#c8cdd0" stroke-width="0.5"/>
  <rect x="533" y="75" width="20" height="20" fill="#EEEEEE" stroke="#c8cdd0" stroke-width="0.5"/>
  <rect x="473" y="95" width="20" height="20" fill="#4FC3F7" stroke="#c8cdd0" stroke-width="0.5"/>
  <rect x="493" y="95" width="20" height="20" fill="#4FC3F7" stroke="#c8cdd0" stroke-width="0.5"/>
  <rect x="513" y="95" width="20" height="20" fill="#4FC3F7" stroke="#c8cdd0" stroke-width="0.5"/>
  <rect x="533" y="95" width="20" height="20" fill="#4FC3F7" stroke="#c8cdd0" stroke-width="0.5"/>
  <rect x="473" y="115" width="20" height="20" fill="#4FC3F7" stroke="#c8cdd0" stroke-width="0.5"/>
  <rect x="493" y="115" width="20" height="20" fill="#4FC3F7" stroke="#c8cdd0" stroke-width="0.5"/>
  <rect x="513" y="115" width="20" height="20" fill="#4FC3F7" stroke="#c8cdd0" stroke-width="0.5"/>
  <rect x="533" y="115" width="20" height="20" fill="#4FC3F7" stroke="#c8cdd0" stroke-width="0.5"/>
  <rect x="473" y="135" width="20" height="20" fill="#4FC3F7" stroke="#c8cdd0" stroke-width="0.5"/>
  <rect x="493" y="135" width="20" height="20" fill="#4FC3F7" stroke="#c8cdd0" stroke-width="0.5"/>
  <rect x="513" y="135" width="20" height="20" fill="#4FC3F7" stroke="#c8cdd0" stroke-width="0.5"/>
  <rect x="533" y="135" width="20" height="20" fill="#4FC3F7" stroke="#c8cdd0" stroke-width="0.5"/>
  <rect x="473" y="75" width="80" height="80" fill="none" stroke="#c8cdd0" stroke-width="1.2"/>
  <rect x="473" y="75" width="80" height="80" fill="none" stroke="#2980b9" stroke-width="1.5" rx="2"/>
  <text x="513.0" y="169" text-anchor="middle" font-size="10" fill="#e74c3c">x=1, y=0</text>
  <rect x="579" y="75" width="20" height="20" fill="#EEEEEE" stroke="#c8cdd0" stroke-width="0.5"/>
  <rect x="599" y="75" width="20" height="20" fill="#EEEEEE" stroke="#c8cdd0" stroke-width="0.5"/>
  <rect x="619" y="75" width="20" height="20" fill="#EEEEEE" stroke="#c8cdd0" stroke-width="0.5"/>
  <rect x="639" y="75" width="20" height="20" fill="#EEEEEE" stroke="#c8cdd0" stroke-width="0.5"/>
  <rect x="579" y="95" width="20" height="20" fill="#EEEEEE" stroke="#c8cdd0" stroke-width="0.5"/>
  <rect x="599" y="95" width="20" height="20" fill="#EEEEEE" stroke="#c8cdd0" stroke-width="0.5"/>
  <rect x="619" y="95" width="20" height="20" fill="#EEEEEE" stroke="#c8cdd0" stroke-width="0.5"/>
  <rect x="639" y="95" width="20" height="20" fill="#EEEEEE" stroke="#c8cdd0" stroke-width="0.5"/>
  <rect x="579" y="115" width="20" height="20" fill="#4FC3F7" stroke="#c8cdd0" stroke-width="0.5"/>
  <rect x="599" y="115" width="20" height="20" fill="#EEEEEE" stroke="#c8cdd0" stroke-width="0.5"/>
  <rect x="619" y="115" width="20" height="20" fill="#EEEEEE" stroke="#c8cdd0" stroke-width="0.5"/>
  <rect x="639" y="115" width="20" height="20" fill="#EEEEEE" stroke="#c8cdd0" stroke-width="0.5"/>
  <rect x="579" y="135" width="20" height="20" fill="#4FC3F7" stroke="#c8cdd0" stroke-width="0.5"/>
  <rect x="599" y="135" width="20" height="20" fill="#4FC3F7" stroke="#c8cdd0" stroke-width="0.5"/>
  <rect x="619" y="135" width="20" height="20" fill="#EEEEEE" stroke="#c8cdd0" stroke-width="0.5"/>
  <rect x="639" y="135" width="20" height="20" fill="#EEEEEE" stroke="#c8cdd0" stroke-width="0.5"/>
  <rect x="579" y="75" width="80" height="80" fill="none" stroke="#c8cdd0" stroke-width="1.2"/>
  <rect x="579" y="75" width="80" height="80" fill="none" stroke="#2980b9" stroke-width="1.5" rx="2"/>
  <text x="619.0" y="169" text-anchor="middle" font-size="10" fill="#e74c3c">x=2, y=0</text>
  <rect x="367" y="191" width="20" height="20" fill="#EEEEEE" stroke="#c8cdd0" stroke-width="0.5"/>
  <rect x="387" y="191" width="20" height="20" fill="#EEEEEE" stroke="#c8cdd0" stroke-width="0.5"/>
  <rect x="407" y="191" width="20" height="20" fill="#4FC3F7" stroke="#c8cdd0" stroke-width="0.5"/>
  <rect x="427" y="191" width="20" height="20" fill="#4FC3F7" stroke="#c8cdd0" stroke-width="0.5"/>
  <rect x="367" y="211" width="20" height="20" fill="#EEEEEE" stroke="#c8cdd0" stroke-width="0.5"/>
  <rect x="387" y="211" width="20" height="20" fill="#EEEEEE" stroke="#c8cdd0" stroke-width="0.5"/>
  <rect x="407" y="211" width="20" height="20" fill="#EEEEEE" stroke="#c8cdd0" stroke-width="0.5"/>
  <rect x="427" y="211" width="20" height="20" fill="#4FC3F7" stroke="#c8cdd0" stroke-width="0.5"/>
  <rect x="367" y="231" width="20" height="20" fill="#EEEEEE" stroke="#c8cdd0" stroke-width="0.5"/>
  <rect x="387" y="231" width="20" height="20" fill="#EEEEEE" stroke="#c8cdd0" stroke-width="0.5"/>
  <rect x="407" y="231" width="20" height="20" fill="#EEEEEE" stroke="#c8cdd0" stroke-width="0.5"/>
  <rect x="427" y="231" width="20" height="20" fill="#EEEEEE" stroke="#c8cdd0" stroke-width="0.5"/>
  <rect x="367" y="251" width="20" height="20" fill="#EEEEEE" stroke="#c8cdd0" stroke-width="0.5"/>
  <rect x="387" y="251" width="20" height="20" fill="#EEEEEE" stroke="#c8cdd0" stroke-width="0.5"/>
  <rect x="407" y="251" width="20" height="20" fill="#EEEEEE" stroke="#c8cdd0" stroke-width="0.5"/>
  <rect x="427" y="251" width="20" height="20" fill="#EEEEEE" stroke="#c8cdd0" stroke-width="0.5"/>
  <rect x="367" y="191" width="80" height="80" fill="none" stroke="#c8cdd0" stroke-width="1.2"/>
  <rect x="367" y="191" width="80" height="80" fill="none" stroke="#2980b9" stroke-width="1.5" rx="2"/>
  <text x="407.0" y="285" text-anchor="middle" font-size="10" fill="#e74c3c">x=0, y=1</text>
  <rect x="473" y="191" width="20" height="20" fill="#4FC3F7" stroke="#c8cdd0" stroke-width="0.5"/>
  <rect x="493" y="191" width="20" height="20" fill="#4FC3F7" stroke="#c8cdd0" stroke-width="0.5"/>
  <rect x="513" y="191" width="20" height="20" fill="#4FC3F7" stroke="#c8cdd0" stroke-width="0.5"/>
  <rect x="533" y="191" width="20" height="20" fill="#4FC3F7" stroke="#c8cdd0" stroke-width="0.5"/>
  <rect x="473" y="211" width="20" height="20" fill="#4FC3F7" stroke="#c8cdd0" stroke-width="0.5"/>
  <rect x="493" y="211" width="20" height="20" fill="#4FC3F7" stroke="#c8cdd0" stroke-width="0.5"/>
  <rect x="513" y="211" width="20" height="20" fill="#4FC3F7" stroke="#c8cdd0" stroke-width="0.5"/>
  <rect x="533" y="211" width="20" height="20" fill="#4FC3F7" stroke="#c8cdd0" stroke-width="0.5"/>
  <rect x="473" y="231" width="20" height="20" fill="#4FC3F7" stroke="#c8cdd0" stroke-width="0.5"/>
  <rect x="493" y="231" width="20" height="20" fill="#4FC3F7" stroke="#c8cdd0" stroke-width="0.5"/>
  <rect x="513" y="231" width="20" height="20" fill="#4FC3F7" stroke="#c8cdd0" stroke-width="0.5"/>
  <rect x="533" y="231" width="20" height="20" fill="#4FC3F7" stroke="#c8cdd0" stroke-width="0.5"/>
  <rect x="473" y="251" width="20" height="20" fill="#EEEEEE" stroke="#c8cdd0" stroke-width="0.5"/>
  <rect x="493" y="251" width="20" height="20" fill="#EEEEEE" stroke="#c8cdd0" stroke-width="0.5"/>
  <rect x="513" y="251" width="20" height="20" fill="#EEEEEE" stroke="#c8cdd0" stroke-width="0.5"/>
  <rect x="533" y="251" width="20" height="20" fill="#EEEEEE" stroke="#c8cdd0" stroke-width="0.5"/>
  <rect x="473" y="191" width="80" height="80" fill="none" stroke="#c8cdd0" stroke-width="1.2"/>
  <rect x="473" y="191" width="80" height="80" fill="none" stroke="#2980b9" stroke-width="1.5" rx="2"/>
  <text x="513.0" y="285" text-anchor="middle" font-size="10" fill="#e74c3c">x=1, y=1</text>
  <rect x="579" y="191" width="20" height="20" fill="#4FC3F7" stroke="#c8cdd0" stroke-width="0.5"/>
  <rect x="599" y="191" width="20" height="20" fill="#4FC3F7" stroke="#c8cdd0" stroke-width="0.5"/>
  <rect x="619" y="191" width="20" height="20" fill="#EEEEEE" stroke="#c8cdd0" stroke-width="0.5"/>
  <rect x="639" y="191" width="20" height="20" fill="#EEEEEE" stroke="#c8cdd0" stroke-width="0.5"/>
  <rect x="579" y="211" width="20" height="20" fill="#4FC3F7" stroke="#c8cdd0" stroke-width="0.5"/>
  <rect x="599" y="211" width="20" height="20" fill="#EEEEEE" stroke="#c8cdd0" stroke-width="0.5"/>
  <rect x="619" y="211" width="20" height="20" fill="#EEEEEE" stroke="#c8cdd0" stroke-width="0.5"/>
  <rect x="639" y="211" width="20" height="20" fill="#EEEEEE" stroke="#c8cdd0" stroke-width="0.5"/>
  <rect x="579" y="231" width="20" height="20" fill="#EEEEEE" stroke="#c8cdd0" stroke-width="0.5"/>
  <rect x="599" y="231" width="20" height="20" fill="#EEEEEE" stroke="#c8cdd0" stroke-width="0.5"/>
  <rect x="619" y="231" width="20" height="20" fill="#EEEEEE" stroke="#c8cdd0" stroke-width="0.5"/>
  <rect x="639" y="231" width="20" height="20" fill="#EEEEEE" stroke="#c8cdd0" stroke-width="0.5"/>
  <rect x="579" y="251" width="20" height="20" fill="#EEEEEE" stroke="#c8cdd0" stroke-width="0.5"/>
  <rect x="599" y="251" width="20" height="20" fill="#EEEEEE" stroke="#c8cdd0" stroke-width="0.5"/>
  <rect x="619" y="251" width="20" height="20" fill="#EEEEEE" stroke="#c8cdd0" stroke-width="0.5"/>
  <rect x="639" y="251" width="20" height="20" fill="#EEEEEE" stroke="#c8cdd0" stroke-width="0.5"/>
  <rect x="579" y="191" width="80" height="80" fill="none" stroke="#c8cdd0" stroke-width="1.2"/>
  <rect x="579" y="191" width="80" height="80" fill="none" stroke="#2980b9" stroke-width="1.5" rx="2"/>
  <text x="619.0" y="285" text-anchor="middle" font-size="10" fill="#e74c3c">x=2, y=1</text>
  <text x="513.0" y="59" text-anchor="middle" font-size="12" fill="#2980b9">Output: records with (x, y) tile indices</text>
  <text x="410" y="342" text-anchor="middle" font-size="11" fill="#7f8c8d">Each record contains: x (column index), y (row index), tile (raster)</text>
</svg>