<?xml version="1.0" encoding="UTF-8" standalone="no"?>
<!DOCTYPE svg PUBLIC "-//W3C//DTD SVG 1.1//EN" "http://www.w3.org/Graphics/SVG/1.1/DTD/svg11.dtd">
<svg width="100%" height="100%" viewBox="0 0 474 111" version="1.1" xmlns="http://www.w3.org/2000/svg" xmlns:xlink="http://www.w3.org/1999/xlink" xml:space="preserve" xmlns:serif="http://www.serif.com/" style="fill-rule:evenodd;clip-rule:evenodd;stroke-linejoin:round;stroke-miterlimit:2;">
    <g transform="matrix(1,0,0,1,-263.408,-444.853)">
        <path d="M709.219,458.14L730.434,458.14L730.434,460.142L711.434,460.142L711.434,471.942L728.517,471.942L728.517,473.944L711.434,473.944L711.434,485.958L730.646,485.958L730.646,487.96L709.219,487.96L709.219,458.14Z" style="fill:white;stroke:rgb(3,0,0);stroke-width:1px;"/>
    </g>
    <g transform="matrix(1,0,0,1,-263.408,-444.853)">
        <path d="M641.057,458.14L643.272,458.14L643.272,471.985L662.357,471.985L662.357,458.14L664.572,458.14L664.572,487.96L662.357,487.96L662.357,473.987L643.272,473.987L643.272,487.96L641.057,487.96L641.057,458.14Z" style="fill:white;stroke:rgb(3,0,0);stroke-width:1px;"/>
    </g>
    <g transform="matrix(1,0,0,1,-263.408,-444.853)">
        <path d="M587.338,488.472C585.207,488.472 583.234,488.074 581.416,487.279C579.599,486.484 578.029,485.397 576.709,484.02C575.388,482.643 574.358,481.017 573.62,479.142C572.882,477.268 572.513,475.266 572.513,473.136L572.513,473.051C572.513,470.949 572.889,468.962 573.642,467.087C574.394,465.212 575.43,463.572 576.751,462.167C578.071,460.761 579.641,459.654 581.458,458.844C583.276,458.034 585.264,457.63 587.423,457.63C588.758,457.63 589.965,457.744 591.043,457.971C592.123,458.199 593.124,458.525 594.047,458.951C594.97,459.377 595.836,459.881 596.646,460.463C597.456,461.046 598.244,461.692 599.01,462.401L597.434,464.02C596.781,463.395 596.099,462.813 595.389,462.273C594.679,461.733 593.919,461.272 593.11,460.889C592.301,460.505 591.421,460.201 590.469,459.973C589.517,459.745 588.488,459.632 587.38,459.632C585.591,459.632 583.929,459.973 582.396,460.654C580.863,461.335 579.535,462.28 578.413,463.487C577.292,464.694 576.411,466.108 575.772,467.726C575.132,469.345 574.813,471.091 574.813,472.966L574.813,473.051C574.813,474.926 575.14,476.679 575.793,478.312C576.446,479.945 577.333,481.365 578.455,482.572C579.577,483.779 580.904,484.73 582.437,485.426C583.971,486.122 585.633,486.47 587.422,486.47C589.58,486.47 591.454,486.073 593.045,485.277C594.635,484.482 596.183,483.332 597.689,481.827L599.18,483.275C598.384,484.042 597.568,484.745 596.73,485.384C595.892,486.023 594.998,486.57 594.046,487.024C593.094,487.478 592.066,487.834 590.957,488.089C589.851,488.344 588.644,488.472 587.338,488.472Z" style="fill:white;stroke:rgb(3,0,0);stroke-width:1px;"/>
    </g>
    <g transform="matrix(1,0,0,1,-263.408,-444.853)">
        <path d="M515.726,457.927L517.856,457.927L531.744,487.96L529.316,487.96L525.524,479.61L507.93,479.61L504.138,487.96L501.838,487.96L515.726,457.927ZM524.586,477.608L516.748,460.355L508.867,477.608L524.586,477.608Z" style="fill:white;stroke:rgb(3,0,0);stroke-width:1px;"/>
    </g>
    <g transform="matrix(1,0,0,1,-263.408,-444.853)">
        <path d="M440.151,458.14L450.972,458.14C452.619,458.14 454.117,458.346 455.466,458.758C456.815,459.17 457.98,459.766 458.959,460.547C459.939,461.328 460.699,462.279 461.238,463.401C461.778,464.523 462.048,465.808 462.048,467.256L462.048,467.341C462.048,468.903 461.735,470.28 461.111,471.473C460.486,472.666 459.641,473.66 458.576,474.455C457.511,475.25 456.276,475.847 454.87,476.244C453.464,476.642 451.981,476.841 450.418,476.841L442.367,476.841L442.367,487.96L440.152,487.96L440.152,458.14L440.151,458.14ZM450.546,474.839C451.938,474.839 453.201,474.669 454.338,474.328C455.474,473.98 456.446,473.49 457.256,472.844C458.066,472.205 458.697,471.424 459.152,470.508C459.606,469.599 459.834,468.584 459.834,467.469L459.834,467.384C459.834,466.184 459.614,465.133 459.173,464.231C458.733,463.336 458.115,462.584 457.32,461.981C456.525,461.384 455.573,460.93 454.466,460.61C453.359,460.298 452.137,460.142 450.803,460.142L442.368,460.142L442.368,474.839L450.546,474.839Z" style="fill:white;stroke:rgb(3,0,0);stroke-width:1px;"/>
    </g>
    <g transform="matrix(1,0,0,1,-263.408,-444.853)">
        <path d="M382.044,457.927L384.174,457.927L398.062,487.96L395.634,487.96L391.842,479.61L374.248,479.61L370.456,487.96L368.155,487.96L382.044,457.927ZM390.905,477.608L383.066,460.355L375.185,477.608L390.905,477.608Z" style="fill:white;stroke:rgb(3,0,0);stroke-width:1px;"/>
    </g>
    <g transform="matrix(1,0,0,1,-263.408,-444.853)">
        <path d="M734.67,515.706C734.67,522.919 731.523,527.464 725.227,529.34L736.672,545.226L727.29,545.226L716.846,530.529L707.153,530.529L707.153,545.226L699.773,545.226L699.773,501.51L716.034,501.51C722.705,501.51 727.478,502.636 730.356,504.887C733.231,507.139 734.67,510.745 734.67,515.706ZM716.346,523.837C720.515,523.837 723.351,523.191 724.852,521.898C726.353,520.606 727.103,518.532 727.103,515.675C727.103,512.82 726.332,510.86 724.79,509.797C723.247,508.733 720.495,508.201 716.534,508.201L707.153,508.201L707.153,523.837L716.346,523.837Z" style="fill:white;stroke:rgb(3,0,0);stroke-width:1px;"/>
    </g>
    <g transform="matrix(1,0,0,1,-263.408,-444.853)">
        <path d="M685.538,539.19C681.119,543.505 675.657,545.663 669.152,545.663C662.648,545.663 657.186,543.506 652.767,539.19C648.347,534.875 646.137,529.496 646.137,523.054C646.137,516.612 648.347,511.234 652.767,506.918C657.186,502.604 662.648,500.445 669.152,500.445C675.657,500.445 681.119,502.603 685.538,506.918C689.958,511.233 692.168,516.612 692.168,523.054C692.168,529.496 689.958,534.875 685.538,539.19ZM680.129,511.829C677.148,508.743 673.489,507.201 669.152,507.201C664.816,507.201 661.158,508.743 658.176,511.829C655.196,514.914 653.704,518.656 653.704,523.055C653.704,527.454 655.195,531.196 658.176,534.282C661.157,537.367 664.816,538.91 669.152,538.91C673.489,538.91 677.147,537.367 680.129,534.282C683.109,531.196 684.6,527.454 684.6,523.055C684.6,518.656 683.109,514.914 680.129,511.829Z" style="fill:white;stroke:rgb(3,0,0);stroke-width:1px;"/>
    </g>
    <g transform="matrix(1,0,0,1,-263.408,-444.853)">
        <path d="M630.591,508.264L630.591,545.226L623.211,545.226L623.211,508.264L609.952,508.264L609.952,501.51L643.849,501.51L643.849,508.264L630.591,508.264Z" style="fill:white;stroke:rgb(3,0,0);stroke-width:1px;"/>
    </g>
    <g transform="matrix(1,0,0,1,-263.408,-444.853)">
        <path d="M579.02,535.281L574.642,545.225L566.762,545.225L586.025,501.509L593.905,501.509L613.168,545.225L605.288,545.225L600.909,535.281L579.02,535.281ZM597.906,528.464L589.964,510.453L582.022,528.464L597.906,528.464Z" style="fill:white;stroke:rgb(3,0,0);stroke-width:1px;"/>
    </g>
    <g transform="matrix(1,0,0,1,-263.408,-444.853)">
        <path d="M550.026,545.226L530.888,545.226L530.888,501.51L547.9,501.51C550.86,501.51 553.414,501.864 555.561,502.573C557.707,503.282 559.302,504.241 560.345,505.451C562.346,507.702 563.347,510.246 563.347,513.081C563.347,516.499 562.263,519.043 560.094,520.711C559.302,521.295 558.76,521.659 558.468,521.805C558.176,521.951 557.655,522.191 556.905,522.525C559.615,523.109 561.773,524.328 563.379,526.183C564.983,528.038 565.786,530.342 565.786,533.094C565.786,536.137 564.744,538.826 562.659,541.161C560.199,543.87 555.988,545.226 550.026,545.226ZM538.269,538.408L549.839,538.408C552.549,538.408 554.623,537.981 556.062,537.127C557.5,536.272 558.219,534.656 558.219,532.279C558.219,528.402 555.114,526.464 548.901,526.464L538.269,526.464L538.269,538.408ZM538.269,519.646L547.65,519.646C552.987,519.646 555.655,517.833 555.655,514.205C555.655,512.121 555.009,510.62 553.717,509.702C552.425,508.785 550.423,508.326 547.713,508.326L538.27,508.326L538.27,519.646L538.269,519.646Z" style="fill:white;stroke:rgb(3,0,0);stroke-width:1px;"/>
    </g>
    <g transform="matrix(1,0,0,1,-263.408,-444.853)">
        <path d="M494.39,535.219C496.391,537.554 499.101,538.721 502.52,538.721C505.939,538.721 508.649,537.554 510.65,535.219C512.652,532.884 513.652,529.715 513.652,525.713L513.652,501.51L521.032,501.51L521.032,526.026C521.032,532.322 519.303,537.169 515.842,540.567C512.381,543.964 507.941,545.664 502.521,545.664C497.101,545.664 492.66,543.965 489.2,540.567C485.739,537.169 484.009,532.322 484.009,526.026L484.009,501.51L491.389,501.51L491.389,525.713C491.388,529.715 492.389,532.884 494.39,535.219Z" style="fill:white;stroke:rgb(3,0,0);stroke-width:1px;"/>
    </g>
    <g transform="matrix(1,0,0,1,-263.408,-444.853)">
        <path d="M460.206,538.533C462.749,538.533 464.938,538.106 466.773,537.252C468.607,536.397 470.525,535.031 472.526,533.155L477.279,538.033C472.651,543.161 467.032,545.725 460.425,545.725C453.816,545.725 448.334,543.599 443.977,539.346C439.62,535.093 437.441,529.714 437.441,523.21C437.441,516.706 439.661,511.286 444.102,506.95C448.542,502.613 454.15,500.445 460.925,500.445C467.7,500.445 473.36,502.947 477.904,507.95L473.214,513.079C471.13,511.077 469.159,509.681 467.304,508.889C465.449,508.097 463.27,507.701 460.768,507.701C456.349,507.701 452.638,509.129 449.636,511.985C446.634,514.84 445.133,518.489 445.133,522.929C445.133,527.369 446.624,531.08 449.605,534.061C452.586,537.043 456.12,538.533 460.206,538.533Z" style="fill:white;stroke:rgb(3,0,0);stroke-width:1px;"/>
    </g>
    <g transform="matrix(1,0,0,1,-263.408,-444.853)">
        <path d="M422.456,501.51L429.836,501.51L429.836,545.226L421.831,545.226L397.065,513.33L397.065,545.226L389.686,545.226L389.686,501.51L397.065,501.51L422.456,534.155L422.456,501.51Z" style="fill:white;stroke:rgb(3,0,0);stroke-width:1px;"/>
    </g>
    <g transform="matrix(1,0,0,1,-263.408,-444.853)">
        <rect x="371.887" y="501.51" width="7.379" height="43.716" style="fill:white;stroke:rgb(3,0,0);stroke-width:1px;"/>
    </g>
    <g transform="matrix(1,0,0,1,-263.408,-444.853)">
        <path d="M308.331,459.957C308.328,459.633 308.323,459.308 308.315,458.979C308.382,459.086 308.571,459.414 308.884,459.957L308.331,459.957ZM296.568,494.187C293.136,500.569 291.179,507.228 290.679,514.158C290.234,520.329 290.901,525.65 292.7,530.111C292.946,530.718 293.184,531.279 293.422,531.799C292,530.793 290.643,529.744 289.349,528.65C289.24,528.564 289.161,528.528 289.111,528.541C290.81,531.258 292.927,533.72 295.465,535.928C295.857,536.27 296.511,536.432 296.672,536.935C297.131,538.378 295.883,551.335 299.891,554.354C302.44,556.272 313.706,553.86 317.184,552.737C335.331,546.876 349.406,530.115 347.312,505.96C345.016,479.469 327.564,452.529 310.158,446.054C305.453,444.303 304.409,444.463 299.523,446.553C282.539,453.816 265.856,480.102 263.615,505.96C261.462,530.806 276.412,547.828 295.308,553.212C295.819,553.358 296.313,553.492 296.793,553.619C296.306,552.612 295.908,551.471 295.585,550.263C275.793,544.377 264.722,526.829 266.509,506.212C268.217,486.502 281.427,457.452 300.663,449.225C304.684,447.507 305.065,447.262 309.142,448.779C328.887,456.123 342.679,486.176 344.415,506.213C346.272,527.635 334.193,545.66 313.303,550.822C311.202,551.341 309.38,551.684 307.674,551.855C302.261,552.398 300.379,553.356 299.386,547.719C297.199,535.286 298.852,512.787 304.262,504.154C304.305,503.527 304.269,504.675 303.862,505.655C303.674,506.095 303.553,506.364 303.5,506.502C300.26,513.924 298.452,535.455 299.994,539.544C299.548,538.079 300.347,534.994 301.504,534.361L302.167,533.897C305.795,531.284 308.14,527.179 310.762,521.98C310.717,521.908 310.632,521.917 310.51,522.005C309.286,523.028 308.024,523.947 306.727,524.76C309.68,521.658 312.258,517.698 314.468,512.874C314.408,512.786 314.306,512.802 314.16,512.916C313.288,513.703 312.4,514.444 311.493,515.14C315.201,508.426 318.467,500.649 318.809,491.761C318.978,486.008 317.926,480.465 315.65,475.171C314.865,473.361 313.77,471.198 312.358,468.646C310.271,464.883 309.143,462.845 308.963,462.549C309.056,470.706 307.617,477.337 304.648,482.389C303.882,483.73 302.523,485.685 300.559,488.248C298.735,490.638 297.397,492.617 296.568,494.187Z" style="fill:rgb(210,33,40);"/>
    </g>
</svg>
