<svg xmlns="http://www.w3.org/2000/svg" width="1180" height="380" viewBox="0 0 1180 380" role="img" aria-label="A single planet-scale .osm.pbf file is split into byte-range blocks, decoded in parallel by many workers, and lands as one Sedona DataFrame">
<defs>
<linearGradient id="sbg" x1="0" y1="0" x2="1" y2="1"><stop offset="0" stop-color="#1c1022"/><stop offset="0.55" stop-color="#2a1420"/><stop offset="1" stop-color="#3a1e1b"/></linearGradient>
</defs>
<rect width="1180" height="380" rx="18" fill="url(#sbg)"/>

<text x="590" y="40" text-anchor="middle" font-family="ui-monospace, 'SF Mono', Menlo, monospace" font-size="17" fill="#f0d3b8">one <tspan fill="#f5c542">~80 GB planet file</tspan> &#8594; byte-range splits &#8594; <tspan fill="#f2913a">parallel decode</tspan> &#8594; one <tspan fill="#ff7a45">Sedona DataFrame</tspan></text>

<!-- ===== the single file, segmented into independently decodable blocks ===== -->
<text x="60" y="128" font-family="ui-monospace, Menlo, monospace" font-size="13" fill="#c6ab9c">s3://osm/planet-latest.osm.pbf</text>
<rect x="60" y="142" width="270" height="96" rx="10" fill="#2a181c" stroke="#f5c542" stroke-width="1.6"/>
<!-- block separators -->
<g stroke="#f5c542" stroke-opacity="0.55" stroke-width="1.2" stroke-dasharray="4 4">
<line x1="127" y1="142" x2="127" y2="238"/><line x1="194" y1="142" x2="194" y2="238"/><line x1="261" y1="142" x2="261" y2="238"/>
</g>
<g font-family="ui-monospace, Menlo, monospace" font-size="11.5" fill="#f0d08a" text-anchor="middle">
<text x="93" y="195">blk 0</text><text x="160" y="195">blk 1</text><text x="227" y="195">blk 2</text><text x="294" y="195">&#8230;</text>
</g>
<text x="60" y="266" font-family="Inter, 'Helvetica Neue', Arial, sans-serif" font-size="12.5" fill="#a8897a">PBF blocks decode independently —</text>
<text x="60" y="284" font-family="Inter, 'Helvetica Neue', Arial, sans-serif" font-size="12.5" fill="#a8897a">the reader is splittable, no pre-chopping</text>

<!-- fan-out arrows to workers -->
<g stroke="#f2913a" stroke-width="1.8" fill="none">
<path d="M334,168 C400,120 440,104 486,96"/>
<path d="M334,190 C400,178 440,172 486,168"/>
<path d="M334,212 C400,224 440,234 486,240"/>
<path d="M334,232 C400,278 440,300 486,310"/>
</g>
<g fill="#f2913a"><path d="M486,96 l-10,-4 2,8 Z"/><path d="M486,168 l-10,-4 2,8 Z"/><path d="M486,240 l-10,-4 2,8 Z"/><path d="M486,310 l-10,-4 2,8 Z"/></g>

<!-- ===== workers, decoding in parallel ===== -->
<g font-family="ui-monospace, Menlo, monospace" font-size="12.5">
<g>
<rect x="496" y="72" width="230" height="50" rx="10" fill="#2a181c" stroke="#6e3a24" stroke-width="1.5"/>
<circle cx="520" cy="97" r="6" fill="#f2913a"/><text x="536" y="102" fill="#e7d9cf">worker 1 &#183; blk 0</text>
<rect x="664" y="90" width="50" height="14" rx="7" fill="#3a231d"/><rect x="664" y="90" width="40" height="14" rx="7" fill="#f2913a"/>
</g>
<g>
<rect x="496" y="144" width="230" height="50" rx="10" fill="#2a181c" stroke="#6e3a24" stroke-width="1.5"/>
<circle cx="520" cy="169" r="6" fill="#f5c542"/><text x="536" y="174" fill="#e7d9cf">worker 2 &#183; blk 1</text>
<rect x="664" y="162" width="50" height="14" rx="7" fill="#3a231d"/><rect x="664" y="162" width="32" height="14" rx="7" fill="#f5c542"/>
</g>
<g>
<rect x="496" y="216" width="230" height="50" rx="10" fill="#2a181c" stroke="#6e3a24" stroke-width="1.5"/>
<circle cx="520" cy="241" r="6" fill="#ff7a45"/><text x="536" y="246" fill="#e7d9cf">worker 3 &#183; blk 2</text>
<rect x="664" y="234" width="50" height="14" rx="7" fill="#3a231d"/><rect x="664" y="234" width="45" height="14" rx="7" fill="#ff7a45"/>
</g>
<g>
<rect x="496" y="288" width="230" height="50" rx="10" fill="#2a181c" stroke="#6e3a24" stroke-width="1.5" stroke-dasharray="5 4"/>
<text x="536" y="318" fill="#a8897a">worker N &#183; blk &#8230;</text>
</g>
</g>
<text x="611" y="62" text-anchor="middle" font-family="Inter, 'Helvetica Neue', Arial, sans-serif" font-size="12.5" fill="#a8897a">decoding in parallel</text>

<!-- converge arrows -->
<g stroke="#ff7a45" stroke-width="1.8" fill="none">
<path d="M726,97 C790,110 820,140 856,166"/>
<path d="M726,169 C790,175 820,180 856,186"/>
<path d="M726,241 C790,232 820,220 856,206"/>
<path d="M726,313 C790,290 820,254 856,226"/>
</g>
<g fill="#ff7a45"><path d="M856,166 l-10,-6 0,9 Z"/><path d="M856,186 l-10,-5 1,9 Z"/><path d="M856,206 l-10,-2 2,9 Z"/><path d="M856,226 l-10,0 4,9 Z"/></g>

<!-- ===== one DataFrame ===== -->
<rect x="866" y="120" width="254" height="170" rx="12" fill="#2a181c" stroke="#ff5a2e" stroke-width="1.8"/>
<rect x="866" y="120" width="254" height="38" rx="12" fill="#4a1e15"/><rect x="866" y="140" width="254" height="18" fill="#4a1e15"/>
<text x="884" y="145" font-family="ui-monospace, Menlo, monospace" font-size="13" font-weight="600" fill="#ff8f5c">one Sedona DataFrame</text>
<g font-family="ui-monospace, Menlo, monospace" font-size="12" fill="#e7d9cf">
<text x="884" y="184"><tspan fill="#f5c542">node</tspan>      9 billion+</text>
<text x="884" y="212"><tspan fill="#f2913a">way</tspan>       1 billion+</text>
<text x="884" y="240"><tspan fill="#ff7a45">relation</tspan>  millions</text>
</g>
<text x="884" y="272" font-family="Inter, 'Helvetica Neue', Arial, sans-serif" font-size="12" fill="#a8897a">same queries, more partitions</text>
</svg>
