<svg xmlns="http://www.w3.org/2000/svg" viewBox="0 0 500 300" width="500" height="300" style="background:#ffffff">
  <defs>
    <style>
      text { font-family: 'Segoe UI', Arial, Helvetica, sans-serif; }
    </style>
  </defs>
  <text x="250" y="22" text-anchor="middle" font-size="16" font-weight="bold" fill="#333333">ST_PointFromText</text>
  <line x1="171.43" y1="228.57" x2="171.43" y2="71.43" stroke="#e8e8e8" stroke-width="1" />
  <line x1="210.71" y1="228.57" x2="210.71" y2="71.43" stroke="#e8e8e8" stroke-width="1" />
  <line x1="250.0" y1="228.57" x2="250.0" y2="71.43" stroke="#e8e8e8" stroke-width="1" />
  <line x1="289.29" y1="228.57" x2="289.29" y2="71.43" stroke="#e8e8e8" stroke-width="1" />
  <line x1="328.57" y1="228.57" x2="328.57" y2="71.43" stroke="#e8e8e8" stroke-width="1" />
  <line x1="171.43" y1="228.57" x2="328.57" y2="228.57" stroke="#e8e8e8" stroke-width="1" />
  <line x1="171.43" y1="189.29" x2="328.57" y2="189.29" stroke="#e8e8e8" stroke-width="1" />
  <line x1="171.43" y1="150.0" x2="328.57" y2="150.0" stroke="#e8e8e8" stroke-width="1" />
  <line x1="171.43" y1="110.71" x2="328.57" y2="110.71" stroke="#e8e8e8" stroke-width="1" />
  <line x1="171.43" y1="71.43" x2="328.57" y2="71.43" stroke="#e8e8e8" stroke-width="1" />
  <rect x="76" y="138" width="48" height="24" rx="4" fill="#8e44ad" opacity="0.12" stroke="#8e44ad" stroke-width="1.2" />
  <text x="100" y="155" text-anchor="middle" font-size="13" font-weight="bold" fill="#8e44ad">Text</text>
  <line x1="140" y1="150" x2="231.1" y2="131.0" stroke="#2ecc71" stroke-width="2" />
  <polygon points="234.0,130.4 223.4,128.5 225.0,136.3" fill="#2ecc71" />
  <circle cx="250.0" cy="130.36" r="10" fill="#2ecc71" stroke="white" stroke-width="1.5" />
  <text x="250" y="292" text-anchor="middle" font-size="13" fill="#333333" font-style="italic">Constructs a Point from delimited text</text>
  <rect x="112" y="255" width="12" height="12" rx="2" fill="#8e44ad" stroke="#8e44ad" stroke-width="1" />
  <text x="128" y="266" font-size="13" fill="#333333">Input Format</text>
  <rect x="238" y="255" width="12" height="12" rx="2" fill="#2ecc71" stroke="#2ecc71" stroke-width="1" />
  <text x="254" y="266" font-size="13" fill="#333333">Result Geometry</text>
</svg>