<svg xmlns="http://www.w3.org/2000/svg" width="400" height="130" viewBox="0 0 400 130">
  <rect width="400" height="130" fill="#f5f5f5" rx="5"/>
  <defs><marker id="arrowhead" markerWidth="8" markerHeight="6" refX="8" refY="3" orient="auto"><polygon points="0 0, 8 3, 0 6" fill="#666"/></marker></defs>
  <polygon points="35.0,90.0 70.0,55.0 105.0,90.0" fill="#E53935" fill-opacity="0.12" stroke="none"/>
  <polygon points="105.0,20.0 70.0,55.0 35.0,20.0" fill="#E53935" fill-opacity="0.12" stroke="none"/>
  <line x1="35.0" y1="90.0" x2="105.0" y2="20.0" stroke="#E53935" stroke-width="2"/>
  <line x1="105.0" y1="20.0" x2="105.0" y2="90.0" stroke="#E53935" stroke-width="2"/>
  <line x1="105.0" y1="90.0" x2="35.0" y2="20.0" stroke="#E53935" stroke-width="2"/>
  <line x1="35.0" y1="20.0" x2="35.0" y2="90.0" stroke="#E53935" stroke-width="2"/>
  <circle cx="70.0" cy="55.0" r="5" fill="#E53935" stroke="#fff" stroke-width="1.5"/>
  <text x="70.0" y="122.0" font-family="monospace" font-size="10" fill="#E53935" text-anchor="middle">Invalid</text>
  <line x1="155" y1="65" x2="205" y2="65" stroke="#666" stroke-width="1.5" marker-end="url(#arrowhead)"/>
  <text x="180.0" y="57.0" font-family="monospace" font-size="9" fill="#666" text-anchor="middle">ST_MakeValid</text>
  <polygon points="255.0,90.0 290.0,55.0 325.0,90.0 255.0,90.0" stroke="#43A047" stroke-width="2" fill="rgba(67,160,71,0.20)"/>
  <polygon points="255.0,20.0 290.0,55.0 325.0,20.0 255.0,20.0" stroke="#1565C0" stroke-width="2" fill="rgba(21,101,192,0.20)"/>
  <text x="290.0" y="122.0" font-family="monospace" font-size="10" fill="#43A047" text-anchor="middle">Valid (2 polygons)</text>
</svg>
