<svg xmlns="http://www.w3.org/2000/svg" viewBox="0 0 500 300" width="500" height="300" style="background:#ffffff">
  <defs>
    <style>
      text { font-family: 'Segoe UI', Arial, Helvetica, sans-serif; }
    </style>
  </defs>
  <text x="250" y="22" text-anchor="middle" font-size="16" font-weight="bold" fill="#333333">ST_SimplifyPolygonHull</text>
  <path d="M 165.38 200.77 L 182.31 234.62 L 216.15 217.69 L 250.0 234.62 L 283.85 217.69 L 317.69 234.62 L 334.62 200.77 L 334.62 150.0 L 317.69 116.15 L 334.62 82.31 L 300.77 65.38 L 250.0 82.31 L 216.15 65.38 L 165.38 82.31 L 165.38 133.08 L 182.31 166.92 L 165.38 200.77 Z" fill="rgba(74,144,217,0.15)" stroke="#4a90d9" stroke-width="2" fill-rule="evenodd" stroke-dasharray="6,3" />
  <path d="M 182.31 234.62 L 317.69 234.62 L 334.62 200.77 L 334.62 82.31 L 300.77 65.38 L 165.38 82.31 L 165.38 200.77 L 182.31 234.62 Z" fill="rgba(46,204,113,0.35)" stroke="#2ecc71" stroke-width="3" fill-rule="evenodd" />
  <text x="250" y="292" text-anchor="middle" font-size="13" fill="#333333" font-style="italic">Returns a topology-preserving simplified hull of the polygon</text>
  <rect x="176" y="255" width="12" height="12" rx="2" fill="#4a90d9" stroke="#4a90d9" stroke-width="1" />
  <text x="192" y="266" font-size="13" fill="#333333">Input</text>
  <rect x="246" y="255" width="12" height="12" rx="2" fill="#2ecc71" stroke="#2ecc71" stroke-width="1" />
  <text x="262" y="266" font-size="13" fill="#333333">Result</text>
</svg>