<svg xmlns="http://www.w3.org/2000/svg" width="620" height="360" viewBox="0 0 620 360" font-family="Arial, Helvetica, sans-serif">
<rect width="620" height="360" fill="white"/>
<text x="310" y="28" text-anchor="middle" font-size="17" fill="#333" font-weight="bold" font-style="normal">RS_WorldToRasterCoordY</text><text x="310" y="48" text-anchor="middle" font-size="12" fill="#666" font-weight="normal" font-style="normal">Returns the grid row (Y) for given world coordinates</text><rect x="40" y="100" width="180" height="90" fill="#FFF3E0" stroke="#FF8F00" stroke-width="1.5" rx="6"/><text x="130" y="125" text-anchor="middle" font-size="12" fill="#333" font-weight="bold" font-style="normal">World Coordinate</text><text x="130" y="150" text-anchor="middle" font-size="15" fill="#FF8F00" font-weight="bold" font-style="normal">(-50, 50)</text><text x="130" y="172" text-anchor="middle" font-size="11" fill="#666" font-weight="normal" font-style="normal">x = -50, y = 50</text><line x1="225" y1="145" x2="300" y2="145" stroke="#333" stroke-width="1.5"/>
<polygon points="300,145 293.2,149.3 293.2,140.7" fill="#333"/><rect x="310" y="80" width="225" height="190" fill="#E3F2FD" stroke="#1565C0" stroke-width="1.5"/>
<line x1="355" y1="80" x2="355" y2="270" stroke="#1565C0" stroke-width="0.8" opacity="0.5"/>
<line x1="400" y1="80" x2="400" y2="270" stroke="#1565C0" stroke-width="0.8" opacity="0.5"/>
<line x1="445" y1="80" x2="445" y2="270" stroke="#1565C0" stroke-width="0.8" opacity="0.5"/>
<line x1="490" y1="80" x2="490" y2="270" stroke="#1565C0" stroke-width="0.8" opacity="0.5"/>
<line x1="310" y1="118" x2="535" y2="118" stroke="#1565C0" stroke-width="0.8" opacity="0.5"/>
<line x1="310" y1="156" x2="535" y2="156" stroke="#1565C0" stroke-width="0.8" opacity="0.5"/>
<line x1="310" y1="194" x2="535" y2="194" stroke="#1565C0" stroke-width="0.8" opacity="0.5"/>
<line x1="310" y1="232" x2="535" y2="232" stroke="#1565C0" stroke-width="0.8" opacity="0.5"/><text x="332.5" y="74" text-anchor="middle" font-size="11" fill="#333" font-weight="bold" font-style="normal">1</text><text x="377.5" y="74" text-anchor="middle" font-size="11" fill="#333" font-weight="bold" font-style="normal">2</text><text x="422.5" y="74" text-anchor="middle" font-size="11" fill="#333" font-weight="bold" font-style="normal">3</text><text x="467.5" y="74" text-anchor="middle" font-size="11" fill="#333" font-weight="bold" font-style="normal">4</text><text x="512.5" y="74" text-anchor="middle" font-size="11" fill="#333" font-weight="bold" font-style="normal">5</text><text x="300" y="103.0" text-anchor="middle" font-size="11" fill="#333" font-weight="bold" font-style="normal">1</text><text x="300" y="141.0" text-anchor="middle" font-size="11" fill="#333" font-weight="bold" font-style="normal">2</text><text x="300" y="179.0" text-anchor="middle" font-size="11" fill="#333" font-weight="bold" font-style="normal">3</text><text x="300" y="217.0" text-anchor="middle" font-size="11" fill="#333" font-weight="bold" font-style="normal">4</text><text x="300" y="255.0" text-anchor="middle" font-size="11" fill="#333" font-weight="bold" font-style="normal">5</text><text x="290" y="160.0" text-anchor="end" font-size="10" fill="#666" font-weight="normal" font-style="normal">row</text><rect x="310" y="118" width="225" height="38" fill="rgba(255,143,0,0.2)" stroke="#D32F2F" stroke-width="2"/><rect x="390" y="290" width="180" height="55" fill="#F5F5F5" stroke="#666" stroke-width="1" rx="6"/><text x="480" y="312" text-anchor="middle" font-size="12" fill="#333" font-weight="bold" font-style="normal">Grid Row (Y)</text><text x="480" y="334" text-anchor="middle" font-size="18" fill="#D32F2F" font-weight="bold" font-style="normal">= 2</text><line x1="540" y1="137.0" x2="450" y2="285" stroke="#D32F2F" stroke-width="1.5" stroke-dasharray="5,3"/>
<polygon points="450,285 449.8,277.0 457.2,281.5" fill="#D32F2F"/></svg>