<svg width="84" height="86" viewBox="0 0 84 86" fill="none" xmlns="http://www.w3.org/2000/svg">
<mask id="mask0_101_2183" style="mask-type:luminance" maskUnits="userSpaceOnUse" x="3" y="0" width="77" height="86">
<path d="M79.29 0H3.97296V85.4426H79.29V0Z" fill="white"/>
</mask>
<g mask="url(#mask0_101_2183)">
<path d="M56.945 48.3121L51.834 51.7725L45.8859 47.629L33.4108 38.935L3.97296 57.5224L32.334 0L51.0909 36.8228L56.945 48.3121Z" fill="#CA463A"/>
<path d="M79.4831 58.2995L60.009 46.2469L57.1379 48.1766L52.0296 51.6343L46.0815 47.4907L51.2865 36.6872L59.2554 20.1389L79.4831 58.2995Z" fill="#CA463A"/>
<path fill-rule="evenodd" clip-rule="evenodd" d="M33.3178 57.6735L47.3131 67.3479L51.7826 70.438L59.7673 65.0766L91.8571 84.801L88.814 89.135L59.7229 71.4837L58.3826 72.3859L51.7382 76.845L44.2673 71.6819L33.2108 64.0388L-7.16622 90.0189L-10.0632 85.5885L33.3178 57.6735Z" fill="#EBBD5D"/>
<path fill-rule="evenodd" clip-rule="evenodd" d="M33.4096 45.4646L47.4832 55.345L51.9944 58.4351L60.0964 52.8678L92.4757 72.5921L89.404 76.9286L60.0522 59.2773L58.6987 60.177L51.9944 64.6387L44.4583 59.4729L33.3027 51.8299L-7.43934 77.8126L-10.3626 73.3796L33.4096 45.4646Z" fill="#D77D48"/>
</g>
</svg>
