<svg xmlns="http://www.w3.org/2000/svg" width="800" height="380" viewBox="0 0 800 380" font-family="Arial, Helvetica, sans-serif">
<rect width="800" height="380" fill="white"/>
<text x="400" y="28" text-anchor="middle" font-size="17" fill="#333" font-weight="bold" font-style="normal">RS_SetGeoReference</text><text x="400" y="48" text-anchor="middle" font-size="12" fill="#666" font-weight="normal" font-style="normal">Sets the georeference metadata of a raster</text><text x="125.0" y="80" text-anchor="middle" font-size="13" fill="#333" font-weight="bold" font-style="normal">Input Raster</text><rect x="50" y="90" width="150" height="150" fill="#E8EAF6" stroke="#5C6BC0" stroke-width="1.5"/>
<line x1="100" y1="90" x2="100" y2="240" stroke="#5C6BC0" stroke-width="0.8" opacity="0.5"/>
<line x1="150" y1="90" x2="150" y2="240" stroke="#5C6BC0" stroke-width="0.8" opacity="0.5"/>
<line x1="50" y1="140" x2="200" y2="140" stroke="#5C6BC0" stroke-width="0.8" opacity="0.5"/>
<line x1="50" y1="190" x2="200" y2="190" stroke="#5C6BC0" stroke-width="0.8" opacity="0.5"/><text x="50" y="260" text-anchor="start" font-size="10" fill="#666" font-weight="normal" font-style="normal">ScaleX=1, ScaleY=-1</text><text x="50" y="276" text-anchor="start" font-size="10" fill="#666" font-weight="normal" font-style="normal">SkewX=0, SkewY=0</text><text x="50" y="292" text-anchor="start" font-size="10" fill="#666" font-weight="normal" font-style="normal">Origin=(0, 0)</text><rect x="280" y="130" width="230" height="70" fill="#FFF3E0" stroke="#FF8F00" stroke-width="1.5" rx="8"/><text x="395" y="155" text-anchor="middle" font-size="13" fill="#FF8F00" font-weight="bold" font-style="normal">RS_SetGeoReference</text><text x="395" y="178" text-anchor="middle" font-size="12" fill="#333" font-weight="normal" font-style="normal">'3 1.5 1.5 2 22 3'</text><line x1="208" y1="165.0" x2="275" y2="165" stroke="#333" stroke-width="1.5"/>
<polygon points="275,165 268.2,169.3 268.2,160.7" fill="#333"/><line x1="515" y1="165" x2="570" y2="165.0" stroke="#333" stroke-width="1.5"/>
<polygon points="570,165.0 563.2,169.3 563.2,160.7" fill="#333"/><text x="673.0" y="80" text-anchor="middle" font-size="13" fill="#333" font-weight="bold" font-style="normal">Result Raster</text><polygon points="580.0,90.0 730.0,120.0 766.0,270.0 616.0,240.0" fill="#E3F2FD" stroke="#1565C0" stroke-width="1.5" opacity="1.0"/>
<line x1="630.0" y1="100.0" x2="666.0" y2="250.0" stroke="#1565C0" stroke-width="0.8" opacity="0.4"/>
<line x1="680.0" y1="110.0" x2="716.0" y2="260.0" stroke="#1565C0" stroke-width="0.8" opacity="0.4"/>
<line x1="592.0" y1="140.0" x2="742.0" y2="170.0" stroke="#1565C0" stroke-width="0.8" opacity="0.4"/>
<line x1="604.0" y1="190.0" x2="754.0" y2="220.0" stroke="#1565C0" stroke-width="0.8" opacity="0.4"/><text x="580" y="280" text-anchor="start" font-size="10" fill="#1565C0" font-weight="bold" font-style="normal">ScaleX=3, ScaleY=2</text><text x="580" y="296" text-anchor="start" font-size="10" fill="#00796B" font-weight="bold" font-style="normal">SkewX=1.5, SkewY=1.5</text><text x="580" y="312" text-anchor="start" font-size="10" fill="#FF8F00" font-weight="bold" font-style="normal">Origin=(22, 3)</text><text x="400" y="365" text-anchor="middle" font-size="11" fill="#666" font-weight="normal" font-style="italic">Same pixel data, different spatial positioning</text></svg>