<svg width="148" height="69" viewBox="0 0 148 69" fill="none" xmlns="http://www.w3.org/2000/svg">
<g clip-path="url(#clip0_79_1883)">
<path d="M111.918 42.2146C111.683 42.2146 111.521 42.0522 111.521 41.8185V30.2124H107.56C107.324 30.2124 107.162 30.0507 107.162 29.8168V28.2158C107.162 27.9814 107.325 27.8192 107.56 27.8192H118.103C118.338 27.8192 118.5 27.9816 118.5 28.2158V29.8167C118.5 30.0504 118.338 30.2124 118.103 30.2124H114.142V41.8184C114.142 42.0522 113.979 42.2146 113.745 42.2146H111.918ZM81.578 36.4202L79.4988 30.4827L77.401 36.4202H81.578ZM86.1894 41.7457C86.2802 41.9802 86.1353 42.2146 85.8821 42.2146H84.0017C83.7303 42.2146 83.5674 42.0891 83.4767 41.836L82.4102 38.7781H76.5698L75.5015 41.836C75.4118 42.0891 75.2484 42.2146 74.9777 42.2146H73.2061C72.9707 42.2146 72.8077 41.9801 72.8982 41.7457L77.7987 28.1798C77.8894 27.9271 78.052 27.8198 78.3227 27.8198H80.746C81.0175 27.8198 81.1984 27.9272 81.2887 28.1798L86.1894 41.7457ZM100.236 40.2709C101.393 40.2709 102.171 39.714 102.804 38.7599L99.8749 35.6286C98.7532 36.2589 98.0295 36.8879 98.0295 38.1478C98.0297 39.3896 99.0419 40.2709 100.236 40.2709ZM101.05 29.7265C100.11 29.7265 99.5672 30.3208 99.5672 31.1124C99.5672 31.7241 99.892 32.264 100.634 33.056C101.917 32.3177 102.46 31.8681 102.46 31.0766C102.46 30.3383 101.99 29.7265 101.05 29.7265ZM109.061 41.7107C109.296 41.9629 109.152 42.2146 108.862 42.2146H106.565C106.258 42.2146 106.095 42.1423 105.896 41.9081L104.522 40.3973C103.6 41.621 102.315 42.5384 100.181 42.5384C97.5414 42.5384 95.4612 40.9551 95.4612 38.2385C95.4612 36.1506 96.583 35.0347 98.2831 34.0992C97.4505 33.1456 97.0715 32.1379 97.0715 31.2567C97.0715 29.0248 98.6447 27.4956 101.013 27.4956C103.436 27.4956 104.919 28.9176 104.919 31.0225C104.919 32.8219 103.618 33.8286 102.243 34.5849L104.269 36.7629L105.408 34.7828C105.552 34.5493 105.715 34.459 106.004 34.459H107.758C108.048 34.459 108.21 34.6574 108.03 34.9631L106.004 38.4174L109.061 41.7107ZM91.0145 42.2146C91.2496 42.2146 91.4131 42.0522 91.4131 41.8185V30.2124H95.3728C95.6079 30.2124 95.7705 30.0507 95.7705 29.8168V28.2158C95.7705 27.9814 95.6079 27.8192 95.3728 27.8192H84.8299C84.5944 27.8192 84.432 27.9816 84.432 28.2158V29.8167C84.432 30.0504 84.5945 30.2124 84.8299 30.2124H88.7895V41.8184C88.7895 42.0522 88.9528 42.2146 89.1876 42.2146H91.0145Z" fill="black"/>
<path d="M37.4966 49.2155C40.5634 51.5786 44.4127 52.9985 48.589 52.9985C53.1593 52.9985 57.3258 51.3094 60.5056 48.5368C60.5442 48.5029 60.5252 48.4805 60.4872 48.5029C59.0603 49.4515 54.9935 51.5222 48.5892 51.5222C43.0236 51.5222 39.5064 50.2861 37.5202 49.1825C37.4822 49.1639 37.4681 49.1922 37.4966 49.2155ZM49.8169 50.1356C54.2684 50.1356 59.16 48.9277 62.0855 46.5366C62.8861 45.8852 63.6487 45.0181 64.3317 43.8528C64.7248 43.1824 65.1094 42.3858 65.4226 41.6028C65.4365 41.5646 65.4128 41.546 65.384 41.589C62.6634 45.5743 54.7851 48.0601 46.6505 48.0601C40.9006 48.0601 34.7138 46.2298 32.2916 42.735C32.2678 42.7026 32.2439 42.7165 32.2585 42.7536C34.5149 47.5276 41.3603 50.1356 49.8169 50.1356ZM44.9533 42.2157C35.6952 42.2157 31.3298 37.9235 30.5379 34.9944C30.5281 34.9521 30.5001 34.9613 30.5001 34.9994C30.5001 35.9855 30.5992 37.2581 30.7698 38.1027C30.8512 38.5139 31.1873 39.1591 31.6802 39.6734C33.922 41.9995 39.5112 45.2588 49.1907 45.2588C62.3787 45.2588 65.3941 40.8859 66.0098 39.4479C66.4501 38.4194 66.6783 36.5608 66.6783 34.9995C66.6783 34.6217 66.6688 34.3199 66.6544 34.0237C66.6544 33.9756 66.6265 33.9717 66.6168 34.0185C65.9577 37.5373 54.6901 42.2157 44.9533 42.2157ZM32.2439 27.2778C31.7134 28.3258 31.1254 30.0939 30.9506 31.0089C30.874 31.401 30.9066 31.5893 31.0447 31.8819C32.1544 34.2255 37.7672 37.9752 50.8597 37.9752C58.8471 37.9752 65.0519 36.0219 66.0572 32.4573C66.2423 31.8011 66.2522 31.1083 66.0144 30.1748C65.7487 29.1316 65.2511 27.9151 64.83 27.0609C64.8161 27.0331 64.7915 27.0372 64.7965 27.0701C64.953 31.7454 51.8553 34.7585 45.2467 34.7585C38.0885 34.7585 32.1165 31.9195 32.1165 28.3348C32.1165 27.9903 32.1882 27.6458 32.2775 27.2873C32.2865 27.2546 32.2584 27.2491 32.2439 27.2778ZM60.5349 21.5376C60.611 21.6562 60.6489 21.7827 60.6489 21.9531C60.6489 23.9529 54.5001 27.4907 44.7121 27.4907C37.5202 27.4907 36.1737 24.835 36.1737 23.146C36.1737 22.5423 36.4063 21.9245 36.9186 21.2971C36.9466 21.2598 36.9228 21.2455 36.8905 21.2732C35.9562 22.0614 35.0977 22.9483 34.3446 23.9056C33.9848 24.3584 33.7614 24.7595 33.7614 24.9998C33.7614 28.4999 42.5781 31.0376 50.822 31.0376C59.6059 31.0376 63.5262 28.1832 63.5262 25.6747C63.5262 24.7782 63.1756 24.2549 62.2787 23.2402C61.6966 22.5802 61.1459 22.0427 60.5631 21.5137C60.5349 21.4906 60.5153 21.5094 60.5349 21.5376ZM57.8421 19.5382C55.1312 17.9207 51.9831 17.0005 48.5892 17.0005C45.1717 17.0005 41.9288 17.9529 39.2081 19.6132C38.392 20.1131 37.9327 20.5138 37.9327 21.0288C37.9327 22.547 41.4971 24.1794 47.8207 24.1794C54.0788 24.1794 58.9326 22.3914 58.9326 20.6703C58.9326 20.2595 58.5719 19.9721 57.8421 19.5382Z" fill="#00A8E0"/>
</g>
<defs>
<clipPath id="clip0_79_1883">
<rect width="88" height="36" fill="white" transform="translate(30.5 17)"/>
</clipPath>
</defs>
</svg>
