<svg width="148" height="69" viewBox="0 0 148 69" fill="none" xmlns="http://www.w3.org/2000/svg">
<g clip-path="url(#clip0_2006_29620)">
<path d="M14 34.9843C13.9894 28.3672 19.408 23.0211 26.1334 23.0001C32.8588 22.9791 38.3093 28.3672 38.2987 34.9948C38.2987 41.6329 32.8588 47.0106 26.144 47.0001C19.4399 47.0001 14 41.6224 14 34.9843ZM20.1092 37.9882C20.1623 38.713 20.1836 39.4482 20.2686 40.1729C20.3536 40.8661 20.1942 40.7086 20.8954 40.7821C22.5848 40.9817 24.306 40.9502 25.9847 40.6771C27.8227 40.3725 29.5439 39.7738 31.0526 38.6605C32.657 37.4736 33.5919 35.9086 33.5919 33.9025C33.5919 31.8333 32.7101 30.1633 31.0526 28.9029C29.0233 27.3589 26.2715 27.2014 24.1572 28.5038C22.8185 29.3335 21.9473 30.5834 21.2992 31.9699C20.4386 33.892 20.1411 35.9086 20.1092 37.9882Z" fill="#4264FA"/>
<path d="M46.4582 30.94C48.2325 28.7238 51.5368 29.3645 52.7268 31.5071C52.9286 31.2131 53.1518 30.9295 53.3749 30.6669C54.4161 29.5745 55.9673 29.2594 57.4229 29.8371C58.8466 30.4043 59.7709 31.6962 59.7816 33.1667C59.7922 35.3513 59.7922 37.5255 59.7922 39.7102C59.7922 40.0358 59.6859 40.1303 59.3672 40.1303H57.7841C57.4335 40.1303 57.3379 40.0253 57.3379 39.6682V33.9439C57.3379 33.2297 57.0935 32.6205 56.5304 32.1583C55.3829 31.2236 53.8105 31.7172 53.2899 33.1772C53.1836 33.4608 53.1305 33.7653 53.1305 34.0699C53.1199 35.8975 53.1411 37.7251 53.1518 39.5527C53.1518 40.0568 53.088 40.1198 52.5993 40.1198H51.1862C50.8037 40.1198 50.7187 40.0358 50.7187 39.6682V33.9964C50.7187 33.4187 50.57 32.8936 50.1981 32.4419C49.1781 31.2341 47.3932 31.4966 46.7451 32.9776C46.5751 33.3662 46.4901 33.7759 46.4794 34.2065C46.4476 36.013 46.4688 37.8301 46.4688 39.6367C46.4688 40.0673 46.4051 40.1303 45.9588 40.1303H44.4608C44.1526 40.1303 44.0464 40.0253 44.0464 39.7207V30.2047C44.0464 29.9106 44.1526 29.8161 44.4395 29.8161C44.9814 29.8161 45.5338 29.8161 46.0757 29.8161C46.3626 29.8161 46.4582 29.9211 46.4688 30.2047V30.5618C46.4582 30.5618 46.4582 30.7929 46.4582 30.94Z" fill="#4364FA"/>
<path d="M91.0186 31.0137C91.3905 30.7406 91.7199 30.4675 92.0917 30.2469C94.2804 28.9655 97.0216 29.5117 98.594 31.5283C100.57 34.0491 99.9965 37.8093 97.3828 39.5528C95.4704 40.8342 92.9205 40.6452 91.2311 39.0802L91.0186 38.8806V39.6579C91.0186 40.036 90.923 40.1305 90.5618 40.1305H89.0318C88.6812 40.1305 88.575 40.0255 88.575 39.6789V34.1121V26.1506C88.575 25.72 88.6493 25.6465 89.0849 25.6465H90.583C90.923 25.6465 91.0186 25.741 91.0186 26.0771V30.6986C91.0186 30.8036 91.0186 30.9086 91.0186 31.0137ZM97.351 34.9839C97.3191 34.7423 97.3085 34.5008 97.2553 34.2592C96.8516 32.3161 94.7798 31.2132 92.9736 31.98C91.4224 32.6417 90.6361 34.4692 91.2099 36.0972C91.7092 37.4942 92.9842 38.3029 94.3017 38.2294C96.0654 38.1244 97.3297 36.7274 97.351 34.9839ZM77.9078 31.0242L78.0884 30.8666C80.5852 28.7134 84.1232 29.2701 85.8338 32.085C87.3531 34.5743 86.6625 37.8723 84.2826 39.5213C82.4233 40.8027 79.9158 40.6662 78.2053 39.1957C78.1096 39.1117 78.014 39.0382 77.8865 38.9226C77.8759 39.0697 77.8759 39.1642 77.8759 39.2587V43.7962C77.8759 44.2478 77.8121 44.3108 77.3553 44.3108H75.836C75.5385 44.3108 75.4428 44.2058 75.4428 43.9222V30.2154C75.4428 29.9318 75.5491 29.8268 75.8466 29.8268C76.3884 29.8268 76.9197 29.8268 77.4615 29.8268C77.7803 29.8268 77.8759 29.9318 77.8865 30.2574C77.8865 30.4885 77.8865 30.7301 77.8971 30.9611C77.8971 30.9822 77.8971 31.0032 77.9078 31.0242ZM77.8653 34.9839C77.8865 35.2045 77.9078 35.4355 77.9503 35.6561C78.2371 37.3366 79.8627 38.471 81.5627 38.1874C81.9876 38.1139 82.3914 37.9563 82.7526 37.7253C84.1657 36.8115 84.6226 34.8264 83.762 33.3349C82.9439 31.9274 81.3077 31.3708 79.8415 31.98C78.6621 32.4736 77.8865 33.6605 77.8653 34.9839ZM70.1836 31.0767V30.1944C70.1836 29.9423 70.3111 29.8268 70.5555 29.8268H72.2448C72.4892 29.8268 72.6167 29.9528 72.6167 30.1944V39.5738C72.6167 40.099 72.5635 40.1515 72.0429 40.1515H70.6511C70.2686 40.1515 70.1836 40.0675 70.1836 39.6999V38.9436C70.1517 38.9541 70.1199 38.9646 70.088 38.9857C67.5699 41.4119 63.5113 40.6767 61.9389 37.3681C60.6958 34.7528 61.7051 31.5493 64.1913 30.1839C66.04 29.1651 68.3349 29.4277 69.9074 30.8351C69.9924 30.8981 70.0667 30.9611 70.1836 31.0767ZM70.1836 34.9104C70.173 34.8158 70.1624 34.6373 70.1411 34.4587C69.9286 32.6627 68.1118 31.4023 66.3269 31.8119C64.4994 32.232 63.4157 34.2277 64.0425 36.0447C64.4994 37.3786 65.8062 38.3134 67.1025 38.2294C68.8555 38.1244 70.1624 36.759 70.1836 34.9104ZM112.109 34.9734C112.119 37.9458 109.612 40.3931 106.541 40.4036C103.471 40.4141 100.931 37.9878 100.921 34.9944C100.91 32.001 103.418 29.5537 106.499 29.5537C109.58 29.5537 112.098 31.98 112.109 34.9734ZM109.686 34.9734C109.644 34.7003 109.622 34.4167 109.548 34.1541C109.134 32.5051 107.476 31.4443 105.883 31.8014C103.981 32.2215 102.886 34.2067 103.524 36.0657C103.991 37.3997 105.288 38.3239 106.594 38.2399C108.326 38.1244 109.686 36.6959 109.686 34.9734Z" fill="#4365FA"/>
<path d="M117.347 33.0838C117.931 32.1175 118.505 31.1932 119.036 30.2584C119.227 29.9223 119.461 29.7858 119.843 29.8068C120.417 29.8383 120.991 29.8068 121.565 29.8173C121.703 29.8173 121.83 29.8803 121.926 29.9748C121.979 30.0484 121.915 30.2374 121.851 30.3319C120.885 31.8024 119.907 33.2729 118.919 34.7328C118.813 34.8589 118.813 35.0374 118.919 35.1529C119.897 36.6024 120.874 38.0624 121.841 39.5223C121.894 39.5853 121.936 39.6589 121.968 39.7219C122.053 39.9319 121.947 40.1105 121.713 40.121C121.012 40.1315 120.311 40.142 119.61 40.1105C119.461 40.1 119.27 39.9424 119.185 39.7954C118.611 38.8921 118.058 37.9678 117.506 37.0435C117.464 36.97 117.421 36.907 117.357 36.8125L116.125 38.8606C115.923 39.1862 115.721 39.5013 115.53 39.8374C115.424 40.0475 115.211 40.1735 114.977 40.1525C114.34 40.142 113.702 40.1525 113.065 40.142C112.948 40.142 112.778 40.079 112.725 39.995C112.682 39.9109 112.725 39.7324 112.799 39.6378C113.777 38.1569 114.754 36.6864 115.742 35.216C115.859 35.0374 115.87 34.9219 115.742 34.7433C114.775 33.3044 113.809 31.8654 112.863 30.416C112.789 30.3004 112.725 30.1009 112.778 29.9853C112.821 29.9013 113.033 29.8488 113.171 29.8488C113.755 29.8383 114.34 29.8488 114.924 29.8383C115.243 29.8278 115.445 29.9538 115.604 30.2269C116.125 31.1092 116.656 31.9705 117.187 32.8422C117.23 32.9052 117.283 32.9788 117.347 33.0838Z" fill="#4364FA"/>
<path d="M31.1802 33.6082C30.4046 33.9863 29.6822 34.3224 28.9703 34.6796C28.8216 34.7636 28.7047 34.8791 28.6303 35.0262C28.2691 35.7299 27.9185 36.4441 27.5572 37.1898C27.4403 36.9483 27.3341 36.7487 27.2279 36.5386C27.0685 36.213 26.8772 35.9084 26.7604 35.5618C26.5585 34.9526 26.1335 34.5955 25.5385 34.375C25.0073 34.1754 24.5079 33.8918 23.9448 33.6292C24.0404 33.5767 24.1042 33.5242 24.1679 33.5032C24.8054 33.1986 25.4429 32.8835 26.0804 32.5894C26.2716 32.5054 26.4204 32.3583 26.5054 32.1693C26.8347 31.4761 27.1854 30.7828 27.5466 30.0371C27.8122 30.5623 28.0885 31.0349 28.2797 31.5391C28.4922 32.1798 29.0022 32.6839 29.6609 32.894C30.1603 33.0726 30.6384 33.3456 31.1802 33.6082Z" fill="#4365FA"/>
</g>
<defs>
<clipPath id="clip0_2006_29620">
<rect width="108" height="24" fill="white" transform="translate(14 23)"/>
</clipPath>
</defs>
</svg>
