<svg width="148" height="69" viewBox="0 0 148 69" fill="none" xmlns="http://www.w3.org/2000/svg">
<g opacity="0.61">
<path d="M70.659 56.8848L70.0696 58.2463H69.7584L69.1709 56.8848H69.5114L69.9256 57.8573L70.3458 56.8848H70.659Z" fill="white"/>
<path d="M71.6914 57.7923H70.8997C70.9289 57.9227 71.0398 58.0024 71.1993 58.0024C71.3102 58.0024 71.3899 57.9693 71.4618 57.9013L71.6233 58.0763C71.5261 58.1872 71.3801 58.2456 71.1914 58.2456C70.8297 58.2456 70.5942 58.018 70.5942 57.7068C70.5942 57.3936 70.8335 57.168 71.1525 57.168C71.4598 57.168 71.6972 57.3741 71.6972 57.7107C71.6973 57.734 71.6935 57.7671 71.6914 57.7923ZM70.8959 57.6153H71.4114C71.39 57.483 71.2908 57.3975 71.1547 57.3975C71.0164 57.3975 70.9173 57.4811 70.8959 57.6153Z" fill="white"/>
<path d="M71.8218 57.7068C71.8218 57.3916 72.0649 57.168 72.4053 57.168C72.6252 57.168 72.7982 57.2633 72.8741 57.4345L72.6388 57.5609C72.5824 57.4617 72.4988 57.417 72.4034 57.417C72.2497 57.417 72.1292 57.5239 72.1292 57.7068C72.1292 57.8896 72.2498 57.9966 72.4034 57.9966C72.4987 57.9966 72.5823 57.9537 72.6388 57.8526L72.8741 57.981C72.7982 58.1483 72.6252 58.2455 72.4053 58.2455C72.0649 58.2456 71.8218 58.0219 71.8218 57.7068Z" fill="white"/>
<path d="M73.7399 58.1805C73.6777 58.2252 73.5862 58.2466 73.4928 58.2466C73.2458 58.2466 73.1019 58.1202 73.1019 57.8712V57.4414H72.9404V57.2079H73.1019V56.9531H73.4053V57.2079H73.666V57.4414H73.4053V57.8674C73.4053 57.9568 73.4539 58.0055 73.5356 58.0055C73.5804 58.0055 73.6251 57.9919 73.6582 57.9666L73.7399 58.1805Z" fill="white"/>
<path d="M75.822 57.1836V57.4638C75.7968 57.4618 75.7773 57.4598 75.754 57.4598C75.5867 57.4598 75.4758 57.5512 75.4758 57.7516V58.2457H75.1724V57.1992H75.4622V57.3373C75.5361 57.2362 75.6606 57.1836 75.822 57.1836Z" fill="white"/>
<path d="M75.9097 58.0887L76.0166 57.8514C76.1314 57.935 76.3025 57.9933 76.466 57.9933C76.6527 57.9933 76.7285 57.9311 76.7285 57.8474C76.7285 57.5926 75.9368 57.7677 75.9368 57.2619C75.9368 57.0304 76.1236 56.8379 76.5106 56.8379C76.6818 56.8379 76.8569 56.8787 76.9832 56.9585L76.8859 57.1978C76.7595 57.1258 76.6292 57.0908 76.5086 57.0908C76.3219 57.0908 76.2499 57.1608 76.2499 57.2464C76.2499 57.4973 77.0415 57.3242 77.0415 57.8241C77.0415 58.0517 76.8529 58.2462 76.4638 58.2462C76.2481 58.2463 76.0303 58.1821 75.9097 58.0887Z" fill="white"/>
<path d="M78.2554 57.7923H77.4637C77.4928 57.9227 77.6037 58.0024 77.7633 58.0024C77.8741 58.0024 77.9538 57.9693 78.0258 57.9013L78.1873 58.0763C78.0899 58.1872 77.9441 58.2456 77.7554 58.2456C77.3936 58.2456 77.1582 58.018 77.1582 57.7068C77.1582 57.3936 77.3974 57.168 77.7165 57.168C78.0239 57.168 78.2611 57.3741 78.2611 57.7107C78.2613 57.734 78.2574 57.7671 78.2554 57.7923ZM77.4599 57.6153H77.9754C77.9539 57.483 77.8547 57.3975 77.7186 57.3975C77.5805 57.3975 77.4813 57.4811 77.4599 57.6153Z" fill="white"/>
<path d="M79.4825 57.7923H78.6907C78.7199 57.9227 78.8308 58.0024 78.9903 58.0024C79.1012 58.0024 79.1809 57.9693 79.2529 57.9013L79.4143 58.0763C79.317 58.1872 79.1711 58.2456 78.9825 58.2456C78.6207 58.2456 78.3853 58.018 78.3853 57.7068C78.3853 57.3936 78.6245 57.168 78.9436 57.168C79.2508 57.168 79.4882 57.3741 79.4882 57.7107C79.4883 57.734 79.4844 57.7671 79.4825 57.7923ZM78.6868 57.6153H79.2023C79.1809 57.483 79.0817 57.3975 78.9456 57.3975C78.8074 57.3975 78.7082 57.4811 78.6868 57.6153Z" fill="white"/>
<path d="M80.1398 57.8356L79.9938 57.9795V58.246H79.6904V56.8027H79.9938V57.6197L80.4374 57.1995H80.7992L80.3634 57.643L80.8381 58.246H80.4704L80.1398 57.8356Z" fill="white"/>
<path d="M75.1999 58.3891L74.8967 58.0859C74.8506 58.1398 74.7957 58.1859 74.7341 58.222C74.7243 58.2294 74.7144 58.2365 74.7041 58.2431L75.025 58.564C75.0733 58.6123 75.1516 58.6123 75.1999 58.564C75.2482 58.5158 75.2482 58.4374 75.1999 58.3891Z" fill="white"/>
<path d="M74.4983 57.1038C74.5217 57.0855 74.5507 57.074 74.5828 57.074C74.5872 57.074 74.5916 57.0742 74.5959 57.0747C74.5732 57.0581 74.5452 57.0483 74.5149 57.0483C74.473 57.0483 74.436 57.0674 74.4109 57.0968C74.4055 57.0968 74.4003 57.0975 74.3949 57.0977C74.3991 57.0895 74.4017 57.0805 74.4017 57.0706C74.4017 57.0458 74.3865 57.0246 74.365 57.0156C74.3743 57.029 74.3797 57.0452 74.3797 57.0628C74.3797 57.0757 74.3764 57.0879 74.3711 57.0989C74.0731 57.1202 73.8379 57.3681 73.8379 57.6713C73.8379 57.9886 74.095 58.2459 74.4124 58.2459C74.7297 58.2459 74.9869 57.9887 74.9869 57.6713C74.987 57.3831 74.7748 57.1453 74.4983 57.1038ZM74.2862 57.2535C74.3323 57.2535 74.3756 57.2654 74.4133 57.2862C74.4529 57.2603 74.5002 57.2452 74.551 57.2452C74.6263 57.2452 74.6938 57.2783 74.7401 57.3307C74.6939 57.2905 74.6336 57.266 74.5676 57.266C74.52 57.266 74.4754 57.2787 74.4368 57.3009C74.4284 57.3057 74.4203 57.311 74.4125 57.3168C74.4056 57.3117 74.3984 57.3069 74.3909 57.3026C74.3518 57.2794 74.3061 57.2661 74.2573 57.2661C74.2255 57.2661 74.195 57.2718 74.1668 57.2822C74.2027 57.2639 74.2432 57.2535 74.2862 57.2535ZM74.6878 57.7243C74.7 57.7567 74.707 57.7915 74.707 57.8281C74.707 57.9907 74.5751 58.1225 74.4125 58.1225C74.2499 58.1225 74.1182 57.9907 74.1182 57.8281C74.1182 57.7915 74.1252 57.7567 74.1373 57.7243C74.0716 57.6838 74.0276 57.6116 74.0276 57.5287C74.0276 57.4018 74.1306 57.2989 74.2574 57.2989C74.3173 57.2989 74.3717 57.322 74.4125 57.3595C74.4534 57.322 74.5078 57.2989 74.5677 57.2989C74.6946 57.2989 74.7975 57.4018 74.7975 57.5287C74.7975 57.6116 74.7535 57.6838 74.6878 57.7243Z" fill="white"/>
<path d="M74.6764 57.5096C74.6764 57.5623 74.6335 57.6051 74.5809 57.6051C74.5282 57.6051 74.4854 57.5623 74.4854 57.5096C74.4854 57.4569 74.5282 57.4141 74.5809 57.4141C74.5916 57.4141 74.6017 57.4159 74.6113 57.419C74.6081 57.4256 74.6065 57.433 74.6065 57.4407C74.6065 57.4696 74.6299 57.493 74.6589 57.493C74.6642 57.493 74.6694 57.4922 74.6744 57.4907C74.6757 57.4968 74.6764 57.5031 74.6764 57.5096Z" fill="white"/>
<path d="M74.3148 57.5077C74.3148 57.5476 74.2825 57.5799 74.2426 57.5799C74.2027 57.5799 74.1704 57.5476 74.1704 57.5077C74.1704 57.4679 74.2027 57.4355 74.2426 57.4355C74.2507 57.4355 74.2584 57.4369 74.2656 57.4393C74.2632 57.4442 74.262 57.4499 74.262 57.4557C74.262 57.4775 74.2797 57.4953 74.3016 57.4953C74.3057 57.4953 74.3096 57.4947 74.3133 57.4935C74.3143 57.4981 74.3148 57.5029 74.3148 57.5077Z" fill="white"/>
<path d="M73.8133 57.5918H73.748V57.6571H73.8133V57.5918Z" fill="white"/>
<path d="M75.0765 57.5918H75.0112V57.6571H75.0765V57.5918Z" fill="white"/>
<path d="M75.0513 57.6177H75.0365C75.0365 57.2734 74.7564 56.9934 74.4121 56.9934C74.0678 56.9934 73.7878 57.2734 73.7878 57.6177H73.7729C73.7729 57.4469 73.8394 57.2864 73.9601 57.1657C74.0809 57.045 74.2414 56.9785 74.4121 56.9785C74.5829 56.9785 74.7434 57.045 74.8641 57.1657C74.9848 57.2864 75.0513 57.4469 75.0513 57.6177Z" fill="white"/>
<path d="M74.4452 56.9531H74.3799V57.0184H74.4452V56.9531Z" fill="white"/>
<path d="M74.8601 56.9785H73.9644V56.9934H74.8601V56.9785Z" fill="white"/>
<path d="M73.9887 56.9897C73.9887 57.0012 73.9793 57.0107 73.9677 57.0107C73.9562 57.0107 73.9468 57.0012 73.9468 56.9897C73.9468 56.9782 73.9562 56.9688 73.9677 56.9688C73.9793 56.9688 73.9887 56.9782 73.9887 56.9897Z" fill="white"/>
<path d="M74.8813 56.9897C74.8813 57.0012 74.8719 57.0107 74.8603 57.0107C74.8488 57.0107 74.8394 57.0012 74.8394 56.9897C74.8394 56.9782 74.8488 56.9688 74.8603 56.9688C74.872 56.9688 74.8813 56.9782 74.8813 56.9897Z" fill="white"/>
<path d="M81.3219 58.1825C81.3219 58.3477 81.0713 58.3477 81.0713 58.1825C81.0714 58.0173 81.3219 58.0173 81.3219 58.1825Z" fill="white"/>
<path d="M65.1443 57.4551L65.3321 58.1004L65.5287 57.4551H65.7635L65.4643 58.3179H65.2173L65.1286 58.0639L65.052 57.7769L64.9755 58.0639L64.8868 58.3179H64.6398L64.3389 57.4551H64.5754L64.772 58.1004L64.9581 57.4551H65.1443Z" fill="white"/>
<path d="M66.7317 57.4551L66.9195 58.1004L67.1161 57.4551H67.3509L67.0517 58.3179H66.8047L66.716 58.0639L66.6394 57.7769L66.5629 58.0639L66.4742 58.3179H66.2272L65.9263 57.4551H66.1628L66.3594 58.1004L66.5455 57.4551H66.7317Z" fill="white"/>
<path d="M68.3186 57.4551L68.5064 58.1004L68.703 57.4551H68.9378L68.6386 58.3179H68.3916L68.3029 58.0639L68.2264 57.7769L68.1498 58.0639L68.0611 58.3179H67.8141L67.5132 57.4551H67.7497L67.9463 58.1004L68.1324 57.4551H68.3186Z" fill="white"/>
<path d="M69.296 58.1942C69.296 58.3594 69.0454 58.3594 69.0454 58.1942C69.0455 58.029 69.296 58.029 69.296 58.1942Z" fill="white"/>
<path d="M82.2071 58.1825C82.108 58.2799 82.0037 58.3182 81.8767 58.3182C81.628 58.3182 81.4209 58.1686 81.4209 57.8643C81.4209 57.5599 81.6279 57.4102 81.8767 57.4102C81.9985 57.4102 82.0924 57.445 82.1863 57.5373L82.0523 57.6781C82.0019 57.6328 81.9393 57.6103 81.8803 57.6103C81.7376 57.6103 81.6333 57.7147 81.6333 57.8643C81.6333 58.0277 81.7446 58.1146 81.8768 58.1146C81.9446 58.1146 82.0125 58.0956 82.0646 58.0434L82.2071 58.1825Z" fill="white"/>
<path d="M83.1711 57.8708C83.1711 58.1178 83.0025 58.3178 82.7241 58.3178C82.4458 58.3178 82.2788 58.1178 82.2788 57.8708C82.2788 57.6255 82.4494 57.4238 82.7224 57.4238C82.9956 57.4238 83.1711 57.6255 83.1711 57.8708ZM82.491 57.8708C82.491 58.0013 82.5694 58.1231 82.7241 58.1231C82.8789 58.1231 82.9572 58.0013 82.9572 57.8708C82.9572 57.742 82.8667 57.6169 82.7241 57.6169C82.5711 57.617 82.491 57.7421 82.491 57.8708Z" fill="white"/>
<path d="M83.8885 58.3185V57.8593C83.8885 57.7461 83.8292 57.6436 83.7127 57.6436C83.598 57.6436 83.5302 57.7461 83.5302 57.8593V58.3185H83.3179V57.4592H83.5145L83.5302 57.5636C83.5753 57.4767 83.6746 57.4453 83.7563 57.4453C83.859 57.4453 83.9616 57.4871 84.0103 57.6054C84.0869 57.4836 84.186 57.4487 84.2973 57.4487C84.5408 57.4487 84.6609 57.5984 84.6609 57.8557V58.3184H84.4486V57.8557C84.4486 57.7427 84.4017 57.6469 84.2868 57.6469C84.1721 57.6469 84.1007 57.746 84.1007 57.8592V58.3184H83.8885V58.3185Z" fill="white"/>
</g>
<g opacity="0.61">
<path d="M84.6744 53.7177C84.6738 53.588 84.5728 53.4929 84.4424 53.4909C84.3445 53.4894 84.3542 53.5036 84.354 53.399C84.3537 53.2827 84.3533 53.1664 84.3543 53.05C84.3546 53.0098 84.3424 52.9768 84.3159 52.9466C84.0677 52.6637 83.8201 52.3803 83.5719 52.0974C83.5592 52.0829 83.5428 52.0715 83.528 52.0586C82.8694 52.0586 82.2108 52.0586 81.5521 52.0586C81.4679 52.0897 81.4313 52.1506 81.4315 52.2397C81.4325 52.637 81.4319 53.0343 81.4319 53.4315C81.4319 53.4904 81.4316 53.4939 81.3736 53.4899C81.2149 53.4791 81.1069 53.5944 81.1089 53.7541C81.1136 54.1225 81.1103 54.4911 81.1104 54.8595C81.1105 55.027 81.2023 55.1185 81.3701 55.1191C81.4318 55.1193 81.4318 55.1193 81.4318 55.1827C81.4318 55.4179 81.4317 55.6532 81.4319 55.8884C81.432 56.0147 81.4934 56.0761 81.6193 56.0761C82.4687 56.0762 83.3182 56.0762 84.1675 56.0761C84.2914 56.0761 84.3536 56.0143 84.3538 55.8911C84.354 55.652 84.3538 55.4129 84.3539 55.1737C84.3539 55.1194 84.3541 55.1196 84.409 55.1191C84.4377 55.1189 84.4664 55.12 84.4948 55.113C84.6003 55.0869 84.6739 55.0023 84.6743 54.8937C84.676 54.5018 84.6762 54.1097 84.6744 53.7177ZM81.6586 52.2192C82.2243 52.2192 82.7901 52.2192 83.3557 52.2192C83.4138 52.2192 83.4144 52.2199 83.4144 52.2786C83.4145 52.5164 83.4143 52.7542 83.4145 52.992C83.4146 53.078 83.4409 53.1043 83.5269 53.1043C83.7293 53.1044 83.9319 53.1043 84.1344 53.1044C84.1829 53.1044 84.1851 53.1066 84.1854 53.1556C84.1857 53.2496 84.1856 53.3437 84.1854 53.4378C84.1852 53.4883 84.1828 53.4905 84.1319 53.4907C83.7191 53.4908 83.3062 53.4907 82.8934 53.4907C82.4819 53.4907 82.0703 53.4907 81.6588 53.4907C81.6005 53.4907 81.6003 53.4905 81.6003 53.4312C81.6002 53.047 81.6002 52.663 81.6003 52.2789C81.6003 52.2196 81.6008 52.2192 81.6586 52.2192ZM84.1268 55.8674C83.7152 55.8675 83.3036 55.8674 82.8919 55.8674C82.4816 55.8674 82.0713 55.8674 81.661 55.8674C81.6003 55.8674 81.6001 55.8672 81.6001 55.806C81.6 55.5943 81.6 55.3826 81.6002 55.171C81.6002 55.1218 81.6027 55.1194 81.6509 55.1193C82.478 55.1192 83.3052 55.1192 84.1324 55.1193C84.183 55.1193 84.1852 55.1215 84.1852 55.1727C84.1855 55.3843 84.1853 55.596 84.1852 55.8077C84.1855 55.8669 84.1849 55.8674 84.1268 55.8674Z" fill="white"/>
<path d="M82.8923 52.207H82.7061V52.3188H82.8923V52.207Z" fill="white"/>
<path d="M82.7063 52.3184H82.52V52.4301H82.7063V52.3184Z" fill="white"/>
<path d="M82.8923 52.4297H82.7061V52.5414H82.8923V52.4297Z" fill="white"/>
<path d="M82.7063 52.543H82.52V52.6547H82.7063V52.543Z" fill="white"/>
<path d="M82.8923 52.6543H82.7061V52.766H82.8923V52.6543Z" fill="white"/>
<path d="M82.7063 52.7656H82.52V52.8774H82.7063V52.7656Z" fill="white"/>
<path d="M82.8923 52.877H82.7061V52.9887H82.8923V52.877Z" fill="white"/>
<path d="M82.7063 52.9883H82.52V53.1H82.7063V52.9883Z" fill="white"/>
<path d="M82.8923 53.1016H82.7061V53.2133H82.8923V53.1016Z" fill="white"/>
<path d="M82.7063 53.2129H82.52V53.3246H82.7063V53.2129Z" fill="white"/>
<path d="M82.8923 53.3242H82.7061V53.4359H82.8923V53.3242Z" fill="white"/>
<path d="M82.7063 53.4355H82.52V53.5473H82.7063V53.4355Z" fill="white"/>
<path d="M67.8893 53.7177C67.8886 53.588 67.7876 53.4929 67.6572 53.4909C67.5593 53.4894 67.5691 53.5036 67.5688 53.399C67.5685 53.2827 67.5681 53.1664 67.5692 53.05C67.5695 53.0098 67.5573 52.9768 67.5308 52.9466C67.2825 52.6637 67.0349 52.3803 66.7868 52.0974C66.7741 52.0829 66.7576 52.0715 66.7429 52.0586C66.0842 52.0586 65.4256 52.0586 64.7669 52.0586C64.6828 52.0897 64.6461 52.1506 64.6463 52.2397C64.6474 52.637 64.6467 53.0343 64.6467 53.4315C64.6467 53.4904 64.6464 53.4939 64.5884 53.4899C64.4298 53.4791 64.3217 53.5944 64.3238 53.7541C64.3284 54.1225 64.3251 54.4911 64.3252 54.8595C64.3253 55.027 64.4171 55.1185 64.5849 55.1191C64.6466 55.1193 64.6466 55.1193 64.6466 55.1827C64.6466 55.4179 64.6465 55.6532 64.6467 55.8884C64.6468 56.0147 64.7082 56.0761 64.8341 56.0761C65.6835 56.0762 66.533 56.0762 67.3824 56.0761C67.5062 56.0761 67.5684 56.0143 67.5686 55.8911C67.5688 55.652 67.5686 55.4129 67.5687 55.1737C67.5687 55.1194 67.5689 55.1196 67.6239 55.1191C67.6526 55.1189 67.6812 55.12 67.7096 55.113C67.8152 55.0869 67.8887 55.0023 67.8892 54.8937C67.8909 54.5018 67.8912 54.1097 67.8893 53.7177ZM64.8736 52.2192C65.4393 52.2192 66.005 52.2192 66.5706 52.2192C66.6287 52.2192 66.6294 52.2199 66.6294 52.2786C66.6295 52.5164 66.6293 52.7542 66.6295 52.992C66.6296 53.078 66.6559 53.1043 66.7418 53.1043C66.9443 53.1044 67.1469 53.1043 67.3493 53.1044C67.3979 53.1044 67.4001 53.1066 67.4003 53.1556C67.4006 53.2496 67.4005 53.3437 67.4003 53.4378C67.4002 53.4883 67.3978 53.4905 67.3469 53.4907C66.934 53.4908 66.5211 53.4907 66.1084 53.4907C65.6969 53.4907 65.2853 53.4907 64.8738 53.4907C64.8155 53.4907 64.8153 53.4905 64.8153 53.4312C64.8152 53.047 64.8152 52.663 64.8153 52.2789C64.8152 52.2196 64.8156 52.2192 64.8736 52.2192ZM67.3418 55.8674C66.9302 55.8675 66.5186 55.8674 66.1069 55.8674C65.6966 55.8674 65.2862 55.8674 64.8759 55.8674C64.8153 55.8674 64.8151 55.8672 64.8151 55.806C64.815 55.5943 64.815 55.3826 64.8152 55.171C64.8152 55.1218 64.8176 55.1194 64.8658 55.1193C65.693 55.1192 66.5202 55.1192 67.3473 55.1193C67.398 55.1193 67.4002 55.1215 67.4002 55.1727C67.4004 55.3843 67.4003 55.596 67.4002 55.8077C67.4003 55.8669 67.3998 55.8674 67.3418 55.8674Z" fill="white"/>
<path d="M64.9365 54.7121V53.875H65.2311C65.2708 53.875 65.3081 53.8815 65.3427 53.8943C65.3774 53.9071 65.4076 53.9252 65.4333 53.9487C65.459 53.9721 65.4793 53.9999 65.4941 54.0323C65.5089 54.0646 65.5163 54.1004 65.5163 54.1393C65.5163 54.179 65.5089 54.215 65.4941 54.2474C65.4792 54.2797 65.459 54.3076 65.4333 54.331C65.4076 54.3544 65.3774 54.3726 65.3427 54.3854C65.3081 54.3982 65.2708 54.4047 65.2311 54.4047H65.0944V54.7122H64.9365V54.7121ZM65.2334 54.2549C65.2748 54.2549 65.3059 54.2431 65.3269 54.2198C65.348 54.1965 65.3585 54.1696 65.3585 54.1392C65.3585 54.1243 65.356 54.1099 65.3509 54.0959C65.3458 54.0819 65.3381 54.0696 65.3275 54.0591C65.317 54.0486 65.3038 54.0403 65.2882 54.034C65.2726 54.0277 65.2543 54.0246 65.2333 54.0246H65.0943V54.2549H65.2334Z" fill="white"/>
<path d="M65.6284 53.875H65.8119L66.1487 54.4362H66.158L66.1487 54.2748V53.875H66.3053V54.7121H66.1393L65.7839 54.1193H65.7746L65.7839 54.2807V54.7121H65.6284V53.875Z" fill="white"/>
<path d="M66.8598 54.2518H67.2702C67.2726 54.2612 67.2745 54.2725 67.2761 54.2857C67.2775 54.299 67.2784 54.3122 67.2784 54.3255C67.2784 54.3792 67.2702 54.4299 67.2539 54.4775C67.2376 54.5251 67.2118 54.5675 67.1767 54.6049C67.1393 54.6446 67.0945 54.6755 67.0423 54.6972C66.9901 54.7191 66.9305 54.73 66.8634 54.73C66.8026 54.73 66.7453 54.7191 66.6915 54.6972C66.6377 54.6754 66.591 54.6451 66.5512 54.6061C66.5115 54.5672 66.4799 54.5209 66.4565 54.4675C66.433 54.4141 66.4214 54.3559 66.4214 54.2927C66.4214 54.2296 66.433 54.1714 66.4565 54.1179C66.4799 54.0645 66.5114 54.0184 66.5512 53.9794C66.591 53.9405 66.6377 53.9101 66.6915 53.8882C66.7452 53.8664 66.8026 53.8555 66.8634 53.8555C66.9312 53.8555 66.9918 53.8671 67.0452 53.8906C67.0986 53.914 67.1443 53.9463 67.1826 53.9875L67.0739 54.094C67.0466 54.0651 67.0163 54.0431 66.9827 54.0279C66.9492 54.0128 66.909 54.0051 66.8622 54.0051C66.824 54.0051 66.7877 54.012 66.7535 54.0256C66.7191 54.0393 66.6891 54.0586 66.6634 54.0835C66.6377 54.1084 66.6172 54.1386 66.602 54.1741C66.5869 54.2096 66.5792 54.2492 66.5792 54.2927C66.5792 54.3364 66.5869 54.3759 66.602 54.4114C66.6172 54.4469 66.6378 54.4772 66.6639 54.5021C66.69 54.527 66.7202 54.5464 66.7545 54.5599C66.7888 54.5736 66.8255 54.5804 66.8645 54.5804C66.9089 54.5804 66.9464 54.5739 66.9773 54.5611C67.008 54.5483 67.0343 54.5316 67.0561 54.5114C67.0718 54.4974 67.0853 54.4796 67.0965 54.4582C67.1077 54.4368 67.1165 54.4128 67.1228 54.3863H66.8597L66.8598 54.2518Z" fill="white"/>
<path d="M71.7457 53.7177C71.7451 53.588 71.6441 53.4929 71.5137 53.4909C71.4157 53.4894 71.4255 53.5036 71.4253 53.399C71.425 53.2827 71.4245 53.1664 71.4256 53.05C71.4259 53.0098 71.4137 52.9768 71.3872 52.9466C71.139 52.6637 70.8914 52.3803 70.6432 52.0974C70.6305 52.0829 70.6141 52.0715 70.5993 52.0586C69.9407 52.0586 69.2821 52.0586 68.6234 52.0586C68.5392 52.0897 68.5025 52.1506 68.5028 52.2397C68.5038 52.637 68.5032 53.0343 68.5032 53.4315C68.5032 53.4904 68.5029 53.4939 68.4449 53.4899C68.2862 53.4791 68.1782 53.5944 68.1802 53.7541C68.1849 54.1225 68.1816 54.4911 68.1817 54.8595C68.1818 55.027 68.2736 55.1185 68.4414 55.1191C68.5031 55.1193 68.5031 55.1193 68.5031 55.1827C68.5031 55.4179 68.503 55.6532 68.5032 55.8884C68.5033 56.0147 68.5647 56.0761 68.6906 56.0761C69.54 56.0762 70.3895 56.0762 71.2388 56.0761C71.3626 56.0761 71.4249 56.0143 71.4251 55.8911C71.4253 55.652 71.4251 55.4129 71.4252 55.1737C71.4252 55.1194 71.4254 55.1196 71.4803 55.1191C71.509 55.1189 71.5376 55.12 71.5661 55.113C71.6717 55.0869 71.7452 55.0023 71.7456 54.8937C71.7473 54.5018 71.7475 54.1097 71.7457 53.7177ZM68.7299 52.2192C69.2956 52.2192 69.8614 52.2192 70.427 52.2192C70.4851 52.2192 70.4857 52.2199 70.4857 52.2786C70.4858 52.5164 70.4856 52.7542 70.4858 52.992C70.4859 53.078 70.5122 53.1043 70.5982 53.1043C70.8006 53.1044 71.0032 53.1043 71.2057 53.1044C71.2542 53.1044 71.2564 53.1066 71.2566 53.1556C71.257 53.2496 71.2569 53.3437 71.2566 53.4378C71.2565 53.4883 71.2541 53.4905 71.2032 53.4907C70.7903 53.4908 70.3775 53.4907 69.9647 53.4907C69.5532 53.4907 69.1416 53.4907 68.7301 53.4907C68.6718 53.4907 68.6716 53.4905 68.6716 53.4312C68.6715 53.047 68.6715 52.663 68.6716 52.2789C68.6716 52.2196 68.672 52.2192 68.7299 52.2192ZM71.1982 55.8674C70.7866 55.8675 70.375 55.8674 69.9633 55.8674C69.553 55.8674 69.1427 55.8674 68.7324 55.8674C68.6717 55.8674 68.6715 55.8672 68.6715 55.806C68.6714 55.5943 68.6714 55.3826 68.6716 55.171C68.6716 55.1218 68.6741 55.1194 68.7223 55.1193C69.5494 55.1192 70.3766 55.1192 71.2037 55.1193C71.2544 55.1193 71.2566 55.1215 71.2566 55.1727C71.2569 55.3843 71.2567 55.596 71.2566 55.8077C71.2567 55.8669 71.2562 55.8674 71.1982 55.8674Z" fill="white"/>
<path d="M69.7417 53.875H69.9218L70.2363 54.7121H70.0621L69.9931 54.5122H69.6704L69.6014 54.7121H69.4272L69.7417 53.875ZM69.9417 54.3673L69.8668 54.158L69.8364 54.0563H69.8271L69.7967 54.158L69.7218 54.3673H69.9417Z" fill="white"/>
<path d="M70.401 54.0617C70.3877 54.0617 70.375 54.0591 70.3629 54.054C70.3509 54.0489 70.3404 54.0419 70.3314 54.0329C70.3224 54.024 70.3153 54.0136 70.3104 54.002C70.3053 53.9903 70.3027 53.9774 70.3027 53.9634C70.3027 53.9494 70.3053 53.9365 70.3104 53.9248C70.3155 53.9131 70.3224 53.9028 70.3314 53.8939C70.3403 53.8849 70.3509 53.8778 70.3629 53.8729C70.375 53.8678 70.3876 53.8652 70.401 53.8652C70.4282 53.8652 70.4517 53.8748 70.4712 53.8939C70.4907 53.913 70.5004 53.9361 70.5004 53.9634C70.5004 53.9906 70.4907 54.0138 70.4712 54.0329C70.4517 54.0521 70.4283 54.0617 70.401 54.0617ZM70.3251 54.7117V54.1389H70.4783V54.7117H70.3251Z" fill="white"/>
<path d="M75.6705 53.7177C75.6699 53.588 75.5689 53.4929 75.4385 53.4909C75.3406 53.4894 75.3503 53.5036 75.3501 53.399C75.3498 53.2827 75.3493 53.1664 75.3504 53.05C75.3507 53.0098 75.3385 52.9768 75.312 52.9466C75.0638 52.6637 74.8162 52.3803 74.568 52.0974C74.5553 52.0829 74.5389 52.0715 74.5241 52.0586C73.8655 52.0586 73.2069 52.0586 72.5482 52.0586C72.464 52.0897 72.4274 52.1506 72.4276 52.2397C72.4286 52.637 72.428 53.0343 72.428 53.4315C72.428 53.4904 72.4277 53.4939 72.3697 53.4899C72.211 53.4791 72.103 53.5944 72.105 53.7541C72.1097 54.1225 72.1064 54.4911 72.1065 54.8595C72.1066 55.027 72.1984 55.1185 72.3662 55.1191C72.4279 55.1193 72.4279 55.1193 72.4279 55.1827C72.4279 55.4179 72.4278 55.6532 72.428 55.8884C72.4281 56.0147 72.4895 56.0761 72.6154 56.0761C73.4648 56.0762 74.3143 56.0762 75.1636 56.0761C75.2874 56.0761 75.3497 56.0143 75.3499 55.8911C75.3501 55.652 75.3499 55.4129 75.35 55.1737C75.35 55.1194 75.3502 55.1196 75.4051 55.1191C75.4338 55.1189 75.4625 55.12 75.4909 55.113C75.5964 55.0869 75.67 55.0023 75.6704 54.8937C75.6721 54.5018 75.6723 54.1097 75.6705 53.7177ZM72.6547 52.2192C73.2204 52.2192 73.7862 52.2192 74.3518 52.2192C74.4099 52.2192 74.4105 52.2199 74.4105 52.2786C74.4106 52.5164 74.4104 52.7542 74.4106 52.992C74.4107 53.078 74.437 53.1043 74.523 53.1043C74.7254 53.1044 74.928 53.1043 75.1305 53.1044C75.179 53.1044 75.1812 53.1066 75.1814 53.1556C75.1818 53.2496 75.1817 53.3437 75.1814 53.4378C75.1813 53.4883 75.1789 53.4905 75.128 53.4907C74.7152 53.4908 74.3023 53.4907 73.8895 53.4907C73.478 53.4907 73.0664 53.4907 72.6549 53.4907C72.5966 53.4907 72.5964 53.4905 72.5964 53.4312C72.5963 53.047 72.5963 52.663 72.5964 52.2789C72.5963 52.2196 72.5968 52.2192 72.6547 52.2192ZM75.1229 55.8674C74.7113 55.8675 74.2997 55.8674 73.888 55.8674C73.4777 55.8674 73.0674 55.8674 72.6571 55.8674C72.5964 55.8674 72.5962 55.8672 72.5962 55.806C72.5961 55.5943 72.5961 55.3826 72.5963 55.171C72.5963 55.1218 72.5988 55.1194 72.647 55.1193C73.4741 55.1192 74.3013 55.1192 75.1284 55.1193C75.1791 55.1193 75.1813 55.1215 75.1813 55.1727C75.1816 55.3843 75.1814 55.596 75.1813 55.8077C75.1816 55.8669 75.181 55.8674 75.1229 55.8674Z" fill="white"/>
<path d="M73.0539 54.7297C73.018 54.7297 72.9837 54.7246 72.9509 54.7145C72.9182 54.7044 72.8882 54.6892 72.8609 54.6689C72.8337 54.6487 72.81 54.6239 72.7896 54.5947C72.7694 54.5655 72.7534 54.5314 72.7417 54.4924L72.8902 54.434C72.9011 54.4761 72.9202 54.511 72.9474 54.5386C72.9747 54.5663 73.0106 54.5802 73.055 54.5802C73.0714 54.5802 73.0872 54.5781 73.1024 54.5737C73.1176 54.5695 73.1312 54.5632 73.1433 54.5551C73.1554 54.5469 73.165 54.5365 73.172 54.5241C73.1789 54.5116 73.1824 54.4972 73.1824 54.4809C73.1824 54.4653 73.1797 54.4513 73.1743 54.4388C73.1689 54.4264 73.1597 54.4147 73.1468 54.4037C73.134 54.3928 73.1172 54.3823 73.0965 54.3721C73.0758 54.362 73.0504 54.3514 73.0199 54.3405L72.9685 54.3219C72.946 54.3141 72.9231 54.3035 72.9002 54.2903C72.8772 54.277 72.8564 54.261 72.8376 54.2424C72.8189 54.2237 72.8035 54.2017 72.7914 54.1763C72.7793 54.151 72.7733 54.1224 72.7733 54.0905C72.7733 54.0577 72.7796 54.0272 72.7926 53.9987C72.8054 53.9703 72.8237 53.9454 72.8475 53.9238C72.8712 53.9024 72.8996 53.8857 72.9328 53.8736C72.966 53.8615 73.0028 53.8555 73.0433 53.8555C73.0854 53.8555 73.1217 53.8611 73.1526 53.8724C73.1834 53.8838 73.2095 53.8982 73.2309 53.9157C73.2523 53.9332 73.2697 53.9526 73.2829 53.9736C73.2962 53.9946 73.3059 54.0145 73.3122 54.0332L73.1731 54.0916C73.1653 54.0682 73.1511 54.0472 73.1305 54.0285C73.1098 54.0098 73.0815 54.0004 73.0457 54.0004C73.0114 54.0004 72.983 54.0083 72.9604 54.0243C72.9378 54.0403 72.9265 54.0612 72.9265 54.0869C72.9265 54.1118 72.9374 54.1331 72.9592 54.1506C72.981 54.1681 73.0157 54.185 73.0633 54.2015L73.116 54.2189C73.1495 54.2307 73.1801 54.2441 73.2078 54.2593C73.2354 54.2745 73.2592 54.2926 73.2791 54.3137C73.2989 54.3348 73.3142 54.3588 73.3247 54.3856C73.3353 54.4125 73.3405 54.4435 73.3405 54.4785C73.3405 54.5222 73.3317 54.5598 73.3142 54.5913C73.2967 54.6229 73.2742 54.6488 73.247 54.6691C73.2197 54.6894 73.1889 54.7046 73.1546 54.7147C73.1201 54.7246 73.0866 54.7297 73.0539 54.7297Z" fill="white"/>
<path d="M73.3882 53.875H73.5588L73.7319 54.3789L73.7624 54.4865H73.7717L73.8044 54.3789L73.9845 53.875H74.1552L73.85 54.7121H73.684L73.3882 53.875Z" fill="white"/>
<path d="M74.6158 54.2518H75.0261C75.0284 54.2612 75.0303 54.2725 75.0319 54.2857C75.0335 54.299 75.0344 54.3122 75.0344 54.3255C75.0344 54.3792 75.0261 54.4299 75.0098 54.4775C74.9934 54.5251 74.9677 54.5675 74.9326 54.6049C74.8952 54.6446 74.8505 54.6755 74.7982 54.6972C74.7459 54.7191 74.6864 54.73 74.6193 54.73C74.5584 54.73 74.5012 54.7191 74.4474 54.6972C74.3937 54.6754 74.3468 54.6451 74.3071 54.6061C74.2673 54.5672 74.2358 54.5209 74.2123 54.4675C74.189 54.4141 74.1772 54.3559 74.1772 54.2927C74.1772 54.2296 74.1889 54.1714 74.2123 54.1179C74.2358 54.0645 74.2672 54.0184 74.3071 53.9794C74.3468 53.9405 74.3936 53.9101 74.4474 53.8882C74.5012 53.8664 74.5584 53.8555 74.6193 53.8555C74.6871 53.8555 74.7476 53.8671 74.8011 53.8906C74.8545 53.914 74.9003 53.9463 74.9384 53.9875L74.8297 54.094C74.8024 54.0651 74.772 54.0431 74.7384 54.0279C74.7049 54.0128 74.6648 54.0051 74.618 54.0051C74.5798 54.0051 74.5436 54.012 74.5092 54.0256C74.475 54.0393 74.4449 54.0586 74.4192 54.0835C74.3935 54.1084 74.373 54.1386 74.3579 54.1741C74.3427 54.2096 74.3351 54.2492 74.3351 54.2927C74.3351 54.3364 74.3427 54.3759 74.3579 54.4114C74.373 54.4469 74.3937 54.4772 74.4199 54.5021C74.446 54.527 74.4762 54.5464 74.5104 54.5599C74.5447 54.5736 74.5813 54.5804 74.6203 54.5804C74.6647 54.5804 74.7024 54.5739 74.7331 54.5611C74.7638 54.5483 74.7902 54.5316 74.8121 54.5114C74.8277 54.4974 74.8411 54.4796 74.8524 54.4582C74.8637 54.4368 74.8724 54.4128 74.8786 54.3863H74.6156V54.2518H74.6158Z" fill="white"/>
<path d="M79.5138 53.7177C79.5132 53.588 79.4121 53.4929 79.2818 53.4909C79.1838 53.4894 79.1936 53.5036 79.1934 53.399C79.193 53.2827 79.1926 53.1664 79.1937 53.05C79.194 53.0098 79.1818 52.9768 79.1553 52.9466C78.907 52.6637 78.6594 52.3803 78.4113 52.0974C78.3986 52.0829 78.3821 52.0715 78.3674 52.0586C77.7087 52.0586 77.0501 52.0586 76.3915 52.0586C76.3073 52.0897 76.2706 52.1506 76.2708 52.2397C76.2719 52.637 76.2713 53.0343 76.2713 53.4315C76.2713 53.4904 76.2709 53.4939 76.213 53.4899C76.0543 53.4791 75.9463 53.5944 75.9483 53.7541C75.9529 54.1225 75.9496 54.4911 75.9498 54.8595C75.9499 55.027 76.0417 55.1185 76.2095 55.1191C76.2711 55.1193 76.2711 55.1193 76.2711 55.1827C76.2711 55.4179 76.271 55.6532 76.2713 55.8884C76.2714 56.0147 76.3327 56.0761 76.4587 56.0761C77.308 56.0762 78.1575 56.0762 79.0069 56.0761C79.1307 56.0761 79.1929 56.0143 79.1931 55.8911C79.1934 55.652 79.1931 55.4129 79.1932 55.1737C79.1932 55.1194 79.1935 55.1196 79.2484 55.1191C79.2771 55.1189 79.3057 55.12 79.3341 55.113C79.4397 55.0869 79.5133 55.0023 79.5137 54.8937C79.5154 54.5018 79.5157 54.1097 79.5138 53.7177ZM76.4981 52.2192C77.0638 52.2192 77.6295 52.2192 78.1952 52.2192C78.2532 52.2192 78.2539 52.2199 78.2539 52.2786C78.254 52.5164 78.2538 52.7542 78.254 52.992C78.2541 53.078 78.2804 53.1043 78.3663 53.1043C78.5688 53.1044 78.7714 53.1043 78.9738 53.1044C79.0224 53.1044 79.0246 53.1066 79.0248 53.1556C79.0251 53.2496 79.025 53.3437 79.0248 53.4378C79.0247 53.4883 79.0223 53.4905 78.9714 53.4907C78.5585 53.4908 78.1456 53.4907 77.7329 53.4907C77.3214 53.4907 76.9098 53.4907 76.4983 53.4907C76.44 53.4907 76.4398 53.4905 76.4398 53.4312C76.4397 53.047 76.4397 52.663 76.4398 52.2789C76.4397 52.2196 76.4401 52.2192 76.4981 52.2192ZM78.9663 55.8674C78.5547 55.8675 78.1431 55.8674 77.7314 55.8674C77.3211 55.8674 76.9108 55.8674 76.5004 55.8674C76.4398 55.8674 76.4396 55.8672 76.4396 55.806C76.4395 55.5943 76.4395 55.3826 76.4397 55.171C76.4397 55.1218 76.4421 55.1194 76.4904 55.1193C77.3175 55.1192 78.1447 55.1192 78.9718 55.1193C79.0225 55.1193 79.0247 55.1215 79.0247 55.1727C79.0248 55.3843 79.0248 55.596 79.0247 55.8077C79.0248 55.8669 79.0243 55.8674 78.9663 55.8674Z" fill="white"/>
<path d="M76.9342 54.0226V54.2167H77.2697V54.3664H76.9342V54.5605H77.3071V54.7101H76.7764V53.873H77.3071V54.0227L76.9342 54.0226Z" fill="white"/>
<path d="M77.4521 54.7101V53.873H77.7467C77.7865 53.873 77.8237 53.8795 77.8583 53.8923C77.893 53.9052 77.9232 53.9233 77.949 53.9467C77.9747 53.9701 77.995 53.9979 78.0098 54.0304C78.0247 54.0627 78.032 54.0984 78.032 54.1373C78.032 54.1771 78.0246 54.2131 78.0098 54.2454C77.995 54.2778 77.9747 54.3056 77.949 54.3291C77.9232 54.3525 77.893 54.3706 77.8583 54.3834C77.8237 54.3963 77.7865 54.4027 77.7467 54.4027H77.61V54.7102H77.4521V54.7101ZM77.7491 54.2529C77.7903 54.2529 77.8216 54.2412 77.8425 54.2179C77.8636 54.1945 77.8741 54.1676 77.8741 54.1372C77.8741 54.1224 77.8716 54.1079 77.8665 54.0939C77.8614 54.08 77.8537 54.0677 77.8431 54.0572C77.8326 54.0467 77.8195 54.0383 77.8039 54.032C77.7883 54.0258 77.7699 54.0226 77.749 54.0226H77.6099V54.2529H77.7491Z" fill="white"/>
<path d="M78.4001 54.7297C78.3642 54.7297 78.3299 54.7246 78.2971 54.7145C78.2644 54.7044 78.2344 54.6892 78.2071 54.6689C78.1799 54.6487 78.156 54.6239 78.1358 54.5947C78.1156 54.5655 78.0996 54.5314 78.0879 54.4924L78.2364 54.434C78.2473 54.4761 78.2664 54.511 78.2937 54.5386C78.321 54.5663 78.3568 54.5802 78.4013 54.5802C78.4177 54.5802 78.4335 54.5781 78.4487 54.5737C78.4639 54.5695 78.4775 54.5632 78.4896 54.5551C78.5017 54.5469 78.5113 54.5365 78.5183 54.5241C78.5252 54.5116 78.5289 54.4972 78.5289 54.4809C78.5289 54.4653 78.5261 54.4513 78.5207 54.4388C78.5153 54.4264 78.5061 54.4147 78.4932 54.4037C78.4804 54.3928 78.4637 54.3823 78.443 54.3721C78.4223 54.362 78.3968 54.3514 78.3664 54.3405L78.3149 54.3219C78.2924 54.3141 78.2696 54.3035 78.2466 54.2903C78.2236 54.277 78.2027 54.261 78.184 54.2424C78.1654 54.2237 78.1499 54.2017 78.1378 54.1763C78.1257 54.151 78.1197 54.1224 78.1197 54.0905C78.1197 54.0577 78.1262 54.0272 78.139 53.9987C78.1518 53.9703 78.1701 53.9454 78.1939 53.9238C78.2176 53.9024 78.2462 53.8857 78.2792 53.8736C78.3123 53.8615 78.3492 53.8555 78.3897 53.8555C78.4318 53.8555 78.4682 53.8611 78.499 53.8724C78.5297 53.8838 78.5559 53.8982 78.5773 53.9157C78.5987 53.9332 78.616 53.9526 78.6293 53.9736C78.6426 53.9946 78.6523 54.0145 78.6586 54.0332L78.5195 54.0916C78.5117 54.0682 78.4975 54.0472 78.4768 54.0285C78.4561 54.0098 78.4278 54.0004 78.3921 54.0004C78.3578 54.0004 78.3294 54.0083 78.3068 54.0243C78.2842 54.0403 78.2729 54.0612 78.2729 54.0869C78.2729 54.1118 78.2838 54.1331 78.3056 54.1506C78.3275 54.1681 78.3621 54.185 78.4097 54.2015L78.4623 54.2189C78.4958 54.2307 78.5264 54.2441 78.5541 54.2593C78.5817 54.2745 78.6055 54.2926 78.6254 54.3137C78.6452 54.3348 78.6605 54.3588 78.671 54.3856C78.6815 54.4125 78.6868 54.4435 78.6868 54.4785C78.6868 54.5222 78.678 54.5598 78.6605 54.5913C78.643 54.6229 78.6205 54.6488 78.5933 54.6691C78.566 54.6894 78.5352 54.7046 78.5009 54.7147C78.4663 54.7246 78.4327 54.7297 78.4001 54.7297Z" fill="white"/>
<path d="M82.0674 54.5511L82.4918 54.0227H82.0861V53.873H82.6754V54.032L82.2556 54.5605H82.6801V54.7101H82.0675L82.0674 54.5511Z" fill="white"/>
<path d="M82.811 53.873H82.9689V54.7101H82.811V53.873Z" fill="white"/>
<path d="M83.1372 54.7101V53.873H83.4318C83.4715 53.873 83.5087 53.8795 83.5434 53.8923C83.5781 53.9052 83.6083 53.9233 83.634 53.9467C83.6598 53.9701 83.68 53.9979 83.6949 54.0304C83.7097 54.0627 83.717 54.0984 83.717 54.1373C83.717 54.1771 83.7096 54.2131 83.6949 54.2454C83.68 54.2778 83.6598 54.3056 83.634 54.3291C83.6083 54.3525 83.5781 54.3706 83.5434 54.3834C83.5087 54.3963 83.4715 54.4027 83.4318 54.4027H83.295V54.7102H83.1372V54.7101ZM83.4342 54.2529C83.4755 54.2529 83.5067 54.2412 83.5277 54.2179C83.5488 54.1945 83.5593 54.1676 83.5593 54.1372C83.5593 54.1224 83.5568 54.1079 83.5517 54.0939C83.5466 54.08 83.5388 54.0677 83.5282 54.0572C83.5177 54.0467 83.5047 54.0383 83.489 54.032C83.4734 54.0258 83.4551 54.0226 83.4341 54.0226H83.295V54.2529H83.4342Z" fill="white"/>
</g>
<g opacity="0.61">
<path d="M79.814 53.9258H80.7751V54.1634H79.814V53.9258ZM79.814 54.3356H80.7751V54.5733H79.814V54.3356Z" fill="white"/>
</g>
<g opacity="0.61">
<path d="M64.6157 58.7617H64.7861C64.9199 58.7617 65.0101 58.8478 65.0101 58.971C65.0101 59.094 64.9199 59.1801 64.7861 59.1801H64.6157V58.7617ZM64.7836 59.1418C64.8948 59.1418 64.9665 59.0713 64.9665 58.971C64.9665 58.8706 64.8947 58.8 64.7836 58.8H64.6599V59.1418H64.7836Z" fill="white"/>
<path d="M65.5044 58.9706C65.5044 58.8487 65.5976 58.7578 65.7243 58.7578C65.8498 58.7578 65.9437 58.848 65.9437 58.9706C65.9437 59.0931 65.8498 59.1833 65.7243 59.1833C65.5977 59.1833 65.5044 59.0926 65.5044 58.9706ZM65.8995 58.9706C65.8995 58.8707 65.8247 58.7972 65.7243 58.7972C65.6233 58.7972 65.5481 58.8707 65.5481 58.9706C65.5481 59.0703 65.6233 59.1439 65.7243 59.1439C65.8248 59.1439 65.8995 59.0704 65.8995 58.9706Z" fill="white"/>
<path d="M67.0369 58.7617L66.8958 59.1801H66.8492L66.7267 58.8233L66.6036 59.1801H66.5576L66.4165 58.7617H66.462L66.5827 59.1215L66.7076 58.7617H66.7488L66.8719 59.1233L66.9944 58.7617H67.0369Z" fill="white"/>
<path d="M67.8989 58.7617V59.1801H67.8624L67.5935 58.8407V59.1801H67.5493V58.7617H67.5858L67.8553 59.1012V58.7617H67.8989Z" fill="white"/>
<path d="M68.4673 58.7617H68.5115V59.1418H68.7457V59.1801H68.4673V58.7617Z" fill="white"/>
<path d="M69.2061 58.9706C69.2061 58.8487 69.2992 58.7578 69.426 58.7578C69.5515 58.7578 69.6453 58.848 69.6453 58.9706C69.6453 59.0931 69.5515 59.1833 69.426 59.1833C69.2993 59.1833 69.2061 59.0926 69.2061 58.9706ZM69.6011 58.9706C69.6011 58.8707 69.5264 58.7972 69.426 58.7972C69.325 58.7972 69.2497 58.8707 69.2497 58.9706C69.2497 59.0703 69.325 59.1439 69.426 59.1439C69.5264 59.1439 69.6011 59.0704 69.6011 58.9706Z" fill="white"/>
<path d="M70.4329 59.0684H70.1998L70.1495 59.1801H70.1035L70.2947 58.7617H70.3384L70.5296 59.1801H70.483L70.4329 59.0684ZM70.4167 59.0325L70.3164 58.8078L70.216 59.0325H70.4167Z" fill="white"/>
<path d="M71.0312 58.7617H71.2016C71.3355 58.7617 71.4257 58.8478 71.4257 58.971C71.4257 59.094 71.3355 59.1801 71.2016 59.1801H71.0312V58.7617ZM71.1992 59.1418C71.3103 59.1418 71.382 59.0713 71.382 58.971C71.382 58.8706 71.3102 58.8 71.1992 58.8H71.0755V59.1418H71.1992Z" fill="white"/>
<path d="M72.8079 59.0684H72.5748L72.5245 59.1801H72.4785L72.6697 58.7617H72.7134L72.9046 59.1801H72.858L72.8079 59.0684ZM72.7917 59.0325L72.6914 58.8078L72.591 59.0325H72.7917Z" fill="white"/>
<path d="M73.4062 58.7617H73.4505V59.1418H73.6847V59.1801H73.4062V58.7617Z" fill="white"/>
<path d="M74.1904 58.7617H74.2346V59.1418H74.4689V59.1801H74.1904V58.7617Z" fill="white"/>
<path d="M75.6072 58.7999V58.9643H75.8235V59.0026H75.6072V59.1801H75.563V58.7617H75.8498V58.8L75.6072 58.7999Z" fill="white"/>
<path d="M76.3735 58.7617H76.4177V59.1801H76.3735V58.7617Z" fill="white"/>
<path d="M76.9858 58.7617H77.03V59.1418H77.2643V59.1801H76.9858V58.7617Z" fill="white"/>
<path d="M78.0659 59.1418V59.1801H77.77V58.7617H78.0569V58.8H77.8142V58.9488H78.0306V58.9864H77.8142V59.1418H78.0659Z" fill="white"/>
<path d="M79.2346 58.7999V58.9643H79.451V59.0026H79.2346V59.1801H79.1904V58.7617H79.4773V58.8L79.2346 58.7999Z" fill="white"/>
<path d="M79.9585 58.9706C79.9585 58.8487 80.0517 58.7578 80.1784 58.7578C80.304 58.7578 80.3978 58.848 80.3978 58.9706C80.3978 59.0931 80.304 59.1833 80.1784 59.1833C80.0517 59.1833 79.9585 59.0926 79.9585 58.9706ZM80.3535 58.9706C80.3535 58.8707 80.2787 58.7972 80.1783 58.7972C80.0773 58.7972 80.0021 58.8707 80.0021 58.9706C80.0021 59.0703 80.0773 59.1439 80.1783 59.1439C80.2788 59.1439 80.3535 59.0704 80.3535 58.9706Z" fill="white"/>
<path d="M81.2149 59.1801L81.1193 59.0456C81.1084 59.0468 81.0977 59.0474 81.0858 59.0474H80.9734V59.1801H80.9292V58.7617H81.0858C81.1922 58.7617 81.2567 58.8155 81.2567 58.9051C81.2567 58.9709 81.2221 59.0169 81.1611 59.0366L81.2633 59.18H81.2149V59.1801ZM81.2124 58.9051C81.2124 58.8381 81.1682 58.8 81.0845 58.8H80.9734V59.0098H81.0845C81.1682 59.0098 81.2124 58.9709 81.2124 58.9051Z" fill="white"/>
<path d="M82.228 58.7618V59.1802H82.1855V58.8455L82.0211 59.127H82.0003L81.8359 58.8473V59.1801H81.7935V58.7617H81.8299L82.0116 59.0719L82.1915 58.7617L82.228 58.7618Z" fill="white"/>
<path d="M83.0582 59.0684H82.8251L82.775 59.1801H82.729L82.9202 58.7617H82.9638L83.155 59.1801H83.1084L83.0582 59.0684ZM83.0421 59.0325L82.9417 58.8078L82.8414 59.0325H83.0421Z" fill="white"/>
<path d="M83.7168 58.8H83.5698V58.7617H83.9082V58.8H83.7612V59.1801H83.717V58.8H83.7168Z" fill="white"/>
<path d="M84.3643 59.1289L84.3816 59.0949C84.4115 59.1241 84.4647 59.1457 84.5197 59.1457C84.598 59.1457 84.632 59.1128 84.632 59.0716C84.632 58.9568 84.3744 59.0274 84.3744 58.8726C84.3744 58.811 84.4222 58.7578 84.5287 58.7578C84.5759 58.7578 84.6249 58.7716 84.6584 58.7949L84.6435 58.8302C84.6076 58.8069 84.5658 58.7955 84.5287 58.7955C84.4521 58.7955 84.4181 58.8296 84.4181 58.8714C84.4181 58.9862 84.6757 58.9169 84.6757 59.0692C84.6757 59.1308 84.6267 59.1834 84.5197 59.1834C84.4569 59.1832 84.3953 59.1611 84.3643 59.1289Z" fill="white"/>
</g>
<path d="M73.7307 44.1912C73.1109 44.5544 72.7263 45.0032 72.4698 45.5376C72.0424 46.7771 72.2774 48.209 73.2606 49.7904L72.3203 50.7307L71.2517 52.2694C70.7816 53.6586 70.9524 55.0477 71.9356 56.6077C72.534 57.6335 73.6453 58.125 75.2481 58.1037H79.3727C80.0138 58.1678 80.2703 57.9754 80.1634 57.4839V49.9827H77.7913V51.8633L75.1627 48.1235L74.7566 46.9694C74.7566 46.3069 75.0558 46.0077 75.6542 46.0718L75.9747 46.1573C76.2526 46.3068 76.3594 46.4778 76.4235 46.777V47.8669H79.0521V46.9693C79.0094 46.1573 78.9026 45.5375 78.6247 45.0887L78.2828 44.5972C77.7057 44.1056 76.9578 43.8278 75.9747 43.7637L74.6283 43.8491L73.7307 44.1912Z" fill="#FCB811"/>
<path d="M76.1881 55.7742H77.6414L77.6841 55.6246L74.4784 51.8633C74.1792 52.0343 73.9655 52.4617 73.8159 53.06C73.6664 53.808 73.7945 54.4919 74.2433 55.1544L74.7563 55.539L76.1881 55.7742Z" fill="white"/>
<path d="M89.1819 50.9018H85.3779V55.0478H89.1819V58.1039H90.2077V12.5195H81.1465V58.2107H81.6807V40.8362H89.1819V43.9136H85.3779V47.8244H89.1819V50.9018Z" fill="#1488C4"/>
<path d="M56.9114 45.1961C56.6763 44.1917 56.0779 43.7643 55.2231 43.9138V48.9574C56.2276 49.1498 56.7618 48.6155 56.9114 47.376V45.1961Z" fill="#1488C4"/>
<path d="M63.7075 40.6865L65.5454 40.4301C66.8919 40.4942 67.939 40.9857 68.6656 41.9475L69.1571 42.7595C69.4349 43.5716 69.5845 44.6402 69.4349 46.0079L66.1224 45.9865V44.2982C66.037 43.8281 65.8232 43.5716 65.2889 43.5716C64.776 43.593 64.4982 43.9136 64.4982 44.5546V54.428L64.6264 54.8981C64.7547 55.1974 64.947 55.3896 65.2462 55.4111C65.9087 55.6462 66.272 55.3469 66.272 54.599V51.6926H65.3531V48.6365H69.5845V52.7611L80.9112 12.5195H50.6499V58.2534H51.7185V40.7933H55.3088L57.1681 40.9857C58.5145 41.3918 59.4334 42.0756 59.9463 43.1656C60.1814 43.7427 60.3524 44.7043 60.4806 46.008C60.6301 47.8672 60.4378 49.0641 60.0532 49.5342C59.3052 51.2653 58.0871 52.1201 56.356 51.9705L55.1592 51.9491V58.1253H63.5581C61.8698 57.762 61.0363 56.4797 61.0363 54.4067V44.4051C60.8011 42.3962 61.6987 41.1353 63.7075 40.6865Z" fill="#1488C4"/>
<path d="M97.837 13.2892C97.837 14.8707 97.1531 15.6187 95.6786 15.6187C94.1826 15.6187 93.4774 14.8708 93.4774 13.2892C93.4774 11.836 94.1826 11.088 95.6786 11.088C97.1532 11.088 97.837 11.836 97.837 13.2892ZM95.6786 16.0034C97.4737 16.0034 98.35 15.1058 98.35 13.2892C98.35 11.5796 97.4738 10.7461 95.6786 10.7461C93.862 10.7461 92.9858 11.5796 92.9858 13.2892C92.9858 15.1058 93.862 16.0034 95.6786 16.0034Z" fill="#1488C4"/>
<path d="M95.7642 12.1776C96.2557 12.1776 96.4267 12.3271 96.4267 12.6264C96.4267 12.9896 96.1703 13.1606 95.6146 13.1606H95.1231V12.1776H95.7642ZM96.8968 12.6691C96.8968 12.0707 96.5121 11.7715 95.8069 11.7715H94.6743V14.8917H95.1231V13.5667H95.6574L96.5121 14.8917H97.0037L96.1061 13.524C96.6618 13.4599 96.8968 13.1606 96.8968 12.6691Z" fill="#1488C4"/>
</svg>
