<svg width="148" height="69" viewBox="0 0 148 69" fill="none" xmlns="http://www.w3.org/2000/svg">
<path d="M87.7285 29.3822V26.4834H77.4092V41.3977H87.7285V38.3727H81.5872V35.0666H86.6952V32.1715H81.5872V29.3822H87.7285Z" fill="#49266C"/>
<path d="M105.926 38.4547H99.4787V26.4834H95.2494V41.3977H105.926V38.4547Z" fill="#49266C"/>
<path d="M139.99 32.1673C137.136 31.5231 136.137 31.4483 136.137 30.3106C136.137 29.2548 137.551 28.9264 138.365 28.9264C139.681 28.9264 141.234 29.2338 142.818 30.0474L143.97 27.3029C142.346 26.4164 140.264 26.0474 138.262 26.0474C134.326 26.0474 131.685 27.6475 131.574 30.767C131.462 33.6119 133.77 34.6761 135.892 35.1151C137.937 35.5386 140.012 35.9011 140.054 37.1184C140.091 38.2412 139.084 38.7221 137.182 38.7221C135.421 38.7221 133.784 38.155 132.111 37.4528L131.134 40.4359C133.057 41.2554 135.009 41.707 137.021 41.707C139.817 41.707 141.858 41.2697 143.359 39.8569C144.401 38.8866 144.741 37.7154 144.741 36.5974C144.744 34.24 143.277 32.912 139.99 32.1673Z" fill="#49266C"/>
<path d="M71.4099 29.4276V26.4834H58.4301V29.4276H62.8152V41.3977H67.0194V29.4276H71.4099Z" fill="#49266C"/>
<path d="M120.355 26.4834V35.9591C120.355 36.7014 120.355 36.9066 120.311 37.1955C120.175 38.0988 119.302 38.6228 117.909 38.6413C116.878 38.6246 116.122 38.3189 115.77 37.7788C115.593 37.5012 115.507 37.0023 115.507 36.2056V26.4834H111.121V36.7619C111.121 38.1861 111.31 38.8292 111.952 39.6421C113.011 40.9682 115.075 41.6657 117.917 41.6657C117.95 41.6657 117.978 41.6657 118.011 41.6657C118.026 41.6657 118.052 41.6657 118.073 41.6657C121.879 41.6657 123.844 40.1786 124.412 38.7873C124.696 38.1125 124.717 37.7931 124.717 36.4317V26.4834H120.355Z" fill="#49266C"/>
<path d="M60.4109 22.3994L35.8128 27.3069V29.026L35.891 29.0057C52.1409 25.0476 60.4103 22.6668 60.4772 22.6501C60.5691 22.6261 60.6013 22.5544 60.5888 22.4939C60.5751 22.4305 60.5088 22.3779 60.4109 22.3994Z" fill="#49266C"/>
<path d="M40.4118 21.9306C39.2161 21.9988 37.0021 23.7736 35.7867 24.8276C30.9473 29.0232 27.349 32.8797 24.7326 36.9185C19.2783 39.846 12.3234 42.8566 5.41916 45.2063L5.25262 45.2625L3.92383 48.848L4.68254 48.5543C9.07482 46.877 16.4058 43.727 23.0516 40.2253C22.6773 41.2254 22.4887 42.1448 22.4887 42.9829C22.4887 43.6079 22.5931 44.1894 22.8015 44.7176C23.2193 45.7727 24.0431 46.5719 25.185 47.0259C26.8857 47.706 29.206 47.7186 31.8535 46.9153C38.6168 44.8611 46.6391 38.554 48.3857 37.2996L48.4526 37.2523C48.5212 37.2027 48.526 37.1279 48.4973 37.0771C48.4591 37.019 48.3786 37.0035 48.3123 37.0442L48.2263 37.0962C46.3519 38.2238 37.2438 43.6426 31.3234 45.2338C28.3076 46.0443 26.0094 45.6017 25.1427 44.3868C24.8418 43.9716 24.6967 43.4464 24.6967 42.8339C24.6967 41.6382 25.2585 40.1158 26.3401 38.4236C27.3358 37.8559 28.2659 37.3008 29.104 36.7732C34.8799 33.5203 41.5346 27.1958 41.8188 23.3352C41.82 23.3088 41.82 23.2783 41.82 23.2496C41.82 22.9164 41.6761 22.5737 41.4236 22.3207C41.1526 22.0437 40.7956 21.9055 40.4118 21.9306ZM39.7677 23.7706C40.1467 23.5248 40.256 23.6785 40.1444 23.9561C39.9641 24.3993 39.1302 27.066 32.9381 32.1601C31.3222 33.4862 30.1731 34.2309 27.8462 35.6115C31.6565 30.2608 37.2194 25.4288 39.7677 23.7706Z" fill="#6EBE44"/>
<path d="M35.7323 27.3232L9.85251 32.8976L8.85443 35.5948L35.8128 29.0257L36.6468 28.5537L36.6235 27.3262L35.7323 27.3232Z" fill="#49266C"/>
</svg>
