<svg xmlns="http://www.w3.org/2000/svg" viewBox="0 0 500 300" width="500" height="300" style="background:#ffffff">
  <defs>
    <style>
      text { font-family: 'Segoe UI', Arial, Helvetica, sans-serif; }
    </style>
  </defs>
  <text x="250" y="22" text-anchor="middle" font-size="16" font-weight="bold" fill="#333333">ST_GeneratePoints</text>
  <path d="M 150.0 230.0 L 350.0 230.0 L 350.0 70.0 L 150.0 70.0 L 150.0 230.0 Z" fill="rgba(74,144,217,0.15)" stroke="#4a90d9" stroke-width="2" fill-rule="evenodd" stroke-dasharray="6,3" />
  <circle cx="180.0" cy="184.0" r="5" fill="#2ecc71" stroke="#2ecc71" stroke-width="1.5" />
  <circle cx="294.0" cy="108.0" r="5" fill="#2ecc71" stroke="#2ecc71" stroke-width="1.5" />
  <circle cx="226.0" cy="200.0" r="5" fill="#2ecc71" stroke="#2ecc71" stroke-width="1.5" />
  <circle cx="312.0" cy="156.0" r="5" fill="#2ecc71" stroke="#2ecc71" stroke-width="1.5" />
  <circle cx="198.0" cy="114.0" r="5" fill="#2ecc71" stroke="#2ecc71" stroke-width="1.5" />
  <circle cx="276.0" cy="146.0" r="5" fill="#2ecc71" stroke="#2ecc71" stroke-width="1.5" />
  <circle cx="244.0" cy="88.0" r="5" fill="#2ecc71" stroke="#2ecc71" stroke-width="1.5" />
  <circle cx="330.0" cy="206.0" r="5" fill="#2ecc71" stroke="#2ecc71" stroke-width="1.5" />
  <circle cx="260.0" cy="120.0" r="5" fill="#2ecc71" stroke="#2ecc71" stroke-width="1.5" />
  <circle cx="186.0" cy="92.0" r="5" fill="#2ecc71" stroke="#2ecc71" stroke-width="1.5" />
  <text x="250" y="292" text-anchor="middle" font-size="13" fill="#333333" font-style="italic">Generates pseudo-random points within the geometry</text>
  <rect x="176" y="255" width="12" height="12" rx="2" fill="#4a90d9" stroke="#4a90d9" stroke-width="1" />
  <text x="192" y="266" font-size="13" fill="#333333">Input</text>
  <rect x="246" y="255" width="12" height="12" rx="2" fill="#2ecc71" stroke="#2ecc71" stroke-width="1" />
  <text x="262" y="266" font-size="13" fill="#333333">Result</text>
</svg>