<svg width="148" height="69" viewBox="0 0 148 69" fill="none" xmlns="http://www.w3.org/2000/svg">
<g clip-path="url(#clip0_2006_29620)">
<path d="M62.0846 20.7305H59.3735V33.4759H62.0366C66.4276 33.4759 69.1559 31.0109 69.1559 27.0374C69.1559 23.2071 66.3796 20.7305 62.0846 20.7305ZM61.2359 22.4732H61.6199C64.21 22.4732 67.3012 23.2768 67.3012 27.1013C67.3012 30.9257 64.21 31.7293 61.6199 31.7293H61.2359V22.4732Z" fill="#005A84"/>
<path d="M77.6962 28.2224C77.6962 30.7398 76.7784 31.9617 74.8891 31.9617C72.9999 31.9617 72.0802 30.7398 72.0802 28.2224V20.7305H70.2178V28.7511C70.2178 31.7351 72.0936 33.7393 74.8891 33.7393C77.6847 33.7393 79.5682 31.7351 79.5682 28.7511V20.7305H77.7058L77.6962 28.2224Z" fill="#005A84"/>
<path d="M84.8482 26.4874L90.5564 20.7305H88.0834L83.0914 25.8755V20.7305H81.229V33.4759H83.0914V28.1953L83.5311 27.7732L88.1064 33.4759H90.6024L84.8482 26.4874Z" fill="#005A84"/>
<path d="M98.244 31.7312H93.1637V27.3685H98.0962V25.6257H93.1637V22.4752H98.244V20.7324H91.3032V33.4779H98.244V31.7312Z" fill="#005A84"/>
<path d="M59.5039 49.7377H66.4466V47.9949H61.3663V43.6283H66.2969V41.8855H61.3663V38.7389H66.4466V36.9961H59.5039V49.7377Z" fill="#005A84"/>
<path d="M80.6548 49.7377H87.5937V47.9949H82.5153V43.6283H87.4497V41.8855H82.5153V38.7389H87.5937V36.9961H80.6548V49.7377Z" fill="#005A84"/>
<path d="M80.6548 49.7377H87.5937V47.9949H82.5153V43.6283H87.4497V41.8855H82.5153V38.7389H87.5937V36.9961H80.6548V49.7377Z" fill="#005A84"/>
<path d="M77.1717 36.9902V45.9248L69.0846 36.998H67.9326V49.7454H69.795V40.7294L77.859 49.7376H79.036V36.9902H77.1717Z" fill="#005A84"/>
<path d="M96.2816 40.6986C96.2886 40.078 96.1357 39.4662 95.8378 38.9231C95.54 38.38 95.1074 37.9242 94.5825 37.6003C93.5341 37.002 92.2784 37.002 91.2532 37.002H89.2295V49.7493H91.0881V44.4862H91.4721L95.097 49.7397H97.3645L93.4477 44.2945C95.1277 43.9653 96.2759 42.5265 96.2759 40.6986M94.5133 40.7625C94.5133 42.2245 93.5533 42.8712 91.4106 42.8712H91.0881V38.706H91.3319C93.5053 38.706 94.5172 39.3605 94.5172 40.7625" fill="#005A84"/>
<path d="M104.434 44.8963H107.6C107.429 46.8036 105.429 48.2579 103.741 48.2579C101.28 48.2579 99.1195 45.9632 99.1195 43.3491C99.1195 40.6149 101.208 38.4732 103.873 38.4732C104.604 38.4864 105.322 38.6702 105.97 39.0102C106.618 39.3502 107.18 39.8372 107.61 40.4328L107.719 40.5839L109.042 39.3136L108.946 39.1955C108.089 38.1272 106.924 37.3539 105.612 36.9827C104.3 36.6115 102.906 36.6607 101.624 37.1235C100.341 37.5863 99.232 38.4398 98.4511 39.5658C97.6702 40.6919 97.2557 42.035 97.2648 43.4091C97.2648 46.9895 100.187 50.0123 103.649 50.0123C107.111 50.0123 109.641 47.4059 109.641 43.8158V43.1593H104.434V44.8963Z" fill="#005A84"/>
<path d="M117.438 36.9902L114.512 42.1275L111.586 36.9902H109.441L113.581 44.215V49.7376H115.441V44.215L119.579 36.9902H117.438Z" fill="#005A84"/>
<path d="M44.8159 46.2425C44.7602 46.3005 43.6006 47.5379 42.1894 47.6251C40.6534 47.7141 39.1865 46.775 38.7334 43.3456L32.5894 41.5215C35.2774 51.1532 42.7538 50.8163 45.2614 46.5755C45.4322 46.3044 45.3862 46.1592 45.2614 46.0875C45.1366 46.0159 44.9714 46.0721 44.8159 46.2425Z" fill="#005A84"/>
<path d="M44.8161 20.947C42.3489 15.9123 33.5668 20.8812 32.0615 33.7544C31.9617 34.6064 32.3745 35.0421 32.7335 35.2319C33.5399 35.656 33.9585 35.8128 35.2295 36.0723C35.9021 36.2277 36.5932 36.2858 37.282 36.2446C37.5868 36.2344 37.8781 36.1152 38.1039 35.9084C38.3296 35.7017 38.4752 35.4207 38.5147 35.1157C39.8203 21.2859 42.946 18.2031 44.3956 21.1736C44.5665 21.5144 44.9927 21.3672 44.8084 20.9528" fill="#005A84"/>
<path d="M43.3109 25.288C42.6197 25.2744 42.0841 25.4139 41.7404 25.9832C41.3771 26.6426 41.1406 27.3653 41.0434 28.1132C40.909 28.8878 40.7842 30.0496 40.9033 30.4369C40.9608 30.6358 41.08 30.8109 41.2435 30.9363C41.4069 31.0618 41.606 31.1311 41.8114 31.134C44.6108 31.3083 52.8226 32.4895 53.9477 34.8965C54.7157 36.5521 52.4233 36.9762 50.7394 37.4138C50.0962 37.5823 49.7084 38.0063 49.6354 38.5272C49.4434 39.8827 49.789 40.5585 50.0924 41.0097C50.2997 41.3253 50.7087 41.5151 51.2329 41.2033C52.4789 40.4598 53.5061 39.1372 53.5484 39.0733C59.0242 31.3393 47.5042 25.3732 43.3109 25.288Z" fill="#54B948"/>
<path d="M46.1313 37.9337C32.3592 39.4615 21.4881 33.1178 29.7192 31.5803C29.7576 31.5803 30.7675 31.3344 30.9672 30.736C31.1668 30.1377 31.2244 29.9402 31.4587 29.0823C31.6046 28.5402 31.7275 28.2303 31.8676 27.8121C32.0827 27.1614 31.6756 26.7722 30.7617 27.2311C23.2449 30.9316 25.476 37.8485 31.5796 41.3205C38.1998 45.0848 44.3112 43.7177 44.8987 43.5415C45.4862 43.3653 46.0833 43.224 46.715 42.2654C47.0606 41.6264 47.5982 40.8402 47.4523 39.0839C47.4523 39.0723 47.4292 37.7981 46.1313 37.9414" fill="#27BCD7"/>
<path d="M118.145 47.9052C118.145 47.5222 118.257 47.1478 118.468 46.8293C118.679 46.5109 118.979 46.2627 119.33 46.1161C119.681 45.9696 120.067 45.9312 120.439 46.006C120.812 46.0807 121.154 46.2651 121.422 46.5359C121.691 46.8067 121.874 47.1518 121.948 47.5274C122.022 47.903 121.984 48.2924 121.838 48.6462C121.693 49 121.447 49.3024 121.131 49.5152C120.815 49.728 120.444 49.8416 120.065 49.8416C119.555 49.8416 119.067 49.6376 118.707 49.2744C118.347 48.9113 118.145 48.4187 118.145 47.9052ZM118.456 47.9052C118.453 48.2282 118.546 48.5446 118.723 48.8143C118.899 49.084 119.151 49.2948 119.446 49.4199C119.741 49.5451 120.067 49.5789 120.381 49.5172C120.696 49.4554 120.985 49.3009 121.212 49.0731C121.439 48.8454 121.594 48.5547 121.657 48.238C121.72 47.9213 121.689 47.5928 121.566 47.2942C121.444 46.9956 121.237 46.7404 120.97 46.561C120.704 46.3815 120.391 46.2859 120.07 46.2863C119.643 46.2853 119.234 46.4552 118.931 46.7587C118.628 47.0623 118.457 47.4746 118.456 47.9052ZM120.952 49.0108H120.593L120.041 48.0059H119.638V49.0108H119.331V46.8343H120.239C120.623 46.8343 120.98 46.9524 120.98 47.4152C120.987 47.4937 120.976 47.5726 120.949 47.6467C120.923 47.7207 120.881 47.7881 120.826 47.8444C120.772 47.9007 120.706 47.9446 120.633 47.9731C120.56 48.0016 120.482 48.0141 120.404 48.0097L120.952 49.0108ZM119.638 47.1461V47.6922H119.974C120.264 47.6922 120.665 47.7406 120.665 47.4424C120.665 47.1442 120.433 47.1461 120.176 47.1461H119.638Z" fill="#005A84"/>
</g>
<defs>
<clipPath id="clip0_2006_29620">
<rect width="96" height="31" fill="white" transform="translate(26 19)"/>
</clipPath>
</defs>
</svg>
