<svg xmlns="http://www.w3.org/2000/svg" viewBox="0 0 820 380" font-family="system-ui, -apple-system, 'Segoe UI', sans-serif">
  <rect width="820" height="380" fill="#ffffff"/>
  <text x="410" y="28" text-anchor="middle" font-size="16" font-weight="600" fill="#2c3e50">RS_Tile</text>
  <text x="410" y="48" text-anchor="middle" font-size="12" fill="#7f8c8d">Splits a raster into smaller tiles of specified dimensions</text>
  <rect x="25" y="75" width="22" height="22" fill="#EEEEEE" stroke="#c8cdd0" stroke-width="0.5"/>
  <rect x="47" y="75" width="22" height="22" fill="#EEEEEE" stroke="#c8cdd0" stroke-width="0.5"/>
  <rect x="69" y="75" width="22" height="22" fill="#EEEEEE" stroke="#c8cdd0" stroke-width="0.5"/>
  <rect x="91" y="75" width="22" height="22" fill="#EEEEEE" stroke="#c8cdd0" stroke-width="0.5"/>
  <rect x="113" y="75" width="22" height="22" fill="#EEEEEE" stroke="#c8cdd0" stroke-width="0.5"/>
  <rect x="135" y="75" width="22" height="22" fill="#EEEEEE" stroke="#c8cdd0" stroke-width="0.5"/>
  <rect x="157" y="75" width="22" height="22" fill="#EEEEEE" stroke="#c8cdd0" stroke-width="0.5"/>
  <rect x="179" y="75" width="22" height="22" fill="#EEEEEE" stroke="#c8cdd0" stroke-width="0.5"/>
  <rect x="201" y="75" width="22" height="22" fill="#EEEEEE" stroke="#c8cdd0" stroke-width="0.5"/>
  <rect x="223" y="75" width="22" height="22" fill="#EEEEEE" stroke="#c8cdd0" stroke-width="0.5"/>
  <rect x="245" y="75" width="22" height="22" fill="#EEEEEE" stroke="#c8cdd0" stroke-width="0.5"/>
  <rect x="267" y="75" width="22" height="22" fill="#EEEEEE" stroke="#c8cdd0" stroke-width="0.5"/>
  <rect x="25" y="97" width="22" height="22" fill="#EEEEEE" stroke="#c8cdd0" stroke-width="0.5"/>
  <rect x="47" y="97" width="22" height="22" fill="#EEEEEE" stroke="#c8cdd0" stroke-width="0.5"/>
  <rect x="69" y="97" width="22" height="22" fill="#EEEEEE" stroke="#c8cdd0" stroke-width="0.5"/>
  <rect x="91" y="97" width="22" height="22" fill="#EEEEEE" stroke="#c8cdd0" stroke-width="0.5"/>
  <rect x="113" y="97" width="22" height="22" fill="#4FC3F7" stroke="#c8cdd0" stroke-width="0.5"/>
  <rect x="135" y="97" width="22" height="22" fill="#4FC3F7" stroke="#c8cdd0" stroke-width="0.5"/>
  <rect x="157" y="97" width="22" height="22" fill="#4FC3F7" stroke="#c8cdd0" stroke-width="0.5"/>
  <rect x="179" y="97" width="22" height="22" fill="#4FC3F7" stroke="#c8cdd0" stroke-width="0.5"/>
  <rect x="201" y="97" width="22" height="22" fill="#EEEEEE" stroke="#c8cdd0" stroke-width="0.5"/>
  <rect x="223" y="97" width="22" height="22" fill="#EEEEEE" stroke="#c8cdd0" stroke-width="0.5"/>
  <rect x="245" y="97" width="22" height="22" fill="#EEEEEE" stroke="#c8cdd0" stroke-width="0.5"/>
  <rect x="267" y="97" width="22" height="22" fill="#EEEEEE" stroke="#c8cdd0" stroke-width="0.5"/>
  <rect x="25" y="119" width="22" height="22" fill="#EEEEEE" stroke="#c8cdd0" stroke-width="0.5"/>
  <rect x="47" y="119" width="22" height="22" fill="#EEEEEE" stroke="#c8cdd0" stroke-width="0.5"/>
  <rect x="69" y="119" width="22" height="22" fill="#EEEEEE" stroke="#c8cdd0" stroke-width="0.5"/>
  <rect x="91" y="119" width="22" height="22" fill="#4FC3F7" stroke="#c8cdd0" stroke-width="0.5"/>
  <rect x="113" y="119" width="22" height="22" fill="#4FC3F7" stroke="#c8cdd0" stroke-width="0.5"/>
  <rect x="135" y="119" width="22" height="22" fill="#4FC3F7" stroke="#c8cdd0" stroke-width="0.5"/>
  <rect x="157" y="119" width="22" height="22" fill="#4FC3F7" stroke="#c8cdd0" stroke-width="0.5"/>
  <rect x="179" y="119" width="22" height="22" fill="#4FC3F7" stroke="#c8cdd0" stroke-width="0.5"/>
  <rect x="201" y="119" width="22" height="22" fill="#4FC3F7" stroke="#c8cdd0" stroke-width="0.5"/>
  <rect x="223" y="119" width="22" height="22" fill="#EEEEEE" stroke="#c8cdd0" stroke-width="0.5"/>
  <rect x="245" y="119" width="22" height="22" fill="#EEEEEE" stroke="#c8cdd0" stroke-width="0.5"/>
  <rect x="267" y="119" width="22" height="22" fill="#EEEEEE" stroke="#c8cdd0" stroke-width="0.5"/>
  <rect x="25" y="141" width="22" height="22" fill="#EEEEEE" stroke="#c8cdd0" stroke-width="0.5"/>
  <rect x="47" y="141" width="22" height="22" fill="#EEEEEE" stroke="#c8cdd0" stroke-width="0.5"/>
  <rect x="69" y="141" width="22" height="22" fill="#4FC3F7" stroke="#c8cdd0" stroke-width="0.5"/>
  <rect x="91" y="141" width="22" height="22" fill="#4FC3F7" stroke="#c8cdd0" stroke-width="0.5"/>
  <rect x="113" y="141" width="22" height="22" fill="#4FC3F7" stroke="#c8cdd0" stroke-width="0.5"/>
  <rect x="135" y="141" width="22" height="22" fill="#4FC3F7" stroke="#c8cdd0" stroke-width="0.5"/>
  <rect x="157" y="141" width="22" height="22" fill="#4FC3F7" stroke="#c8cdd0" stroke-width="0.5"/>
  <rect x="179" y="141" width="22" height="22" fill="#4FC3F7" stroke="#c8cdd0" stroke-width="0.5"/>
  <rect x="201" y="141" width="22" height="22" fill="#4FC3F7" stroke="#c8cdd0" stroke-width="0.5"/>
  <rect x="223" y="141" width="22" height="22" fill="#4FC3F7" stroke="#c8cdd0" stroke-width="0.5"/>
  <rect x="245" y="141" width="22" height="22" fill="#EEEEEE" stroke="#c8cdd0" stroke-width="0.5"/>
  <rect x="267" y="141" width="22" height="22" fill="#EEEEEE" stroke="#c8cdd0" stroke-width="0.5"/>
  <rect x="25" y="163" width="22" height="22" fill="#EEEEEE" stroke="#c8cdd0" stroke-width="0.5"/>
  <rect x="47" y="163" width="22" height="22" fill="#EEEEEE" stroke="#c8cdd0" stroke-width="0.5"/>
  <rect x="69" y="163" width="22" height="22" fill="#4FC3F7" stroke="#c8cdd0" stroke-width="0.5"/>
  <rect x="91" y="163" width="22" height="22" fill="#4FC3F7" stroke="#c8cdd0" stroke-width="0.5"/>
  <rect x="113" y="163" width="22" height="22" fill="#4FC3F7" stroke="#c8cdd0" stroke-width="0.5"/>
  <rect x="135" y="163" width="22" height="22" fill="#4FC3F7" stroke="#c8cdd0" stroke-width="0.5"/>
  <rect x="157" y="163" width="22" height="22" fill="#4FC3F7" stroke="#c8cdd0" stroke-width="0.5"/>
  <rect x="179" y="163" width="22" height="22" fill="#4FC3F7" stroke="#c8cdd0" stroke-width="0.5"/>
  <rect x="201" y="163" width="22" height="22" fill="#4FC3F7" stroke="#c8cdd0" stroke-width="0.5"/>
  <rect x="223" y="163" width="22" height="22" fill="#4FC3F7" stroke="#c8cdd0" stroke-width="0.5"/>
  <rect x="245" y="163" width="22" height="22" fill="#EEEEEE" stroke="#c8cdd0" stroke-width="0.5"/>
  <rect x="267" y="163" width="22" height="22" fill="#EEEEEE" stroke="#c8cdd0" stroke-width="0.5"/>
  <rect x="25" y="185" width="22" height="22" fill="#EEEEEE" stroke="#c8cdd0" stroke-width="0.5"/>
  <rect x="47" y="185" width="22" height="22" fill="#EEEEEE" stroke="#c8cdd0" stroke-width="0.5"/>
  <rect x="69" y="185" width="22" height="22" fill="#EEEEEE" stroke="#c8cdd0" stroke-width="0.5"/>
  <rect x="91" y="185" width="22" height="22" fill="#4FC3F7" stroke="#c8cdd0" stroke-width="0.5"/>
  <rect x="113" y="185" width="22" height="22" fill="#4FC3F7" stroke="#c8cdd0" stroke-width="0.5"/>
  <rect x="135" y="185" width="22" height="22" fill="#4FC3F7" stroke="#c8cdd0" stroke-width="0.5"/>
  <rect x="157" y="185" width="22" height="22" fill="#4FC3F7" stroke="#c8cdd0" stroke-width="0.5"/>
  <rect x="179" y="185" width="22" height="22" fill="#4FC3F7" stroke="#c8cdd0" stroke-width="0.5"/>
  <rect x="201" y="185" width="22" height="22" fill="#4FC3F7" stroke="#c8cdd0" stroke-width="0.5"/>
  <rect x="223" y="185" width="22" height="22" fill="#EEEEEE" stroke="#c8cdd0" stroke-width="0.5"/>
  <rect x="245" y="185" width="22" height="22" fill="#EEEEEE" stroke="#c8cdd0" stroke-width="0.5"/>
  <rect x="267" y="185" width="22" height="22" fill="#EEEEEE" stroke="#c8cdd0" stroke-width="0.5"/>
  <rect x="25" y="207" width="22" height="22" fill="#EEEEEE" stroke="#c8cdd0" stroke-width="0.5"/>
  <rect x="47" y="207" width="22" height="22" fill="#EEEEEE" stroke="#c8cdd0" stroke-width="0.5"/>
  <rect x="69" y="207" width="22" height="22" fill="#EEEEEE" stroke="#c8cdd0" stroke-width="0.5"/>
  <rect x="91" y="207" width="22" height="22" fill="#EEEEEE" stroke="#c8cdd0" stroke-width="0.5"/>
  <rect x="113" y="207" width="22" height="22" fill="#4FC3F7" stroke="#c8cdd0" stroke-width="0.5"/>
  <rect x="135" y="207" width="22" height="22" fill="#4FC3F7" stroke="#c8cdd0" stroke-width="0.5"/>
  <rect x="157" y="207" width="22" height="22" fill="#4FC3F7" stroke="#c8cdd0" stroke-width="0.5"/>
  <rect x="179" y="207" width="22" height="22" fill="#4FC3F7" stroke="#c8cdd0" stroke-width="0.5"/>
  <rect x="201" y="207" width="22" height="22" fill="#EEEEEE" stroke="#c8cdd0" stroke-width="0.5"/>
  <rect x="223" y="207" width="22" height="22" fill="#EEEEEE" stroke="#c8cdd0" stroke-width="0.5"/>
  <rect x="245" y="207" width="22" height="22" fill="#EEEEEE" stroke="#c8cdd0" stroke-width="0.5"/>
  <rect x="267" y="207" width="22" height="22" fill="#EEEEEE" stroke="#c8cdd0" stroke-width="0.5"/>
  <rect x="25" y="229" width="22" height="22" fill="#EEEEEE" stroke="#c8cdd0" stroke-width="0.5"/>
  <rect x="47" y="229" width="22" height="22" fill="#EEEEEE" stroke="#c8cdd0" stroke-width="0.5"/>
  <rect x="69" y="229" width="22" height="22" fill="#EEEEEE" stroke="#c8cdd0" stroke-width="0.5"/>
  <rect x="91" y="229" width="22" height="22" fill="#EEEEEE" stroke="#c8cdd0" stroke-width="0.5"/>
  <rect x="113" y="229" width="22" height="22" fill="#EEEEEE" stroke="#c8cdd0" stroke-width="0.5"/>
  <rect x="135" y="229" width="22" height="22" fill="#EEEEEE" stroke="#c8cdd0" stroke-width="0.5"/>
  <rect x="157" y="229" width="22" height="22" fill="#EEEEEE" stroke="#c8cdd0" stroke-width="0.5"/>
  <rect x="179" y="229" width="22" height="22" fill="#EEEEEE" stroke="#c8cdd0" stroke-width="0.5"/>
  <rect x="201" y="229" width="22" height="22" fill="#EEEEEE" stroke="#c8cdd0" stroke-width="0.5"/>
  <rect x="223" y="229" width="22" height="22" fill="#EEEEEE" stroke="#c8cdd0" stroke-width="0.5"/>
  <rect x="245" y="229" width="22" height="22" fill="#EEEEEE" stroke="#c8cdd0" stroke-width="0.5"/>
  <rect x="267" y="229" width="22" height="22" fill="#EEEEEE" stroke="#c8cdd0" stroke-width="0.5"/>
  <rect x="25" y="75" width="264" height="176" fill="none" stroke="#c8cdd0" stroke-width="1.2"/>
  <text x="157.0" y="63" text-anchor="middle" font-size="12" fill="#2980b9">Input: 12x8 raster</text>
  <defs><marker id="ah-301-163" markerWidth="8" markerHeight="6" refX="8" refY="3" orient="auto"><path d="M0,0 L8,3 L0,6" fill="#7f8c8d"/></marker></defs>
  <line x1="301" y1="163.0" x2="356" y2="163.0" stroke="#7f8c8d" stroke-width="2" marker-end="url(#ah-301-163)"/>
  <text x="328.5" y="153.0" text-anchor="middle" font-size="12" fill="#2c3e50">RS_Tile(r, 4, 4)</text>
  <rect x="376" y="70" width="22" height="22" fill="#EEEEEE" stroke="#c8cdd0" stroke-width="0.5"/>
  <rect x="398" y="70" width="22" height="22" fill="#EEEEEE" stroke="#c8cdd0" stroke-width="0.5"/>
  <rect x="420" y="70" width="22" height="22" fill="#EEEEEE" stroke="#c8cdd0" stroke-width="0.5"/>
  <rect x="442" y="70" width="22" height="22" fill="#EEEEEE" stroke="#c8cdd0" stroke-width="0.5"/>
  <rect x="376" y="92" width="22" height="22" fill="#EEEEEE" stroke="#c8cdd0" stroke-width="0.5"/>
  <rect x="398" y="92" width="22" height="22" fill="#EEEEEE" stroke="#c8cdd0" stroke-width="0.5"/>
  <rect x="420" y="92" width="22" height="22" fill="#EEEEEE" stroke="#c8cdd0" stroke-width="0.5"/>
  <rect x="442" y="92" width="22" height="22" fill="#EEEEEE" stroke="#c8cdd0" stroke-width="0.5"/>
  <rect x="376" y="114" width="22" height="22" fill="#EEEEEE" stroke="#c8cdd0" stroke-width="0.5"/>
  <rect x="398" y="114" width="22" height="22" fill="#EEEEEE" stroke="#c8cdd0" stroke-width="0.5"/>
  <rect x="420" y="114" width="22" height="22" fill="#EEEEEE" stroke="#c8cdd0" stroke-width="0.5"/>
  <rect x="442" y="114" width="22" height="22" fill="#4FC3F7" stroke="#c8cdd0" stroke-width="0.5"/>
  <rect x="376" y="136" width="22" height="22" fill="#EEEEEE" stroke="#c8cdd0" stroke-width="0.5"/>
  <rect x="398" y="136" width="22" height="22" fill="#EEEEEE" stroke="#c8cdd0" stroke-width="0.5"/>
  <rect x="420" y="136" width="22" height="22" fill="#4FC3F7" stroke="#c8cdd0" stroke-width="0.5"/>
  <rect x="442" y="136" width="22" height="22" fill="#4FC3F7" stroke="#c8cdd0" stroke-width="0.5"/>
  <rect x="376" y="70" width="88" height="88" fill="none" stroke="#c8cdd0" stroke-width="1.2"/>
  <rect x="376" y="70" width="88" height="88" fill="none" stroke="#2980b9" stroke-width="1.5" rx="2"/>
  <rect x="474" y="70" width="22" height="22" fill="#EEEEEE" stroke="#c8cdd0" stroke-width="0.5"/>
  <rect x="496" y="70" width="22" height="22" fill="#EEEEEE" stroke="#c8cdd0" stroke-width="0.5"/>
  <rect x="518" y="70" width="22" height="22" fill="#EEEEEE" stroke="#c8cdd0" stroke-width="0.5"/>
  <rect x="540" y="70" width="22" height="22" fill="#EEEEEE" stroke="#c8cdd0" stroke-width="0.5"/>
  <rect x="474" y="92" width="22" height="22" fill="#4FC3F7" stroke="#c8cdd0" stroke-width="0.5"/>
  <rect x="496" y="92" width="22" height="22" fill="#4FC3F7" stroke="#c8cdd0" stroke-width="0.5"/>
  <rect x="518" y="92" width="22" height="22" fill="#4FC3F7" stroke="#c8cdd0" stroke-width="0.5"/>
  <rect x="540" y="92" width="22" height="22" fill="#4FC3F7" stroke="#c8cdd0" stroke-width="0.5"/>
  <rect x="474" y="114" width="22" height="22" fill="#4FC3F7" stroke="#c8cdd0" stroke-width="0.5"/>
  <rect x="496" y="114" width="22" height="22" fill="#4FC3F7" stroke="#c8cdd0" stroke-width="0.5"/>
  <rect x="518" y="114" width="22" height="22" fill="#4FC3F7" stroke="#c8cdd0" stroke-width="0.5"/>
  <rect x="540" y="114" width="22" height="22" fill="#4FC3F7" stroke="#c8cdd0" stroke-width="0.5"/>
  <rect x="474" y="136" width="22" height="22" fill="#4FC3F7" stroke="#c8cdd0" stroke-width="0.5"/>
  <rect x="496" y="136" width="22" height="22" fill="#4FC3F7" stroke="#c8cdd0" stroke-width="0.5"/>
  <rect x="518" y="136" width="22" height="22" fill="#4FC3F7" stroke="#c8cdd0" stroke-width="0.5"/>
  <rect x="540" y="136" width="22" height="22" fill="#4FC3F7" stroke="#c8cdd0" stroke-width="0.5"/>
  <rect x="474" y="70" width="88" height="88" fill="none" stroke="#c8cdd0" stroke-width="1.2"/>
  <rect x="474" y="70" width="88" height="88" fill="none" stroke="#2980b9" stroke-width="1.5" rx="2"/>
  <rect x="572" y="70" width="22" height="22" fill="#EEEEEE" stroke="#c8cdd0" stroke-width="0.5"/>
  <rect x="594" y="70" width="22" height="22" fill="#EEEEEE" stroke="#c8cdd0" stroke-width="0.5"/>
  <rect x="616" y="70" width="22" height="22" fill="#EEEEEE" stroke="#c8cdd0" stroke-width="0.5"/>
  <rect x="638" y="70" width="22" height="22" fill="#EEEEEE" stroke="#c8cdd0" stroke-width="0.5"/>
  <rect x="572" y="92" width="22" height="22" fill="#EEEEEE" stroke="#c8cdd0" stroke-width="0.5"/>
  <rect x="594" y="92" width="22" height="22" fill="#EEEEEE" stroke="#c8cdd0" stroke-width="0.5"/>
  <rect x="616" y="92" width="22" height="22" fill="#EEEEEE" stroke="#c8cdd0" stroke-width="0.5"/>
  <rect x="638" y="92" width="22" height="22" fill="#EEEEEE" stroke="#c8cdd0" stroke-width="0.5"/>
  <rect x="572" y="114" width="22" height="22" fill="#4FC3F7" stroke="#c8cdd0" stroke-width="0.5"/>
  <rect x="594" y="114" width="22" height="22" fill="#EEEEEE" stroke="#c8cdd0" stroke-width="0.5"/>
  <rect x="616" y="114" width="22" height="22" fill="#EEEEEE" stroke="#c8cdd0" stroke-width="0.5"/>
  <rect x="638" y="114" width="22" height="22" fill="#EEEEEE" stroke="#c8cdd0" stroke-width="0.5"/>
  <rect x="572" y="136" width="22" height="22" fill="#4FC3F7" stroke="#c8cdd0" stroke-width="0.5"/>
  <rect x="594" y="136" width="22" height="22" fill="#4FC3F7" stroke="#c8cdd0" stroke-width="0.5"/>
  <rect x="616" y="136" width="22" height="22" fill="#EEEEEE" stroke="#c8cdd0" stroke-width="0.5"/>
  <rect x="638" y="136" width="22" height="22" fill="#EEEEEE" stroke="#c8cdd0" stroke-width="0.5"/>
  <rect x="572" y="70" width="88" height="88" fill="none" stroke="#c8cdd0" stroke-width="1.2"/>
  <rect x="572" y="70" width="88" height="88" fill="none" stroke="#2980b9" stroke-width="1.5" rx="2"/>
  <rect x="376" y="168" width="22" height="22" fill="#EEEEEE" stroke="#c8cdd0" stroke-width="0.5"/>
  <rect x="398" y="168" width="22" height="22" fill="#EEEEEE" stroke="#c8cdd0" stroke-width="0.5"/>
  <rect x="420" y="168" width="22" height="22" fill="#4FC3F7" stroke="#c8cdd0" stroke-width="0.5"/>
  <rect x="442" y="168" width="22" height="22" fill="#4FC3F7" stroke="#c8cdd0" stroke-width="0.5"/>
  <rect x="376" y="190" width="22" height="22" fill="#EEEEEE" stroke="#c8cdd0" stroke-width="0.5"/>
  <rect x="398" y="190" width="22" height="22" fill="#EEEEEE" stroke="#c8cdd0" stroke-width="0.5"/>
  <rect x="420" y="190" width="22" height="22" fill="#EEEEEE" stroke="#c8cdd0" stroke-width="0.5"/>
  <rect x="442" y="190" width="22" height="22" fill="#4FC3F7" stroke="#c8cdd0" stroke-width="0.5"/>
  <rect x="376" y="212" width="22" height="22" fill="#EEEEEE" stroke="#c8cdd0" stroke-width="0.5"/>
  <rect x="398" y="212" width="22" height="22" fill="#EEEEEE" stroke="#c8cdd0" stroke-width="0.5"/>
  <rect x="420" y="212" width="22" height="22" fill="#EEEEEE" stroke="#c8cdd0" stroke-width="0.5"/>
  <rect x="442" y="212" width="22" height="22" fill="#EEEEEE" stroke="#c8cdd0" stroke-width="0.5"/>
  <rect x="376" y="234" width="22" height="22" fill="#EEEEEE" stroke="#c8cdd0" stroke-width="0.5"/>
  <rect x="398" y="234" width="22" height="22" fill="#EEEEEE" stroke="#c8cdd0" stroke-width="0.5"/>
  <rect x="420" y="234" width="22" height="22" fill="#EEEEEE" stroke="#c8cdd0" stroke-width="0.5"/>
  <rect x="442" y="234" width="22" height="22" fill="#EEEEEE" stroke="#c8cdd0" stroke-width="0.5"/>
  <rect x="376" y="168" width="88" height="88" fill="none" stroke="#c8cdd0" stroke-width="1.2"/>
  <rect x="376" y="168" width="88" height="88" fill="none" stroke="#2980b9" stroke-width="1.5" rx="2"/>
  <rect x="474" y="168" width="22" height="22" fill="#4FC3F7" stroke="#c8cdd0" stroke-width="0.5"/>
  <rect x="496" y="168" width="22" height="22" fill="#4FC3F7" stroke="#c8cdd0" stroke-width="0.5"/>
  <rect x="518" y="168" width="22" height="22" fill="#4FC3F7" stroke="#c8cdd0" stroke-width="0.5"/>
  <rect x="540" y="168" width="22" height="22" fill="#4FC3F7" stroke="#c8cdd0" stroke-width="0.5"/>
  <rect x="474" y="190" width="22" height="22" fill="#4FC3F7" stroke="#c8cdd0" stroke-width="0.5"/>
  <rect x="496" y="190" width="22" height="22" fill="#4FC3F7" stroke="#c8cdd0" stroke-width="0.5"/>
  <rect x="518" y="190" width="22" height="22" fill="#4FC3F7" stroke="#c8cdd0" stroke-width="0.5"/>
  <rect x="540" y="190" width="22" height="22" fill="#4FC3F7" stroke="#c8cdd0" stroke-width="0.5"/>
  <rect x="474" y="212" width="22" height="22" fill="#4FC3F7" stroke="#c8cdd0" stroke-width="0.5"/>
  <rect x="496" y="212" width="22" height="22" fill="#4FC3F7" stroke="#c8cdd0" stroke-width="0.5"/>
  <rect x="518" y="212" width="22" height="22" fill="#4FC3F7" stroke="#c8cdd0" stroke-width="0.5"/>
  <rect x="540" y="212" width="22" height="22" fill="#4FC3F7" stroke="#c8cdd0" stroke-width="0.5"/>
  <rect x="474" y="234" width="22" height="22" fill="#EEEEEE" stroke="#c8cdd0" stroke-width="0.5"/>
  <rect x="496" y="234" width="22" height="22" fill="#EEEEEE" stroke="#c8cdd0" stroke-width="0.5"/>
  <rect x="518" y="234" width="22" height="22" fill="#EEEEEE" stroke="#c8cdd0" stroke-width="0.5"/>
  <rect x="540" y="234" width="22" height="22" fill="#EEEEEE" stroke="#c8cdd0" stroke-width="0.5"/>
  <rect x="474" y="168" width="88" height="88" fill="none" stroke="#c8cdd0" stroke-width="1.2"/>
  <rect x="474" y="168" width="88" height="88" fill="none" stroke="#2980b9" stroke-width="1.5" rx="2"/>
  <rect x="572" y="168" width="22" height="22" fill="#4FC3F7" stroke="#c8cdd0" stroke-width="0.5"/>
  <rect x="594" y="168" width="22" height="22" fill="#4FC3F7" stroke="#c8cdd0" stroke-width="0.5"/>
  <rect x="616" y="168" width="22" height="22" fill="#EEEEEE" stroke="#c8cdd0" stroke-width="0.5"/>
  <rect x="638" y="168" width="22" height="22" fill="#EEEEEE" stroke="#c8cdd0" stroke-width="0.5"/>
  <rect x="572" y="190" width="22" height="22" fill="#4FC3F7" stroke="#c8cdd0" stroke-width="0.5"/>
  <rect x="594" y="190" width="22" height="22" fill="#EEEEEE" stroke="#c8cdd0" stroke-width="0.5"/>
  <rect x="616" y="190" width="22" height="22" fill="#EEEEEE" stroke="#c8cdd0" stroke-width="0.5"/>
  <rect x="638" y="190" width="22" height="22" fill="#EEEEEE" stroke="#c8cdd0" stroke-width="0.5"/>
  <rect x="572" y="212" width="22" height="22" fill="#EEEEEE" stroke="#c8cdd0" stroke-width="0.5"/>
  <rect x="594" y="212" width="22" height="22" fill="#EEEEEE" stroke="#c8cdd0" stroke-width="0.5"/>
  <rect x="616" y="212" width="22" height="22" fill="#EEEEEE" stroke="#c8cdd0" stroke-width="0.5"/>
  <rect x="638" y="212" width="22" height="22" fill="#EEEEEE" stroke="#c8cdd0" stroke-width="0.5"/>
  <rect x="572" y="234" width="22" height="22" fill="#EEEEEE" stroke="#c8cdd0" stroke-width="0.5"/>
  <rect x="594" y="234" width="22" height="22" fill="#EEEEEE" stroke="#c8cdd0" stroke-width="0.5"/>
  <rect x="616" y="234" width="22" height="22" fill="#EEEEEE" stroke="#c8cdd0" stroke-width="0.5"/>
  <rect x="638" y="234" width="22" height="22" fill="#EEEEEE" stroke="#c8cdd0" stroke-width="0.5"/>
  <rect x="572" y="168" width="88" height="88" fill="none" stroke="#c8cdd0" stroke-width="1.2"/>
  <rect x="572" y="168" width="88" height="88" fill="none" stroke="#2980b9" stroke-width="1.5" rx="2"/>
  <text x="518.0" y="56" text-anchor="middle" font-size="12" fill="#2980b9">Output: 6 tiles (4x4 each)</text>
  <text x="410" y="296" text-anchor="middle" font-size="11" fill="#7f8c8d">Large raster is divided into a grid of smaller tiles</text>
  <text x="410" y="314" text-anchor="middle" font-size="11" fill="#7f8c8d">Edge tiles can be padded with NoData if padWithNoData=true</text>
</svg>