<svg xmlns="http://www.w3.org/2000/svg" width="400" height="230" viewBox="0 0 400 230">
  <rect width="400" height="230" fill="#f5f5f5" rx="5"/>
  <text x="200" y="18" font-family="monospace" font-size="12" fill="#333" text-anchor="middle" font-weight="bold">ST_S2CellIDs</text>
  <text x="200" y="32" font-family="monospace" font-size="9" fill="#888" text-anchor="middle">Cover geometry with S2 square cells</text>
  <rect x="55" y="45" width="28" height="28" fill="#fff" stroke="#e0e0e0" stroke-width="0.6"/>
  <rect x="55" y="73" width="28" height="28" fill="#fff" stroke="#e0e0e0" stroke-width="0.6"/>
  <rect x="55" y="101" width="28" height="28" fill="#fff" stroke="#e0e0e0" stroke-width="0.6"/>
  <rect x="55" y="129" width="28" height="28" fill="#fff" stroke="#e0e0e0" stroke-width="0.6"/>
  <rect x="55" y="157" width="28" height="28" fill="#fff" stroke="#e0e0e0" stroke-width="0.6"/>
  <rect x="83" y="45" width="28" height="28" fill="#fff" stroke="#e0e0e0" stroke-width="0.6"/>
  <rect x="83" y="73" width="28" height="28" fill="#fff" stroke="#e0e0e0" stroke-width="0.6"/>
  <rect x="83" y="101" width="28" height="28" fill="#fff" stroke="#e0e0e0" stroke-width="0.6"/>
  <rect x="83" y="129" width="28" height="28" fill="#fff" stroke="#e0e0e0" stroke-width="0.6"/>
  <rect x="83" y="157" width="28" height="28" fill="#fff" stroke="#e0e0e0" stroke-width="0.6"/>
  <rect x="111" y="45" width="28" height="28" fill="#fff" stroke="#e0e0e0" stroke-width="0.6"/>
  <rect x="111" y="73" width="28" height="28" fill="#fff" stroke="#e0e0e0" stroke-width="0.6"/>
  <rect x="111" y="101" width="28" height="28" fill="#fff" stroke="#e0e0e0" stroke-width="0.6"/>
  <rect x="111" y="129" width="28" height="28" fill="#fff" stroke="#e0e0e0" stroke-width="0.6"/>
  <rect x="111" y="157" width="28" height="28" fill="#fff" stroke="#e0e0e0" stroke-width="0.6"/>
  <rect x="139" y="45" width="28" height="28" fill="#fff" stroke="#e0e0e0" stroke-width="0.6"/>
  <rect x="139" y="73" width="28" height="28" fill="#fff" stroke="#e0e0e0" stroke-width="0.6"/>
  <rect x="139" y="101" width="28" height="28" fill="#fff" stroke="#e0e0e0" stroke-width="0.6"/>
  <rect x="139" y="129" width="28" height="28" fill="#fff" stroke="#e0e0e0" stroke-width="0.6"/>
  <rect x="139" y="157" width="28" height="28" fill="#fff" stroke="#e0e0e0" stroke-width="0.6"/>
  <rect x="167" y="45" width="28" height="28" fill="#fff" stroke="#e0e0e0" stroke-width="0.6"/>
  <rect x="167" y="73" width="28" height="28" fill="#fff" stroke="#e0e0e0" stroke-width="0.6"/>
  <rect x="167" y="101" width="28" height="28" fill="#fff" stroke="#e0e0e0" stroke-width="0.6"/>
  <rect x="167" y="129" width="28" height="28" fill="#fff" stroke="#e0e0e0" stroke-width="0.6"/>
  <rect x="167" y="157" width="28" height="28" fill="#fff" stroke="#e0e0e0" stroke-width="0.6"/>
  <rect x="195" y="45" width="28" height="28" fill="#fff" stroke="#e0e0e0" stroke-width="0.6"/>
  <rect x="195" y="73" width="28" height="28" fill="#fff" stroke="#e0e0e0" stroke-width="0.6"/>
  <rect x="195" y="101" width="28" height="28" fill="#fff" stroke="#e0e0e0" stroke-width="0.6"/>
  <rect x="195" y="129" width="28" height="28" fill="#fff" stroke="#e0e0e0" stroke-width="0.6"/>
  <rect x="195" y="157" width="28" height="28" fill="#fff" stroke="#e0e0e0" stroke-width="0.6"/>
  <rect x="223" y="45" width="28" height="28" fill="#fff" stroke="#e0e0e0" stroke-width="0.6"/>
  <rect x="223" y="73" width="28" height="28" fill="#fff" stroke="#e0e0e0" stroke-width="0.6"/>
  <rect x="223" y="101" width="28" height="28" fill="#fff" stroke="#e0e0e0" stroke-width="0.6"/>
  <rect x="223" y="129" width="28" height="28" fill="#fff" stroke="#e0e0e0" stroke-width="0.6"/>
  <rect x="223" y="157" width="28" height="28" fill="#fff" stroke="#e0e0e0" stroke-width="0.6"/>
  <rect x="251" y="45" width="28" height="28" fill="#fff" stroke="#e0e0e0" stroke-width="0.6"/>
  <rect x="251" y="73" width="28" height="28" fill="#fff" stroke="#e0e0e0" stroke-width="0.6"/>
  <rect x="251" y="101" width="28" height="28" fill="#fff" stroke="#e0e0e0" stroke-width="0.6"/>
  <rect x="251" y="129" width="28" height="28" fill="#fff" stroke="#e0e0e0" stroke-width="0.6"/>
  <rect x="251" y="157" width="28" height="28" fill="#fff" stroke="#e0e0e0" stroke-width="0.6"/>
  <rect x="279" y="45" width="28" height="28" fill="#fff" stroke="#e0e0e0" stroke-width="0.6"/>
  <rect x="279" y="73" width="28" height="28" fill="#fff" stroke="#e0e0e0" stroke-width="0.6"/>
  <rect x="279" y="101" width="28" height="28" fill="#fff" stroke="#e0e0e0" stroke-width="0.6"/>
  <rect x="279" y="129" width="28" height="28" fill="#fff" stroke="#e0e0e0" stroke-width="0.6"/>
  <rect x="279" y="157" width="28" height="28" fill="#fff" stroke="#e0e0e0" stroke-width="0.6"/>
  <rect x="307" y="45" width="28" height="28" fill="#fff" stroke="#e0e0e0" stroke-width="0.6"/>
  <rect x="307" y="73" width="28" height="28" fill="#fff" stroke="#e0e0e0" stroke-width="0.6"/>
  <rect x="307" y="101" width="28" height="28" fill="#fff" stroke="#e0e0e0" stroke-width="0.6"/>
  <rect x="307" y="129" width="28" height="28" fill="#fff" stroke="#e0e0e0" stroke-width="0.6"/>
  <rect x="307" y="157" width="28" height="28" fill="#fff" stroke="#e0e0e0" stroke-width="0.6"/>
  <rect x="83" y="45" width="28" height="28" fill="rgba(74,144,217,0.2)" stroke="#1565C0" stroke-width="0.8"/>
  <rect x="83" y="73" width="28" height="28" fill="rgba(74,144,217,0.2)" stroke="#1565C0" stroke-width="0.8"/>
  <rect x="83" y="101" width="28" height="28" fill="rgba(74,144,217,0.2)" stroke="#1565C0" stroke-width="0.8"/>
  <rect x="83" y="129" width="28" height="28" fill="rgba(74,144,217,0.2)" stroke="#1565C0" stroke-width="0.8"/>
  <rect x="111" y="45" width="28" height="28" fill="rgba(74,144,217,0.2)" stroke="#1565C0" stroke-width="0.8"/>
  <rect x="111" y="73" width="28" height="28" fill="rgba(74,144,217,0.2)" stroke="#1565C0" stroke-width="0.8"/>
  <rect x="111" y="101" width="28" height="28" fill="rgba(74,144,217,0.2)" stroke="#1565C0" stroke-width="0.8"/>
  <rect x="111" y="129" width="28" height="28" fill="rgba(74,144,217,0.2)" stroke="#1565C0" stroke-width="0.8"/>
  <rect x="111" y="157" width="28" height="28" fill="rgba(74,144,217,0.2)" stroke="#1565C0" stroke-width="0.8"/>
  <rect x="139" y="45" width="28" height="28" fill="rgba(74,144,217,0.2)" stroke="#1565C0" stroke-width="0.8"/>
  <rect x="139" y="73" width="28" height="28" fill="rgba(74,144,217,0.2)" stroke="#1565C0" stroke-width="0.8"/>
  <rect x="139" y="101" width="28" height="28" fill="rgba(74,144,217,0.2)" stroke="#1565C0" stroke-width="0.8"/>
  <rect x="139" y="129" width="28" height="28" fill="rgba(74,144,217,0.2)" stroke="#1565C0" stroke-width="0.8"/>
  <rect x="139" y="157" width="28" height="28" fill="rgba(74,144,217,0.2)" stroke="#1565C0" stroke-width="0.8"/>
  <rect x="167" y="45" width="28" height="28" fill="rgba(74,144,217,0.2)" stroke="#1565C0" stroke-width="0.8"/>
  <rect x="167" y="73" width="28" height="28" fill="rgba(74,144,217,0.2)" stroke="#1565C0" stroke-width="0.8"/>
  <rect x="167" y="101" width="28" height="28" fill="rgba(74,144,217,0.2)" stroke="#1565C0" stroke-width="0.8"/>
  <rect x="167" y="129" width="28" height="28" fill="rgba(74,144,217,0.2)" stroke="#1565C0" stroke-width="0.8"/>
  <rect x="167" y="157" width="28" height="28" fill="rgba(74,144,217,0.2)" stroke="#1565C0" stroke-width="0.8"/>
  <rect x="195" y="45" width="28" height="28" fill="rgba(74,144,217,0.2)" stroke="#1565C0" stroke-width="0.8"/>
  <rect x="195" y="73" width="28" height="28" fill="rgba(74,144,217,0.2)" stroke="#1565C0" stroke-width="0.8"/>
  <rect x="195" y="101" width="28" height="28" fill="rgba(74,144,217,0.2)" stroke="#1565C0" stroke-width="0.8"/>
  <rect x="195" y="129" width="28" height="28" fill="rgba(74,144,217,0.2)" stroke="#1565C0" stroke-width="0.8"/>
  <rect x="195" y="157" width="28" height="28" fill="rgba(74,144,217,0.2)" stroke="#1565C0" stroke-width="0.8"/>
  <rect x="223" y="45" width="28" height="28" fill="rgba(74,144,217,0.2)" stroke="#1565C0" stroke-width="0.8"/>
  <rect x="223" y="73" width="28" height="28" fill="rgba(74,144,217,0.2)" stroke="#1565C0" stroke-width="0.8"/>
  <rect x="223" y="101" width="28" height="28" fill="rgba(74,144,217,0.2)" stroke="#1565C0" stroke-width="0.8"/>
  <rect x="223" y="129" width="28" height="28" fill="rgba(74,144,217,0.2)" stroke="#1565C0" stroke-width="0.8"/>
  <rect x="223" y="157" width="28" height="28" fill="rgba(74,144,217,0.2)" stroke="#1565C0" stroke-width="0.8"/>
  <rect x="251" y="45" width="28" height="28" fill="rgba(74,144,217,0.2)" stroke="#1565C0" stroke-width="0.8"/>
  <rect x="251" y="73" width="28" height="28" fill="rgba(74,144,217,0.2)" stroke="#1565C0" stroke-width="0.8"/>
  <rect x="251" y="101" width="28" height="28" fill="rgba(74,144,217,0.2)" stroke="#1565C0" stroke-width="0.8"/>
  <rect x="251" y="129" width="28" height="28" fill="rgba(74,144,217,0.2)" stroke="#1565C0" stroke-width="0.8"/>
  <rect x="251" y="157" width="28" height="28" fill="rgba(74,144,217,0.2)" stroke="#1565C0" stroke-width="0.8"/>
  <rect x="279" y="73" width="28" height="28" fill="rgba(74,144,217,0.2)" stroke="#1565C0" stroke-width="0.8"/>
  <rect x="279" y="101" width="28" height="28" fill="rgba(74,144,217,0.2)" stroke="#1565C0" stroke-width="0.8"/>
  <rect x="279" y="129" width="28" height="28" fill="rgba(74,144,217,0.2)" stroke="#1565C0" stroke-width="0.8"/>
  <polygon points="115,60 250,50 295,110 265,160 140,165 85,120" fill="none" stroke="#E53935" stroke-width="2" stroke-dasharray="5,3"/>
  <text x="200" y="200" font-family="monospace" font-size="10" fill="#1565C0" text-anchor="middle">Returns array of S2 cell IDs covering the geometry</text>
  <rect x="70" y="210" width="10" height="10" fill="rgba(74,144,217,0.2)" stroke="#1565C0" stroke-width="1"/>
  <text x="84" y="219" font-family="monospace" font-size="8" fill="#1565C0">Covered cells</text>
  <line x1="190" y1="215" x2="220" y2="215" stroke="#E53935" stroke-width="1.5" stroke-dasharray="4,2"/>
  <text x="224" y="219" font-family="monospace" font-size="8" fill="#E53935">Input geometry</text>
</svg>