<?xml version="1.0" encoding="UTF-8"?>
<svg xmlns="http://www.w3.org/2000/svg" viewBox="0 0 100 100">
  <g fill="#000000">
  <rect x="38" y="1" width="2" height="1"/>
  <rect x="37" y="2" width="3" height="1"/>
  <rect x="37" y="3" width="4" height="1"/>
  <rect x="36" y="4" width="5" height="1"/>
  <rect x="36" y="5" width="6" height="1"/>
  <rect x="36" y="6" width="6" height="1"/>
  <rect x="35" y="7" width="8" height="1"/>
  <rect x="35" y="8" width="8" height="1"/>
  <rect x="34" y="9" width="10" height="1"/>
  <rect x="34" y="10" width="10" height="1"/>
  <rect x="33" y="11" width="12" height="1"/>
  <rect x="33" y="12" width="12" height="1"/>
  <rect x="32" y="13" width="14" height="1"/>
  <rect x="32" y="14" width="14" height="1"/>
  <rect x="31" y="15" width="16" height="1"/>
  <rect x="31" y="16" width="16" height="1"/>
  <rect x="30" y="17" width="18" height="1"/>
  <rect x="30" y="18" width="18" height="1"/>
  <rect x="29" y="19" width="20" height="1"/>
  <rect x="29" y="20" width="20" height="1"/>
  <rect x="28" y="21" width="22" height="1"/>
  <rect x="28" y="22" width="22" height="1"/>
  <rect x="27" y="23" width="24" height="1"/>
  <rect x="27" y="24" width="24" height="1"/>
  <rect x="26" y="25" width="26" height="1"/>
  <rect x="70" y="25" width="2" height="1"/>
  <rect x="26" y="26" width="26" height="1"/>
  <rect x="70" y="26" width="2" height="1"/>
  <rect x="25" y="27" width="28" height="1"/>
  <rect x="69" y="27" width="4" height="1"/>
  <rect x="25" y="28" width="28" height="1"/>
  <rect x="69" y="28" width="4" height="1"/>
  <rect x="24" y="29" width="30" height="1"/>
  <rect x="68" y="29" width="6" height="1"/>
  <rect x="24" y="30" width="30" height="1"/>
  <rect x="68" y="30" width="6" height="1"/>
  <rect x="23" y="31" width="32" height="1"/>
  <rect x="67" y="31" width="8" height="1"/>
  <rect x="23" y="32" width="32" height="1"/>
  <rect x="67" y="32" width="8" height="1"/>
  <rect x="22" y="33" width="34" height="1"/>
  <rect x="66" y="33" width="10" height="1"/>
  <rect x="22" y="34" width="34" height="1"/>
  <rect x="66" y="34" width="11" height="1"/>
  <rect x="21" y="35" width="36" height="1"/>
  <rect x="66" y="35" width="11" height="1"/>
  <rect x="21" y="36" width="36" height="1"/>
  <rect x="65" y="36" width="13" height="1"/>
  <rect x="20" y="37" width="38" height="1"/>
  <rect x="65" y="37" width="13" height="1"/>
  <rect x="20" y="38" width="38" height="1"/>
  <rect x="64" y="38" width="15" height="1"/>
  <rect x="19" y="39" width="40" height="1"/>
  <rect x="64" y="39" width="15" height="1"/>
  <rect x="19" y="40" width="40" height="1"/>
  <rect x="63" y="40" width="17" height="1"/>
  <rect x="18" y="41" width="42" height="1"/>
  <rect x="63" y="41" width="17" height="1"/>
  <rect x="18" y="42" width="42" height="1"/>
  <rect x="62" y="42" width="19" height="1"/>
  <rect x="17" y="43" width="44" height="1"/>
  <rect x="62" y="43" width="19" height="1"/>
  <rect x="17" y="44" width="65" height="1"/>
  <rect x="16" y="45" width="66" height="1"/>
  <rect x="16" y="46" width="67" height="1"/>
  <rect x="15" y="47" width="24" height="1"/>
  <rect x="41" y="47" width="42" height="1"/>
  <rect x="15" y="48" width="22" height="1"/>
  <rect x="43" y="48" width="41" height="1"/>
  <rect x="14" y="49" width="22" height="1"/>
  <rect x="44" y="49" width="40" height="1"/>
  <rect x="14" y="50" width="20" height="1"/>
  <rect x="45" y="50" width="40" height="1"/>
  <rect x="13" y="51" width="19" height="1"/>
  <rect x="47" y="51" width="39" height="1"/>
  <rect x="13" y="52" width="18" height="1"/>
  <rect x="48" y="52" width="38" height="1"/>
  <rect x="12" y="53" width="17" height="1"/>
  <rect x="50" y="53" width="37" height="1"/>
  <rect x="12" y="54" width="16" height="1"/>
  <rect x="51" y="54" width="36" height="1"/>
  <rect x="11" y="55" width="15" height="1"/>
  <rect x="38" y="55" width="3" height="1"/>
  <rect x="53" y="55" width="35" height="1"/>
  <rect x="11" y="56" width="13" height="1"/>
  <rect x="37" y="56" width="6" height="1"/>
  <rect x="54" y="56" width="16" height="1"/>
  <rect x="74" y="56" width="14" height="1"/>
  <rect x="10" y="57" width="13" height="1"/>
  <rect x="35" y="57" width="9" height="1"/>
  <rect x="56" y="57" width="13" height="1"/>
  <rect x="75" y="57" width="14" height="1"/>
  <rect x="10" y="58" width="11" height="1"/>
  <rect x="34" y="58" width="12" height="1"/>
  <rect x="57" y="58" width="10" height="1"/>
  <rect x="77" y="58" width="12" height="1"/>
  <rect x="9" y="59" width="11" height="1"/>
  <rect x="32" y="59" width="15" height="1"/>
  <rect x="58" y="59" width="8" height="1"/>
  <rect x="78" y="59" width="12" height="1"/>
  <rect x="9" y="60" width="9" height="1"/>
  <rect x="31" y="60" width="18" height="1"/>
  <rect x="60" y="60" width="4" height="1"/>
  <rect x="80" y="60" width="10" height="1"/>
  <rect x="8" y="61" width="9" height="1"/>
  <rect x="29" y="61" width="21" height="1"/>
  <rect x="61" y="61" width="2" height="1"/>
  <rect x="82" y="61" width="9" height="1"/>
  <rect x="8" y="62" width="7" height="1"/>
  <rect x="27" y="62" width="12" height="1"/>
  <rect x="40" y="62" width="11" height="1"/>
  <rect x="83" y="62" width="8" height="1"/>
  <rect x="7" y="63" width="6" height="1"/>
  <rect x="26" y="63" width="12" height="1"/>
  <rect x="42" y="63" width="11" height="1"/>
  <rect x="85" y="63" width="7" height="1"/>
  <rect x="7" y="64" width="5" height="1"/>
  <rect x="24" y="64" width="12" height="1"/>
  <rect x="43" y="64" width="11" height="1"/>
  <rect x="70" y="64" width="4" height="1"/>
  <rect x="86" y="64" width="6" height="1"/>
  <rect x="6" y="65" width="4" height="1"/>
  <rect x="23" y="65" width="12" height="1"/>
  <rect x="45" y="65" width="11" height="1"/>
  <rect x="69" y="65" width="7" height="1"/>
  <rect x="88" y="65" width="5" height="1"/>
  <rect x="6" y="66" width="3" height="1"/>
  <rect x="21" y="66" width="12" height="1"/>
  <rect x="46" y="66" width="11" height="1"/>
  <rect x="67" y="66" width="10" height="1"/>
  <rect x="90" y="66" width="3" height="1"/>
  <rect x="5" y="67" width="2" height="1"/>
  <rect x="20" y="67" width="12" height="1"/>
  <rect x="48" y="67" width="11" height="1"/>
  <rect x="66" y="67" width="13" height="1"/>
  <rect x="91" y="67" width="3" height="1"/>
  <rect x="18" y="68" width="12" height="1"/>
  <rect x="49" y="68" width="11" height="1"/>
  <rect x="64" y="68" width="16" height="1"/>
  <rect x="93" y="68" width="2" height="1"/>
  <rect x="16" y="69" width="12" height="1"/>
  <rect x="39" y="69" width="2" height="1"/>
  <rect x="51" y="69" width="11" height="1"/>
  <rect x="63" y="69" width="19" height="1"/>
  <rect x="15" y="70" width="12" height="1"/>
  <rect x="38" y="70" width="4" height="1"/>
  <rect x="52" y="70" width="32" height="1"/>
  <rect x="13" y="71" width="12" height="1"/>
  <rect x="36" y="71" width="7" height="1"/>
  <rect x="54" y="71" width="17" height="1"/>
  <rect x="73" y="71" width="12" height="1"/>
  <rect x="12" y="72" width="12" height="1"/>
  <rect x="35" y="72" width="10" height="1"/>
  <rect x="55" y="72" width="15" height="1"/>
  <rect x="74" y="72" width="13" height="1"/>
  <rect x="10" y="73" width="12" height="1"/>
  <rect x="33" y="73" width="13" height="1"/>
  <rect x="56" y="73" width="12" height="1"/>
  <rect x="76" y="73" width="13" height="1"/>
  <rect x="9" y="74" width="12" height="1"/>
  <rect x="32" y="74" width="16" height="1"/>
  <rect x="58" y="74" width="9" height="1"/>
  <rect x="78" y="74" width="12" height="1"/>
  <rect x="7" y="75" width="12" height="1"/>
  <rect x="30" y="75" width="19" height="1"/>
  <rect x="59" y="75" width="6" height="1"/>
  <rect x="79" y="75" width="13" height="1"/>
  <rect x="5" y="76" width="12" height="1"/>
  <rect x="28" y="76" width="23" height="1"/>
  <rect x="61" y="76" width="3" height="1"/>
  <rect x="81" y="76" width="13" height="1"/>
  <rect x="5" y="77" width="11" height="1"/>
  <rect x="27" y="77" width="12" height="1"/>
  <rect x="41" y="77" width="11" height="1"/>
  <rect x="83" y="77" width="12" height="1"/>
  <rect x="5" y="78" width="9" height="1"/>
  <rect x="25" y="78" width="12" height="1"/>
  <rect x="42" y="78" width="12" height="1"/>
  <rect x="71" y="78" width="1" height="1"/>
  <rect x="84" y="78" width="11" height="1"/>
  <rect x="5" y="79" width="8" height="1"/>
  <rect x="24" y="79" width="12" height="1"/>
  <rect x="44" y="79" width="11" height="1"/>
  <rect x="69" y="79" width="5" height="1"/>
  <rect x="86" y="79" width="9" height="1"/>
  <rect x="5" y="80" width="6" height="1"/>
  <rect x="22" y="80" width="12" height="1"/>
  <rect x="45" y="80" width="11" height="1"/>
  <rect x="68" y="80" width="8" height="1"/>
  <rect x="88" y="80" width="7" height="1"/>
  <rect x="5" y="81" width="5" height="1"/>
  <rect x="21" y="81" width="11" height="1"/>
  <rect x="47" y="81" width="11" height="1"/>
  <rect x="66" y="81" width="11" height="1"/>
  <rect x="89" y="81" width="6" height="1"/>
  <rect x="5" y="82" width="3" height="1"/>
  <rect x="19" y="82" width="12" height="1"/>
  <rect x="48" y="82" width="11" height="1"/>
  <rect x="65" y="82" width="14" height="1"/>
  <rect x="91" y="82" width="4" height="1"/>
  <rect x="5" y="83" width="1" height="1"/>
  <rect x="18" y="83" width="11" height="1"/>
  <rect x="50" y="83" width="11" height="1"/>
  <rect x="63" y="83" width="18" height="1"/>
  <rect x="93" y="83" width="2" height="1"/>
  <rect x="16" y="84" width="12" height="1"/>
  <rect x="51" y="84" width="31" height="1"/>
  <rect x="94" y="84" width="1" height="1"/>
  <rect x="14" y="85" width="12" height="1"/>
  <rect x="52" y="85" width="32" height="1"/>
  <rect x="13" y="86" width="12" height="1"/>
  <rect x="54" y="86" width="16" height="1"/>
  <rect x="73" y="86" width="13" height="1"/>
  <rect x="11" y="87" width="12" height="1"/>
  <rect x="55" y="87" width="14" height="1"/>
  <rect x="75" y="87" width="12" height="1"/>
  <rect x="10" y="88" width="12" height="1"/>
  <rect x="57" y="88" width="10" height="1"/>
  <rect x="76" y="88" width="13" height="1"/>
  <rect x="8" y="89" width="12" height="1"/>
  <rect x="58" y="89" width="8" height="1"/>
  <rect x="78" y="89" width="12" height="1"/>
  <rect x="7" y="90" width="11" height="1"/>
  <rect x="60" y="90" width="4" height="1"/>
  <rect x="79" y="90" width="13" height="1"/>
  <rect x="5" y="91" width="12" height="1"/>
  <rect x="61" y="91" width="2" height="1"/>
  <rect x="81" y="91" width="13" height="1"/>
  <rect x="5" y="92" width="10" height="1"/>
  <rect x="83" y="92" width="12" height="1"/>
  <rect x="5" y="93" width="9" height="1"/>
  <rect x="84" y="93" width="11" height="1"/>
  <rect x="5" y="94" width="7" height="1"/>
  <rect x="86" y="94" width="9" height="1"/>
  <rect x="5" y="95" width="6" height="1"/>
  <rect x="88" y="95" width="7" height="1"/>
  <rect x="5" y="96" width="4" height="1"/>
  <rect x="89" y="96" width="6" height="1"/>
  <rect x="5" y="97" width="3" height="1"/>
  <rect x="91" y="97" width="4" height="1"/>
  <rect x="5" y="98" width="1" height="1"/>
  <rect x="93" y="98" width="2" height="1"/>
  <rect x="94" y="99" width="1" height="1"/>
  </g>
</svg>
