<svg xmlns="http://www.w3.org/2000/svg" viewBox="0 0 500 300" width="500" height="300" style="background:#ffffff">
  <defs>
    <style>
      text { font-family: 'Segoe UI', Arial, Helvetica, sans-serif; }
    </style>
    <marker id="arrowResult" markerWidth="8" markerHeight="6" refX="8" refY="3" orient="auto">
      <path d="M0,0 L8,3 L0,6" fill="#2ecc71" />
    </marker>
    <marker id="arrowA" markerWidth="7" markerHeight="5" refX="7" refY="2.5" orient="auto">
      <path d="M0,0 L7,2.5 L0,5" fill="#4a90d9" />
    </marker>
    <marker id="arrowGray" markerWidth="7" markerHeight="5" refX="7" refY="2.5" orient="auto">
      <path d="M0,0 L7,2.5 L0,5" fill="#999999" />
    </marker>
  </defs>
  <text x="250" y="22" text-anchor="middle" font-size="16" font-weight="bold" fill="#333333">ST_Force2D</text>
  <path d="M 131.08 224.32 L 368.92 224.32 L 368.92 75.68 L 131.08 75.68 L 131.08 224.32 Z" fill="rgba(74,144,217,0.15)" stroke="#4a90d9" stroke-width="2.5" fill-rule="evenodd" stroke-dasharray="6,3" />
  <path d="M 131.08 224.32 L 368.92 224.32 L 368.92 75.68 L 131.08 75.68 L 131.08 224.32 Z" fill="rgba(46,204,113,0.25)" stroke="#2ecc71" stroke-width="2.5" fill-rule="evenodd" />
  <text x="226.22" y="152.86" text-anchor="middle" font-size="14" fill="#4a90d9">3D (X, Y, Z)</text>
  <text x="226.22" y="170.86" text-anchor="middle" font-size="18" fill="#2ecc71" font-weight="bold">→</text>
  <text x="226.22" y="188.86" text-anchor="middle" font-size="14" fill="#2ecc71" font-weight="bold">2D (X, Y)</text>
  <text x="250" y="292" text-anchor="middle" font-size="13" fill="#333333" font-style="italic">Forces the geometry into 2D (drops Z / M coordinates)</text>
  <rect x="176" y="255" width="12" height="12" rx="2" fill="#4a90d9" stroke="#4a90d9" stroke-width="1" />
  <text x="192" y="266" font-size="13" fill="#333333">Input</text>
  <rect x="246" y="255" width="12" height="12" rx="2" fill="#2ecc71" stroke="#2ecc71" stroke-width="1" />
  <text x="262" y="266" font-size="13" fill="#333333">Result</text>
</svg>