<svg xmlns="http://www.w3.org/2000/svg" width="580" height="320" viewBox="0 0 580 320" font-family="Arial, Helvetica, sans-serif">
<rect width="580" height="320" fill="white"/>
<text x="290" y="28" text-anchor="middle" font-size="17" fill="#333" font-weight="bold" font-style="normal">RS_UpperLeftX</text><text x="290" y="48" text-anchor="middle" font-size="12" fill="#666" font-weight="normal" font-style="normal">Returns the X coordinate of the upper-left corner</text><line x1="80" y1="260" x2="520" y2="260" stroke="#333" stroke-width="1.5"/>
<polygon points="520,260 513.2,264.3 513.2,255.7" fill="#333"/><line x1="80" y1="260" x2="80" y2="60" stroke="#333" stroke-width="1.5"/>
<polygon points="80,60 84.3,66.8 75.7,66.8" fill="#333"/><text x="525" y="265" text-anchor="middle" font-size="13" fill="#333" font-weight="bold" font-style="normal">X</text><text x="68" y="55" text-anchor="middle" font-size="13" fill="#333" font-weight="bold" font-style="normal">Y</text><rect x="200" y="100" width="240" height="135" fill="#E3F2FD" stroke="#1565C0" stroke-width="1.5"/>
<line x1="260" y1="100" x2="260" y2="235" stroke="#1565C0" stroke-width="0.8" opacity="0.5"/>
<line x1="320" y1="100" x2="320" y2="235" stroke="#1565C0" stroke-width="0.8" opacity="0.5"/>
<line x1="380" y1="100" x2="380" y2="235" stroke="#1565C0" stroke-width="0.8" opacity="0.5"/>
<line x1="200" y1="145" x2="440" y2="145" stroke="#1565C0" stroke-width="0.8" opacity="0.5"/>
<line x1="200" y1="190" x2="440" y2="190" stroke="#1565C0" stroke-width="0.8" opacity="0.5"/><circle cx="200" cy="100" r="5" fill="#FF8F00" stroke="white" stroke-width="1.5"/><line x1="200" y1="100" x2="200" y2="260" stroke="#D32F2F" stroke-width="1.5" stroke-dasharray="5,3"/><line x1="80" y1="255" x2="200" y2="255" stroke="#D32F2F" stroke-width="2"/>
<polygon points="200,255 194.1,258.8 194.1,251.2" fill="#D32F2F"/>
<polygon points="80,255 85.9,251.2 85.9,258.8" fill="#D32F2F"/><text x="140.0" y="282" text-anchor="middle" font-size="13" fill="#D32F2F" font-weight="bold" font-style="normal">UpperLeftX</text><text x="192" y="88" text-anchor="start" font-size="11" fill="#FF8F00" font-weight="bold" font-style="normal">(UpperLeftX, UpperLeftY)</text></svg>