<svg xmlns="http://www.w3.org/2000/svg" width="400" height="180" viewBox="0 0 400 180">
  <rect width="400" height="180" fill="#f5f5f5" rx="5"/>
  <text x="200" y="18" font-family="monospace" font-size="12" fill="#333" text-anchor="middle" font-weight="bold">ST_Rotate</text>
  <text x="200" y="32" font-family="monospace" font-size="9" fill="#888" text-anchor="middle">angle=45° counter-clockwise</text>
  <polygon points="162.4,133.6 247.1,133.6 247.1,105.3 190.6,105.3 190.6,48.8 162.4,48.8 162.4,133.6" stroke="#1565C0" stroke-width="2" fill="rgba(21,101,192,0.12)" stroke-dasharray="6,3"/>
  <circle cx="162.4" cy="133.6" r="2.5" fill="#1565C0"/>
  <circle cx="247.1" cy="133.6" r="2.5" fill="#1565C0"/>
  <circle cx="247.1" cy="105.3" r="2.5" fill="#1565C0"/>
  <circle cx="190.6" cy="105.3" r="2.5" fill="#1565C0"/>
  <circle cx="190.6" cy="48.8" r="2.5" fill="#1565C0"/>
  <circle cx="162.4" cy="48.8" r="2.5" fill="#1565C0"/>
  <polygon points="200.0,149.2 259.9,89.3 239.9,69.3 200.0,109.2 160.1,69.3 140.1,89.3 200.0,149.2" stroke="#43A047" stroke-width="2" fill="rgba(67,160,71,0.18)"/>
  <circle cx="200.0" cy="149.2" r="2.5" fill="#43A047"/>
  <circle cx="259.9" cy="89.3" r="2.5" fill="#43A047"/>
  <circle cx="239.9" cy="69.3" r="2.5" fill="#43A047"/>
  <circle cx="200.0" cy="109.2" r="2.5" fill="#43A047"/>
  <circle cx="160.1" cy="69.3" r="2.5" fill="#43A047"/>
  <circle cx="140.1" cy="89.3" r="2.5" fill="#43A047"/>

  <rect x="100" y="162" width="8" height="8" fill="rgba(21,101,192,0.12)" stroke="#1565C0" stroke-width="1" stroke-dasharray="2,1"/>
  <text x="112" y="170" font-family="monospace" font-size="9" fill="#1565C0">Input</text>
  <rect x="220" y="162" width="8" height="8" fill="rgba(67,160,71,0.18)" stroke="#43A047" stroke-width="1"/>
  <text x="232" y="170" font-family="monospace" font-size="9" fill="#43A047">Result</text>
</svg>