<svg xmlns="http://www.w3.org/2000/svg" width="400" height="190" viewBox="0 0 400 190">
  <rect width="400" height="190" fill="#f5f5f5" rx="5"/>
  <text x="200" y="18" font-family="monospace" font-size="12" fill="#333" text-anchor="middle" font-weight="bold">ST_BingTile</text>
  <text x="200" y="32" font-family="monospace" font-size="9" fill="#888" text-anchor="middle">Create Bing Tile quadkey from X, Y, zoom</text>
  <rect x="100" y="48" width="30" height="30" fill="#fff" stroke="#ccc" stroke-width="0.8"/>
  <rect x="100" y="78" width="30" height="30" fill="#fff" stroke="#ccc" stroke-width="0.8"/>
  <rect x="100" y="108" width="30" height="30" fill="#fff" stroke="#ccc" stroke-width="0.8"/>
  <text x="115" y="43" font-family="monospace" font-size="8" fill="#999" text-anchor="middle">0</text>
  <rect x="130" y="48" width="30" height="30" fill="#fff" stroke="#ccc" stroke-width="0.8"/>
  <rect x="130" y="78" width="30" height="30" fill="#fff" stroke="#ccc" stroke-width="0.8"/>
  <rect x="130" y="108" width="30" height="30" fill="#fff" stroke="#ccc" stroke-width="0.8"/>
  <text x="145" y="43" font-family="monospace" font-size="8" fill="#999" text-anchor="middle">1</text>
  <rect x="160" y="48" width="30" height="30" fill="#fff" stroke="#ccc" stroke-width="0.8"/>
  <rect x="160" y="78" width="30" height="30" fill="rgba(74,144,217,0.25)" stroke="#1565C0" stroke-width="2"/>
  <rect x="160" y="108" width="30" height="30" fill="#fff" stroke="#ccc" stroke-width="0.8"/>
  <text x="175" y="43" font-family="monospace" font-size="8" fill="#999" text-anchor="middle">2</text>
  <rect x="190" y="48" width="30" height="30" fill="#fff" stroke="#ccc" stroke-width="0.8"/>
  <rect x="190" y="78" width="30" height="30" fill="#fff" stroke="#ccc" stroke-width="0.8"/>
  <rect x="190" y="108" width="30" height="30" fill="#fff" stroke="#ccc" stroke-width="0.8"/>
  <text x="205" y="43" font-family="monospace" font-size="8" fill="#999" text-anchor="middle">3</text>
  <rect x="220" y="48" width="30" height="30" fill="#fff" stroke="#ccc" stroke-width="0.8"/>
  <rect x="220" y="78" width="30" height="30" fill="#fff" stroke="#ccc" stroke-width="0.8"/>
  <rect x="220" y="108" width="30" height="30" fill="#fff" stroke="#ccc" stroke-width="0.8"/>
  <text x="235" y="43" font-family="monospace" font-size="8" fill="#999" text-anchor="middle">4</text>
  <rect x="250" y="48" width="30" height="30" fill="#fff" stroke="#ccc" stroke-width="0.8"/>
  <rect x="250" y="78" width="30" height="30" fill="#fff" stroke="#ccc" stroke-width="0.8"/>
  <rect x="250" y="108" width="30" height="30" fill="#fff" stroke="#ccc" stroke-width="0.8"/>
  <text x="265" y="43" font-family="monospace" font-size="8" fill="#999" text-anchor="middle">5</text>
  <text x="92" y="66" font-family="monospace" font-size="8" fill="#999" text-anchor="end">0</text>
  <text x="92" y="96" font-family="monospace" font-size="8" fill="#999" text-anchor="end">1</text>
  <text x="92" y="126" font-family="monospace" font-size="8" fill="#999" text-anchor="end">2</text>
  <text x="175" y="97" font-family="monospace" font-size="8" fill="#1565C0" text-anchor="middle" font-weight="bold">2,1</text>
  <text x="200" y="152" font-family="monospace" font-size="10" fill="#1565C0" text-anchor="middle">ST_BingTile(2, 1, 3) → quadkey string</text>
  <text x="200" y="170" font-family="monospace" font-size="9" fill="#666" text-anchor="middle">Creates tile identifier from X, Y coords and zoom level</text>
</svg>