<svg width="696" height="250" viewBox="0 0 696 250" fill="none" xmlns="http://www.w3.org/2000/svg">
<path d="M974.859 297.061C700.142 280.222 210.488 290.045 0 297.061C33.4375 286.477 57.834 284.833 65.8526 285.334C74.0315 256.467 95.7218 223.19 105.545 210.159C111.318 200.537 122.183 192.118 126.894 189.111C128.598 182.094 131.344 167.04 128.698 162.95C126.052 158.861 125.391 148.416 125.391 143.705C127.195 137.992 130.382 125.904 128.698 123.258C127.014 120.612 126.794 116.943 126.894 115.44L130.803 101.608C131.004 96.897 131.525 85.1297 132.006 75.748C132.487 66.3662 150.248 48.3846 159.069 40.5665H170.796C179.456 39.6042 190.441 30.1423 194.852 25.5316C199.182 20.2394 201.266 19.7182 201.768 20.1191C204.173 22.5247 210.247 27.3358 215.299 27.3358C220.351 27.3358 224.821 22.5247 226.425 20.1191C235.085 12.1807 243.665 9.19376 246.872 8.6926C250.48 8.19139 259.261 6.34702 265.515 2.97922C271.77 -0.388588 278.746 -0.228129 281.452 0.273077C289.15 0.0325196 329.965 33.049 349.41 49.5873L351.515 46.8811C352.417 46.0792 355.544 44.2951 360.836 43.5734C366.128 42.8517 372.263 40.2661 374.668 39.0635C382.847 39.0635 383.288 47.2823 382.486 51.3918V117.545L384.892 151.824C385.614 166.258 386.796 172.272 387.297 173.474C389.944 173.715 391.607 167.962 392.109 165.055V144.908C398.604 140.819 400.829 133.181 401.129 129.873L403.836 103.412C407.204 101.247 409.449 92.2863 410.15 88.0765L413.157 68.5312L415.563 63.7201H422.78L421.577 89.58H424.283L425.486 67.0278L429.395 66.1257V82.3633L435.108 91.0835L436.912 117.545L448.64 119.349L457.961 151.824L469.688 141.3L472.094 107.622L473.898 26.4337C486.888 24.2685 493.343 18.9164 494.947 16.511L507.877 18.9163C513.65 8.57231 524.315 5.78585 528.926 5.68562C535.641 4.28245 550.756 1.41598 557.492 1.17542C564.227 0.934864 577.338 10.6975 583.051 15.6089L592.072 10.497L605.603 15.6089L620.037 16.511L632.065 29.1402C636.635 29.3808 644.393 37.0586 647.701 40.8674C648.703 40.7672 651.67 41.5891 655.519 45.6785C659.368 49.768 669.551 60.0117 674.162 64.6224L676.868 51.3918C676.568 50.3895 676.688 48.0841 679.575 46.8813C682.461 45.6785 683.584 49.9887 683.784 52.2941C685.468 52.2941 686.491 51.6926 686.791 51.3918L698.519 39.0635C701.726 37.6602 709.223 35.4551 713.553 37.8607C717.883 40.2663 720.169 48.4853 720.77 52.2941C727.506 51.5725 732.397 57.406 734.001 60.413C737.369 51.7529 742.22 49.9889 744.224 50.1893C745.828 51.2919 750.118 54.2187 754.448 57.1053C758.778 59.992 763.068 70.7369 764.672 75.7485L778.805 74.5455C782.413 73.5833 784.317 79.958 784.819 83.2657C793.719 87.8363 795.343 105.217 795.042 113.335L803.762 112.433C811.22 111.952 815.289 124.261 816.392 130.475L823.909 132.881C834.975 140.338 840.147 152.627 841.35 157.839C841.35 163.051 841.891 176.722 844.056 189.713C846.221 202.703 887.456 258.071 907.804 284.131C935.468 284.131 964.034 292.751 974.859 297.061Z" fill="#EA7A0C"/>
<path d="M591.964 10.9098C590.645 10.4269 590.315 12.1169 590.315 13.0222C589.857 12.6199 588.666 11.8152 587.567 11.8152C586.468 11.8152 587.109 13.827 587.567 14.833C588.483 14.833 590.645 15.014 591.964 15.7383C593.283 16.4626 597.77 16.3418 598.503 15.7383C598.32 15.1347 597.623 13.0222 598.503 13.0222C600.919 13.0222 593.613 11.5133 591.964 10.9098Z" fill="#4C5721"/>
<path d="M175.144 136.279L132.296 123.749H129.3V129.716L180.238 144.334L217.692 129.716L241.663 118.678L266.233 113.308H297.694L318.669 136.279L350.729 133.296L383.689 144.334V136.279L348.632 123.749H318.669L301.29 106.446H276.121H247.655L209.901 123.749L175.144 136.279Z" fill="#F78E26"/>
<path d="M172.511 157.328L128.751 144.798H125.691V150.765L177.713 165.383L215.964 150.765L240.445 139.727L265.537 134.357H297.668L319.089 157.328L351.832 154.345L385.493 165.383V157.328L349.69 144.798H319.089L301.341 127.495H275.636H246.565L208.008 144.798L172.511 157.328Z" fill="#DA5508"/>
<path d="M141.06 119.677L126.894 117.272V115.468L128.1 112.16L147.992 114.265L169.091 125.09L183.86 119.677L210.685 111.859L242.634 98.0273L285.434 94.4189L312.862 101.034L327.932 114.265L357.168 111.859L382.486 114.265V125.09L353.551 119.677H324.918L308.039 104.643L285.434 101.034L245.949 104.643L217.014 117.272L199.231 125.09L183.86 128.698L171.804 131.705L155.226 126.293L141.06 119.677Z" fill="#CC6B0B"/>
<path d="M141.677 193.047L127.496 190.642V188.837L128.703 185.53L148.617 187.635L169.739 198.46L184.524 193.047L211.379 185.229L243.363 171.397L286.21 167.789L313.669 174.404L328.756 187.635L358.024 185.229C358.024 185.229 385.176 171.096 387.585 173.502C389.993 175.907 396.917 176.809 399.927 179.816L374.339 187.635L363.201 190.341L354.403 193.047H325.738L308.841 178.012L286.21 174.404L246.683 178.012L217.716 190.642L199.913 198.46L184.524 202.068L172.455 205.075L155.859 199.662L141.677 193.047Z" fill="#C76827"/>
<path d="M147.943 110.054L128.698 108.852L129.3 107.047L129.6 107.649L149.146 110.054L171.999 121.18L182.824 116.068L206.579 108.852L221.914 102.838L245.97 92.9147L279.949 89.9077L318.438 99.2293L334.074 109.152L356.025 105.243L369.256 103.138L382.486 108.551V110.956L368.053 104.341L334.074 110.656L317.536 100.131L279.949 90.8098L245.97 93.8168L225.823 102.236L207.18 110.054L182.824 116.97L171.999 122.082L165.985 119.677L147.943 110.054Z" fill="#D04600"/>
<path d="M147.942 159.069L126.894 157.866L126.593 156.062L129.6 156.663L149.145 159.069L171.998 170.194L182.823 165.082L206.578 157.866L221.914 151.852L245.97 141.929L279.948 138.922L318.438 148.243L334.074 158.166L356.025 154.257L369.255 152.153L385.192 157.565V159.971L368.053 153.355L334.074 159.67L317.535 149.146L279.948 139.824L245.97 142.831L225.823 151.25L207.18 159.069L182.823 165.985L171.998 171.096L165.984 168.691L147.942 159.069Z" fill="#DA6021"/>
<path d="M148.243 160.873L127.796 159.67L127.194 157.866L129.9 158.467L149.446 160.873L172.299 171.999L183.124 166.887L206.879 159.67L222.214 153.656L246.27 143.132L280.249 140.726L318.738 150.048L334.074 159.67C341.401 157.482 346.707 157.033 356.325 156.062C359.165 154.454 359.467 153.179 368.052 153.355L385.192 159.67L385.493 161.775C378.778 159.214 374.199 158.016 368.052 155.16C358.43 156.663 347.346 158.92 334.374 161.474L317.836 150.95L280.249 141.628L247.774 144.635L226.123 153.055L207.48 160.873L183.124 167.789L172.299 172.901L166.285 170.495L148.243 160.873Z" fill="#E26321"/>
<path d="M626.816 20.8758C624.842 19.0864 623.177 20.8967 622.59 22.0256C622.057 21.1116 620.514 19.0364 618.609 18.047C616.704 17.0575 616.512 20.1432 616.655 21.8098C618.242 22.6343 621.872 24.806 623.689 26.8964C625.506 28.9868 629.283 29.3235 630.944 29.2306C631.017 28.3131 630.783 26.2802 629.258 25.4886C627.353 24.4992 629.283 23.1125 626.816 20.8758Z" fill="#574621"/>
<path d="M132.006 79.0835L131.705 82.3912L145.537 76.0765L160.873 77.2793L168.992 70.664L199.362 79.9856L218.607 78.7828L235.746 71.5661L261.606 67.3563L280.25 66.1535L308.816 80.2863L332.871 95.0204L355.123 89.0065L382.186 76.9786V73.671L355.123 87.503L332.871 94.1183L309.417 79.3842L280.25 63.4473L261.606 66.7549L235.746 70.664L219.208 77.2793L199.362 78.7828L168.992 69.7619L160.873 76.0765L145.537 74.573L132.006 79.0835Z" fill="#BA3300"/>
<path d="M255.592 35.4819L231.837 47.8105L230.333 51.4189L255.592 37.5868L262.809 46.0063L272.13 37.5868L291.074 43.6007L311.522 55.6286L331.368 64.6495L339.186 73.069L347.605 69.7614L354.822 73.069L379.178 68.2579V64.6495L354.822 71.2648L347.605 68.2579L339.186 71.2648L331.368 62.8453L311.522 52.9223L291.074 42.0973L272.13 35.4819L264.914 42.0973L255.592 35.4819Z" fill="#F78E26"/>
<path d="M171.397 145.838L127.796 136.516H127.495L126.894 138.02L169.894 147.041L180.117 152.754L237.851 125.391L268.222 117.272L297.088 120.279L315.431 140.726L351.515 138.922L384.591 149.446V147.341L350.312 135.915L315.431 138.922L297.088 118.775L268.222 116.37L257.998 118.775L237.851 124.188L212.593 136.516L182.222 150.649L171.397 145.838Z" fill="#E06A19"/>
<path d="M243.538 14.9691C242.754 14.7096 241.032 16.3743 240.269 17.239C239.615 18.6443 239.55 21.7143 244.519 22.752C250.73 24.0492 257.269 17.239 258.576 15.6178C259.622 14.3208 262.155 14.9692 262.809 14.9691C265.424 16.9147 267.403 8.80779 269.038 7.51074C270.672 6.2137 271.98 8.80779 273.615 9.45644C275.249 10.1051 278.191 7.51074 279.499 6.21361C280.807 4.91648 282.441 8.80779 284.076 8.80779C285.71 8.80779 286.037 11.0777 287.345 12.6992C288.653 14.3207 288.653 11.0777 291.268 10.4293C293.36 9.91056 295.845 11.7264 296.826 12.6992C296.826 13.1316 297.414 13.9963 299.768 13.9963C302.71 13.9963 297.806 11.0777 296.826 11.0777C295.845 11.0777 292.903 9.78072 293.556 8.80779C294.21 7.83485 290.614 6.21361 289.307 4.5922C288.26 3.29506 286.691 4.05172 286.037 4.5922C285.057 5.13267 282.768 5.6299 281.461 3.29506C279.826 0.376515 278.38 -0.610192 275.438 0.362657C272.496 1.33551 274.007 3.29495 269.43 1.99782C264.853 0.70069 265.507 9.45629 264.526 8.80779C263.546 8.15928 264.134 10.4291 263.48 11.0777C262.957 11.5966 262.172 11.4652 261.846 11.7895C260.974 11.7895 259.278 11.2825 259.802 9.98532C260.455 8.36384 257.596 9.13207 256.288 8.80779C254.98 8.4835 255.697 12.0902 254.389 12.0902C253.081 12.0902 254 13.3477 252.692 14.9691C251.646 16.2661 250.077 14.861 249.423 13.9963V12.6992H247.788C247.352 12.8073 246.48 13.218 246.48 13.9963C246.48 14.9692 244.519 15.2933 243.538 14.9691Z" fill="#574621"/>
<path d="M405.94 115.467L402.632 116.67V116.971L401.73 126.593H402.632L406.842 125.39H409.849L412.856 126.593L416.765 124.488L423.08 121.481L429.695 124.488H440.219L434.807 120.88L436.912 116.971L436.611 113.964H435.408L429.695 115.467L426.688 116.069L421.877 113.964L420.373 114.866L415.262 116.069L412.856 117.572L410.751 116.069L405.94 115.467Z" fill="#DA5508"/>
<path d="M258.599 24.3564L234.844 36.685L233.341 40.2934L258.599 26.4613L265.816 34.8808L275.137 26.4613L294.081 32.4753L314.529 44.5031L334.375 53.524L342.193 61.9435L350.612 58.6359L357.829 61.9435L382.185 57.1324V53.524L357.829 60.1394L350.612 57.1324L342.193 60.1394L334.375 51.7199L314.529 41.7969L294.081 30.9718L275.137 24.3564L267.921 30.9718L258.599 24.3564Z" fill="#BA3300"/>
<path d="M131.404 87.2019L131.104 101.034L154.257 104.342L174.103 115.768L200.865 107.649L238.753 87.5026L263.41 81.1879L273.032 83.5935L288.669 81.1879L336.479 105.544L365.046 101.335L381.885 96.8242V79.6844L351.815 91.7123L332.57 96.8242L307.011 81.1879L277.543 67.0552L236.347 72.7684L219.508 79.6844L199.061 81.7893L168.991 72.7684L161.173 79.6844H148.845L131.404 87.2019Z" fill="#DA5508"/>
<path d="M102.579 216.2L102.237 230.032L128.611 233.34L151.217 244.767L181.702 236.648L224.859 216.501L252.946 210.186L263.906 212.592L281.717 210.186L336.178 234.543L368.718 230.333L412.556 225.823L416.164 208.683L353.647 220.711L331.725 225.823L302.611 210.186L269.044 196.054L222.119 201.767L202.938 208.683L179.646 210.788L145.394 201.767L136.489 208.683H122.446L102.579 216.2Z" fill="#E75C1C"/>
<path d="M135.614 66.7546C133.449 68.4385 132.507 73.4701 132.306 75.7755L143.432 71.8664L160.572 74.272L171.397 64.6497L199.963 74.272H218.005L237.851 64.6497L279.046 61.342L308.815 74.272L333.172 92.6145L352.115 85.9992L381.884 71.265L382.787 61.342L353.92 79.9852L335.878 87.5027L311.822 70.3629L279.046 53.5239L236.047 61.342L219.508 67.9574L201.166 66.7546L171.397 59.8386L159.369 66.7546H135.614Z" fill="#F78E26"/>
<path d="M494.045 62.2441L473.297 73.9713L472.696 80.2859L493.444 70.363L505.772 72.1671V68.8595L505.171 67.6567L494.045 62.2441Z" fill="#DA5508"/>
<path d="M472.996 69.4605V71.5654L476.003 69.4605L483.22 66.1528L490.436 62.5445L495.548 60.1389L505.772 65.5514V64.6494L495.548 59.2368L490.436 61.6424L484.723 64.6494L472.996 69.4605Z" fill="#BA3300"/>
<path d="M494.045 76.9779L473.598 87.2016V101.936L494.045 87.2016L509.381 90.81L525.919 80.2856L549.373 72.7682L574.932 80.2856L595.981 107.95L610.415 101.936L629.659 96.2225L698.519 144.334V134.411L625.149 90.81L610.415 85.0967L590.268 90.81L576.737 72.7682L538.247 59.2368L525.919 62.5445L504.569 80.5863L494.045 76.9779Z" fill="#FF8825"/>
<path d="M473.597 51.419L473.296 55.0274L489.233 44.8037L495.848 40.5939L509.079 47.51L523.212 33.6779L532.533 32.4751L556.288 28.5661L580.344 42.6988L596.582 63.4469L614.624 57.433L628.155 49.6148L655.518 71.5657L699.119 100.433C708.501 91.0509 714.455 88.104 716.259 87.8033L724.077 85.3978C723.356 74.5727 727.786 74.4724 730.091 75.7755C733.7 72.6482 743.222 85.2975 747.532 92.0131L760.762 96.8242L781.21 104.943L792.335 120.279L815.489 127.195L813.384 122.083L792.335 117.272L781.21 102.537L760.762 95.3207L747.532 90.5096C745.727 85.498 739.714 75.1139 730.091 73.6706C718.063 71.8664 727.686 85.3978 718.364 85.3978C710.907 85.3978 702.427 94.4187 699.119 98.9291L679.273 85.3978L655.518 69.1601L628.155 47.51L614.624 55.6288L596.281 62.5448L580.344 40.5939L556.288 27.3633L537.345 30.3702L523.212 32.4751L509.079 46.3072L495.848 38.4891L489.233 42.9995L473.597 51.419Z" fill="#DA5508"/>
<path d="M472.696 86.6006L472.996 82.9923L488.633 74.5728L495.248 70.0623L508.479 77.8804L522.611 64.0484L536.744 61.9435L555.688 58.9365L579.744 72.1672L590.035 87.202L613.121 76.3769L627.555 79.0832L654.918 100.733L678.673 116.971L698.519 130.502C701.827 125.992 710.306 116.971 717.764 116.971C727.085 116.971 717.463 103.44 729.491 105.244C739.113 106.687 745.127 117.071 746.931 122.083L760.162 126.894L780.609 134.111L791.735 148.845L838.944 151.852L841.049 156.964L791.735 151.852L780.609 136.516L760.162 128.397L746.931 123.586C742.621 116.871 733.099 104.221 729.491 107.349C727.185 106.046 722.755 106.146 723.477 116.971L715.659 119.377C713.855 119.677 707.901 122.624 698.519 132.006L654.918 103.139L627.555 81.1881L613.121 77.5797L591.471 89.0062L590.035 87.202L579.744 74.2721L555.688 60.1393L531.933 64.0484L522.611 65.2512L508.479 79.0832L495.248 72.1672L488.633 76.3769L472.696 86.6006Z" fill="#AF4202"/>
<path d="M131.003 168.869L129.198 182.559L148.147 184.201L171.307 194.331L211.912 184.201L231.161 174.345L267.254 166.953H287.707L315.98 174.345L333.726 186.392L361.698 181.463L385.459 174.345V171.607L359.592 164.489L329.214 174.345L293.121 159.287L267.254 151.621L246.2 157.918L243.493 152.99L224.845 162.846L187.849 171.607L171.307 178.178L148.147 166.953L129.198 165.31L131.003 168.869Z" fill="#BF4B0B"/>
<path d="M150.348 180.117L129.901 178.915L129.3 177.11L132.006 177.712L151.551 180.117L174.404 191.243L185.229 186.131L208.984 178.915L224.32 172.901L246.572 158.467L282.354 159.971L320.843 169.292L336.179 178.915C343.506 176.727 350.015 176.277 359.634 175.306C362.473 173.699 362.776 172.424 371.361 172.6H386.997V173.502C374.668 175.306 379.48 174.404 370.158 174.404C360.535 175.908 349.452 178.165 336.48 180.719L319.941 170.194L282.354 160.873L246.572 159.971L228.229 172.299L209.586 180.117L185.229 187.033L174.404 192.145L168.39 189.74L150.348 180.117Z" fill="#D1440B"/>
<path d="M134.653 208.683L110.174 207.481L109.454 205.676L112.693 206.278L136.093 208.683L163.452 219.809L176.412 214.697L204.852 207.481L223.212 201.467L249.851 187.033L292.69 188.537L338.77 197.858L357.129 207.481C365.901 205.293 373.694 204.843 385.209 203.872C388.609 202.265 388.971 200.99 399.249 201.166H417.969V202.068C403.209 203.872 408.969 202.97 397.809 202.97C386.289 204.474 373.019 206.731 357.489 209.285L337.69 198.76L292.69 189.439L249.851 188.537L227.891 200.865L205.572 208.683L176.412 215.599L163.452 220.711L156.253 218.306L134.653 208.683Z" fill="#D1440B"/>
<path d="M488.632 49.0133L473.898 59.5377L473.297 60.1391L472.996 67.6565L497.052 56.23L510.884 66.153L528.324 49.0133L555.387 40.5938L579.142 66.153L592.372 80.5865L610.715 69.7614L626.351 66.153L659.729 80.5865L698.218 115.467V102.838L659.729 75.1739L626.351 52.0203L610.715 59.5377L594.778 66.153L579.142 42.9994L555.387 30.3701C548.27 31.7734 532.895 34.5799 528.324 34.5799C523.753 34.5799 514.793 46.2068 510.884 52.0203L497.052 42.9994L488.632 49.0133Z" fill="#F68F2A"/>
<path d="M495.549 109.754L472.094 120.88L471.192 124.489L495.549 111.559L503.367 118.174L537.947 97.7265L552.38 95.9223L586.058 130.803L611.317 122.384L629.96 120.88L655.519 130.803L697.015 166.285L719.267 147.041C718.545 128.277 726.784 132.206 730.994 136.516L759.861 149.146L782.413 157.264L794.441 170.495H827.819L841.951 178.915V176.208L827.819 168.691H794.441L782.413 155.46L759.861 147.041L734.001 136.516C732.999 134.612 729.551 130.803 723.777 130.803C718.004 130.803 717.363 139.824 717.764 144.335L697.015 163.88L655.519 128.698L629.058 118.174L611.317 120.88L587.862 128.698L583.653 124.489L553.583 94.1182L539.15 95.9223L527.723 101.936L504.87 115.768L495.549 109.754Z" fill="#F68F2A"/>
<path d="M666.946 151.251L637.477 142.831C637.477 152.934 634.47 164.281 632.967 168.691L653.414 163.278L670.554 171.698L697.617 182.824L718.064 175.306L734.602 163.278L754.749 168.691L777.301 199.362L795.343 194.25L823.308 199.362L849.769 201.768L842.853 190.341L826.916 182.824H795.343L782.714 175.306H777.301L763.77 157.265L734.602 142.831L718.064 157.265L697.617 168.691L681.98 163.278L666.946 151.251Z" fill="#FF9A45"/>
<path d="M492.542 118.475L471.192 131.405V143.432L488.933 135.013L495.849 140.425L506.674 138.321L514.192 143.432L524.115 135.013L540.352 128.097H544.863L549.373 135.013H562.303L571.023 143.432L577.037 154.257L599.59 143.432L610.415 154.257L615.527 140.425L634.771 162.978V154.257L637.778 131.405L625.75 121.782L610.415 128.097L585.758 135.013L582.149 128.097H571.023L565.611 118.475L549.373 106.146L537.045 109.754H530.429L524.115 118.475H517.499L506.674 128.097L492.542 118.475Z" fill="#FF8E31"/>
<path d="M488.332 95.6212L473.598 106.146L472.996 106.747L472.696 114.264L496.752 102.838L510.584 112.761L528.024 95.6212L555.087 87.2017L578.842 112.761L585.457 124.488L610.415 116.369L626.051 112.761L659.429 127.194L697.918 162.075V149.446L659.429 121.782L626.051 98.6282L610.415 106.146L594.478 112.761L578.842 89.6073L555.087 76.978C547.97 78.3813 532.595 81.1878 528.024 81.1878C523.453 81.1878 514.493 92.8147 510.584 98.6282L496.752 89.6073L488.332 95.6212Z" fill="#DA5508"/>
<path d="M629.46 224.21L624.62 259.638L619.435 283.256L640.868 272.185L695.142 237.126L713.81 239.71L744.577 251.888L762.207 242.662L780.184 227.9L802.654 234.543L836.878 245.245L855.891 242.662L858.657 237.126L866.608 231.222L858.657 222.365L846.211 227.9L836.878 218.305L817.173 222.365L805.074 224.21L792.974 212.77L780.184 202.068H770.504L766.01 212.77L734.206 218.305L701.019 216.091L670.598 224.21L667.487 216.091L647.091 212.77L629.46 224.21Z" fill="#D9560B"/>
<path d="M620.037 187.935L623.049 181.851L628.77 178.568L637.501 175.882L641.716 172.6H657.975L661.588 178.568L675.137 181.851H687.481L696.213 186.925H707.353L715.482 181.851L730.235 178.568L736.257 181.851H744.386H754.322L766.365 192.893L770.987 198.265L788.728 208.082L791.656 202.145L795.269 198.265L811.528 202.145L816.044 206.323H831.399H842.84H851.273" stroke="#AF4202" stroke-width="2.13551"/>
<path d="M619.435 193.95L625.148 188.282H630.1L638.944 185.555L643.213 182.223H659.68L663.34 188.282L677.063 191.614H689.566L698.41 196.765H709.693L717.927 191.614L732.869 188.282L738.968 191.614H747.202H757.266L769.464 202.824L772.818 212.215H784.711H795.08L798.739 208.277L815.207 212.215L819.781 216.457H835.334H846.922H854.546L856.985 222.516" stroke="#FF7C2C" stroke-width="2.13551"/>
<path d="M615.827 203.379L620.292 198.229L626.35 194.897L635.598 192.17L640.062 188.837H657.282L661.109 194.897L675.459 198.229H688.533L697.781 203.379H709.58L718.189 198.229L733.815 194.897L740.193 198.229H748.802H759.326L765.273 211.089L771.588 218.83H788.025H798.867L802.694 214.892L819.914 218.83L824.697 223.072H840.96H853.078H861.05L863.601 229.131" stroke="#F68F2A" stroke-width="2.13551"/>
<path d="M422.78 170.195L418.57 199.062L414.06 218.306L432.703 209.285L479.912 180.719L496.15 182.824L522.912 192.747L538.247 185.229L553.884 173.202L573.429 178.614L603.198 187.334L619.736 185.229L622.142 180.719L629.058 175.908L622.142 168.691L611.317 173.202L603.198 165.383L586.058 168.691L575.534 170.195L565.009 160.873L553.884 152.153H545.464L541.555 160.873L513.891 165.383L485.024 163.579L458.563 170.195L455.856 163.579L438.115 160.873L422.78 170.195Z" fill="#DA5508"/>
<path d="M393.011 156.663L422.178 161.474L439.017 153.355L457.059 156.663L464.276 164.782L488.031 153.355L503.667 156.663H523.814L541.555 143.432L561.401 148.544L567.716 156.663L580.646 164.782L599.589 156.663L608.69 164.589C608.827 164.709 609.017 164.75 609.192 164.698L619.182 161.728C619.714 161.57 620.289 161.698 620.703 162.066L630.862 171.096" stroke="#EE8D2D" stroke-width="2.13551"/>
<path opacity="0.8" d="M614.323 48.7127L604.4 46.6079C609.933 56.4707 610.113 78.3815 609.512 88.104L609.211 161.802C611.136 159.156 613.521 152.553 614.323 149.145L615.826 106.447L625.148 98.027V34.2793C616.728 37.6471 614.423 45.3048 614.323 48.7127Z" fill="#B24B0D"/>
<path opacity="0.8" d="M974.859 297.094C700.142 280.255 210.488 290.077 0 297.094C33.4375 286.51 57.834 284.865 65.8526 285.366C74.0315 256.499 105.545 210.192 105.545 210.192C105.745 209.388 128.037 246.448 154.257 248.376C173.13 252.931 186.849 250.299 212.893 242.963C285.361 255.893 339.787 241.46 408.346 258.299C444.129 269.316 529.828 248.677 587.261 255.995C616.128 260.103 620.337 255.995 663.638 243.264C675.966 226.726 721.672 221.915 773.693 223.418C807.672 225.523 838.552 239.371 865.405 237.25C878.534 236.214 887.456 258.103 907.804 284.163C935.468 284.163 964.034 292.784 974.859 297.094Z" fill="#933D09"/>
<g opacity="0.6">
<path d="M974.859 297.093C700.142 280.254 210.488 290.077 0 297.093C33.4375 286.509 57.834 284.865 65.8526 285.365C74.0315 256.498 95.7218 223.221 105.545 210.191C111.318 200.569 122.183 192.149 126.894 189.142C128.598 182.126 131.344 167.071 128.698 162.982C126.052 158.892 125.391 148.448 125.391 143.737C127.195 138.024 130.382 125.936 128.698 123.29C127.014 120.644 126.794 116.975 126.894 115.472L130.803 101.639C131.004 96.9286 131.525 85.1613 132.006 75.7796C132.487 66.3978 150.248 48.4162 159.069 40.598H170.796C179.456 39.6358 190.441 30.1739 194.852 25.5632C199.182 20.2709 201.266 19.7497 201.768 20.1507C204.173 22.5562 210.247 27.3674 215.299 27.3674C220.351 27.3674 224.821 22.5562 226.425 20.1507C235.085 12.2123 243.665 9.22535 246.872 8.72418C245.569 12.7426 241.7 21.9222 236.648 26.4927C234.443 36.0967 229.672 60.7227 228.229 82.3949C226.785 104.067 230.233 113.476 232.138 115.472C230.434 115.28 226.064 115.98 222.215 120.31L219.208 94.7509V54.1568C217.504 51.1316 212.773 44.7858 207.481 43.605C205.476 48.407 200.986 62.8877 199.061 82.3949C199.262 86.0124 199.843 94.2097 200.565 98.0586C201.286 101.908 200.865 110.086 200.565 113.695H212.292V209.617C227.728 211.02 262.989 217.736 280.55 233.372L360.836 246.872L391.808 211.089L456.157 231.536L496.45 202.701L528.625 218.939C537.145 214.228 557.372 204.385 570.121 202.701C559.998 196.195 536.323 182.216 522.611 178.345C505.471 173.506 472.094 169.894 418.871 199.963C413.959 192.756 397.641 176.11 387.297 174.404L411.654 175.638C415.563 175.538 423.622 172.631 424.584 161.806C425.546 150.981 426.188 141.86 426.388 138.653C426.889 136.247 429.094 132.338 433.905 135.946L434.808 121.212L436.912 117.576L448.64 119.381L457.961 151.856L469.688 141.331L472.094 107.653L473.898 26.4653L482.017 29.1992L488.332 37.6187V23.1852L494.045 18.9479L492.241 42.7305L497.954 54.1568H488.332L494.045 72.1988V104.674C494.646 108.683 497.593 118.025 504.569 123.317L506.073 47.5417C506.273 45.4368 505.592 40.5053 501.262 37.6187L503.066 26.4653L507.877 18.9479C513.65 8.60389 521.308 6.14573 525.919 6.0455L527.422 23.1852C527.923 26.7936 527.903 35.7543 523.814 42.7305L525.919 59.8702H537.947L540.653 125.723C541.856 125.203 544.261 122.847 544.261 117.576V42.7305C544.662 38.5207 547.569 30.2817 555.988 31.0033C556.89 28.1786 557.732 21.1514 553.883 15.6404C550.034 10.1295 552.681 6.94759 554.485 6.0455L555.086 1.207H557.492C563.258 1.00107 573.695 8.12571 580.165 13.2622V66.7862L592.072 77.6113C587.341 104.774 578.337 166.076 580.165 193.981C598.668 197.69 635.673 193.44 635.673 146.772L634.771 116.401C637.778 116.082 643.852 113.886 644.092 107.653C644.333 101.421 644.393 100.063 644.393 100.164H651.008V93.849C651.309 92.145 652.993 88.9777 657.323 89.9399C657.323 81.7026 660.691 65.1133 674.162 64.654L676.868 51.4234C676.568 50.421 676.688 48.1157 679.575 46.9129C682.461 45.7101 683.584 50.0203 683.784 52.3257C685.468 52.3257 686.491 51.7241 686.791 51.4234L698.519 39.0951C701.726 37.6918 709.223 35.4867 713.553 37.8923C717.883 40.2979 720.169 48.5169 720.77 52.3257C718.465 53.4373 714.155 57.8856 715.358 66.7862C710.546 66.2851 700.443 68.4701 698.519 81.2197V182.254C702.628 180.86 712.11 171.03 717.162 142.863V120.912C722.775 118.989 734.001 113.645 734.001 107.653V60.4446C737.369 51.7845 742.22 50.0204 744.224 50.2209C745.828 51.3235 750.539 54.7584 755.35 56.2619C760.317 57.8141 762.767 69.5655 764.371 74.5771H779.406C783.014 73.6148 784.317 79.9896 784.819 83.2973L787.525 87.835L782.413 93.5483L784.819 193.981C784.919 196.988 785.6 203.242 787.525 204.205C790.231 193.881 796.846 171.85 801.658 166.317L795.042 147.373C794.24 144.366 792.877 134.864 793.839 120.912C794.842 117.796 798.23 111.744 803.762 112.465C811.22 111.984 815.289 124.292 816.392 130.507L823.909 132.912C834.975 140.37 840.147 152.658 841.35 157.87C841.35 163.082 841.891 176.754 844.056 189.744C846.221 202.734 887.456 258.103 907.804 284.163C935.468 284.163 964.034 292.783 974.859 297.093Z" fill="url(#paint0_linear_135_2169)"/>
<path d="M360.836 43.605C366.128 42.8833 367.451 41.856 371.361 40.6532C369.957 42.4574 366.008 48.3836 366.249 58.9681H356.326C354.02 59.8702 349.41 62.817 349.41 67.3876V78.2127C346.102 74.1032 338.164 68.7107 332.871 80.0169L330.165 190.974H317.235C308.38 183.611 274.915 165.563 218.662 170.709C218.236 170.754 217.816 170.794 217.404 170.827C217.825 170.786 218.244 170.747 218.662 170.709C233.483 169.127 256.257 160.265 237.55 135.947C246.872 147.373 272.311 174.195 292.277 170.827C292.578 162.207 293.901 144.125 296.788 140.758C299.674 137.39 303.002 131.536 304.305 129.03V91.7441C305.608 83.6253 310.981 67.3876 322.046 67.3876H337.081L343.095 61.9751C342.794 58.7676 344.057 52.7134 351.515 54.1568L349.41 49.6189L351.515 46.9127C352.417 46.1108 355.544 44.3267 360.836 43.605Z" fill="url(#paint1_linear_135_2169)"/>
<path d="M268.221 24.388L260.103 18.0734L254.089 93.2476C255.773 121.633 262.007 138.753 264.914 143.765L263.711 76.1078L272.732 91.7441L275.438 15.3671L268.221 24.388Z" fill="url(#paint2_linear_135_2169)"/>
</g>
<path d="M130.75 169.368C129.93 169.137 129.54 171.875 129.198 172.931L223.819 164.759L245.289 155.649L277.743 156.96L287.482 158.999L323.209 169.627H357.636L376.61 176.179L387.595 173.558C385.597 170.701 386.929 167.697 382.006 166.775C377.083 165.853 374.257 169.655 373.46 171.671L371.409 167.927C369.814 167.063 366.691 165.047 366.965 163.895C367.238 162.743 365.256 160.919 364.23 160.151C363.774 159.191 361.974 157.501 358.419 158.423C354.863 159.344 351.696 158.423 350.556 157.847C349.873 156.983 348.368 154.966 347.821 153.814C347.275 152.662 344.403 153.91 343.036 154.678C342.352 155.638 340.574 156.983 338.934 154.678C336.882 151.798 335.857 152.95 334.831 152.662C333.806 152.374 332.78 153.526 331.413 154.966C330.319 156.119 328.678 155.254 327.994 154.678C324.166 155.139 323.209 158.519 323.209 160.151C323.095 160.823 322.593 162.052 321.499 161.591C320.406 161.13 318.993 161.783 318.423 162.167C317.055 163.031 314.389 164.241 314.663 162.167C314.936 160.093 312.497 159.191 311.244 158.999C312.611 158.077 311.13 156.695 310.219 156.119C310.105 155.735 310.082 154.794 310.902 154.102C311.723 153.411 309.649 152.47 308.509 152.086C308.167 151.894 307.21 152.202 306.116 154.966C305.022 157.731 303.382 156.887 302.698 156.119C302.698 155.254 302.903 153.411 303.723 152.95C304.749 152.374 303.382 151.222 302.698 150.07C302.014 148.918 300.305 149.206 299.28 149.782C298.254 150.358 296.545 148.63 296.545 148.054C296.545 147.478 292.784 150.07 292.443 148.918C292.169 147.996 290.961 147.958 290.392 148.054C289.298 145.519 288.568 146.23 288.34 146.902C288.614 149.897 285.948 151.798 284.58 152.374C283.896 152.374 282.803 151.913 283.896 150.07C284.99 148.227 282.073 146.806 280.478 146.326C280.205 142.87 278.541 143.35 277.743 144.022C277.971 144.982 277.948 146.96 276.034 147.19C274.12 147.42 274.553 149.974 275.009 151.222C273.983 151.51 272.137 151.51 272.957 149.206C273.778 146.902 271.704 146.326 270.565 146.326C270.337 145.174 269.471 142.812 267.83 142.582C266.189 142.351 264.639 143.254 264.069 143.734C263.158 142.678 261.061 141.545 259.967 145.462C258.873 149.379 257.005 149.59 256.207 149.206C256.093 149.302 255.318 148.803 253.13 146.038C250.943 143.273 247.205 144.118 245.61 144.886C245.496 144.598 244.653 144.195 242.191 144.886C239.73 145.577 240.254 147.094 240.824 147.766C241.394 148.438 242.191 149.725 240.824 149.494C239.115 149.206 241.166 151.798 239.115 152.086C237.474 152.317 236.608 153.911 236.38 154.679C235.696 154.967 234.329 155.139 234.329 153.527C234.329 151.914 233.189 150.742 232.62 150.358C232.05 150.07 230.432 149.84 228.518 151.222C226.603 152.605 225.669 151.414 225.441 150.646C225.669 150.166 225.304 149.149 222.023 148.918C217.92 148.63 213.476 154.967 212.109 152.951C211.015 151.338 209.602 152.279 209.032 152.951C209.032 153.527 208.212 154.736 204.93 154.967C201.649 155.197 201.284 157.367 201.512 158.423C201.854 159.191 201.854 160.554 199.119 159.863C196.384 159.172 194.561 161.303 193.991 162.455C194.105 162.167 194.128 161.476 193.308 161.015C192.487 160.554 190.231 160.631 189.205 160.727C188.978 160.727 188.453 160.785 188.18 161.015C187.838 161.303 188.18 161.591 187.154 161.591C186.334 161.591 185.901 161.975 185.787 162.167C185.787 161.975 185.582 161.476 184.761 161.015C183.941 160.554 182.596 160.823 182.027 161.015C182.027 160.823 181.822 160.381 181.001 160.151C180.181 159.921 180.204 160.439 180.317 160.727C180.09 160.727 179.565 160.554 179.292 159.863C179.018 159.172 177.811 159.575 177.241 159.863C177.127 159.959 176.831 160.093 176.557 159.863C176.284 159.633 175.76 159.767 175.532 159.863C175.19 159.959 174.301 160.093 173.481 159.863C172.66 159.633 172.455 158.423 172.455 157.847C172.227 157.463 171.566 156.637 170.746 156.407C169.925 156.176 168.353 156.887 167.669 157.271C167.327 157.271 166.507 157.156 165.96 156.695C165.276 156.119 163.567 157.559 162.542 157.271C161.516 156.983 161.858 159.287 161.174 159.287C160.627 159.287 160.49 160.439 160.49 161.015C160.263 161.015 159.807 161.13 159.807 161.591C159.807 162.052 159.123 161.783 158.781 161.591C158.553 161.303 157.892 161.015 157.072 162.167C156.252 163.319 155.819 162.839 155.705 162.455C155.705 162.071 155.363 161.073 153.995 160.151C152.286 158.999 151.603 161.879 150.577 161.879C149.551 161.879 149.21 163.319 148.526 163.319C147.842 163.319 147.842 164.183 147.5 165.047C147.159 165.911 145.791 165.047 145.449 164.759C145.107 164.471 144.766 165.623 144.082 165.623C143.398 165.623 143.74 165.911 144.082 166.199L144.082 166.2C144.424 166.488 143.056 167.064 142.715 166.775C142.373 166.487 142.031 167.351 141.347 167.928C140.8 168.389 140.663 167.736 140.663 167.351C140.436 167.064 139.775 166.43 138.954 166.2C137.929 165.912 137.587 167.064 136.903 167.064C136.356 167.064 136.22 168.024 136.22 168.504C136.22 168.408 136.014 168.158 135.194 167.928C134.374 167.697 134.396 168.216 134.51 168.504C134.282 168.792 133.69 169.31 133.143 169.08C132.596 168.85 132.003 169.752 131.776 170.232C131.776 170.04 131.57 169.598 130.75 169.368Z" fill="#574621"/>
<path opacity="0.9" d="M399.927 175.606L394.514 175.907C391.808 176.508 388.801 175.606 387.598 174.103L390.004 171.998L391.507 168.39C391.597 165.965 392.102 163.475 392.109 161.474C392.124 156.775 392.109 153.106 392.109 147.341C396.218 147.642 405.7 148.243 407.143 148.243C408.587 148.243 416.164 149.245 419.773 149.746L425.486 150.047L424.885 161.474L423.982 166.285L421.276 170.795L418.871 173.501L412.556 175.907L399.927 175.606Z" fill="#C0510E"/>
<path d="M416.765 65.8521L413.157 68.5583L412.856 70.3625L417.367 66.7541L422.478 68.2576V66.7541L416.765 65.8521Z" fill="#DA5508"/>
<path d="M440.46 179.739C438.553 179.235 420.452 182.98 418.598 184.657C420.259 188.345 418.597 186.151 415.92 205.434C414.938 212.505 438.636 205.434 447.611 191.521C471.446 187.437 483.434 179.355 484.953 177.852C487.496 175.336 495.936 179.739 497.525 179.739C503.881 183.512 504.514 174.707 508.487 172.191C512.459 169.675 515.476 172.897 519.449 174.155C523.421 175.413 529.446 170.304 532.624 167.788C535.802 165.272 535.008 167.788 538.981 167.788C542.953 167.788 543.748 172.191 546.926 175.336C550.104 178.481 550.104 172.191 556.46 170.933C561.545 169.927 561.132 173.368 569.967 175.336C569.967 176.175 570.847 175.336 576.567 175.336C583.718 175.336 577.08 168.616 574.696 168.616C572.313 168.616 573.107 156.466 574.696 154.579C576.286 152.692 554.871 162.756 551.693 159.611C549.15 157.095 545.337 158.563 543.748 159.611C541.364 160.66 542.159 155.937 538.981 151.408C535.008 145.747 525.138 149.521 517.987 151.408C510.836 153.295 514.51 157.095 503.386 154.579C492.263 152.063 493.852 169.046 491.469 167.788C489.085 166.53 490.515 170.933 488.926 172.191C487.654 173.197 485.748 172.942 484.953 173.571C482.834 173.571 478.714 172.588 479.985 170.072C481.575 166.927 474.624 168.417 471.446 167.788C468.268 167.159 470.009 174.155 466.831 174.155C463.653 174.155 465.885 176.594 462.706 179.739C460.164 182.254 456.35 179.529 454.761 177.852V175.336H450.789C449.729 175.546 447.611 176.342 447.611 177.852C447.611 179.739 442.843 180.368 440.46 179.739Z" fill="#574621"/>
<path d="M419.472 68.2578L412.857 70.9641L412.556 72.4676L417.668 70.062L422.479 71.5655V70.062L419.472 68.2578Z" fill="#FF9D3D"/>
<path d="M974.859 297.093C700.142 280.254 210.488 290.076 0 297.093C33.4375 286.509 57.834 284.864 65.8526 285.365C74.0315 256.498 105.545 210.191 105.545 210.191C105.745 209.387 128.037 246.447 154.257 248.375C173.13 252.93 186.849 250.298 212.893 242.962C285.361 255.892 339.787 241.459 408.346 258.298C444.129 269.315 529.828 248.676 587.261 255.994C616.128 260.102 620.337 255.994 663.638 243.263C675.966 226.725 721.672 221.914 773.693 223.417C807.672 225.522 838.552 239.37 865.405 237.249C878.534 236.213 887.456 258.102 907.804 284.162C935.468 284.162 964.034 292.783 974.859 297.093Z" fill="#CD6E25"/>
<path d="M408.947 93.8175C407.985 99.3504 405.339 102.538 404.136 103.44L417.667 100.132H425.185L436.311 106.747L435.108 97.4259L425.185 92.6147H420.975L408.947 93.8175Z" fill="#F7902C"/>
<path d="M402.934 112.16C405.339 112.461 406.642 111.358 408.346 110.958L411.353 111.559C413.157 112.762 413.278 112.281 414.961 111.559C419.532 110.837 419.773 111.258 420.374 110.356C420.975 109.755 420.915 109.574 421.877 110.055C423.08 110.657 423.08 110.356 423.982 110.356C424.704 110.356 428.493 110.156 430.297 110.055L430.898 109.755L433.605 109.153H435.108L435.71 109.454H436.311H436.612" stroke="#DC6F05" stroke-width="1.06775"/>
<path d="M409.85 89.6073L411.955 78.1808L417.668 75.1738L421.878 78.7822L421.578 89.6073L418.571 87.8031L409.85 89.6073Z" fill="#F66603"/>
<path d="M429.395 68.2578L425.486 69.1599V70.3627H429.395V68.2578Z" fill="#DA5508"/>
<path d="M429.395 72.1669L425.486 72.7683L425.186 76.6773L426.689 76.3766L427.29 75.1738L429.395 76.6773V72.1669Z" fill="#DA5508"/>
<path d="M429.095 81.188L424.885 82.3908L424.284 89.6075L428.193 89.3068L435.109 94.7193V91.111L429.095 82.3908V81.188Z" fill="#DA5508"/>
<path d="M397.521 147.642L395.417 147.341H392.109V149.145L394.214 148.243L396.018 148.544L398.424 148.845C399.125 148.745 400.589 148.544 400.829 148.544C401.07 148.544 403.535 148.243 404.738 148.243L407.745 148.544L409.249 149.446H412.857H415.263L418.57 150.048C419.573 150.348 421.697 150.95 422.179 150.95C423.094 150.95 423.381 151.551 424.584 151.551L425.486 152.152L426.088 149.145L425.787 148.544L424.283 148.243C423.482 148.344 421.758 148.544 421.276 148.544C420.795 148.544 418.27 148.344 417.067 148.243C416.465 148.043 414.842 147.642 413.158 147.642H410.151H406.242C405.761 147.642 404.437 147.442 403.836 147.341L401.731 147.943L397.521 147.642Z" fill="#D35B12"/>
<path d="M358.066 245.285C356.758 244.846 354.998 250.488 354.453 252.5L769.415 251.119C769.052 248.741 766.364 242.101 758.518 240.344C750.673 238.588 746.317 243.48 745.046 247.323L741.628 242.54C739.086 240.893 734.11 237.051 734.546 234.855C734.981 232.659 731.821 229.183 730.187 227.719C729.46 225.889 726.591 222.669 720.925 224.426C715.258 226.182 710.21 224.426 708.394 223.328C707.304 221.681 704.907 217.839 704.035 215.643C703.163 213.447 698.587 215.826 696.407 217.29C695.318 219.119 692.484 221.681 689.869 217.29C686.6 211.801 684.966 213.996 683.331 213.447C681.697 212.898 680.062 215.094 677.883 217.839C676.139 220.034 673.524 218.388 672.435 217.29C666.332 218.168 664.807 224.609 664.807 227.719C664.625 229 663.826 231.342 662.083 230.464C660.339 229.585 658.087 230.83 657.179 231.561C655 233.208 650.75 235.514 651.186 231.561C651.622 227.609 647.735 225.889 645.738 225.523C647.917 223.767 645.556 221.132 644.103 220.034C643.922 219.302 643.885 217.509 645.193 216.192C646.5 214.874 643.195 213.081 641.379 212.349C640.834 211.983 639.309 212.569 637.565 217.839C635.822 223.108 633.207 221.498 632.117 220.034C632.117 218.387 632.444 214.874 633.751 213.996C635.386 212.898 633.207 210.703 632.117 208.507C631.027 206.311 628.303 206.86 626.669 207.958C625.034 209.056 622.31 205.762 622.31 204.665C622.31 203.567 616.317 208.507 615.772 206.311C615.336 204.555 613.411 204.482 612.503 204.665C610.759 199.834 609.597 201.188 609.234 202.469C609.67 208.178 605.42 211.801 603.241 212.898C602.151 212.898 600.408 212.02 602.151 208.507C603.894 204.994 599.245 202.286 596.703 201.371C596.267 194.784 593.615 195.699 592.344 196.98C592.707 198.81 592.671 202.579 589.62 203.018C586.569 203.457 587.259 208.324 587.985 210.703C586.351 211.252 583.409 211.252 584.716 206.86C586.024 202.469 582.719 201.371 580.902 201.371C580.539 199.176 579.159 194.675 576.544 194.236C573.929 193.796 571.459 195.516 570.551 196.431C569.098 194.418 565.756 192.259 564.013 199.724C562.269 207.19 559.291 207.592 558.02 206.86C557.838 207.043 556.603 206.092 553.116 200.823C549.629 195.553 543.672 197.163 541.13 198.627C540.948 198.078 539.604 197.309 535.681 198.627C531.759 199.944 532.594 202.835 533.502 204.116C534.41 205.397 535.681 207.849 533.502 207.41C530.778 206.861 534.047 211.801 530.778 212.35C528.163 212.789 526.782 215.826 526.419 217.29C525.329 217.839 523.15 218.168 523.15 215.094C523.15 212.02 521.334 209.788 520.426 209.056C519.518 208.507 516.939 208.068 513.888 210.703C510.837 213.338 509.348 211.069 508.984 209.605C509.348 208.69 508.767 206.751 503.536 206.312C496.998 205.763 489.915 217.839 487.736 213.997C485.993 210.923 483.741 212.716 482.832 213.997C482.832 215.094 481.525 217.4 476.294 217.839C471.064 218.278 470.483 222.413 470.846 224.426C471.391 225.89 471.391 228.488 467.032 227.171C462.674 225.853 459.768 229.915 458.86 232.111C459.041 231.562 459.078 230.244 457.77 229.366C456.463 228.488 452.867 228.634 451.232 228.817C450.869 228.817 450.033 228.927 449.598 229.366C449.053 229.915 449.598 230.464 447.963 230.464C446.656 230.464 445.965 231.196 445.784 231.562C445.784 231.196 445.457 230.244 444.149 229.366C442.842 228.488 440.699 229 439.791 229.366C439.791 229 439.464 228.159 438.156 227.719C436.849 227.28 436.885 228.268 437.066 228.817C436.703 228.817 435.868 228.488 435.432 227.171C434.996 225.853 433.071 226.622 432.163 227.171C431.981 227.354 431.509 227.61 431.073 227.171C430.637 226.731 429.802 226.988 429.439 227.171C428.894 227.354 427.477 227.61 426.17 227.171C424.862 226.731 424.535 224.426 424.535 223.328C424.172 222.596 423.119 221.023 421.811 220.584C420.504 220.144 417.997 221.498 416.908 222.23C416.363 222.23 415.055 222.011 414.183 221.133C413.094 220.035 410.37 222.779 408.735 222.23C407.101 221.681 407.645 226.073 406.556 226.073C405.684 226.073 405.466 228.268 405.466 229.366C405.103 229.366 404.376 229.586 404.376 230.464C404.376 231.342 403.287 230.83 402.742 230.464C402.379 229.915 401.325 229.366 400.018 231.562C398.71 233.757 398.02 232.843 397.838 232.111C397.838 231.379 397.294 229.476 395.114 227.719C392.39 225.524 391.3 231.013 389.666 231.013C388.031 231.013 387.487 233.758 386.397 233.758C385.307 233.758 385.307 235.404 384.762 237.051C384.218 238.698 382.038 237.051 381.493 236.502C380.949 235.953 380.404 238.149 379.314 238.149C378.225 238.149 378.769 238.698 379.314 239.247L379.314 239.247C379.859 239.796 377.68 240.894 377.135 240.345C376.59 239.796 376.045 241.443 374.955 242.541C374.084 243.419 373.866 242.175 373.866 241.443C373.503 240.894 372.449 239.686 371.142 239.247C369.507 238.698 368.962 240.894 367.873 240.894C367.001 240.894 366.783 242.724 366.783 243.638C366.783 243.455 366.456 242.98 365.148 242.541C363.841 242.101 363.877 243.09 364.059 243.638C363.696 244.187 362.751 245.175 361.879 244.736C361.008 244.298 360.063 246.017 359.7 246.932C359.7 246.566 359.373 245.724 358.066 245.285Z" fill="#66620B"/>
<path d="M281.514 10.3084C280.071 9.82729 279.71 11.5112 279.71 12.4133C279.209 12.0124 277.906 11.2106 276.703 11.2106C275.5 11.2106 276.202 13.2152 276.703 14.2176C277.706 14.2176 280.071 14.398 281.514 15.1196C282.958 15.8413 287.866 15.721 288.668 15.1196C288.468 14.5182 287.706 12.4133 288.668 12.4133C291.312 12.4133 283.319 10.9098 281.514 10.3084Z" fill="#574621"/>
<path d="M318.094 28.3499C316.651 27.8688 316.29 29.5527 316.29 30.4548C315.789 30.0539 316.227 30.4548 315.024 30.4548C313.821 30.4548 315.123 31.4726 315.624 32.4749C315.925 33.0763 316.651 32.4395 318.094 33.1611C319.537 33.8828 321.502 32.8605 322.304 32.2591C322.103 31.6576 321.462 30.4548 320.5 30.4548C319.297 30.4548 319.898 28.9513 318.094 28.3499Z" fill="#574621"/>
<path d="M311.686 18.47C309.712 16.6807 308.046 18.491 307.46 19.6198C306.927 18.7059 305.384 16.6307 303.479 15.6412C301.573 14.6518 301.382 17.7375 301.524 19.404C303.112 20.2285 306.742 22.4002 308.559 24.4906C310.376 26.581 314.152 26.9178 315.813 26.8248C315.886 25.9073 315.652 23.8744 314.128 23.0829C312.223 22.0934 314.153 20.7067 311.686 18.47Z" fill="#574621"/>
<path d="M296.71 8.92663C295.892 7.64393 294.551 8.7247 293.983 9.42543C293.846 8.7984 293.339 7.35497 292.404 6.59749C291.47 5.84 290.753 7.83903 290.511 8.93323C291.289 9.56447 293.013 11.1943 293.68 12.6639C294.346 14.1335 296.516 14.5765 297.518 14.6144C297.741 14.021 298 12.6826 297.253 12.0766C296.318 11.3191 297.732 10.53 296.71 8.92663Z" fill="#574621"/>
<path d="M399.626 136.817L397.822 139.824L400.228 137.719C400.929 137.418 402.453 136.636 402.934 135.915C403.415 135.193 404.538 135.614 405.039 135.915C410.09 133.99 411.554 135.113 411.654 135.915L417.067 132.607L421.878 130.201L427.892 131.404L434.206 132.607V130.201H427.892L420.675 128.999C417.768 131.003 411.774 134.772 411.053 133.81C410.151 132.607 406.242 134.712 405.039 133.81C404.077 133.088 401.029 135.514 399.626 136.817Z" fill="#AB470D"/>
<path d="M476.003 147.04L458.562 152.152V153.656L476.003 148.243L485.625 147.04H493.744L508.177 155.46L509.38 153.656L539.751 135.313L545.163 136.817L549.974 140.124H556.289H563.205L566.212 144.033L571.023 152.152L572.226 156.963L576.135 158.467L581.848 159.369L586.359 155.46L597.184 153.656L601.393 152.152L606.505 155.46L611.918 160.271L615.526 153.656L618.533 152.152L621.54 153.656L626.652 161.173L633.267 166.886V165.082L626.652 159.369L621.54 152.152L618.533 150.348L615.526 152.152L611.617 158.767L606.505 153.656L601.393 150.348L597.184 152.152L586.359 153.656L581.848 156.963H575.233L572.226 150.348L566.212 142.229L564.408 138.32H556.289H549.974L545.163 135.313L539.751 134.11L528.625 140.124L508.177 153.656L493.744 145.537L476.003 147.04Z" fill="#AF4202"/>
<defs>
<linearGradient id="paint0_linear_135_2169" x1="0" y1="149.148" x2="974.859" y2="149.148" gradientUnits="userSpaceOnUse">
<stop offset="0.486962" stop-color="#A43F0D"/>
<stop offset="1" stop-color="#DA5508"/>
</linearGradient>
<linearGradient id="paint1_linear_135_2169" x1="0" y1="149.148" x2="974.859" y2="149.148" gradientUnits="userSpaceOnUse">
<stop offset="0.486962" stop-color="#A43F0D"/>
<stop offset="1" stop-color="#DA5508"/>
</linearGradient>
<linearGradient id="paint2_linear_135_2169" x1="0" y1="149.148" x2="974.859" y2="149.148" gradientUnits="userSpaceOnUse">
<stop offset="0.486962" stop-color="#A43F0D"/>
<stop offset="1" stop-color="#DA5508"/>
</linearGradient>
</defs>
</svg>
