<svg xmlns="http://www.w3.org/2000/svg" width="580" height="320" viewBox="0 0 580 320" font-family="Arial, Helvetica, sans-serif">
<rect width="580" height="320" fill="white"/>
<text x="290" y="28" text-anchor="middle" font-size="17" fill="#333" font-weight="bold" font-style="normal">RS_ScaleX</text><text x="290" y="48" text-anchor="middle" font-size="12" fill="#666" font-weight="normal" font-style="normal">Returns the pixel width of the raster in CRS units</text><rect x="90" y="80" width="350" height="200" fill="#E3F2FD" stroke="#1565C0" stroke-width="1.5"/>
<line x1="160" y1="80" x2="160" y2="280" stroke="#1565C0" stroke-width="0.8" opacity="0.5"/>
<line x1="230" y1="80" x2="230" y2="280" stroke="#1565C0" stroke-width="0.8" opacity="0.5"/>
<line x1="300" y1="80" x2="300" y2="280" stroke="#1565C0" stroke-width="0.8" opacity="0.5"/>
<line x1="370" y1="80" x2="370" y2="280" stroke="#1565C0" stroke-width="0.8" opacity="0.5"/>
<line x1="90" y1="130" x2="440" y2="130" stroke="#1565C0" stroke-width="0.8" opacity="0.5"/>
<line x1="90" y1="180" x2="440" y2="180" stroke="#1565C0" stroke-width="0.8" opacity="0.5"/>
<line x1="90" y1="230" x2="440" y2="230" stroke="#1565C0" stroke-width="0.8" opacity="0.5"/><line x1="90" y1="300" x2="160" y2="300" stroke="#D32F2F" stroke-width="2.2"/>
<polygon points="160,300 154.1,303.8 154.1,296.2" fill="#D32F2F"/>
<polygon points="90,300 95.9,296.2 95.9,303.8" fill="#D32F2F"/><text x="125.0" y="322" text-anchor="middle" font-size="12" fill="#D32F2F" font-weight="bold" font-style="normal">ScaleX = pixel width</text><text x="125.0" y="340" text-anchor="middle" font-size="10" fill="#666" font-weight="normal" font-style="normal">(in CRS units, e.g., degrees or meters)</text><line x1="90" y1="355" x2="440" y2="355" stroke="#1565C0" stroke-width="1.5"/>
<polygon points="440,355 434.1,358.8 434.1,351.2" fill="#1565C0"/>
<polygon points="90,355 95.9,351.2 95.9,358.8" fill="#1565C0"/><text x="265.0" y="373" text-anchor="middle" font-size="11" fill="#1565C0" font-weight="normal" font-style="normal">Width × ScaleX = 5 × ScaleX</text><line x1="90" y1="80" x2="90" y2="295" stroke="#D32F2F" stroke-width="1" stroke-dasharray="3,3"/><line x1="160" y1="80" x2="160" y2="295" stroke="#D32F2F" stroke-width="1" stroke-dasharray="3,3"/><text x="125.0" y="109.0" text-anchor="middle" font-size="10" fill="#1565C0" font-weight="bold" font-style="normal">col 1</text><text x="195.0" y="109.0" text-anchor="middle" font-size="10" fill="#1565C0" font-weight="bold" font-style="normal">col 2</text><text x="265.0" y="109.0" text-anchor="middle" font-size="10" fill="#1565C0" font-weight="bold" font-style="normal">col 3</text><text x="335.0" y="109.0" text-anchor="middle" font-size="10" fill="#1565C0" font-weight="bold" font-style="normal">col 4</text><text x="405.0" y="109.0" text-anchor="middle" font-size="10" fill="#1565C0" font-weight="bold" font-style="normal">col 5</text></svg>